<svg width="24" height="24" viewBox="0 0 24 24" fill="none" xmlns="http://www.w3.org/2000/svg">
<path opacity="0.2" d="M12 22C17.5228 22 22 17.5228 22 12C22 6.47715 17.5228 2 12 2C6.47715 2 2 6.47715 2 12C2 17.5228 6.47715 22 12 22Z" fill="#027DE2"/>
<path d="M13.0601 12L15.3601 9.7C15.6501 9.41 15.6501 8.93 15.3601 8.64C15.0701 8.35 14.5901 8.35 14.3001 8.64L12.0001 10.94L9.70011 8.64C9.41011 8.35 8.93011 8.35 8.64011 8.64C8.35011 8.93 8.35011 9.41 8.64011 9.7L10.9401 12L8.64011 14.3C8.35011 14.59 8.35011 15.07 8.64011 15.36C8.79011 15.51 8.98011 15.58 9.17011 15.58C9.36011 15.58 9.55011 15.51 9.70011 15.36L12.0001 13.06L14.3001 15.36C14.4501 15.51 14.6401 15.58 14.8301 15.58C15.0201 15.58 15.2101 15.51 15.3601 15.36C15.6501 15.07 15.6501 14.59 15.3601 14.3L13.0601 12Z" fill="#027DE2"/>
</svg>
