<svg width="24" height="24" viewBox="0 0 24 24" fill="none" xmlns="http://www.w3.org/2000/svg">
<path d="M15.2404 2.33156C15.1816 2.2684 15.1106 2.21774 15.0317 2.18261C14.9529 2.14747 14.8678 2.12858 14.7814 2.12705C14.6951 2.12553 14.6094 2.14141 14.5293 2.17374C14.4493 2.20607 14.3766 2.2542 14.3155 2.31524C14.2545 2.37629 14.2064 2.449 14.174 2.52905C14.1417 2.6091 14.1258 2.69483 14.1273 2.78115C14.1289 2.86747 14.1478 2.95259 14.1829 3.03145C14.218 3.11031 14.2687 3.18128 14.3318 3.24013L17.5204 6.4287H4.92899C4.75849 6.4287 4.59498 6.49643 4.47442 6.61699C4.35386 6.73755 4.28613 6.90106 4.28613 7.07156C4.28613 7.24206 4.35386 7.40557 4.47442 7.52613C4.59498 7.64669 4.75849 7.71442 4.92899 7.71442H17.5204L14.3318 10.903C14.2687 10.9618 14.218 11.0328 14.1829 11.1117C14.1478 11.1905 14.1289 11.2757 14.1273 11.362C14.1258 11.4483 14.1417 11.534 14.174 11.6141C14.2064 11.6941 14.2545 11.7668 14.3155 11.8279C14.3766 11.8889 14.4493 11.937 14.5293 11.9694C14.6094 12.0017 14.6951 12.0176 14.7814 12.0161C14.8678 12.0145 14.9529 11.9957 15.0317 11.9605C15.1106 11.9254 15.1816 11.8747 15.2404 11.8116L19.5261 7.52585C19.6465 7.40531 19.7141 7.24192 19.7141 7.07156C19.7141 6.9012 19.6465 6.73781 19.5261 6.61727L15.2404 2.33156ZM9.66899 13.0973C9.73215 13.0384 9.78281 12.9674 9.81795 12.8886C9.85308 12.8097 9.87197 12.7246 9.8735 12.6383C9.87502 12.552 9.85914 12.4662 9.82681 12.3862C9.79448 12.3061 9.74635 12.2334 9.68531 12.1724C9.62426 12.1113 9.55155 12.0632 9.4715 12.0309C9.39146 11.9986 9.30572 11.9827 9.2194 11.9842C9.13308 11.9857 9.04796 12.0046 8.9691 12.0397C8.89024 12.0749 8.81927 12.1255 8.76042 12.1887L4.4747 16.4744C4.35432 16.595 4.2867 16.7583 4.2867 16.9287C4.2867 17.0991 4.35432 17.2625 4.4747 17.383L8.76042 21.6687C8.81927 21.7319 8.89024 21.7825 8.9691 21.8177C9.04796 21.8528 9.13308 21.8717 9.2194 21.8732C9.30572 21.8747 9.39146 21.8589 9.4715 21.8265C9.55155 21.7942 9.62426 21.7461 9.68531 21.685C9.74635 21.624 9.79448 21.5513 9.82681 21.4712C9.85914 21.3912 9.87502 21.3054 9.8735 21.2191C9.87197 21.1328 9.85308 21.0477 9.81795 20.9688C9.78281 20.89 9.73215 20.819 9.66899 20.7601L6.48042 17.5716H19.0718C19.2423 17.5716 19.4059 17.5038 19.5264 17.3833C19.647 17.2627 19.7147 17.0992 19.7147 16.9287C19.7147 16.7582 19.647 16.5947 19.5264 16.4741C19.4059 16.3536 19.2423 16.2858 19.0718 16.2858H6.48042L9.66899 13.0973Z" fill="#027DE2"/>
</svg>
