<?xml version="1.0" encoding="UTF-8"?>
<svg version="1.1" xmlns="http://www.w3.org/2000/svg" width="512" height="512">
<path d="M0 0 C0.72622559 0.18723633 1.45245117 0.37447266 2.20068359 0.56738281 C12.55369191 3.32405874 22.34631753 7.38921393 32 12 C32.94141846 12.44617676 32.94141846 12.44617676 33.90185547 12.90136719 C48.52736451 19.94567641 61.30774243 29.78660622 73 41 C73.81726563 41.76570313 74.63453125 42.53140625 75.4765625 43.3203125 C102.15330904 69.00597248 120.4084337 107.56393613 122.17700195 144.71850586 C122.47000228 163.82656293 122.47289669 182.29486927 118 201 C117.75862305 202.01562012 117.51724609 203.03124023 117.26855469 204.07763672 C112.28711845 224.40753595 104.73567039 243.56634229 95.00488281 262.07568359 C93.98069048 264.03697707 92.98494706 266.01091524 91.9921875 267.98828125 C83.96372501 283.7859812 74.1850407 298.52402203 64 313 C64.93072327 313.00364563 65.86144653 313.00729126 66.82037354 313.01104736 C75.59015826 313.04798333 84.35959139 313.10574037 93.12910843 313.18390274 C97.63768219 313.22341776 102.14605946 313.25558636 106.65478516 313.27099609 C111.00573036 313.28613637 115.35613553 313.32053453 119.70684052 313.36830902 C121.36697446 313.38315008 123.02718549 313.39104258 124.68738556 313.39188385 C127.01255413 313.39424719 129.33622255 313.42127256 131.66113281 313.45410156 C132.3480571 313.4490712 133.03498138 313.44404083 133.74272156 313.43885803 C137.06782685 313.51153232 138.73777289 313.79221278 141.37731934 315.8837738 C143.17510337 318.22836184 144.30795799 320.42026732 145.453125 323.14453125 C145.89873779 324.19278076 146.34435059 325.24103027 146.8034668 326.32104492 C147.28082275 327.4732251 147.75817871 328.62540527 148.25 329.8125 C148.77124075 331.05146204 149.29315211 332.29014211 149.81567383 333.52856445 C151.56098749 337.67862798 153.28264783 341.83830062 155 346 C155.30266785 346.73311401 155.60533569 347.46622803 155.91717529 348.22155762 C159.21412512 356.21239288 162.49352985 364.21036545 165.76408386 372.21203613 C170.2458978 383.17653365 174.76961634 394.12317909 179.3125 405.0625 C180.72674382 408.46867475 182.1408193 411.87491931 183.5546875 415.28125 C183.91151611 416.14092377 184.26834473 417.00059753 184.63598633 417.88632202 C187.41234015 424.57775165 190.1803852 431.2725916 192.9453125 437.96875 C193.35947418 438.97154495 193.77363586 439.9743399 194.2003479 441.00752258 C196.25762623 445.98978595 198.31266081 450.97295706 200.36376953 455.95776367 C203.6669437 463.97942298 206.97315672 471.99666248 210.421875 479.95703125 C211.14129272 481.63043579 211.14129272 481.63043579 211.87524414 483.33764648 C212.70827667 485.26578744 213.55253753 487.18914652 214.41186523 489.10571289 C216.66136 494.32678151 217.76270691 498.30105398 217 504 C215.49149323 506.19656706 215.49149323 506.19656706 213 508 C210.08929519 508.39191054 207.55782986 508.53755941 204.64782715 508.50336456 C203.79346982 508.50917833 202.93911249 508.51499209 202.05886555 508.52098203 C199.17633135 508.53565972 196.29463833 508.52166066 193.41210938 508.50793457 C191.33260409 508.51254041 189.25310205 508.51889118 187.17360687 508.52684355 C181.44388556 508.54360347 175.71442937 508.53526025 169.98470688 508.52289867 C163.8114819 508.51387771 157.63830369 508.5278032 151.46508789 508.53881836 C140.06561315 508.55560886 128.66624697 508.55410901 117.26677489 508.54317249 C106.73667871 508.53311935 96.20661367 508.53047921 85.67651367 508.53526306 C84.97865035 508.5355686 84.28078703 508.53587414 83.56177634 508.53618894 C80.7290851 508.53743425 77.89639388 508.53870784 75.06370267 508.540028 C48.4784206 508.55227032 21.89319263 508.54116014 -4.69208109 508.51964041 C-28.32339555 508.50065727 -51.9546238 508.50235576 -75.5859375 508.52148438 C-102.12187778 508.54289226 -128.65777024 508.55140218 -155.19371796 508.53903532 C-158.02131652 508.53775241 -160.84891509 508.53650105 -163.67651367 508.53526306 C-164.37276582 508.53494675 -165.06901797 508.53463044 -165.78636867 508.53430455 C-176.31112411 508.52975025 -186.83584504 508.53508395 -197.3605957 508.54518127 C-209.3249731 508.55660237 -221.28924863 508.5534069 -233.25362206 508.5320583 C-239.36240802 508.52151871 -245.47101865 508.51747552 -251.57980347 508.53065491 C-257.16578634 508.54252444 -262.75143043 508.53610639 -268.33738232 508.5147447 C-270.36423499 508.51025548 -272.39111596 508.51259643 -274.41795063 508.52224785 C-277.16165651 508.53431639 -279.90418405 508.52203461 -282.64782715 508.50336456 C-283.84323514 508.51741156 -283.84323514 508.51741156 -285.06279278 508.53174233 C-288.56223139 508.48376407 -290.6193557 508.27433984 -293.49422455 506.20235014 C-295.75643322 502.89363929 -295.58899825 499.81504673 -295 496 C-294.20096206 493.16775834 -293.0873072 490.53890569 -291.88671875 487.85546875 C-291.56120529 487.09616562 -291.23569183 486.33686249 -290.90031433 485.55455017 C-289.84214524 483.09312657 -288.76473087 480.64063249 -287.6875 478.1875 C-286.95094141 476.48038542 -286.21609134 474.7725327 -285.48291016 473.06396484 C-284.01481766 469.64367853 -282.54158064 466.22568617 -281.06494141 462.80908203 C-278.25223287 456.28102989 -275.54991645 449.71062988 -272.875 443.125 C-272.46338623 442.11977295 -272.05177246 441.1145459 -271.62768555 440.07885742 C-269.3603673 434.50320442 -267.20545793 428.89341881 -265.11328125 423.25 C-262.33146161 415.76542021 -259.32047713 408.39244568 -256.22164917 401.03427124 C-254.59687643 397.17536099 -252.98292543 393.31191844 -251.3671875 389.44921875 C-250.84979256 388.21335777 -250.84979256 388.21335777 -250.32194519 386.95252991 C-246.24912655 377.21825299 -242.2166322 367.46732421 -238.18807983 357.71466064 C-237.36477938 355.72177488 -236.54107972 353.72905398 -235.71694946 351.73651123 C-234.929204 349.83193582 -234.14190666 347.92717498 -233.35508728 346.0222168 C-232.60403043 344.20392894 -231.85198991 342.38604704 -231.09889221 340.56860352 C-229.43759414 336.5470645 -227.80221518 332.52077517 -226.25048828 328.45556641 C-225.85078575 327.4176873 -225.85078575 327.4176873 -225.44300842 326.35884094 C-224.74928476 324.54579655 -224.06850356 322.72781412 -223.38891602 320.90942383 C-221.872471 317.73285936 -220.77690256 316.15664882 -218 314 C-215.37881671 313.62545019 -213.18430138 313.49188804 -210.56933594 313.54589844 C-209.82748047 313.54531433 -209.085625 313.54473022 -208.32128906 313.54412842 C-205.87517098 313.54690975 -203.43027953 313.57800214 -200.984375 313.609375 C-199.28615993 313.61683726 -197.58793624 313.62253027 -195.88970947 313.62652588 C-191.4244399 313.64178349 -186.95969247 313.68106611 -182.49462891 313.7253418 C-177.93659529 313.76629193 -173.37847713 313.78453633 -168.8203125 313.8046875 C-159.87997919 313.84756047 -150.94003305 313.91581315 -142 314 C-142.42100983 313.38755936 -142.84201965 312.77511871 -143.27578735 312.14411926 C-145.22017885 309.3126081 -147.16088323 306.47858787 -149.1015625 303.64453125 C-149.76357666 302.68164185 -150.42559082 301.71875244 -151.10766602 300.72668457 C-157.49307708 291.39159773 -163.39147409 281.81907481 -169 272 C-169.40412109 271.29633301 -169.80824219 270.59266602 -170.22460938 269.86767578 C-182.26014974 248.69459996 -191.24161464 225.52241789 -196.75 201.8125 C-196.94891846 200.95833496 -197.14783691 200.10416992 -197.3527832 199.22412109 C-200.31070942 185.81637831 -201.41040527 172.61948186 -201.375 158.9375 C-201.37478851 158.17641937 -201.37457703 157.41533875 -201.37435913 156.63119507 C-201.33883547 143.7573206 -200.29467034 131.49573754 -197 119 C-196.71116943 117.90268555 -196.71116943 117.90268555 -196.41650391 116.78320312 C-185.37462455 76.30553678 -159.39561989 39.66384757 -122.94677734 18.32470703 C-119.6709007 16.4706325 -116.35206101 14.71199324 -113 13 C-112.05060547 12.51490967 -112.05060547 12.51490967 -111.08203125 12.02001953 C-77.51944234 -4.87372689 -36.4641455 -9.56257591 0 0 Z M-83 115 C-96.49641256 130.27398885 -101.27570107 146.52455509 -100.23828125 166.47265625 C-98.67639814 183.03885911 -89.00545361 197.18400591 -76.765625 207.96875 C-63.76628199 217.91455606 -48.02913993 220.85700352 -32 220 C-15.49643889 217.79204058 -1.60451366 209.19760713 9.1171875 196.609375 C20.27076048 181.15172614 22.87260618 164.11581206 20.56640625 145.5 C17.17979248 129.68177916 7.06812197 116.18164814 -5.94140625 106.97265625 C-30.16934312 91.34671995 -62.41514216 94.65895605 -83 115 Z " fill="#FE4A49" transform="translate(295,4)"/>
<path d="M0 0 C0.74529968 -0.02146591 1.49059937 -0.04293182 2.25848389 -0.06504822 C4.72110716 -0.12849424 7.18271354 -0.16068512 9.64599609 -0.18725586 C10.49038616 -0.19981352 11.33477623 -0.21237118 12.20475388 -0.22530937 C16.6772223 -0.29109999 21.14918135 -0.33310714 25.62207031 -0.35546875 C30.22397443 -0.38292859 34.8204249 -0.48926726 39.42055702 -0.61455631 C42.97424782 -0.69697 46.5266538 -0.72059333 50.08121872 -0.72875786 C51.77583926 -0.74263183 53.47043594 -0.77810754 55.16411209 -0.83635139 C68.03146362 -1.24841558 68.03146362 -1.24841558 72.23038483 1.94102478 C75.66403254 5.44493456 78.0843239 9.44214694 80.54443359 13.66040039 C81.53054046 14.99382982 82.53333924 16.31576752 83.57568359 17.60571289 C83.98850586 18.13922363 84.40132812 18.67273438 84.82666016 19.22241211 C89.35236802 25.03106923 94.03559471 30.57678351 99.06005859 35.96508789 C101.02740735 38.09947569 102.9432135 40.25776343 104.84521484 42.44946289 C108.62331497 46.78343546 112.53452991 50.98079649 116.48193359 55.16040039 C117.14644531 55.8680957 117.81095703 56.57579102 118.49560547 57.30493164 C124.78678791 63.98054133 131.13057404 70.52134328 138.09912109 76.49243164 C140.72222764 78.81802929 143.25700971 81.22177824 145.79614258 83.63818359 C151.23364488 88.79177544 156.72520358 93.87573129 162.54443359 98.59790039 C163.53443359 99.41129883 164.52443359 100.22469727 165.54443359 101.06274414 C168.48740859 102.91755849 168.48740859 102.91755849 172.00537109 102.74633789 C176.38712147 101.40182729 178.85282584 99.4199502 182.16943359 96.34790039 C182.76771973 95.81463135 183.36600586 95.2813623 183.98242188 94.73193359 C185.85165834 93.05737857 187.69992321 91.36212259 189.54443359 89.66040039 C190.42518555 88.8540918 190.42518555 88.8540918 191.32373047 88.03149414 C194.03308572 85.55071217 196.72996835 83.05779995 199.41162109 80.54711914 C201.66124826 78.44937164 203.96517282 76.43027234 206.29833984 74.42602539 C211.28809586 70.07959149 215.94014794 65.41078681 220.60693359 60.72290039 C221.46609375 59.86760742 222.32525391 59.01231445 223.21044922 58.13110352 C227.64699698 53.68777722 231.94015097 49.18182559 236.03149414 44.41845703 C238.10466961 42.00939836 240.2629054 39.68232401 242.41943359 37.34790039 C249.92207901 29.1097015 256.80582836 20.39057373 263.65161133 11.60644531 C264.30238647 10.77270386 264.30238647 10.77270386 264.96630859 9.92211914 C265.34368164 9.43702881 265.72105469 8.95193848 266.10986328 8.45214844 C266.58327148 7.86087158 267.05667969 7.26959473 267.54443359 6.66040039 C268.24283859 5.64880356 268.94124359 4.63720673 269.66081238 3.59495544 C271.88939429 0.94448536 272.42909422 0.68508179 276.04200745 -0.08804321 C277.40000278 -0.1173981 278.75895857 -0.11406721 280.11694336 -0.08422852 C280.86227325 -0.09152985 281.60760315 -0.09883118 282.3755188 -0.10635376 C284.82989745 -0.12251688 287.28161443 -0.0953987 289.73583984 -0.06616211 C291.44547016 -0.06512437 293.15510288 -0.06616185 294.86473083 -0.06918335 C298.44346864 -0.06900413 302.02130317 -0.0481938 305.59985352 -0.01196289 C310.18572334 0.03344781 314.77027606 0.03449206 319.35630894 0.02100182 C322.8848592 0.01431786 326.41310938 0.02758952 329.94160271 0.04726028 C331.63247037 0.05495461 333.32337143 0.0572647 335.01425362 0.05408859 C337.37725526 0.05334637 339.73857033 0.0786036 342.10131836 0.11108398 C343.14797417 0.10365173 343.14797417 0.10365173 344.21577454 0.09606934 C347.56293326 0.16946874 349.26834622 0.44220359 351.92826843 2.54438782 C353.7192658 4.88930468 354.85385387 7.08414637 355.99755859 9.80493164 C356.66597778 11.37730591 356.66597778 11.37730591 357.34790039 12.98144531 C357.82525635 14.13362549 358.3026123 15.28580566 358.79443359 16.47290039 C359.31567434 17.71186243 359.83758571 18.9505425 360.36010742 20.18896484 C362.10542108 24.33902837 363.82708143 28.49870101 365.54443359 32.66040039 C365.84710144 33.3935144 366.14976929 34.12662842 366.46160889 34.88195801 C369.75855871 42.87279327 373.03796345 50.87076584 376.30851746 58.87243652 C380.79033139 69.83693404 385.31404993 80.78357948 389.85693359 91.72290039 C391.27117742 95.12907514 392.6852529 98.5353197 394.09912109 101.94165039 C394.45594971 102.80132416 394.81277832 103.66099792 395.18041992 104.54672241 C397.95677375 111.23815204 400.7248188 117.932992 403.48974609 124.62915039 C403.90390778 125.63194534 404.31806946 126.6347403 404.74478149 127.66792297 C406.80205982 132.65018634 408.8570944 137.63335745 410.90820312 142.61816406 C414.2113773 150.63982338 417.51759031 158.65706287 420.96630859 166.61743164 C421.68572632 168.29083618 421.68572632 168.29083618 422.41967773 169.99804688 C423.25271026 171.92618783 424.09697113 173.84954691 424.95629883 175.76611328 C427.2057936 180.9871819 428.3071405 184.96145437 427.54443359 190.66040039 C426.03592682 192.85696745 426.03592682 192.85696745 423.54443359 194.66040039 C420.63372879 195.05231093 418.10226345 195.19795981 415.19226074 195.16376495 C414.33790341 195.16957872 413.48354609 195.17539248 412.60329914 195.18138242 C409.72076495 195.19606011 406.83907193 195.18206105 403.95654297 195.16833496 C401.87703768 195.1729408 399.79753565 195.17929157 397.71804047 195.18724394 C391.98831916 195.20400386 386.25886297 195.19566064 380.52914047 195.18329906 C374.35591549 195.1742781 368.18273728 195.18820359 362.00952148 195.19921875 C350.61004674 195.21600926 339.21068056 195.2145094 327.81120849 195.20357288 C317.2811123 195.19351974 306.75104726 195.1908796 296.22094727 195.19566345 C295.52308395 195.19596899 294.82522063 195.19627453 294.10620993 195.19658933 C291.2735187 195.19783464 288.44082747 195.19910823 285.60813627 195.20042839 C259.02285419 195.21267071 232.43762623 195.20156053 205.8523525 195.1800408 C182.22103804 195.16105767 158.5898098 195.16275615 134.95849609 195.18188477 C108.42255581 195.20329265 81.88666336 195.21180257 55.35071564 195.19943571 C52.52311708 195.1981528 49.6955185 195.19690144 46.86791992 195.19566345 C46.17166777 195.19534714 45.47541562 195.19503083 44.75806493 195.19470494 C34.23330948 195.19015064 23.70858856 195.19548434 13.18383789 195.20558167 C1.21946049 195.21700276 -10.74481504 195.21380729 -22.70918846 195.19245869 C-28.81797443 195.1819191 -34.92658506 195.17787591 -41.03536987 195.1910553 C-46.62135275 195.20292483 -52.20699683 195.19650678 -57.79294872 195.17514509 C-59.8198014 195.17065587 -61.84668237 195.17299682 -63.87351704 195.18264824 C-66.61722292 195.19471678 -69.35975045 195.182435 -72.10339355 195.16376495 C-73.29880154 195.17781195 -73.29880154 195.17781195 -74.51835918 195.19214272 C-78.0177978 195.14416446 -80.07492211 194.93474023 -82.94979095 192.86275053 C-85.21199962 189.55403968 -85.04456465 186.47544712 -84.45556641 182.66040039 C-83.65652847 179.82815873 -82.54287361 177.19930608 -81.34228516 174.51586914 C-81.0167717 173.75656601 -80.69125824 172.99726288 -80.35588074 172.21495056 C-79.29771164 169.75352696 -78.22029728 167.30103288 -77.14306641 164.84790039 C-76.40650781 163.14078581 -75.67165775 161.43293309 -74.93847656 159.72436523 C-73.47038407 156.30407892 -71.99714705 152.88608656 -70.52050781 149.46948242 C-67.70779927 142.94143028 -65.00548286 136.37103027 -62.33056641 129.78540039 C-61.91895264 128.78017334 -61.50733887 127.77494629 -61.08325195 126.73925781 C-58.81593371 121.16360482 -56.66102434 115.5538192 -54.56884766 109.91040039 C-51.78702802 102.4258206 -48.77604353 95.05284607 -45.67721558 87.69467163 C-44.05244283 83.83576138 -42.43849184 79.97231883 -40.82275391 76.10961914 C-40.30535896 74.87375816 -40.30535896 74.87375816 -39.7775116 73.6129303 C-35.70469296 63.87865338 -31.67219861 54.1277246 -27.64364624 44.37506104 C-26.82034578 42.38217527 -25.99664612 40.38945437 -25.17251587 38.39691162 C-24.3847704 36.49233621 -23.59747307 34.58757537 -22.81065369 32.68261719 C-22.05959684 30.86432933 -21.30755632 29.04644743 -20.55445862 27.22900391 C-18.89316055 23.20746489 -17.25778158 19.18117557 -15.70605469 15.1159668 C-15.43958633 14.42404739 -15.17311798 13.73212799 -14.89857483 13.01924133 C-14.20485117 11.20619694 -13.52406997 9.38821451 -12.84448242 7.56982422 C-9.86815997 1.33518989 -6.68088097 0.05773066 0 0 Z " fill="#FEDA56" transform="translate(84.45556640625,317.339599609375)"/>
<path d="M0 0 C18.69691094 -0.44281261 36.74920118 -0.71956957 55 4 C55.72912598 4.18723633 56.45825195 4.37447266 57.20947266 4.56738281 C67.55869599 7.32431877 77.34966814 11.39081424 87 16 C87.6276123 16.29745117 88.25522461 16.59490234 88.90185547 16.90136719 C103.52736451 23.94567641 116.30774243 33.78660622 128 45 C128.81726563 45.76570313 129.63453125 46.53140625 130.4765625 47.3203125 C157.15330904 73.00597248 175.4084337 111.56393613 177.17700195 148.71850586 C177.47000228 167.82656293 177.47289669 186.29486927 173 205 C172.75862305 206.01562012 172.51724609 207.03124023 172.26855469 208.07763672 C167.28711845 228.40753595 159.73567039 247.56634229 150.00488281 266.07568359 C148.98069048 268.03697707 147.98494706 270.01091524 146.9921875 271.98828125 C136.08311498 293.45913372 122.27617072 312.67692274 107.05859375 331.25390625 C104.6742201 334.1660464 102.32776708 337.10480863 100 340.0625 C86.855368 356.49329 72.33517625 371.72526283 57.5 386.625 C56.40619019 387.72581909 56.40619019 387.72581909 55.2902832 388.84887695 C51.25632008 392.8708411 47.12369251 396.7136413 42.80859375 400.43212891 C40.39971999 402.52038313 38.07970866 404.69914003 35.75 406.875 C31.83164167 410.41784899 27.87884618 413.89304114 23.75 417.1875 C22.81671875 417.94417969 21.8834375 418.70085937 20.921875 419.48046875 C17.04116863 421.49864359 15.1680729 421.21472202 11 420 C7.91015625 417.93359375 7.91015625 417.93359375 5.0625 415.4375 C4.10472656 414.61121094 3.14695313 413.78492188 2.16015625 412.93359375 C1.44730469 412.29550781 0.73445312 411.65742188 0 411 C1.0876707 407.7369879 1.75066713 407.12160072 4.3125 405 C14.31079937 396.5605196 23.7005208 387.48608401 32.9465332 378.23876953 C34.69138808 376.49611683 36.44413743 374.76166837 38.19726562 373.02734375 C44.20908635 367.04480197 49.84291768 360.9849918 55.12475586 354.34082031 C57.43498136 351.45702366 59.89154789 348.80202296 62.4375 346.125 C68.07983078 340.07496916 73.07251531 333.63678866 78 327 C78.88271937 325.82545084 79.76553363 324.65097298 80.6484375 323.4765625 C90.84208465 309.83058364 100.34690907 295.67843518 108.88037109 280.93359375 C109.64655923 279.61039051 110.4179783 278.29020618 111.19384766 276.97265625 C125.11988233 253.26031184 135.08274245 227.82705653 141 201 C141.16661133 200.28811523 141.33322266 199.57623047 141.50488281 198.84277344 C150.99635356 157.20213883 141.81963843 111.34614827 119.625 75.3125 C96.69016802 40.65080822 62.83474145 14.80350889 22 5 C17.75465791 4.19680495 13.49059261 3.54851153 9.20678711 2.98779297 C5.48780511 2.48764996 3.17148665 2.11432443 0 0 Z " fill="#E7343F" transform="translate(240,0)"/>
<path d="M0 0 C3.44779086 1.50006391 5.82360533 3.50409262 8.5625 6.0625 C12.02560159 9.23785117 15.53195256 12.29828184 19.1875 15.25 C23.70940939 18.90846134 28.11778899 22.67692716 32.5 26.5 C36.78206292 30.23415168 41.08331835 33.92459104 45.5 37.5 C51.82873745 42.62862131 57.94705834 47.99274671 64.09033203 53.34033203 C71.13272391 59.4607846 78.19002801 65.56030337 85.4375 71.4375 C90.48933717 75.53979949 95.4030598 79.78701978 100.31005859 84.06005859 C104.89096638 88.04703759 109.50741507 91.98811681 114.15136719 95.90136719 C118.16384225 99.28481983 122.14707313 102.70103708 126.125 106.125 C131.21464845 110.50209766 136.37067969 114.78661069 141.578125 119.0234375 C144.77101123 121.62924464 147.91951893 124.26179461 151 127 C151 127.33 151 127.66 151 128 C84.01 128 17.02 128 -52 128 C-50.17229372 121.90764574 -48.43058733 116.23024671 -45.953125 110.44921875 C-45.52180519 109.4241497 -45.52180519 109.4241497 -45.08177185 108.37837219 C-44.4642127 106.91159326 -43.84448571 105.44572542 -43.2227478 103.98071289 C-41.52362076 99.97509084 -39.84273289 95.96181437 -38.16015625 91.94921875 C-37.81245682 91.12098602 -37.46475739 90.2927533 -37.10652161 89.43942261 C-33.56393625 80.98762559 -30.11829162 72.49765573 -26.6875 64 C-25.46004254 60.96337699 -24.23201971 57.92698275 -23.00390625 54.890625 C-22.69062378 54.11594376 -22.37734131 53.34126251 -22.05456543 52.54310608 C-18.16949461 42.94043315 -14.26511964 33.34564227 -10.35073853 23.75488281 C-9.53612778 21.75787467 -8.72246196 19.76048081 -7.90975952 17.76269531 C-6.77818112 14.98143415 -5.64341747 12.20149405 -4.5078125 9.421875 C-4.16689072 8.58211121 -3.82596893 7.74234741 -3.47471619 6.87713623 C-1.11419099 1.11419099 -1.11419099 1.11419099 0 0 Z " fill="#4CE166" transform="translate(176,384)"/>
<path d="M0 0 C51.81 0 103.62 0 157 0 C162.28 12.54 167.56 25.08 173 38 C177.96145224 49.60859655 177.96145224 49.60859655 182.9375 61.2109375 C184.85091547 66.13861591 185.85348113 69.74872024 185 75 C183.51014709 77.17800903 183.51014709 77.17800903 181 79 C177.97443252 79.42540661 175.30482133 79.60793241 172.27514648 79.61279297 C171.39490311 79.62944 170.51465973 79.64608704 169.60774231 79.66323853 C166.69534617 79.71145375 163.7838468 79.72898718 160.87109375 79.7421875 C158.8404972 79.76012667 156.80990333 79.77837048 154.77931213 79.79690552 C150.51809271 79.82989977 146.25718765 79.84528682 141.99584961 79.85107422 C136.55666425 79.86181259 131.12047092 79.93703053 125.68212795 80.02856255 C121.4841917 80.08831647 117.28696459 80.10252592 113.08864021 80.10452652 C111.08521966 80.11289777 109.08179375 80.13763419 107.07879448 80.17956161 C89.48351862 80.51838701 89.48351862 80.51838701 82.51977539 74.20361328 C80.99602882 72.48412601 79.48861831 70.74998732 78 69 C76.23847913 67.50539311 74.44969375 66.04179154 72.625 64.625 C67.8285929 60.75781137 63.3295854 56.65019284 58.83642578 52.44189453 C55.48918215 49.32460664 52.07004094 46.36433518 48.5 43.5 C43.73891522 39.68005989 39.28726975 35.61061181 34.8359375 31.44140625 C31.48883131 28.32431446 28.06985859 25.36418887 24.5 22.5 C19.66121315 18.61763515 15.10711384 14.49472254 10.58984375 10.24804688 C7.99278315 7.81166301 5.3718266 5.45651628 2.61328125 3.203125 C1.75089844 2.47609375 0.88851563 1.7490625 0 1 C0 0.67 0 0.34 0 0 Z " fill="#A8EDFB" transform="translate(327,433)"/>
<path d="M0 0 C1.70532788 0.00851082 3.41067899 0.01315854 5.11602783 0.01412964 C8.67755284 0.02642095 12.23654186 0.07161909 15.79736328 0.14306641 C20.35970815 0.23389082 24.91977136 0.26313402 29.48293686 0.27054024 C32.99872283 0.27939723 36.51403111 0.30999875 40.02960968 0.3482933 C41.71208022 0.36603321 43.39460141 0.37950513 45.07714081 0.38861465 C47.42567152 0.40671436 49.77214512 0.45148582 52.12011719 0.50439453 C52.81317459 0.50572388 53.50623199 0.50705322 54.22029114 0.50842285 C57.54053085 0.61162762 59.25296755 0.90978854 61.89152527 2.99324036 C63.776307 5.45809931 64.94228883 7.82159345 66.14453125 10.68359375 C66.61737549 11.79686035 67.09021973 12.91012695 67.57739258 14.05712891 C68.07263428 15.25257324 68.56787598 16.44801758 69.078125 17.6796875 C69.59925083 18.92131432 70.12098822 20.16268463 70.64331055 21.40380859 C72.00389131 24.64520823 73.35074875 27.8921492 74.69506836 31.14031982 C75.78175207 33.75833519 76.8798715 36.37149102 77.97755432 38.98490906 C79.26949812 42.06719247 80.54853987 45.15475198 81.828125 48.2421875 C82.31418213 49.40306885 82.80023926 50.5639502 83.30102539 51.76000977 C83.95832642 53.36380493 83.95832642 53.36380493 84.62890625 55 C85.01860596 55.94246582 85.40830566 56.88493164 85.80981445 57.85595703 C86.515625 60.1171875 86.515625 60.1171875 85.515625 62.1171875 C34.695625 61.7871875 -16.124375 61.4571875 -68.484375 61.1171875 C-64.69248373 56.69331436 -60.89855649 52.36142577 -56.921875 48.1171875 C-46.97192809 37.39969116 -37.5034676 26.31857069 -28.43359375 14.84765625 C-27.75725136 14.03091682 -27.75725136 14.03091682 -27.06724548 13.19767761 C-25.40771653 11.1132561 -25.40771653 11.1132561 -24.06105042 8.60466003 C-17.99720097 -1.03075341 -10.25929588 -0.25589317 0 0 Z " fill="#4CE066" transform="translate(374.484375,316.8828125)"/>
<path d="M0 0 C22.11 0 44.22 0 67 0 C65.0953597 6.34880099 63.22599633 12.24534277 60.62890625 18.26953125 C60.31014526 19.0211705 59.99138428 19.77280975 59.66296387 20.54722595 C58.63410921 22.97098446 57.59828986 25.39169832 56.5625 27.8125 C55.48532598 30.34599113 54.41009179 32.88029931 53.33506775 35.41470337 C52.61155447 37.12032303 51.88748395 38.82570643 51.16285706 40.53085327 C47.22377262 49.80701564 43.37945069 59.12163047 39.54321289 68.44067383 C38.85859985 70.10199341 38.85859985 70.10199341 38.16015625 71.796875 C37.76449463 72.75948242 37.36883301 73.72208984 36.96118164 74.71386719 C36.35223204 76.16222992 35.70264845 77.5947031 35 79 C27.37656384 79.09272514 19.75318623 79.16377754 12.12931442 79.20724869 C8.58909928 79.22811412 5.04927026 79.25641126 1.50927734 79.30175781 C-2.56156091 79.35357738 -6.63199427 79.37295369 -10.703125 79.390625 C-11.97303284 79.41127014 -13.24294067 79.43191528 -14.55133057 79.45318604 C-16.32271393 79.45363922 -16.32271393 79.45363922 -18.12988281 79.45410156 C-19.16912903 79.46298401 -20.20837524 79.47186646 -21.27911377 79.48101807 C-24.73676691 78.86974898 -25.90813378 77.77825743 -28 75 C-28.72782868 68.83795816 -27.41503977 64.5049348 -24.921875 58.92578125 C-24.59519836 58.16242966 -24.26852173 57.39907806 -23.9319458 56.6125946 C-22.88473723 54.1731639 -21.81824493 51.74278152 -20.75 49.3125 C-20.07935336 47.76426711 -19.41007426 46.21544109 -18.7421875 44.66601562 C-18.05898438 43.08111328 -17.37578125 41.49621094 -16.671875 39.86328125 C-10.98158496 26.63192959 -5.50703489 13.30866764 0 0 Z " fill="#A8EDFB" transform="translate(28,433)"/>
<path d="M0 0 C0.64417374 -0.00043808 1.28834747 -0.00087616 1.95204163 -0.00132751 C4.07877029 0.00076058 6.2047081 0.02409104 8.33129883 0.04760742 C9.80674305 0.05320334 11.28219286 0.05747346 12.75764465 0.06047058 C16.63922542 0.0719198 20.52046891 0.10138731 24.4019165 0.13458252 C28.36335691 0.16528193 32.32485186 0.17897562 36.28637695 0.1940918 C44.05801502 0.22625723 51.82937527 0.27745412 59.60083008 0.34057617 C55.21980514 12.32031363 50.45572501 24.10600475 45.51269531 35.86425781 C44.26901901 38.82403381 43.0313421 41.78627136 41.79418945 44.7487793 C41.00482474 46.63238906 40.21512426 48.51585816 39.42504883 50.39916992 C39.05530441 51.28438828 38.68556 52.16960663 38.30461121 53.08164978 C37.96367935 53.89082352 37.6227475 54.69999725 37.27148438 55.53369141 C36.97203415 56.2471019 36.67258392 56.96051239 36.36405945 57.69554138 C35.60083008 59.34057617 35.60083008 59.34057617 34.60083008 60.34057617 C32.51463985 60.4347539 30.42522531 60.45800495 28.33691406 60.45410156 C27.35646118 60.4543206 27.35646118 60.4543206 26.35620117 60.45454407 C24.1864088 60.453845 22.01670129 60.44605295 19.84692383 60.43823242 C18.34619697 60.43636822 16.8454695 60.43494433 15.34474182 60.4339447 C11.38764781 60.4301197 7.4305903 60.42028957 3.47351074 60.40924072 C-0.56151842 60.39902623 -4.59655345 60.394447 -8.6315918 60.3894043 C-16.55413462 60.37866728 -24.47664773 60.36159107 -32.39916992 60.34057617 C-30.5619061 53.82456467 -28.41242425 47.58884392 -25.74682617 41.36791992 C-25.40542099 40.55996475 -25.06401581 39.75200958 -24.71226501 38.91957092 C-23.63358171 36.37031838 -22.54768282 33.82421344 -21.46166992 31.27807617 C-20.73790327 29.56928629 -20.01459257 27.86030321 -19.29174805 26.15112305 C-15.78715076 17.87980164 -15.78715076 17.87980164 -14.3454895 14.5397644 C-13.68089874 12.99529653 -13.0263936 11.44646853 -12.37936401 9.89456177 C-12.03970612 9.09629974 -11.70004822 8.29803772 -11.35009766 7.47558594 C-11.04780746 6.7548439 -10.74551727 6.03410187 -10.43406677 5.29151917 C-7.79250878 0.31176774 -5.57318521 -0.03184677 0 0 Z " fill="#4CE166" transform="translate(83.399169921875,317.659423828125)"/>
<path d="M0 0 C11.88 0 23.76 0 36 0 C42.65743779 15.77339638 42.65743779 15.77339638 45.43359375 22.38720703 C46.16926328 24.13965161 46.90494039 25.892093 47.640625 27.64453125 C48.00845093 28.52089233 48.37627686 29.39725342 48.75524902 30.3001709 C50.76799754 35.08958385 52.79675763 39.87146485 54.85076904 44.64332581 C55.98071997 47.27239154 57.09994427 49.90593837 58.21716309 52.54043579 C58.98286347 54.33484086 59.76324577 56.12295834 60.54394531 57.91088867 C63.03705043 63.81476075 65.04500861 68.57029426 64 75 C61.80354039 77.95738068 60.65706486 78.9013448 56.97558594 79.45410156 C55.82348633 79.4331543 54.67138672 79.41220703 53.484375 79.390625 C52.23398437 79.37773438 50.98359375 79.36484375 49.6953125 79.3515625 C48.39335937 79.31804687 47.09140625 79.28453125 45.75 79.25 C44.43257813 79.23195313 43.11515625 79.21390625 41.7578125 79.1953125 C38.50447692 79.14816271 35.25260375 79.08236044 32 79 C31.43623657 77.60152832 31.43623657 77.60152832 30.86108398 76.17480469 C29.05576167 71.69884269 27.24723119 67.22418104 25.4375 62.75 C25.10585846 61.92998505 24.77421692 61.10997009 24.43252563 60.2651062 C18.63962035 45.95202647 12.73579866 31.68744113 6.74975586 17.45410156 C6.44535583 16.72813278 6.14095581 16.002164 5.82733154 15.25419617 C5.26358479 13.90982651 4.69810116 12.56618312 4.13043213 11.22346497 C2.57389039 7.50799052 1.27919219 3.83757656 0 0 Z " fill="#7EE5F2" transform="translate(448,433)"/>
<path d="M0 0 C4.76881876 -0.09900135 9.5370373 -0.17152928 14.30664062 -0.21972656 C15.92849143 -0.23982144 17.55026997 -0.26710254 19.171875 -0.30175781 C21.5053898 -0.3503727 23.83794557 -0.37298889 26.171875 -0.390625 C27.25647003 -0.42159271 27.25647003 -0.42159271 28.36297607 -0.45318604 C31.65957076 -0.45464984 33.6192016 -0.27459232 36.32495117 1.67651367 C38.16802875 4.2330753 39.40776657 6.65942005 40.62890625 9.56640625 C41.10175049 10.67967285 41.57459473 11.79293945 42.06176758 12.93994141 C42.55700928 14.13538574 43.05225098 15.33083008 43.5625 16.5625 C44.08362583 17.80412682 44.60536322 19.04549713 45.12768555 20.28662109 C46.48826631 23.52802073 47.83512375 26.7749617 49.17944336 30.02313232 C50.26612707 32.64114769 51.3642465 35.25430352 52.46192932 37.86772156 C53.75387312 40.95000497 55.03291487 44.03756448 56.3125 47.125 C56.79855713 48.28588135 57.28461426 49.4467627 57.78540039 50.64282227 C58.44270142 52.24661743 58.44270142 52.24661743 59.11328125 53.8828125 C59.50298096 54.82527832 59.89268066 55.76774414 60.29418945 56.73876953 C61 59 61 59 60 61 C42.675 60.505 42.675 60.505 25 60 C20.49922297 50.99844594 20.49922297 50.99844594 18.83349609 46.96435547 C18.45985931 46.06337128 18.08622253 45.16238708 17.70126343 44.23410034 C17.31258087 43.2880191 16.92389832 42.34193787 16.5234375 41.3671875 C16.11211578 40.37171906 15.70079407 39.37625061 15.27700806 38.35061646 C14.41338501 36.25858547 13.55121507 34.16595408 12.69042969 32.07275391 C11.37555308 28.87634452 10.05531515 25.68218891 8.734375 22.48828125 C7.89291066 20.448048 7.05175423 18.40768773 6.2109375 16.3671875 C5.81820648 15.4170578 5.42547546 14.4669281 5.02084351 13.48800659 C3.19159617 9.0326672 1.44110973 4.60028203 0 0 Z " fill="#45C96B" transform="translate(400,318)"/>
<path d="M0 0 C4.94791294 -0.0246826 9.8957902 -0.04285166 14.84375 -0.05493164 C16.52767562 -0.05996653 18.21159686 -0.06679481 19.89550781 -0.07543945 C22.31316203 -0.08754196 24.73075856 -0.09323668 27.1484375 -0.09765625 C27.9036972 -0.10281754 28.65895691 -0.10797882 29.43710327 -0.11329651 C34.77225659 -0.11387171 34.77225659 -0.11387171 37 1 C38.25524655 3.72036441 39.40835484 6.42792445 40.51953125 9.20703125 C41.03020393 10.46068733 41.03020393 10.46068733 41.55119324 11.7396698 C42.64469738 14.42806603 43.7287782 17.12014745 44.8125 19.8125 C45.53126655 21.58554381 46.25066049 23.35833341 46.97070312 25.13085938 C48.02132922 27.71730125 49.07078884 30.30416481 50.11526489 32.89309692 C52.40217045 38.55876629 54.75640019 44.18903377 57.1940918 49.79174805 C58 52 58 52 58 55 C46.12 55 34.24 55 22 55 C20.99839844 52.52628906 19.99679687 50.05257812 18.96484375 47.50390625 C17.96862284 45.04446756 16.97223389 42.58509701 15.97583008 40.12573242 C15.29596796 38.44741773 14.61627399 36.76903491 13.93676758 35.09057617 C12.9465955 32.64482915 11.95586948 30.19930749 10.96484375 27.75390625 C10.63801605 26.94716461 10.31118835 26.14042297 9.97445679 25.30923462 C8.31011793 21.20696929 6.635307 17.10940006 4.94189453 13.01904297 C4.61580704 12.23109848 4.28971954 11.44315399 3.95375061 10.6313324 C3.33253483 9.13265644 2.70974504 7.63463172 2.08518982 6.13734436 C0 1.1091076 0 1.1091076 0 0 Z " fill="#FCBC29" transform="translate(425,378)"/>
</svg>
