<svg width="15" height="15" viewBox="0 0 15 15" fill="none" xmlns="http://www.w3.org/2000/svg">
<path d="M12.071 4.94671C11.4563 2.24208 9.09703 1.02441 7.02466 1.02441C7.02466 1.02441 7.02466 1.02441 7.0188 1.02441C4.95228 1.02441 2.5872 2.23623 1.97251 4.94085C1.28758 7.9616 3.13749 10.5199 4.81178 12.1298C5.43233 12.7269 6.22849 13.0255 7.02466 13.0255C7.82083 13.0255 8.61699 12.7269 9.23168 12.1298C10.906 10.5199 12.7559 7.96746 12.071 4.94671ZM7.02466 7.87964C6.00603 7.87964 5.1806 7.05421 5.1806 6.03558C5.1806 5.01696 6.00603 4.19152 7.02466 4.19152C8.04328 4.19152 8.86872 5.01696 8.86872 6.03558C8.86872 7.05421 8.04328 7.87964 7.02466 7.87964Z" fill="#7944EB"/>
</svg>
