<svg width="19" height="19" viewBox="0 0 19 19" fill="none" xmlns="http://www.w3.org/2000/svg">
<g clip-path="url(#clip0_4009_7230)">
<path d="M11.0223 11.2077L6.58294 15.3074L5.34919 14.9769L8.22974 10.4594L4.92329 9.57343L3.3997 11.1487L2.47439 10.9007L3.83508 8.29009L3.96201 5.34886L4.88733 5.5968L5.41978 7.72297L8.72624 8.60893L8.48972 3.25624L9.72347 3.58682L11.5182 9.35704L14.8783 10.2574C15.1237 10.3231 15.333 10.4837 15.46 10.7037C15.587 10.9237 15.6215 11.1852 15.5557 11.4306C15.49 11.676 15.3294 11.8853 15.1094 12.0123C14.8893 12.1393 14.6279 12.1738 14.3825 12.108L11.0223 11.2077Z" fill="#3F4754"/>
</g>
<defs>
<clipPath id="clip0_4009_7230">
<rect width="15.3273" height="15.3273" fill="white" transform="translate(18.8555 4.0498) rotate(105)"/>
</clipPath>
</defs>
</svg>
