<svg width="24" height="24" viewBox="0 0 24 24" fill="none" xmlns="http://www.w3.org/2000/svg">
<path d="M19.42 11.0106C19.42 15.6553 15.6547 19.4206 11.01 19.4206C6.36527 19.4206 2.59999 15.6553 2.59999 11.0106C2.59999 6.36587 6.36527 2.60059 11.01 2.60059C15.6547 2.60059 19.42 6.36587 19.42 11.0106Z" fill="#3B79F2" fill-opacity="0.3" stroke="#027DE2"/>
<path d="M19.8084 21.6777L19.7958 21.6756L19.7827 21.674C19.6734 21.6607 19.4957 21.6133 19.3043 21.4555C19.1135 21.298 18.8758 21.0032 18.6899 20.4418C18.5201 19.9239 18.5966 19.4602 18.827 19.1402C19.0576 18.8199 19.4728 18.5996 20.0201 18.5996C20.8244 18.5996 21.2701 18.8833 21.4606 19.2318C21.643 19.583 21.633 20.1097 21.1859 20.7594L21.1808 20.7668C20.6236 21.6027 20.1245 21.6796 19.9001 21.6796C19.8625 21.6796 19.8424 21.6795 19.8253 21.6788C19.8142 21.6784 19.8092 21.6778 19.8084 21.6777ZM19.8084 21.6777C19.808 21.6777 19.8078 21.6777 19.8084 21.6777Z" fill="#027DE2"/>
<path d="M19.8084 21.6777L19.7958 21.6756L19.7827 21.674C19.6734 21.6607 19.4957 21.6133 19.3043 21.4555C19.1135 21.298 18.8758 21.0032 18.6899 20.4418C18.5201 19.9239 18.5966 19.4602 18.827 19.1402C19.0576 18.8199 19.4728 18.5996 20.0201 18.5996C20.8244 18.5996 21.2701 18.8833 21.4606 19.2318C21.643 19.583 21.633 20.1097 21.1859 20.7594L21.1808 20.7668C20.6236 21.6027 20.1245 21.6796 19.9001 21.6796C19.8625 21.6796 19.8424 21.6795 19.8253 21.6788C19.8142 21.6784 19.8092 21.6778 19.8084 21.6777ZM19.8084 21.6777C19.8078 21.6777 19.808 21.6777 19.8084 21.6777Z" stroke="#027DE2"/>
</svg>
