<svg width="130" height="36" viewBox="0 0 130 36" fill="none" xmlns="http://www.w3.org/2000/svg">
<path d="M4.26458 11.3618H11.7411C12.5252 11.5297 13.0569 12.2293 13.0569 13.0128C13.0569 13.7684 12.5252 14.4401 11.7971 14.636H4.26458V11.3618ZM16.2773 10.2704C15.969 9.71066 15.577 9.20694 15.1013 8.78717C15.0453 8.7312 14.961 8.67523 14.905 8.61926C14.9333 8.59128 14.961 8.53531 14.9887 8.47934C14.9887 8.45135 14.9887 8.45135 15.017 8.42337C15.465 7.61182 15.7173 6.66034 15.7173 5.68088C15.7173 4.7294 15.465 3.80591 15.017 2.96637C15.017 2.93838 14.9893 2.9104 14.961 2.88242C13.9812 1.14737 12.1049 0.0839539 10.0888 0.0839539H0.344421V4.05777H10.5368C11.2649 4.25366 11.7971 4.92529 11.7971 5.68088C11.7971 6.49243 11.2089 7.19205 10.4248 7.35995H0.344421V18.6098H10.0888C10.3128 18.6098 10.5091 18.6098 10.7331 18.5818C10.9571 18.6098 11.1529 18.6098 11.3769 18.6098C13.4212 18.6098 15.297 17.5184 16.2773 15.7274C16.7531 14.9158 17.0053 13.9643 17.0053 13.0128C17.0053 12.0334 16.7531 11.1099 16.2773 10.2704Z" fill="#1E2B99"/>
<path d="M23.7612 14.6919V0H19.841V18.6098H34.5419V14.6919H23.7612Z" fill="#1E2B99"/>
<path d="M48.8512 0.139923V10.2704C48.8512 12.649 46.9471 14.636 44.6233 14.6919C44.5673 14.6919 44.5113 14.6919 44.4553 14.6919C44.3993 14.6919 44.3433 14.6919 44.2873 14.6919C41.9629 14.636 40.0588 12.6211 40.0588 10.2704V0.139923H36.1387V11.6696C36.1387 13.1808 36.671 14.58 37.6507 15.6434C38.0427 16.0632 38.4348 16.427 38.8828 16.7628C40.4791 17.9661 42.4109 18.6098 44.4553 18.6098C46.4991 18.6098 48.4032 17.9661 50.0272 16.7628C50.4752 16.427 50.8673 16.0632 51.2315 15.6714C52.2396 14.608 52.7713 13.1808 52.7713 11.6976V0.139923H48.8512Z" fill="#1E2B99"/>
<path d="M55.6082 0.139923V4.05777H72.1288V0.139923H55.6082ZM59.5283 10.7181H70.477V6.80026H59.5283L55.6082 6.77228V18.6098H72.1288V14.6919H59.5283V10.7181Z" fill="#1E2B99"/>
<path d="M84.6309 7.41592H79.3107C78.3869 7.41592 77.6306 6.66034 77.6306 5.73685C77.6306 4.81335 78.3869 4.05777 79.3107 4.05777H85.4432C86.0592 4.25366 86.479 4.81335 86.479 5.48499H90.3154C90.3154 4.98126 90.2594 4.50552 90.1191 4.05777C89.5031 1.79102 87.431 0.139923 84.9669 0.139923H79.3107C77.2946 0.139923 75.4188 1.20334 74.4385 2.96637C73.9627 3.80591 73.7104 4.75738 73.7104 5.73685C73.7104 6.71631 73.9627 7.66778 74.4385 8.50732C74.6625 8.89911 74.9148 9.23492 75.1948 9.54275C76.2588 10.6621 77.7426 11.3338 79.3107 11.3338H84.6309C85.5552 11.3338 86.2832 12.0894 86.2832 13.0128C86.2832 13.9363 85.5552 14.6919 84.6309 14.6919H78.5549C77.9666 14.496 77.5469 13.9363 77.5469 13.2647H73.7104C73.7104 13.7684 73.7664 14.2442 73.8785 14.6919C74.5227 16.9587 76.5948 18.6098 79.0589 18.6098H84.6309C86.6192 18.6098 88.495 17.5464 89.4753 15.8113C89.9794 14.9438 90.2311 13.9923 90.2311 13.0128C90.2311 12.0334 89.9794 11.0819 89.4753 10.2424C88.495 8.50732 86.6192 7.41592 84.6309 7.41592Z" fill="#1E2B99"/>
<path d="M96.4442 0.139923H92.524V8.42337L96.4442 4.50552V0.139923ZM108.96 17.3784L100.98 9.37485L110.221 0.139923H104.677L98.824 5.96072V5.98871L92.524 12.2852V18.6098H96.4442V13.9084L98.208 12.1453L104.453 18.4139L104.677 18.6098H110.221L108.96 17.3784Z" fill="#1E2B99"/>
<path d="M125.109 0.0839539L124.885 0.391784L120.741 6.04468L116.597 0.391784L116.373 0.0839539H111.529L112.369 1.25931L118.445 9.54275L118.613 9.79462H118.641V9.8226L118.781 10.0185V18.6098H122.701V9.99051L122.841 9.8226V9.79462H122.869L123.037 9.54275L129.113 1.25931L129.953 0.0839539H125.109Z" fill="#1E2B99"/>
<path d="M1.32102 33.6098H0.196023L2.24432 27.7916H3.54545L5.59659 33.6098H4.47159L2.91761 28.9848H2.87216L1.32102 33.6098ZM1.35795 31.3285H4.42614V32.1751H1.35795V31.3285ZM6.84872 33.6098V29.2461H7.87713V33.6098H6.84872ZM7.36577 28.6268C7.20289 28.6268 7.06274 28.5728 6.94531 28.4649C6.82789 28.355 6.76918 28.2234 6.76918 28.07C6.76918 27.9147 6.82789 27.7831 6.94531 27.6751C7.06274 27.5653 7.20289 27.5103 7.36577 27.5103C7.53054 27.5103 7.67069 27.5653 7.78622 27.6751C7.90365 27.7831 7.96236 27.9147 7.96236 28.07C7.96236 28.2234 7.90365 28.355 7.78622 28.4649C7.67069 28.5728 7.53054 28.6268 7.36577 28.6268ZM9.43466 33.6098V29.2461H10.4318V29.9734H10.4773C10.5568 29.7215 10.6932 29.5274 10.8864 29.391C11.0814 29.2528 11.304 29.1836 11.554 29.1836C11.6108 29.1836 11.6742 29.1865 11.7443 29.1922C11.8163 29.1959 11.8759 29.2026 11.9233 29.212V30.1581C11.8797 30.1429 11.8106 30.1297 11.7159 30.1183C11.6231 30.105 11.5331 30.0984 11.446 30.0984C11.2585 30.0984 11.09 30.1391 10.9403 30.2206C10.7926 30.3001 10.6761 30.4109 10.5909 30.553C10.5057 30.695 10.4631 30.8588 10.4631 31.0444V33.6098H9.43466ZM14.1349 27.7916V33.6098H13.1065V27.7916H14.1349ZM15.6925 33.6098V29.2461H16.7209V33.6098H15.6925ZM16.2095 28.6268C16.0466 28.6268 15.9065 28.5728 15.7891 28.4649C15.6716 28.355 15.6129 28.2234 15.6129 28.07C15.6129 27.9147 15.6716 27.7831 15.7891 27.6751C15.9065 27.5653 16.0466 27.5103 16.2095 27.5103C16.3743 27.5103 16.5144 27.5653 16.63 27.6751C16.7474 27.7831 16.8061 27.9147 16.8061 28.07C16.8061 28.2234 16.7474 28.355 16.63 28.4649C16.5144 28.5728 16.3743 28.6268 16.2095 28.6268ZM19.3068 31.053V33.6098H18.2784V29.2461H19.2614V29.9876H19.3125C19.4129 29.7433 19.5729 29.5492 19.7926 29.4052C20.0142 29.2613 20.2879 29.1893 20.6136 29.1893C20.9148 29.1893 21.1771 29.2537 21.4006 29.3825C21.6259 29.5113 21.8002 29.6978 21.9233 29.9422C22.0483 30.1865 22.1098 30.4829 22.108 30.8314V33.6098H21.0795V30.9905C21.0795 30.6988 21.0038 30.4706 20.8523 30.3058C20.7027 30.141 20.4953 30.0586 20.2301 30.0586C20.0502 30.0586 19.8902 30.0984 19.75 30.178C19.6117 30.2556 19.5028 30.3683 19.4233 30.516C19.3456 30.6637 19.3068 30.8427 19.3068 31.053ZM25.5852 33.695C25.1477 33.695 24.7699 33.6041 24.4517 33.4223C24.1354 33.2386 23.892 32.9791 23.7216 32.6439C23.5511 32.3067 23.4659 31.91 23.4659 31.4535C23.4659 31.0047 23.5511 30.6107 23.7216 30.2717C23.8939 29.9308 24.1345 29.6656 24.4432 29.4762C24.7519 29.285 25.1146 29.1893 25.5312 29.1893C25.8002 29.1893 26.054 29.2329 26.2926 29.32C26.5331 29.4052 26.7453 29.5378 26.929 29.7177C27.1146 29.8977 27.2604 30.1268 27.3665 30.4052C27.4725 30.6817 27.5256 31.0113 27.5256 31.3939V31.7092H23.9489V31.016H26.5398C26.5379 30.8191 26.4953 30.6439 26.4119 30.4905C26.3286 30.3352 26.2121 30.213 26.0625 30.124C25.9148 30.035 25.7424 29.9905 25.5455 29.9905C25.3352 29.9905 25.1506 30.0416 24.9915 30.1439C24.8324 30.2442 24.7083 30.3768 24.6193 30.5416C24.5322 30.7045 24.4877 30.8834 24.4858 31.0785V31.6836C24.4858 31.9374 24.5322 32.1552 24.625 32.337C24.7178 32.517 24.8475 32.6552 25.0142 32.7518C25.1809 32.8465 25.3759 32.8939 25.5994 32.8939C25.7491 32.8939 25.8845 32.873 26.0057 32.8314C26.1269 32.7878 26.232 32.7244 26.321 32.641C26.41 32.5577 26.4773 32.4545 26.5227 32.3314L27.483 32.4393C27.4223 32.6931 27.3068 32.9147 27.1364 33.1041C26.9678 33.2916 26.7519 33.4374 26.4886 33.5416C26.2254 33.6439 25.9242 33.695 25.5852 33.695ZM29.5291 33.6723C29.3568 33.6723 29.209 33.6117 29.0859 33.4905C28.9628 33.3692 28.9022 33.2215 28.9041 33.0473C28.9022 32.8768 28.9628 32.731 29.0859 32.6098C29.209 32.4886 29.3568 32.428 29.5291 32.428C29.6958 32.428 29.8407 32.4886 29.9638 32.6098C30.0888 32.731 30.1522 32.8768 30.1541 33.0473C30.1522 33.1628 30.1219 33.2679 30.0632 33.3626C30.0064 33.4573 29.9306 33.5331 29.8359 33.5899C29.7431 33.6448 29.6409 33.6723 29.5291 33.6723ZM36.0376 33.6098H34.0661V27.7916H36.0774C36.6551 27.7916 37.1513 27.9081 37.5661 28.141C37.9827 28.3721 38.3028 28.7045 38.5263 29.1382C38.7498 29.5719 38.8615 30.0908 38.8615 30.695C38.8615 31.3011 38.7488 31.8219 38.5234 32.2575C38.3 32.6931 37.977 33.0274 37.5547 33.2603C37.1342 33.4933 36.6286 33.6098 36.0376 33.6098ZM35.12 32.6978H35.9865C36.3918 32.6978 36.7299 32.624 37.0007 32.4762C37.2715 32.3266 37.4751 32.1041 37.6115 31.8086C37.7479 31.5113 37.8161 31.1401 37.8161 30.695C37.8161 30.2499 37.7479 29.8806 37.6115 29.587C37.4751 29.2916 37.2734 29.0709 37.0064 28.9251C36.7412 28.7774 36.4117 28.7035 36.0178 28.7035H35.12V32.6978ZM40.3175 33.6098V29.2461H41.3459V33.6098H40.3175ZM40.8345 28.6268C40.6716 28.6268 40.5315 28.5728 40.4141 28.4649C40.2966 28.355 40.2379 28.2234 40.2379 28.07C40.2379 27.9147 40.2966 27.7831 40.4141 27.6751C40.5315 27.5653 40.6716 27.5103 40.8345 27.5103C40.9993 27.5103 41.1394 27.5653 41.255 27.6751C41.3724 27.7831 41.4311 27.9147 41.4311 28.07C41.4311 28.2234 41.3724 28.355 41.255 28.4649C41.1394 28.5728 40.9993 28.6268 40.8345 28.6268ZM46.3523 30.3995L45.4148 30.5018C45.3883 30.4071 45.3419 30.3181 45.2756 30.2348C45.2112 30.1514 45.1241 30.0842 45.0142 30.0331C44.9044 29.9819 44.7699 29.9564 44.6108 29.9564C44.3968 29.9564 44.2169 30.0028 44.071 30.0956C43.9271 30.1884 43.8561 30.3086 43.858 30.4564C43.8561 30.5833 43.9025 30.6865 43.9972 30.766C44.0938 30.8456 44.2528 30.9109 44.4744 30.962L45.2188 31.1211C45.6316 31.2102 45.9384 31.3512 46.1392 31.5444C46.3419 31.7376 46.4441 31.9905 46.446 32.303C46.4441 32.5776 46.3636 32.82 46.2045 33.0302C46.0473 33.2386 45.8286 33.4014 45.5483 33.5189C45.268 33.6363 44.946 33.695 44.5824 33.695C44.0483 33.695 43.6184 33.5833 43.2926 33.3598C42.9669 33.1344 42.7727 32.8209 42.7102 32.4194L43.7131 32.3228C43.7585 32.5198 43.8551 32.6685 44.0028 32.7689C44.1506 32.8692 44.3428 32.9194 44.5795 32.9194C44.8239 32.9194 45.0199 32.8692 45.1676 32.7689C45.3172 32.6685 45.392 32.5444 45.392 32.3967C45.392 32.2717 45.3438 32.1685 45.2472 32.087C45.1525 32.0056 45.0047 31.9431 44.804 31.8995L44.0597 31.7433C43.6411 31.6562 43.3314 31.5094 43.1307 31.303C42.9299 31.0946 42.8305 30.8314 42.8324 30.5132C42.8305 30.2442 42.9034 30.0113 43.0511 29.8143C43.2008 29.6155 43.4081 29.462 43.6733 29.3541C43.9403 29.2442 44.2481 29.1893 44.5966 29.1893C45.108 29.1893 45.5104 29.2982 45.804 29.516C46.0994 29.7338 46.2822 30.0283 46.3523 30.3995ZM49.973 29.2461V30.0416H47.4645V29.2461H49.973ZM48.0838 28.2007H49.1122V32.2973C49.1122 32.4355 49.133 32.5416 49.1747 32.6155C49.2183 32.6874 49.2751 32.7367 49.3452 32.7632C49.4152 32.7897 49.4929 32.803 49.5781 32.803C49.6425 32.803 49.7012 32.7982 49.7543 32.7887C49.8092 32.7793 49.8509 32.7708 49.8793 32.7632L50.0526 33.5672C49.9976 33.5861 49.919 33.6069 49.8168 33.6297C49.7164 33.6524 49.5933 33.6656 49.4474 33.6694C49.1899 33.677 48.9579 33.6382 48.7514 33.553C48.545 33.4658 48.3812 33.3314 48.2599 33.1495C48.1406 32.9677 48.0819 32.7405 48.0838 32.4677V28.2007ZM51.3331 33.6098V29.2461H52.3303V29.9734H52.3757C52.4553 29.7215 52.5916 29.5274 52.7848 29.391C52.9799 29.2528 53.2024 29.1836 53.4524 29.1836C53.5092 29.1836 53.5727 29.1865 53.6428 29.1922C53.7147 29.1959 53.7744 29.2026 53.8217 29.212V30.1581C53.7782 30.1429 53.709 30.1297 53.6143 30.1183C53.5215 30.105 53.4316 30.0984 53.3445 30.0984C53.157 30.0984 52.9884 30.1391 52.8388 30.2206C52.6911 30.3001 52.5746 30.4109 52.4893 30.553C52.4041 30.695 52.3615 30.8588 52.3615 31.0444V33.6098H51.3331ZM55.005 33.6098V29.2461H56.0334V33.6098H55.005ZM55.522 28.6268C55.3591 28.6268 55.219 28.5728 55.1016 28.4649C54.9841 28.355 54.9254 28.2234 54.9254 28.07C54.9254 27.9147 54.9841 27.7831 55.1016 27.6751C55.219 27.5653 55.3591 27.5103 55.522 27.5103C55.6868 27.5103 55.8269 27.5653 55.9425 27.6751C56.0599 27.7831 56.1186 27.9147 56.1186 28.07C56.1186 28.2234 56.0599 28.355 55.9425 28.4649C55.8269 28.5728 55.6868 28.6268 55.522 28.6268ZM57.6364 33.6098V27.7916H58.6648V29.9677H58.7074C58.7604 29.8617 58.8352 29.749 58.9318 29.6297C59.0284 29.5084 59.1591 29.4052 59.3239 29.32C59.4886 29.2329 59.6989 29.1893 59.9545 29.1893C60.2917 29.1893 60.5956 29.2755 60.8665 29.4478C61.1392 29.6183 61.3551 29.8711 61.5142 30.2064C61.6752 30.5397 61.7557 30.9488 61.7557 31.4336C61.7557 31.9128 61.6771 32.32 61.5199 32.6552C61.3627 32.9905 61.1487 33.2461 60.8778 33.4223C60.607 33.5984 60.3002 33.6865 59.9574 33.6865C59.7074 33.6865 59.5 33.6448 59.3352 33.5615C59.1705 33.4781 59.0379 33.3778 58.9375 33.2603C58.839 33.141 58.7623 33.0283 58.7074 32.9223H58.6477V33.6098H57.6364ZM58.6449 31.428C58.6449 31.7102 58.6847 31.9573 58.7642 32.1694C58.8456 32.3816 58.9621 32.5473 59.1136 32.6666C59.267 32.784 59.4527 32.8427 59.6705 32.8427C59.8977 32.8427 60.0881 32.7821 60.2415 32.6609C60.3949 32.5378 60.5104 32.3702 60.5881 32.1581C60.6676 31.9441 60.7074 31.7007 60.7074 31.428C60.7074 31.1571 60.6686 30.9166 60.5909 30.7064C60.5133 30.4961 60.3977 30.3314 60.2443 30.212C60.0909 30.0927 59.8996 30.0331 59.6705 30.0331C59.4508 30.0331 59.2642 30.0908 59.1108 30.2064C58.9574 30.3219 58.8409 30.4838 58.7614 30.6922C58.6837 30.9005 58.6449 31.1458 58.6449 31.428ZM65.9112 31.7745V29.2461H66.9396V33.6098H65.9425V32.8342H65.897C65.7985 33.0785 65.6366 33.2783 65.4112 33.4336C65.1877 33.5889 64.9122 33.6666 64.5845 33.6666C64.2985 33.6666 64.0457 33.6031 63.826 33.4762C63.6082 33.3475 63.4377 33.1609 63.3146 32.9166C63.1915 32.6704 63.13 32.373 63.13 32.0245V29.2461H64.1584V31.8655C64.1584 32.142 64.2341 32.3617 64.3857 32.5245C64.5372 32.6874 64.736 32.7689 64.9822 32.7689C65.1338 32.7689 65.2805 32.7319 65.4226 32.6581C65.5646 32.5842 65.6811 32.4744 65.772 32.3285C65.8648 32.1808 65.9112 31.9961 65.9112 31.7745ZM70.6761 29.2461V30.0416H68.1676V29.2461H70.6761ZM68.7869 28.2007H69.8153V32.2973C69.8153 32.4355 69.8362 32.5416 69.8778 32.6155C69.9214 32.6874 69.9782 32.7367 70.0483 32.7632C70.1184 32.7897 70.196 32.803 70.2812 32.803C70.3456 32.803 70.4044 32.7982 70.4574 32.7887C70.5123 32.7793 70.554 32.7708 70.5824 32.7632L70.7557 33.5672C70.7008 33.5861 70.6222 33.6069 70.5199 33.6297C70.4195 33.6524 70.2964 33.6656 70.1506 33.6694C69.893 33.677 69.661 33.6382 69.4545 33.553C69.2481 33.4658 69.0843 33.3314 68.9631 33.1495C68.8438 32.9677 68.785 32.7405 68.7869 32.4677V28.2007ZM72.0362 33.6098V29.2461H73.0646V33.6098H72.0362ZM72.5533 28.6268C72.3904 28.6268 72.2502 28.5728 72.1328 28.4649C72.0154 28.355 71.9567 28.2234 71.9567 28.07C71.9567 27.9147 72.0154 27.7831 72.1328 27.6751C72.2502 27.5653 72.3904 27.5103 72.5533 27.5103C72.718 27.5103 72.8582 27.5653 72.9737 27.6751C73.0911 27.7831 73.1499 27.9147 73.1499 28.07C73.1499 28.2234 73.0911 28.355 72.9737 28.4649C72.8582 28.5728 72.718 28.6268 72.5533 28.6268ZM76.5256 33.695C76.0994 33.695 75.7301 33.6012 75.4176 33.4137C75.1051 33.2262 74.8627 32.9639 74.6903 32.6268C74.5199 32.2897 74.4347 31.8958 74.4347 31.445C74.4347 30.9942 74.5199 30.5994 74.6903 30.2603C74.8627 29.9213 75.1051 29.6581 75.4176 29.4706C75.7301 29.2831 76.0994 29.1893 76.5256 29.1893C76.9517 29.1893 77.321 29.2831 77.6335 29.4706C77.946 29.6581 78.1875 29.9213 78.358 30.2603C78.5303 30.5994 78.6165 30.9942 78.6165 31.445C78.6165 31.8958 78.5303 32.2897 78.358 32.6268C78.1875 32.9639 77.946 33.2262 77.6335 33.4137C77.321 33.6012 76.9517 33.695 76.5256 33.695ZM76.5312 32.8711C76.7623 32.8711 76.9555 32.8077 77.1108 32.6808C77.2661 32.552 77.3816 32.3797 77.4574 32.1637C77.535 31.9478 77.5739 31.7073 77.5739 31.4422C77.5739 31.1751 77.535 30.9336 77.4574 30.7177C77.3816 30.4999 77.2661 30.3266 77.1108 30.1978C76.9555 30.0691 76.7623 30.0047 76.5312 30.0047C76.2945 30.0047 76.0975 30.0691 75.9403 30.1978C75.785 30.3266 75.6686 30.4999 75.5909 30.7177C75.5152 30.9336 75.4773 31.1751 75.4773 31.4422C75.4773 31.7073 75.5152 31.9478 75.5909 32.1637C75.6686 32.3797 75.785 32.552 75.9403 32.6808C76.0975 32.8077 76.2945 32.8711 76.5312 32.8711ZM81.0178 31.053V33.6098H79.9893V29.2461H80.9723V29.9876H81.0234C81.1238 29.7433 81.2839 29.5492 81.5036 29.4052C81.7251 29.2613 81.9988 29.1893 82.3246 29.1893C82.6257 29.1893 82.888 29.2537 83.1115 29.3825C83.3369 29.5113 83.5111 29.6978 83.6342 29.9422C83.7592 30.1865 83.8208 30.4829 83.8189 30.8314V33.6098H82.7905V30.9905C82.7905 30.6988 82.7147 30.4706 82.5632 30.3058C82.4136 30.141 82.2062 30.0586 81.9411 30.0586C81.7611 30.0586 81.6011 30.0984 81.4609 30.178C81.3227 30.2556 81.2138 30.3683 81.1342 30.516C81.0566 30.6637 81.0178 30.8427 81.0178 31.053ZM85.9979 33.6723C85.8255 33.6723 85.6778 33.6117 85.5547 33.4905C85.4316 33.3692 85.371 33.2215 85.3729 33.0473C85.371 32.8768 85.4316 32.731 85.5547 32.6098C85.6778 32.4886 85.8255 32.428 85.9979 32.428C86.1645 32.428 86.3094 32.4886 86.4325 32.6098C86.5575 32.731 86.621 32.8768 86.6229 33.0473C86.621 33.1628 86.5907 33.2679 86.532 33.3626C86.4751 33.4573 86.3994 33.5331 86.3047 33.5899C86.2119 33.6448 86.1096 33.6723 85.9979 33.6723ZM90.5348 33.6098V27.7916H92.7166C93.1636 27.7916 93.5386 27.8749 93.8416 28.0416C94.1465 28.2083 94.3767 28.4374 94.532 28.7291C94.6892 29.0189 94.7678 29.3484 94.7678 29.7177C94.7678 30.0908 94.6892 30.4223 94.532 30.712C94.3748 31.0018 94.1428 31.23 93.8359 31.3967C93.5291 31.5615 93.1513 31.6439 92.7024 31.6439H91.2564V30.7774H92.5604C92.8217 30.7774 93.0357 30.7319 93.2024 30.641C93.3691 30.5501 93.4922 30.4251 93.5717 30.266C93.6532 30.1069 93.6939 29.9242 93.6939 29.7177C93.6939 29.5113 93.6532 29.3295 93.5717 29.1723C93.4922 29.0151 93.3681 28.8929 93.1996 28.8058C93.0329 28.7168 92.8179 28.6723 92.5547 28.6723H91.5888V33.6098H90.5348ZM97.1662 27.7916V33.6098H96.1378V27.7916H97.1662ZM99.9794 33.6978C99.7029 33.6978 99.4538 33.6486 99.2322 33.5501C99.0125 33.4497 98.8383 33.302 98.7095 33.1069C98.5826 32.9119 98.5192 32.6713 98.5192 32.3853C98.5192 32.1391 98.5646 31.9355 98.6555 31.7745C98.7464 31.6136 98.8705 31.4848 99.0277 31.3882C99.1849 31.2916 99.362 31.2187 99.5589 31.1694C99.7578 31.1183 99.9633 31.0814 100.175 31.0586C100.431 31.0321 100.638 31.0084 100.798 30.9876C100.957 30.9649 101.072 30.9308 101.144 30.8853C101.218 30.838 101.255 30.7651 101.255 30.6666V30.6495C101.255 30.4355 101.192 30.2698 101.065 30.1524C100.938 30.035 100.755 29.9762 100.516 29.9762C100.264 29.9762 100.065 30.0312 99.9169 30.141C99.7711 30.2509 99.6726 30.3806 99.6214 30.5302L98.6612 30.3939C98.737 30.1287 98.862 29.9071 99.0362 29.7291C99.2105 29.5492 99.4235 29.4147 99.6754 29.3257C99.9273 29.2348 100.206 29.1893 100.511 29.1893C100.721 29.1893 100.93 29.2139 101.138 29.2632C101.347 29.3124 101.537 29.3939 101.71 29.5075C101.882 29.6192 102.02 29.7717 102.124 29.9649C102.23 30.1581 102.283 30.3995 102.283 30.6893V33.6098H101.295V33.0103H101.261C101.198 33.1316 101.11 33.2452 100.996 33.3512C100.885 33.4554 100.744 33.5397 100.573 33.6041C100.405 33.6666 100.207 33.6978 99.9794 33.6978ZM100.246 32.9422C100.453 32.9422 100.632 32.9014 100.783 32.82C100.935 32.7367 101.051 32.6268 101.133 32.4905C101.216 32.3541 101.258 32.2054 101.258 32.0444V31.5302C101.226 31.5567 101.171 31.5814 101.093 31.6041C101.017 31.6268 100.932 31.6467 100.837 31.6637C100.743 31.6808 100.649 31.6959 100.556 31.7092C100.463 31.7225 100.383 31.7338 100.315 31.7433C100.161 31.7641 100.024 31.7982 99.9027 31.8456C99.7815 31.8929 99.6858 31.9592 99.6158 32.0444C99.5457 32.1278 99.5107 32.2357 99.5107 32.3683C99.5107 32.5577 99.5798 32.7007 99.718 32.7973C99.8563 32.8939 100.032 32.9422 100.246 32.9422ZM105.996 29.2461V30.0416H103.488V29.2461H105.996ZM104.107 28.2007H105.136V32.2973C105.136 32.4355 105.156 32.5416 105.198 32.6155C105.242 32.6874 105.299 32.7367 105.369 32.7632C105.439 32.7897 105.516 32.803 105.602 32.803C105.666 32.803 105.725 32.7982 105.778 32.7887C105.833 32.7793 105.874 32.7708 105.903 32.7632L106.076 33.5672C106.021 33.5861 105.942 33.6069 105.84 33.6297C105.74 33.6524 105.617 33.6656 105.471 33.6694C105.213 33.677 104.981 33.6382 104.775 33.553C104.568 33.4658 104.405 33.3314 104.283 33.1495C104.164 32.9677 104.105 32.7405 104.107 32.4677V28.2007ZM109.567 29.2461V30.0416H106.987V29.2461H109.567ZM107.632 33.6098V28.8342C107.632 28.5406 107.693 28.2963 107.814 28.1012C107.937 27.9062 108.102 27.7603 108.308 27.6637C108.515 27.5672 108.744 27.5189 108.996 27.5189C109.174 27.5189 109.332 27.5331 109.47 27.5615C109.608 27.5899 109.711 27.6155 109.777 27.6382L109.572 28.4336C109.529 28.4204 109.474 28.4071 109.408 28.3939C109.341 28.3787 109.268 28.3711 109.186 28.3711C108.995 28.3711 108.859 28.4175 108.78 28.5103C108.702 28.6012 108.663 28.7319 108.663 28.9024V33.6098H107.632ZM112.612 33.695C112.185 33.695 111.816 33.6012 111.504 33.4137C111.191 33.2262 110.949 32.9639 110.776 32.6268C110.606 32.2897 110.521 31.8958 110.521 31.445C110.521 30.9942 110.606 30.5994 110.776 30.2603C110.949 29.9213 111.191 29.6581 111.504 29.4706C111.816 29.2831 112.185 29.1893 112.612 29.1893C113.038 29.1893 113.407 29.2831 113.719 29.4706C114.032 29.6581 114.273 29.9213 114.444 30.2603C114.616 30.5994 114.702 30.9942 114.702 31.445C114.702 31.8958 114.616 32.2897 114.444 32.6268C114.273 32.9639 114.032 33.2262 113.719 33.4137C113.407 33.6012 113.038 33.695 112.612 33.695ZM112.617 32.8711C112.848 32.8711 113.041 32.8077 113.197 32.6808C113.352 32.552 113.468 32.3797 113.543 32.1637C113.621 31.9478 113.66 31.7073 113.66 31.4422C113.66 31.1751 113.621 30.9336 113.543 30.7177C113.468 30.4999 113.352 30.3266 113.197 30.1978C113.041 30.0691 112.848 30.0047 112.617 30.0047C112.38 30.0047 112.183 30.0691 112.026 30.1978C111.871 30.3266 111.754 30.4999 111.677 30.7177C111.601 30.9336 111.563 31.1751 111.563 31.4422C111.563 31.7073 111.601 31.9478 111.677 32.1637C111.754 32.3797 111.871 32.552 112.026 32.6808C112.183 32.8077 112.38 32.8711 112.617 32.8711ZM116.075 33.6098V29.2461H117.072V29.9734H117.118C117.197 29.7215 117.334 29.5274 117.527 29.391C117.722 29.2528 117.945 29.1836 118.195 29.1836C118.251 29.1836 118.315 29.1865 118.385 29.1922C118.457 29.1959 118.517 29.2026 118.564 29.212V30.1581C118.52 30.1429 118.451 30.1297 118.357 30.1183C118.264 30.105 118.174 30.0984 118.087 30.0984C117.899 30.0984 117.731 30.1391 117.581 30.2206C117.433 30.3001 117.317 30.4109 117.232 30.553C117.146 30.695 117.104 30.8588 117.104 31.0444V33.6098H116.075ZM119.747 33.6098V29.2461H120.73V29.9876H120.781C120.872 29.7376 121.023 29.5425 121.233 29.4024C121.443 29.2603 121.694 29.1893 121.986 29.1893C122.281 29.1893 122.53 29.2613 122.733 29.4052C122.938 29.5473 123.081 29.7414 123.165 29.9876H123.21C123.307 29.7452 123.47 29.552 123.699 29.4081C123.93 29.2622 124.204 29.1893 124.52 29.1893C124.921 29.1893 125.249 29.3162 125.503 29.57C125.757 29.8238 125.884 30.1941 125.884 30.6808V33.6098H124.852V30.8399C124.852 30.5691 124.78 30.3711 124.636 30.2461C124.492 30.1192 124.316 30.0558 124.108 30.0558C123.86 30.0558 123.666 30.1334 123.526 30.2887C123.387 30.4422 123.318 30.642 123.318 30.8882V33.6098H122.31V30.7973C122.31 30.5719 122.241 30.392 122.105 30.2575C121.971 30.123 121.795 30.0558 121.577 30.0558C121.429 30.0558 121.295 30.0937 121.173 30.1694C121.052 30.2433 120.955 30.3484 120.884 30.4848C120.812 30.6192 120.776 30.7764 120.776 30.9564V33.6098H119.747Z" fill="#3F4754"/>
</svg>
