<svg width="24" height="24" viewBox="0 0 24 24" fill="none" xmlns="http://www.w3.org/2000/svg">
<path opacity="0.4" d="M19.53 5.53L5.53 19.53C5.51 19.55 5.5 19.56 5.48 19.57C5.1 19.25 4.75 18.9 4.43 18.52C2.91 16.77 2 14.49 2 12C2 6.48 6.48 2 12 2C14.49 2 16.77 2.91 18.52 4.43C18.9 4.75 19.25 5.1 19.57 5.48C19.56 5.5 19.55 5.51 19.53 5.53Z" fill="#292D32"/>
<path opacity="0.4" d="M22.0001 12C22.0001 17.52 17.5201 22 12.0001 22C10.0101 22 8.1601 21.42 6.6001 20.4L20.4001 6.6C21.4201 8.16 22.0001 10.01 22.0001 12Z" fill="#292D32"/>
<path d="M20.6169 3.97159C20.388 3.69225 19.9924 3.67239 19.7367 3.92741L4.01255 19.62C3.75688 19.875 3.73497 20.3114 3.96382 20.5908C4.07869 20.7215 4.22854 20.8005 4.39004 20.8086C4.55155 20.8167 4.70855 20.7531 4.83639 20.6256L20.5686 4.93345C20.8323 4.67883 20.8538 4.25134 20.6169 3.97159Z" fill="#292D32"/>
</svg>
