<svg width="24" height="24" viewBox="0 0 24 24" fill="none" xmlns="http://www.w3.org/2000/svg">
<path fill-rule="evenodd" clip-rule="evenodd" d="M1 18.0039C1 17.6728 1.04024 17.351 1.1161 17.0433L1.11652 17.0387C1.27916 16.3528 1.6327 15.7023 2.16303 15.1719C3.37935 13.9556 5.18254 13.686 6.65903 14.3631C8.04015 14.9935 9 16.3866 9 18.0039C9 18.777 8.78068 19.4989 8.40088 20.1107C8.24235 20.368 8.0513 20.6115 7.82696 20.8358C7.50967 21.1531 7.14935 21.4071 6.76418 21.5948C6.25405 21.8459 5.68265 21.9915 5.07844 22.0032C4.03188 22.0281 2.97439 21.6401 2.17011 20.8358C1.80379 20.4695 1.52623 20.0521 1.33411 19.6068C1.11923 19.1161 1 18.5739 1 18.0039Z" fill="#292D32"/>
<rect x="2" y="17" width="6" height="2" fill="white"/>
<path opacity="0.4" d="M22 9V15C22 18.5 20 20 17 20H8.45001C8.80001 19.41 9 18.73 9 18C9 15.79 7.21 14 5 14C3.8 14 2.73 14.53 2 15.36V9C2 5.5 4 4 7 4H17C20 4 22 5.5 22 9Z" fill="#292D32"/>
<path d="M12 14.5C13.3807 14.5 14.5 13.3807 14.5 12C14.5 10.6193 13.3807 9.5 12 9.5C10.6193 9.5 9.5 10.6193 9.5 12C9.5 13.3807 10.6193 14.5 12 14.5Z" fill="#292D32"/>
<path d="M18.5 14.75C18.09 14.75 17.75 14.41 17.75 14V10C17.75 9.59 18.09 9.25 18.5 9.25C18.91 9.25 19.25 9.59 19.25 10V14C19.25 14.41 18.91 14.75 18.5 14.75Z" fill="#292D32"/>
</svg>
