<svg width="24" height="24" viewBox="0 0 24 24" fill="none" xmlns="http://www.w3.org/2000/svg">
<path opacity="0.4" d="M21 22H3C2.59 22 2.25 21.66 2.25 21.25C2.25 20.84 2.59 20.5 3 20.5H21C21.41 20.5 21.75 20.84 21.75 21.25C21.75 21.66 21.41 22 21 22Z" fill="#292D32"/>
<path opacity="0.4" d="M19.0201 3.48C17.0801 1.54 15.1801 1.49 13.1901 3.48L11.9801 4.69C11.8801 4.79 11.8401 4.95 11.8801 5.09C12.6401 7.74 14.7601 9.86 17.4101 10.62C17.4501 10.63 17.4901 10.64 17.5301 10.64C17.6401 10.64 17.7401 10.6 17.8201 10.52L19.0201 9.31C20.0101 8.33 20.4901 7.38 20.4901 6.42C20.5001 5.43 20.0201 4.47 19.0201 3.48Z" fill="#292D32"/>
<path d="M15.6101 11.53C15.3201 11.39 15.0401 11.25 14.7701 11.09C14.5501 10.96 14.3401 10.82 14.1301 10.67C13.9601 10.56 13.7601 10.4 13.5701 10.24C13.5501 10.23 13.4801 10.17 13.4001 10.09C13.0701 9.81 12.7001 9.45 12.3701 9.05C12.3401 9.03 12.2901 8.96 12.2201 8.87C12.1201 8.75 11.9501 8.55 11.8001 8.32C11.6801 8.17 11.5401 7.95 11.4101 7.73C11.2501 7.46 11.1101 7.19 10.9701 6.91C10.8301 6.61 10.7201 6.32 10.6201 6.05L4.34007 12.33C4.21007 12.46 4.09007 12.71 4.06007 12.88L3.52007 16.71C3.42007 17.39 3.61007 18.03 4.03007 18.46C4.39007 18.81 4.89007 19 5.43007 19C5.55007 19 5.67007 18.99 5.79007 18.97L9.63007 18.43C9.81007 18.4 10.0601 18.28 10.1801 18.15L16.4601 11.87C16.1801 11.77 15.9101 11.66 15.6101 11.53Z" fill="#292D32"/>
</svg>
