<svg width="24" height="24" viewBox="0 0 24 24" fill="none" xmlns="http://www.w3.org/2000/svg">
<path opacity="0.4" d="M20.6001 4.1V6.3C20.6001 7.1 20.1001 8.1 19.6001 8.6L15.3001 12.4C14.7001 12.9 14.3001 13.9 14.3001 14.7V19C14.3001 19.6 13.9001 20.4 13.4001 20.7L12.0001 21.6C10.7001 22.4 8.9001 21.5 8.9001 19.9V14.6C8.9001 13.9 8.5001 13 8.1001 12.5L7.1001 11.45L12.9201 2.1H18.6001C19.7001 2.1 20.6001 3 20.6001 4.1Z" fill="#292D32"/>
<path d="M11.2999 2.1L6.1199 10.41L4.2999 8.5C3.7999 8 3.3999 7.1 3.3999 6.5V4.2C3.3999 3 4.2999 2.1 5.3999 2.1H11.2999Z" fill="#292D32"/>
</svg>
