<svg width="24" height="24" viewBox="0 0 24 24" fill="none" xmlns="http://www.w3.org/2000/svg">
<path opacity="0.4" d="M20.5 10.19H17.61C15.24 10.19 13.31 8.26 13.31 5.89V3C13.31 2.45 12.86 2 12.31 2H8.07C4.99 2 2.5 4 2.5 7.57V16.43C2.5 20 4.99 22 8.07 22H15.93C19.01 22 21.5 20 21.5 16.43V11.19C21.5 10.64 21.05 10.19 20.5 10.19Z" fill="#292D32"/>
<path opacity="0.4" d="M15.7999 2.21C15.3899 1.8 14.6799 2.08 14.6799 2.65V6.14C14.6799 7.6 15.9199 8.81 17.4299 8.81C18.3799 8.82 19.6999 8.82 20.8299 8.82C21.3999 8.82 21.6999 8.15 21.2999 7.75C19.8599 6.3 17.2799 3.69 15.7999 2.21Z" fill="#292D32"/>
<path d="M13.5 13.75H7.5C7.09 13.75 6.75 13.41 6.75 13C6.75 12.59 7.09 12.25 7.5 12.25H13.5C13.91 12.25 14.25 12.59 14.25 13C14.25 13.41 13.91 13.75 13.5 13.75Z" fill="#292D32"/>
<path d="M11.5 17.75H7.5C7.09 17.75 6.75 17.41 6.75 17C6.75 16.59 7.09 16.25 7.5 16.25H11.5C11.91 16.25 12.25 16.59 12.25 17C12.25 17.41 11.91 17.75 11.5 17.75Z" fill="#292D32"/>
<path d="M18.0001 23.3333C19.841 23.3333 21.3334 21.841 21.3334 20C21.3334 18.1591 19.841 16.6667 18.0001 16.6667C16.1591 16.6667 14.6667 18.1591 14.6667 20C14.6667 21.841 16.1591 23.3333 18.0001 23.3333Z" fill="#292D32"/>
<path d="M19.2365 21.31C19.1932 21.31 19.1499 21.3 19.1099 21.2733L18.0765 20.6567C17.8199 20.5033 17.6299 20.1667 17.6299 19.87V18.5033C17.6299 18.3667 17.7432 18.2533 17.8799 18.2533C18.0165 18.2533 18.1299 18.3667 18.1299 18.5033V19.87C18.1299 19.99 18.2299 20.1667 18.3332 20.2267L19.3665 20.8433C19.4865 20.9133 19.5232 21.0667 19.4532 21.1867C19.4032 21.2667 19.3199 21.31 19.2365 21.31Z" fill="white"/>
</svg>
