<svg width="24" height="24" viewBox="0 0 24 24" fill="none" xmlns="http://www.w3.org/2000/svg">
<path d="M9.75 20C9.75 21.2426 10.7574 22.25 12 22.25C13.2426 22.25 14.25 21.2426 14.25 20C14.25 18.7574 13.2426 17.75 12 17.75C10.7574 17.75 9.75 18.7574 9.75 20Z" fill="#292D32"/>
<path d="M17.75 20C17.75 21.2426 18.7574 22.25 20 22.25C21.2426 22.25 22.25 21.2426 22.25 20C22.25 18.7574 21.2426 17.75 20 17.75C18.7574 17.75 17.75 18.7574 17.75 20Z" fill="#292D32"/>
<path d="M1.75 20C1.75 21.2426 2.75736 22.25 4 22.25C5.24264 22.25 6.25 21.2426 6.25 20C6.25 18.7574 5.24264 17.75 4 17.75C2.75736 17.75 1.75 18.7574 1.75 20Z" fill="#292D32"/>
<path d="M9.75 4C9.75 5.24264 10.7574 6.25 12 6.25C13.2426 6.25 14.25 5.24264 14.25 4C14.25 2.75736 13.2426 1.75 12 1.75C10.7574 1.75 9.75 2.75736 9.75 4Z" fill="#292D32"/>
<path opacity="0.4" d="M11.25 19C11.25 19.41 11.59 19.75 12 19.75C12.41 19.75 12.75 19.41 12.75 19L12.75 11.75L17 11.75C18.58 11.75 19.25 12.42 19.25 14L19.25 19C19.25 19.41 19.59 19.75 20 19.75C20.41 19.75 20.75 19.41 20.75 19L20.75 14C20.75 11.58 19.42 10.25 17 10.25L12.75 10.25L12.75 5C12.75 4.59 12.41 4.25 12 4.25C11.59 4.25 11.25 4.59 11.25 5L11.25 10.25L7 10.25C4.58 10.25 3.25 11.58 3.25 14L3.25 19C3.25 19.41 3.59 19.75 4 19.75C4.41 19.75 4.75 19.41 4.75 19L4.75 14C4.75 12.42 5.42 11.75 7 11.75L11.25 11.75L11.25 19Z" fill="#292D32"/>
</svg>
