<svg width="24" height="24" viewBox="0 0 24 24" fill="none" xmlns="http://www.w3.org/2000/svg">
<path opacity="0.4" d="M16.19 2H7.81C4.17 2 2 4.17 2 7.81V16.18C2 19.83 4.17 22 7.81 22H16.18C19.82 22 21.99 19.83 21.99 16.19V7.81C22 4.17 19.83 2 16.19 2Z" fill="#292D32"/>
<path d="M6.87988 18.9C6.46988 18.9 6.12988 18.56 6.12988 18.15V16.08C6.12988 15.67 6.46988 15.33 6.87988 15.33C7.28988 15.33 7.62988 15.67 7.62988 16.08V18.15C7.62988 18.57 7.28988 18.9 6.87988 18.9Z" fill="#292D32"/>
<path d="M12 18.9C11.59 18.9 11.25 18.56 11.25 18.15V14C11.25 13.59 11.59 13.25 12 13.25C12.41 13.25 12.75 13.59 12.75 14V18.15C12.75 18.57 12.41 18.9 12 18.9Z" fill="#292D32"/>
<path d="M17.1201 18.9C16.7101 18.9 16.3701 18.56 16.3701 18.15V11.93C16.3701 11.52 16.7101 11.18 17.1201 11.18C17.5301 11.18 17.8701 11.52 17.8701 11.93V18.15C17.8701 18.57 17.5401 18.9 17.1201 18.9Z" fill="#292D32"/>
<path d="M17.87 5.82C17.87 5.77 17.85 5.71 17.84 5.66C17.83 5.62 17.82 5.57 17.81 5.53C17.79 5.49 17.76 5.46 17.74 5.42C17.71 5.38 17.68 5.33 17.64 5.3C17.63 5.29 17.63 5.28 17.62 5.28C17.59 5.26 17.56 5.25 17.53 5.23C17.49 5.2 17.44 5.17 17.39 5.15C17.34 5.13 17.29 5.13 17.24 5.12C17.2 5.11 17.17 5.1 17.13 5.1H14.2C13.79 5.1 13.45 5.44 13.45 5.85C13.45 6.26 13.79 6.6 14.2 6.6H15.45C13.07 9.1 10.07 10.86 6.69998 11.71C6.29998 11.81 6.04998 12.22 6.14998 12.62C6.22998 12.96 6.53998 13.19 6.87998 13.19C6.93998 13.19 6.99998 13.18 7.05998 13.17C10.63 12.28 13.82 10.43 16.37 7.81V8.78C16.37 9.19 16.71 9.53 17.12 9.53C17.53 9.53 17.87 9.19 17.87 8.78V5.85C17.87 5.84 17.87 5.83 17.87 5.82Z" fill="#292D32"/>
</svg>
