<svg width="24" height="24" viewBox="0 0 24 24" fill="none" xmlns="http://www.w3.org/2000/svg">
<path opacity="0.4" d="M12 22C17.5228 22 22 17.5228 22 12C22 6.47715 17.5228 2 12 2C6.47715 2 2 6.47715 2 12C2 17.5228 6.47715 22 12 22Z" fill="#292D32"/>
<path d="M14.9 7.59H9.31L9.72 7.17996C10.01 6.88996 10.01 6.40997 9.72 6.11997C9.43 5.82997 8.95001 5.82997 8.66001 6.11997L6.97 7.80997C6.9 7.87997 6.85 7.95996 6.81 8.04996C6.73 8.22996 6.73 8.43997 6.81 8.61997C6.85 8.70997 6.9 8.78996 6.97 8.85996L8.66001 10.55C8.81001 10.7 9 10.77 9.19 10.77C9.38 10.77 9.57 10.7 9.72 10.55C10.01 10.26 10.01 9.77996 9.72 9.48996L9.31 9.07999H14.9C15.37 9.07999 15.75 9.45996 15.75 9.92996V11.7C15.75 12.11 16.09 12.45 16.5 12.45C16.91 12.45 17.25 12.11 17.25 11.7V9.92996C17.25 8.64996 16.19 7.59 14.9 7.59Z" fill="#292D32"/>
<path d="M17.19 15.37C17.15 15.28 17.1 15.2 17.03 15.13L15.34 13.44C15.05 13.15 14.57 13.15 14.28 13.44C13.99 13.73 13.99 14.21 14.28 14.5L14.69 14.91H9.10001C8.63001 14.91 8.25 14.53 8.25 14.06V12.29C8.25 11.88 7.91 11.54 7.5 11.54C7.09 11.54 6.75 11.88 6.75 12.29V14.06C6.75 15.36 7.81001 16.41 9.10001 16.41H14.69L14.28 16.82C13.99 17.11 13.99 17.59 14.28 17.88C14.43 18.03 14.62 18.1 14.81 18.1C15 18.1 15.19 18.03 15.34 17.88L17.03 16.19C17.1 16.12 17.15 16.04 17.19 15.95C17.27 15.76 17.27 15.55 17.19 15.37Z" fill="#292D32"/>
</svg>
