<svg width="24" height="24" viewBox="0 0 24 24" fill="none" xmlns="http://www.w3.org/2000/svg">
<path d="M16.19 2H7.82002C4.18002 2 2.01001 4.17 2.01001 7.81V16.18C2.01001 19.82 4.18002 21.99 7.82002 21.99H16.19C19.83 21.99 22 19.82 22 16.18V7.81C22 4.17 19.83 2 16.19 2Z" fill="#A1ABB7"/>
<path fill-rule="evenodd" clip-rule="evenodd" d="M11.4697 7.21967C11.7626 6.92678 12.2374 6.92678 12.5303 7.21967L15.5303 10.2197C15.8232 10.5126 15.8232 10.9874 15.5303 11.2803C15.2374 11.5732 14.7626 11.5732 14.4697 11.2803L12 8.81066L9.53033 11.2803C9.23744 11.5732 8.76256 11.5732 8.46967 11.2803C8.17678 10.9874 8.17678 10.5126 8.46967 10.2197L11.4697 7.21967Z" fill="white"/>
<path fill-rule="evenodd" clip-rule="evenodd" d="M12 7C12.4142 7 12.75 7.33579 12.75 7.75V15.75C12.75 16.1642 12.4142 16.5 12 16.5C11.5858 16.5 11.25 16.1642 11.25 15.75V7.75C11.25 7.33579 11.5858 7 12 7Z" fill="white"/>
</svg>
