<svg width="268" height="42" viewBox="0 0 268 42" fill="none" xmlns="http://www.w3.org/2000/svg">
<path d="M9.30243 36.4265C6.69151 37.9908 7.80062 42 10.8443 42H238.674C239.295 42 239.9 41.8074 240.407 41.4488L263.868 24.8448C265.483 23.7019 265.569 21.3359 264.041 20.0791L240.458 0.683015C239.921 0.241425 239.248 0 238.553 0H9.78923C6.83144 0 5.65843 3.82764 8.10834 5.48487L29.0258 19.6345C30.8434 20.864 30.7692 23.565 28.8868 24.6928L9.30243 36.4265Z" fill="#7239EA"/>
<path d="M75.56 26.0002L79.172 15.6402H81.272L84.898 26.0002H83.176L82.378 23.6762H78.08L77.282 26.0002H75.56ZM78.57 22.2202H81.888L80.236 17.3902L78.57 22.2202ZM89.3429 26.1402C88.7829 26.1402 88.2929 26.0329 87.8729 25.8182C87.4622 25.5942 87.1169 25.3002 86.8369 24.9362C86.5569 24.5629 86.3469 24.1476 86.2069 23.6902C86.0762 23.2329 86.0109 22.7662 86.0109 22.2902C86.0109 21.8142 86.0762 21.3476 86.2069 20.8902C86.3469 20.4329 86.5569 20.0222 86.8369 19.6582C87.1169 19.2849 87.4622 18.9909 87.8729 18.7762C88.2929 18.5522 88.7829 18.4402 89.3429 18.4402C89.8096 18.4402 90.1969 18.5149 90.5049 18.6642C90.8222 18.8136 91.0742 18.9862 91.2609 19.1822C91.4476 19.3782 91.5829 19.5462 91.6669 19.6862H91.7509V15.3602H93.3469V26.0002H91.7509V24.8942H91.6669C91.5829 25.0342 91.4476 25.2022 91.2609 25.3982C91.0742 25.5942 90.8222 25.7669 90.5049 25.9162C90.1969 26.0656 89.8096 26.1402 89.3429 26.1402ZM89.6929 24.8102C90.1502 24.8102 90.5282 24.6889 90.8269 24.4462C91.1349 24.1942 91.3636 23.8769 91.5129 23.4942C91.6716 23.1116 91.7509 22.7102 91.7509 22.2902C91.7509 21.8702 91.6716 21.4689 91.5129 21.0862C91.3636 20.7036 91.1349 20.3909 90.8269 20.1482C90.5282 19.8962 90.1502 19.7702 89.6929 19.7702C89.2356 19.7702 88.8529 19.8962 88.5449 20.1482C88.2369 20.3909 88.0036 20.7036 87.8449 21.0862C87.6956 21.4689 87.6209 21.8702 87.6209 22.2902C87.6209 22.7102 87.6956 23.1116 87.8449 23.4942C88.0036 23.8769 88.2369 24.1942 88.5449 24.4462C88.8529 24.6889 89.2356 24.8102 89.6929 24.8102ZM98.5167 26.1402C97.9567 26.1402 97.4667 26.0329 97.0467 25.8182C96.6361 25.5942 96.2907 25.3002 96.0107 24.9362C95.7307 24.5629 95.5207 24.1476 95.3807 23.6902C95.2501 23.2329 95.1847 22.7662 95.1847 22.2902C95.1847 21.8142 95.2501 21.3476 95.3807 20.8902C95.5207 20.4329 95.7307 20.0222 96.0107 19.6582C96.2907 19.2849 96.6361 18.9909 97.0467 18.7762C97.4667 18.5522 97.9567 18.4402 98.5167 18.4402C98.9834 18.4402 99.3707 18.5149 99.6787 18.6642C99.9961 18.8136 100.248 18.9862 100.435 19.1822C100.621 19.3782 100.757 19.5462 100.841 19.6862H100.925V15.3602H102.521V26.0002H100.925V24.8942H100.841C100.757 25.0342 100.621 25.2022 100.435 25.3982C100.248 25.5942 99.9961 25.7669 99.6787 25.9162C99.3707 26.0656 98.9834 26.1402 98.5167 26.1402ZM98.8667 24.8102C99.3241 24.8102 99.7021 24.6889 100.001 24.4462C100.309 24.1942 100.537 23.8769 100.687 23.4942C100.845 23.1116 100.925 22.7102 100.925 22.2902C100.925 21.8702 100.845 21.4689 100.687 21.0862C100.537 20.7036 100.309 20.3909 100.001 20.1482C99.7021 19.8962 99.3241 19.7702 98.8667 19.7702C98.4094 19.7702 98.0267 19.8962 97.7187 20.1482C97.4107 20.3909 97.1774 20.7036 97.0187 21.0862C96.8694 21.4689 96.7947 21.8702 96.7947 22.2902C96.7947 22.7102 96.8694 23.1116 97.0187 23.4942C97.1774 23.8769 97.4107 24.1942 97.7187 24.4462C98.0267 24.6889 98.4094 24.8102 98.8667 24.8102ZM108.097 26.1402C107.285 26.1402 106.599 25.9582 106.039 25.5942C105.488 25.2302 105.068 24.7542 104.779 24.1662C104.499 23.5782 104.359 22.9529 104.359 22.2902C104.359 21.6276 104.499 21.0022 104.779 20.4142C105.068 19.8262 105.488 19.3502 106.039 18.9862C106.599 18.6222 107.285 18.4402 108.097 18.4402C108.899 18.4402 109.576 18.6222 110.127 18.9862C110.687 19.3502 111.107 19.8262 111.387 20.4142C111.676 21.0022 111.821 21.6276 111.821 22.2902C111.821 22.9529 111.676 23.5782 111.387 24.1662C111.107 24.7542 110.687 25.2302 110.127 25.5942C109.576 25.9582 108.899 26.1402 108.097 26.1402ZM108.097 24.7822C108.554 24.7822 108.937 24.6656 109.245 24.4322C109.562 24.1989 109.8 23.8909 109.959 23.5082C110.127 23.1256 110.211 22.7196 110.211 22.2902C110.211 21.8516 110.127 21.4456 109.959 21.0722C109.8 20.6896 109.562 20.3816 109.245 20.1482C108.937 19.9149 108.554 19.7982 108.097 19.7982C107.639 19.7982 107.252 19.9149 106.935 20.1482C106.617 20.3816 106.379 20.6896 106.221 21.0722C106.062 21.4456 105.983 21.8516 105.983 22.2902C105.983 22.7196 106.062 23.1256 106.221 23.5082C106.379 23.8909 106.617 24.1989 106.935 24.4322C107.252 24.6656 107.639 24.7822 108.097 24.7822ZM113.522 26.0002V18.5802H115.118V19.6582H115.202C115.267 19.5276 115.379 19.3689 115.538 19.1822C115.696 18.9862 115.916 18.8136 116.196 18.6642C116.485 18.5149 116.849 18.4402 117.288 18.4402C117.838 18.4402 118.3 18.5662 118.674 18.8182C119.047 19.0702 119.327 19.4062 119.514 19.8262C119.71 20.2462 119.808 20.7082 119.808 21.2122V26.0002H118.212V21.3802C118.212 20.9322 118.086 20.5542 117.834 20.2462C117.591 19.9382 117.227 19.7842 116.742 19.7842C116.359 19.7842 116.046 19.8822 115.804 20.0782C115.57 20.2649 115.398 20.5122 115.286 20.8202C115.174 21.1189 115.118 21.4409 115.118 21.7862V26.0002H113.522ZM124.512 26.1402C123.924 26.1402 123.439 26.0609 123.056 25.9022C122.683 25.7342 122.384 25.5336 122.16 25.3002C121.936 25.0576 121.768 24.8149 121.656 24.5722C121.554 24.3296 121.488 24.1289 121.46 23.9702C121.432 23.8022 121.418 23.7182 121.418 23.7182H122.972C122.972 23.7182 122.986 23.7789 123.014 23.9002C123.052 24.0122 123.122 24.1429 123.224 24.2922C123.327 24.4416 123.486 24.5769 123.7 24.6982C123.915 24.8102 124.2 24.8662 124.554 24.8662C124.984 24.8662 125.301 24.7682 125.506 24.5722C125.721 24.3762 125.828 24.1522 125.828 23.9002C125.828 23.6576 125.74 23.4662 125.562 23.3262C125.385 23.1862 125.133 23.0789 124.806 23.0042L123.798 22.7802C123.406 22.6869 123.038 22.5609 122.692 22.4022C122.356 22.2342 122.081 22.0149 121.866 21.7442C121.661 21.4642 121.558 21.1049 121.558 20.6662C121.558 20.0222 121.801 19.4902 122.286 19.0702C122.772 18.6502 123.425 18.4402 124.246 18.4402C124.778 18.4402 125.217 18.5149 125.562 18.6642C125.917 18.8136 126.197 19.0002 126.402 19.2242C126.608 19.4389 126.762 19.6582 126.864 19.8822C126.967 20.0969 127.032 20.2789 127.06 20.4282C127.098 20.5682 127.116 20.6382 127.116 20.6382H125.618C125.618 20.6382 125.604 20.5916 125.576 20.4982C125.548 20.4049 125.488 20.2976 125.394 20.1762C125.301 20.0456 125.161 19.9336 124.974 19.8402C124.797 19.7376 124.554 19.6862 124.246 19.6862C123.826 19.6862 123.523 19.7796 123.336 19.9662C123.15 20.1529 123.056 20.3536 123.056 20.5682C123.056 20.7922 123.145 20.9696 123.322 21.1002C123.509 21.2216 123.752 21.3149 124.05 21.3802L125.044 21.6042C125.707 21.7536 126.253 22.0009 126.682 22.3462C127.112 22.6822 127.326 23.1722 127.326 23.8162C127.326 24.2456 127.214 24.6376 126.99 24.9922C126.776 25.3376 126.458 25.6176 126.038 25.8322C125.618 26.0376 125.11 26.1402 124.512 26.1402ZM135.867 26.1402C135.251 26.1402 134.719 26.0609 134.271 25.9022C133.832 25.7436 133.468 25.5429 133.179 25.3002C132.89 25.0482 132.656 24.7822 132.479 24.5022C132.311 24.2222 132.185 23.9609 132.101 23.7182C132.017 23.4662 131.961 23.2609 131.933 23.1022C131.905 22.9436 131.891 22.8642 131.891 22.8642H133.557C133.557 22.8642 133.571 22.9296 133.599 23.0602C133.627 23.1816 133.683 23.3356 133.767 23.5222C133.851 23.6996 133.977 23.8816 134.145 24.0682C134.322 24.2456 134.551 24.3996 134.831 24.5302C135.12 24.6516 135.484 24.7122 135.923 24.7122C136.576 24.7122 137.085 24.5582 137.449 24.2502C137.822 23.9422 138.009 23.5502 138.009 23.0742C138.009 22.6636 137.869 22.3462 137.589 22.1222C137.318 21.8889 136.917 21.7116 136.385 21.5902L135.013 21.2682C134.5 21.1562 134.024 20.9929 133.585 20.7782C133.156 20.5542 132.806 20.2556 132.535 19.8822C132.274 19.5089 132.143 19.0376 132.143 18.4682C132.143 17.8522 132.292 17.3249 132.591 16.8862C132.899 16.4382 133.319 16.0976 133.851 15.8642C134.392 15.6216 135.008 15.5002 135.699 15.5002C136.371 15.5002 136.926 15.6029 137.365 15.8082C137.804 16.0042 138.154 16.2469 138.415 16.5362C138.676 16.8256 138.868 17.1196 138.989 17.4182C139.12 17.7076 139.204 17.9549 139.241 18.1602C139.278 18.3562 139.297 18.4542 139.297 18.4542H137.701C137.701 18.4542 137.682 18.3796 137.645 18.2302C137.608 18.0716 137.519 17.8896 137.379 17.6842C137.248 17.4789 137.043 17.3016 136.763 17.1522C136.492 16.9936 136.124 16.9142 135.657 16.9142C135.013 16.9142 134.532 17.0636 134.215 17.3622C133.898 17.6609 133.739 17.9922 133.739 18.3562C133.739 18.7109 133.874 18.9956 134.145 19.2102C134.416 19.4156 134.78 19.5696 135.237 19.6722L136.707 20.0222C137.248 20.1436 137.738 20.3256 138.177 20.5682C138.625 20.8109 138.98 21.1329 139.241 21.5342C139.502 21.9262 139.633 22.4069 139.633 22.9762C139.633 23.5549 139.488 24.0869 139.199 24.5722C138.919 25.0482 138.499 25.4309 137.939 25.7202C137.379 26.0002 136.688 26.1402 135.867 26.1402ZM144.639 26.1402C144.013 26.1402 143.472 26.0329 143.015 25.8182C142.567 25.5942 142.193 25.3002 141.895 24.9362C141.605 24.5629 141.386 24.1476 141.237 23.6902C141.097 23.2329 141.027 22.7662 141.027 22.2902C141.027 21.8236 141.097 21.3616 141.237 20.9042C141.377 20.4469 141.591 20.0316 141.881 19.6582C142.17 19.2849 142.539 18.9909 142.987 18.7762C143.435 18.5522 143.962 18.4402 144.569 18.4402C145.222 18.4402 145.796 18.5896 146.291 18.8882C146.795 19.1776 147.187 19.6116 147.467 20.1902C147.756 20.7596 147.901 21.4689 147.901 22.3182V22.7522H142.637C142.674 23.3216 142.865 23.8116 143.211 24.2222C143.556 24.6329 144.032 24.8382 144.639 24.8382C144.984 24.8382 145.269 24.7822 145.493 24.6702C145.717 24.5489 145.889 24.4136 146.011 24.2642C146.132 24.1149 146.216 23.9842 146.263 23.8722C146.319 23.7602 146.347 23.7042 146.347 23.7042H147.831C147.831 23.7042 147.807 23.7882 147.761 23.9562C147.714 24.1149 147.625 24.3156 147.495 24.5582C147.373 24.8009 147.196 25.0436 146.963 25.2862C146.729 25.5289 146.421 25.7342 146.039 25.9022C145.656 26.0609 145.189 26.1402 144.639 26.1402ZM142.651 21.6322H146.361C146.323 20.9789 146.127 20.4982 145.773 20.1902C145.427 19.8822 145.021 19.7282 144.555 19.7282C144.032 19.7282 143.598 19.9009 143.253 20.2462C142.907 20.5822 142.707 21.0442 142.651 21.6322ZM149.629 26.0002V18.5802H151.225V19.5602H151.281C151.421 19.2709 151.64 19.0142 151.939 18.7902C152.247 18.5569 152.69 18.4402 153.269 18.4402C153.446 18.4402 153.596 18.4496 153.717 18.4682C153.848 18.4869 153.913 18.4962 153.913 18.4962V20.0362C153.913 20.0362 153.843 20.0269 153.703 20.0082C153.563 19.9896 153.404 19.9802 153.227 19.9802C152.574 19.9802 152.074 20.1669 151.729 20.5402C151.393 20.9042 151.225 21.4969 151.225 22.3182V26.0002H149.629ZM157.613 26.0002L154.827 18.5802H156.465L158.481 24.1382L160.455 18.5802H162.107L159.307 26.0002H157.613ZM164.459 17.3062C164.17 17.3062 163.932 17.2082 163.745 17.0122C163.558 16.8162 163.465 16.5876 163.465 16.3262C163.465 16.0556 163.558 15.8269 163.745 15.6402C163.932 15.4442 164.17 15.3462 164.459 15.3462C164.748 15.3462 164.986 15.4442 165.173 15.6402C165.369 15.8269 165.467 16.0556 165.467 16.3262C165.467 16.5969 165.369 16.8302 165.173 17.0262C164.986 17.2129 164.748 17.3062 164.459 17.3062ZM163.675 26.0002V18.5802H165.271V26.0002H163.675ZM170.918 26.1402C170.293 26.1402 169.747 26.0329 169.28 25.8182C168.814 25.5942 168.426 25.3002 168.118 24.9362C167.81 24.5629 167.577 24.1476 167.418 23.6902C167.269 23.2329 167.194 22.7662 167.194 22.2902C167.194 21.8142 167.269 21.3476 167.418 20.8902C167.577 20.4329 167.81 20.0222 168.118 19.6582C168.426 19.2849 168.814 18.9909 169.28 18.7762C169.747 18.5522 170.293 18.4402 170.918 18.4402C171.534 18.4402 172.043 18.5336 172.444 18.7202C172.855 18.8976 173.182 19.1216 173.424 19.3922C173.667 19.6629 173.849 19.9336 173.97 20.2042C174.092 20.4749 174.166 20.7036 174.194 20.8902C174.232 21.0769 174.25 21.1702 174.25 21.1702H172.738C172.738 21.1702 172.715 21.1002 172.668 20.9602C172.631 20.8202 172.552 20.6569 172.43 20.4702C172.309 20.2836 172.127 20.1202 171.884 19.9802C171.651 19.8402 171.334 19.7702 170.932 19.7702C170.456 19.7702 170.06 19.8916 169.742 20.1342C169.425 20.3676 169.182 20.6756 169.014 21.0582C168.856 21.4409 168.776 21.8516 168.776 22.2902C168.776 22.7289 168.856 23.1396 169.014 23.5222C169.182 23.9049 169.425 24.2176 169.742 24.4602C170.06 24.6936 170.456 24.8102 170.932 24.8102C171.334 24.8102 171.651 24.7402 171.884 24.6002C172.127 24.4602 172.309 24.2969 172.43 24.1102C172.552 23.9236 172.631 23.7602 172.668 23.6202C172.715 23.4802 172.738 23.4102 172.738 23.4102H174.25C174.25 23.4102 174.232 23.5036 174.194 23.6902C174.166 23.8769 174.092 24.1056 173.97 24.3762C173.849 24.6469 173.667 24.9176 173.424 25.1882C173.182 25.4589 172.855 25.6876 172.444 25.8742C172.043 26.0516 171.534 26.1402 170.918 26.1402ZM179.433 26.1402C178.808 26.1402 178.267 26.0329 177.809 25.8182C177.361 25.5942 176.988 25.3002 176.689 24.9362C176.4 24.5629 176.181 24.1476 176.031 23.6902C175.891 23.2329 175.821 22.7662 175.821 22.2902C175.821 21.8236 175.891 21.3616 176.031 20.9042C176.171 20.4469 176.386 20.0316 176.675 19.6582C176.965 19.2849 177.333 18.9909 177.781 18.7762C178.229 18.5522 178.757 18.4402 179.363 18.4402C180.017 18.4402 180.591 18.5896 181.085 18.8882C181.589 19.1776 181.981 19.6116 182.261 20.1902C182.551 20.7596 182.695 21.4689 182.695 22.3182V22.7522H177.431C177.469 23.3216 177.66 23.8116 178.005 24.2222C178.351 24.6329 178.827 24.8382 179.433 24.8382C179.779 24.8382 180.063 24.7822 180.287 24.6702C180.511 24.5489 180.684 24.4136 180.805 24.2642C180.927 24.1149 181.011 23.9842 181.057 23.8722C181.113 23.7602 181.141 23.7042 181.141 23.7042H182.625C182.625 23.7042 182.602 23.7882 182.555 23.9562C182.509 24.1149 182.42 24.3156 182.289 24.5582C182.168 24.8009 181.991 25.0436 181.757 25.2862C181.524 25.5289 181.216 25.7342 180.833 25.9022C180.451 26.0609 179.984 26.1402 179.433 26.1402ZM177.445 21.6322H181.155C181.118 20.9789 180.922 20.4982 180.567 20.1902C180.222 19.8822 179.816 19.7282 179.349 19.7282C178.827 19.7282 178.393 19.9009 178.047 20.2462C177.702 20.5822 177.501 21.0442 177.445 21.6322ZM187.28 26.1402C186.692 26.1402 186.207 26.0609 185.824 25.9022C185.451 25.7342 185.152 25.5336 184.928 25.3002C184.704 25.0576 184.536 24.8149 184.424 24.5722C184.321 24.3296 184.256 24.1289 184.228 23.9702C184.2 23.8022 184.186 23.7182 184.186 23.7182H185.74C185.74 23.7182 185.754 23.7789 185.782 23.9002C185.819 24.0122 185.889 24.1429 185.992 24.2922C186.095 24.4416 186.253 24.5769 186.468 24.6982C186.683 24.8102 186.967 24.8662 187.322 24.8662C187.751 24.8662 188.069 24.7682 188.274 24.5722C188.489 24.3762 188.596 24.1522 188.596 23.9002C188.596 23.6576 188.507 23.4662 188.33 23.3262C188.153 23.1862 187.901 23.0789 187.574 23.0042L186.566 22.7802C186.174 22.6869 185.805 22.5609 185.46 22.4022C185.124 22.2342 184.849 22.0149 184.634 21.7442C184.429 21.4642 184.326 21.1049 184.326 20.6662C184.326 20.0222 184.569 19.4902 185.054 19.0702C185.539 18.6502 186.193 18.4402 187.014 18.4402C187.546 18.4402 187.985 18.5149 188.33 18.6642C188.685 18.8136 188.965 19.0002 189.17 19.2242C189.375 19.4389 189.529 19.6582 189.632 19.8822C189.735 20.0969 189.8 20.2789 189.828 20.4282C189.865 20.5682 189.884 20.6382 189.884 20.6382H188.386C188.386 20.6382 188.372 20.5916 188.344 20.4982C188.316 20.4049 188.255 20.2976 188.162 20.1762C188.069 20.0456 187.929 19.9336 187.742 19.8402C187.565 19.7376 187.322 19.6862 187.014 19.6862C186.594 19.6862 186.291 19.7796 186.104 19.9662C185.917 20.1529 185.824 20.3536 185.824 20.5682C185.824 20.7922 185.913 20.9696 186.09 21.1002C186.277 21.2216 186.519 21.3149 186.818 21.3802L187.812 21.6042C188.475 21.7536 189.021 22.0009 189.45 22.3462C189.879 22.6822 190.094 23.1722 190.094 23.8162C190.094 24.2456 189.982 24.6376 189.758 24.9922C189.543 25.3376 189.226 25.6176 188.806 25.8322C188.386 26.0376 187.877 26.1402 187.28 26.1402Z" fill="white"/>
</svg>
