<svg width="237" height="42" viewBox="0 0 237 42" fill="none" xmlns="http://www.w3.org/2000/svg">
<path d="M7.90401 36.5998C5.59732 38.3295 6.82063 42 9.7038 42H206.852C207.464 42 208.062 41.8125 208.565 41.4627L232.821 24.5892C234.477 23.4375 234.547 21.0129 232.961 19.7672L208.608 0.640685C208.08 0.225617 207.427 0 206.755 0H8.21692C5.41903 0 4.14427 3.49167 6.28405 5.29433L23.8217 20.0691C25.2976 21.3125 25.2326 23.6058 23.6886 24.7636L7.90401 36.5998Z" fill="#7239EA"/>
<path d="M64.5859 26.0001L67.9789 16.3801H69.5779L72.9839 26.0001H71.6319L70.8259 23.6991H66.7439L65.9379 26.0001H64.5859ZM67.1339 22.5551H70.4359L68.7849 17.8361L67.1339 22.5551ZM77.2193 26.1301C76.6993 26.1301 76.2443 26.0304 75.8543 25.8311C75.4643 25.6231 75.1393 25.3501 74.8793 25.0121C74.6193 24.6654 74.4243 24.2798 74.2943 23.8551C74.1643 23.4304 74.0993 22.9971 74.0993 22.5551C74.0993 22.1131 74.1643 21.6798 74.2943 21.2551C74.4243 20.8304 74.6193 20.4491 74.8793 20.1111C75.1393 19.7644 75.4643 19.4914 75.8543 19.2921C76.2443 19.0841 76.6993 18.9801 77.2193 18.9801C77.6526 18.9801 78.0166 19.0494 78.3113 19.1881C78.6059 19.3268 78.8443 19.4914 79.0263 19.6821C79.2083 19.8641 79.3469 20.0374 79.4423 20.2021H79.5203V16.1201H80.7553V26.0001H79.5203V24.9081H79.4423C79.3469 25.0728 79.2083 25.2504 79.0263 25.4411C78.8443 25.6318 78.6059 25.7964 78.3113 25.9351C78.0166 26.0651 77.6526 26.1301 77.2193 26.1301ZM77.4273 25.0771C77.8866 25.0771 78.2679 24.9558 78.5713 24.7131C78.8833 24.4618 79.1129 24.1454 79.2603 23.7641C79.4163 23.3741 79.4943 22.9711 79.4943 22.5551C79.4943 22.1304 79.4163 21.7274 79.2603 21.3461C79.1129 20.9648 78.8833 20.6528 78.5713 20.4101C78.2679 20.1588 77.8866 20.0331 77.4273 20.0331C76.9679 20.0331 76.5823 20.1588 76.2703 20.4101C75.9583 20.6528 75.7243 20.9648 75.5683 21.3461C75.4209 21.7274 75.3473 22.1304 75.3473 22.5551C75.3473 22.9711 75.4209 23.3741 75.5683 23.7641C75.7243 24.1454 75.9583 24.4618 76.2703 24.7131C76.5823 24.9558 76.9679 25.0771 77.4273 25.0771ZM85.6997 26.1301C85.1797 26.1301 84.7247 26.0304 84.3347 25.8311C83.9447 25.6231 83.6197 25.3501 83.3597 25.0121C83.0997 24.6654 82.9047 24.2798 82.7747 23.8551C82.6447 23.4304 82.5797 22.9971 82.5797 22.5551C82.5797 22.1131 82.6447 21.6798 82.7747 21.2551C82.9047 20.8304 83.0997 20.4491 83.3597 20.1111C83.6197 19.7644 83.9447 19.4914 84.3347 19.2921C84.7247 19.0841 85.1797 18.9801 85.6997 18.9801C86.1331 18.9801 86.4971 19.0494 86.7917 19.1881C87.0864 19.3268 87.3247 19.4914 87.5067 19.6821C87.6887 19.8641 87.8274 20.0374 87.9227 20.2021H88.0007V16.1201H89.2357V26.0001H88.0007V24.9081H87.9227C87.8274 25.0728 87.6887 25.2504 87.5067 25.4411C87.3247 25.6318 87.0864 25.7964 86.7917 25.9351C86.4971 26.0651 86.1331 26.1301 85.6997 26.1301ZM85.9077 25.0771C86.3671 25.0771 86.7484 24.9558 87.0517 24.7131C87.3637 24.4618 87.5934 24.1454 87.7407 23.7641C87.8967 23.3741 87.9747 22.9711 87.9747 22.5551C87.9747 22.1304 87.8967 21.7274 87.7407 21.3461C87.5934 20.9648 87.3637 20.6528 87.0517 20.4101C86.7484 20.1588 86.3671 20.0331 85.9077 20.0331C85.4484 20.0331 85.0627 20.1588 84.7507 20.4101C84.4387 20.6528 84.2047 20.9648 84.0487 21.3461C83.9014 21.7274 83.8277 22.1304 83.8277 22.5551C83.8277 22.9711 83.9014 23.3741 84.0487 23.7641C84.2047 24.1454 84.4387 24.4618 84.7507 24.7131C85.0627 24.9558 85.4484 25.0771 85.9077 25.0771ZM94.4532 26.1301C93.7165 26.1301 93.0969 25.9611 92.5942 25.6231C92.0915 25.2764 91.7102 24.8301 91.4502 24.2841C91.1902 23.7381 91.0602 23.1618 91.0602 22.5551C91.0602 21.9398 91.1902 21.3634 91.4502 20.8261C91.7102 20.2801 92.0915 19.8381 92.5942 19.5001C93.0969 19.1534 93.7165 18.9801 94.4532 18.9801C95.1899 18.9801 95.8095 19.1534 96.3122 19.5001C96.8149 19.8381 97.1962 20.2801 97.4562 20.8261C97.7162 21.3634 97.8462 21.9398 97.8462 22.5551C97.8462 23.1618 97.7162 23.7381 97.4562 24.2841C97.1962 24.8301 96.8149 25.2764 96.3122 25.6231C95.8095 25.9611 95.1899 26.1301 94.4532 26.1301ZM94.4532 25.0511C94.9212 25.0511 95.3112 24.9341 95.6232 24.7001C95.9439 24.4574 96.1822 24.1454 96.3382 23.7641C96.5029 23.3828 96.5852 22.9798 96.5852 22.5551C96.5852 22.1218 96.5029 21.7188 96.3382 21.3461C96.1822 20.9648 95.9439 20.6571 95.6232 20.4231C95.3112 20.1804 94.9212 20.0591 94.4532 20.0591C93.9939 20.0591 93.6039 20.1804 93.2832 20.4231C92.9625 20.6571 92.7199 20.9648 92.5552 21.3461C92.3992 21.7188 92.3212 22.1218 92.3212 22.5551C92.3212 22.9798 92.3992 23.3828 92.5552 23.7641C92.7199 24.1454 92.9625 24.4574 93.2832 24.7001C93.6039 24.9341 93.9939 25.0511 94.4532 25.0511ZM99.531 26.0001V19.1101H100.766V20.1111H100.844C100.905 20.0071 101.004 19.8641 101.143 19.6821C101.29 19.5001 101.498 19.3398 101.767 19.2011C102.036 19.0538 102.374 18.9801 102.781 18.9801C103.284 18.9801 103.713 19.0971 104.068 19.3311C104.423 19.5564 104.692 19.8641 104.874 20.2541C105.065 20.6441 105.16 21.0818 105.16 21.5671V26.0001H103.925V21.6451C103.925 21.1858 103.795 20.8044 103.535 20.5011C103.284 20.1978 102.915 20.0461 102.43 20.0461C102.04 20.0461 101.724 20.1458 101.481 20.3451C101.238 20.5358 101.056 20.7914 100.935 21.1121C100.822 21.4241 100.766 21.7578 100.766 22.1131V26.0001H99.531ZM109.505 26.1301C108.977 26.1301 108.539 26.0564 108.192 25.9091C107.854 25.7618 107.586 25.5798 107.386 25.3631C107.187 25.1378 107.04 24.9168 106.944 24.7001C106.849 24.4748 106.788 24.2884 106.762 24.1411C106.736 23.9938 106.723 23.9201 106.723 23.9201H107.971C107.971 23.9201 107.984 23.9808 108.01 24.1021C108.045 24.2148 108.11 24.3491 108.205 24.5051C108.309 24.6524 108.465 24.7868 108.673 24.9081C108.89 25.0208 109.176 25.0771 109.531 25.0771C109.939 25.0771 110.255 24.9818 110.48 24.7911C110.706 24.5918 110.818 24.3491 110.818 24.0631C110.818 23.8118 110.727 23.6124 110.545 23.4651C110.372 23.3178 110.121 23.2051 109.791 23.1271L108.855 22.9061C108.509 22.8194 108.184 22.7024 107.88 22.5551C107.577 22.4078 107.33 22.2084 107.139 21.9571C106.957 21.6971 106.866 21.3764 106.866 20.9951C106.866 20.4058 107.087 19.9248 107.529 19.5521C107.971 19.1708 108.548 18.9801 109.258 18.9801C109.735 18.9801 110.129 19.0494 110.441 19.1881C110.753 19.3181 111 19.4828 111.182 19.6821C111.373 19.8814 111.512 20.0808 111.598 20.2801C111.694 20.4794 111.754 20.6484 111.78 20.7871C111.806 20.9171 111.819 20.9821 111.819 20.9821H110.623C110.623 20.9821 110.61 20.9344 110.584 20.8391C110.558 20.7351 110.498 20.6224 110.402 20.5011C110.316 20.3711 110.181 20.2584 109.999 20.1631C109.817 20.0591 109.575 20.0071 109.271 20.0071C108.855 20.0071 108.552 20.1024 108.361 20.2931C108.171 20.4838 108.075 20.6918 108.075 20.9171C108.075 21.1338 108.162 21.3114 108.335 21.4501C108.517 21.5801 108.751 21.6798 109.037 21.7491L109.986 21.9701C110.576 22.1088 111.061 22.3384 111.442 22.6591C111.832 22.9711 112.027 23.4218 112.027 24.0111C112.027 24.3924 111.928 24.7478 111.728 25.0771C111.529 25.3978 111.243 25.6534 110.87 25.8441C110.498 26.0348 110.043 26.1301 109.505 26.1301ZM119.935 26.1301C119.38 26.1301 118.904 26.0608 118.505 25.9221C118.115 25.7748 117.79 25.5884 117.53 25.3631C117.27 25.1291 117.062 24.8864 116.906 24.6351C116.75 24.3838 116.633 24.1454 116.555 23.9201C116.477 23.6861 116.425 23.4998 116.399 23.3611C116.382 23.2138 116.373 23.1401 116.373 23.1401H117.673C117.673 23.1401 117.686 23.2008 117.712 23.3221C117.738 23.4434 117.79 23.5951 117.868 23.7771C117.955 23.9591 118.08 24.1454 118.245 24.3361C118.41 24.5181 118.631 24.6698 118.908 24.7911C119.185 24.9124 119.536 24.9731 119.961 24.9731C120.602 24.9731 121.109 24.8214 121.482 24.5181C121.855 24.2061 122.041 23.8031 122.041 23.3091C122.041 22.8844 121.898 22.5551 121.612 22.3211C121.335 22.0871 120.936 21.9051 120.416 21.7751L119.142 21.4631C118.691 21.3504 118.271 21.1944 117.881 20.9951C117.5 20.7871 117.192 20.5184 116.958 20.1891C116.733 19.8511 116.62 19.4308 116.62 18.9281C116.62 18.3648 116.759 17.8838 117.036 17.4851C117.313 17.0864 117.69 16.7831 118.167 16.5751C118.644 16.3584 119.185 16.2501 119.792 16.2501C120.381 16.2501 120.871 16.3411 121.261 16.5231C121.651 16.7051 121.963 16.9304 122.197 17.1991C122.431 17.4591 122.604 17.7234 122.717 17.9921C122.83 18.2521 122.903 18.4731 122.938 18.6551C122.973 18.8371 122.99 18.9281 122.99 18.9281H121.742C121.742 18.9281 121.725 18.8501 121.69 18.6941C121.655 18.5381 121.573 18.3604 121.443 18.1611C121.313 17.9531 121.114 17.7711 120.845 17.6151C120.576 17.4591 120.212 17.3811 119.753 17.3811C119.129 17.3811 118.657 17.5284 118.336 17.8231C118.024 18.1178 117.868 18.4558 117.868 18.8371C117.868 19.1838 117.994 19.4654 118.245 19.6821C118.496 19.8901 118.843 20.0504 119.285 20.1631L120.663 20.5011C121.157 20.6224 121.603 20.8001 122.002 21.0341C122.401 21.2594 122.717 21.5541 122.951 21.9181C123.185 22.2734 123.302 22.7111 123.302 23.2311C123.302 23.7511 123.172 24.2321 122.912 24.6741C122.661 25.1161 122.284 25.4714 121.781 25.7401C121.287 26.0001 120.672 26.1301 119.935 26.1301ZM127.966 26.1301C127.403 26.1301 126.913 26.0304 126.497 25.8311C126.09 25.6231 125.752 25.3458 125.483 24.9991C125.223 24.6524 125.028 24.2711 124.898 23.8551C124.768 23.4304 124.703 22.9971 124.703 22.5551C124.703 22.1218 124.764 21.6928 124.885 21.2681C125.015 20.8434 125.21 20.4578 125.47 20.1111C125.739 19.7644 126.072 19.4914 126.471 19.2921C126.878 19.0841 127.359 18.9801 127.914 18.9801C128.503 18.9801 129.023 19.1144 129.474 19.3831C129.925 19.6518 130.28 20.0504 130.54 20.5791C130.8 21.1078 130.93 21.7708 130.93 22.5681V22.9321H125.951C125.977 23.3221 126.068 23.6818 126.224 24.0111C126.389 24.3318 126.618 24.5918 126.913 24.7911C127.208 24.9818 127.559 25.0771 127.966 25.0771C128.321 25.0771 128.607 25.0208 128.824 24.9081C129.049 24.7868 129.227 24.6481 129.357 24.4921C129.487 24.3361 129.574 24.2018 129.617 24.0891C129.669 23.9678 129.695 23.9071 129.695 23.9071H130.852C130.852 23.9071 130.83 23.9851 130.787 24.1411C130.744 24.2884 130.666 24.4704 130.553 24.6871C130.44 24.9038 130.276 25.1248 130.059 25.3501C129.842 25.5668 129.565 25.7531 129.227 25.9091C128.889 26.0564 128.469 26.1301 127.966 26.1301ZM125.964 21.9701H129.721C129.704 21.5194 129.608 21.1554 129.435 20.8781C129.262 20.5921 129.041 20.3798 128.772 20.2411C128.503 20.1024 128.217 20.0331 127.914 20.0331C127.368 20.0331 126.922 20.2108 126.575 20.5661C126.228 20.9128 126.025 21.3808 125.964 21.9701ZM132.615 26.0001V19.1101H133.85V19.9681H133.902C134.049 19.7081 134.266 19.4784 134.552 19.2791C134.838 19.0798 135.241 18.9801 135.761 18.9801C135.908 18.9801 136.043 18.9888 136.164 19.0061C136.285 19.0148 136.346 19.0191 136.346 19.0191V20.2021C136.346 20.2021 136.277 20.1978 136.138 20.1891C136.008 20.1718 135.869 20.1631 135.722 20.1631C135.124 20.1631 134.66 20.3364 134.331 20.6831C134.01 21.0211 133.85 21.5758 133.85 22.3471V26.0001H132.615ZM139.877 26.0001L137.251 19.1101H138.538L140.553 24.4921L142.529 19.1101H143.829L141.19 26.0001H139.877ZM146.002 17.7971C145.768 17.7971 145.573 17.7191 145.417 17.5631C145.27 17.4071 145.196 17.2208 145.196 17.0041C145.196 16.7788 145.27 16.5881 145.417 16.4321C145.573 16.2761 145.768 16.1981 146.002 16.1981C146.227 16.1981 146.418 16.2761 146.574 16.4321C146.73 16.5881 146.808 16.7788 146.808 17.0041C146.808 17.2208 146.73 17.4071 146.574 17.5631C146.418 17.7191 146.227 17.7971 146.002 17.7971ZM145.391 26.0001V19.1101H146.626V26.0001H145.391ZM151.887 26.1301C151.324 26.1301 150.83 26.0304 150.405 25.8311C149.98 25.6231 149.625 25.3501 149.339 25.0121C149.062 24.6654 148.849 24.2798 148.702 23.8551C148.563 23.4304 148.494 22.9971 148.494 22.5551C148.494 22.1131 148.563 21.6841 148.702 21.2681C148.841 20.8434 149.049 20.4578 149.326 20.1111C149.612 19.7644 149.967 19.4914 150.392 19.2921C150.817 19.0841 151.315 18.9801 151.887 18.9801C152.442 18.9801 152.901 19.0624 153.265 19.2271C153.629 19.3918 153.919 19.5998 154.136 19.8511C154.361 20.0938 154.526 20.3408 154.63 20.5921C154.743 20.8348 154.816 21.0384 154.851 21.2031C154.886 21.3678 154.903 21.4501 154.903 21.4501H153.707C153.707 21.4501 153.685 21.3808 153.642 21.2421C153.599 21.0948 153.516 20.9301 153.395 20.7481C153.274 20.5661 153.092 20.4058 152.849 20.2671C152.606 20.1198 152.286 20.0461 151.887 20.0461C151.41 20.0461 151.007 20.1674 150.678 20.4101C150.357 20.6441 150.115 20.9518 149.95 21.3331C149.794 21.7144 149.716 22.1218 149.716 22.5551C149.716 22.9884 149.794 23.3958 149.95 23.7771C150.115 24.1584 150.357 24.4704 150.678 24.7131C151.007 24.9471 151.41 25.0641 151.887 25.0641C152.286 25.0641 152.606 24.9948 152.849 24.8561C153.092 24.7088 153.274 24.5441 153.395 24.3621C153.516 24.1801 153.599 24.0198 153.642 23.8811C153.685 23.7338 153.707 23.6601 153.707 23.6601H154.903C154.903 23.6601 154.886 23.7424 154.851 23.9071C154.816 24.0718 154.743 24.2798 154.63 24.5311C154.526 24.7738 154.361 25.0208 154.136 25.2721C153.919 25.5148 153.629 25.7184 153.265 25.8831C152.901 26.0478 152.442 26.1301 151.887 26.1301ZM159.73 26.1301C159.166 26.1301 158.677 26.0304 158.261 25.8311C157.853 25.6231 157.515 25.3458 157.247 24.9991C156.987 24.6524 156.792 24.2711 156.662 23.8551C156.532 23.4304 156.467 22.9971 156.467 22.5551C156.467 22.1218 156.527 21.6928 156.649 21.2681C156.779 20.8434 156.974 20.4578 157.234 20.1111C157.502 19.7644 157.836 19.4914 158.235 19.2921C158.642 19.0841 159.123 18.9801 159.678 18.9801C160.267 18.9801 160.787 19.1144 161.238 19.3831C161.688 19.6518 162.044 20.0504 162.304 20.5791C162.564 21.1078 162.694 21.7708 162.694 22.5681V22.9321H157.715C157.741 23.3221 157.832 23.6818 157.988 24.0111C158.152 24.3318 158.382 24.5918 158.677 24.7911C158.971 24.9818 159.322 25.0771 159.73 25.0771C160.085 25.0771 160.371 25.0208 160.588 24.9081C160.813 24.7868 160.991 24.6481 161.121 24.4921C161.251 24.3361 161.337 24.2018 161.381 24.0891C161.433 23.9678 161.459 23.9071 161.459 23.9071H162.616C162.616 23.9071 162.594 23.9851 162.551 24.1411C162.507 24.2884 162.429 24.4704 162.317 24.6871C162.204 24.9038 162.039 25.1248 161.823 25.3501C161.606 25.5668 161.329 25.7531 160.991 25.9091C160.653 26.0564 160.232 26.1301 159.73 26.1301ZM157.728 21.9701H161.485C161.467 21.5194 161.372 21.1554 161.199 20.8781C161.025 20.5921 160.804 20.3798 160.536 20.2411C160.267 20.1024 159.981 20.0331 159.678 20.0331C159.132 20.0331 158.685 20.2108 158.339 20.5661C157.992 20.9128 157.788 21.3808 157.728 21.9701ZM166.901 26.1301C166.372 26.1301 165.934 26.0564 165.588 25.9091C165.25 25.7618 164.981 25.5798 164.782 25.3631C164.582 25.1378 164.435 24.9168 164.34 24.7001C164.244 24.4748 164.184 24.2884 164.158 24.1411C164.132 23.9938 164.119 23.9201 164.119 23.9201H165.367C165.367 23.9201 165.38 23.9808 165.406 24.1021C165.44 24.2148 165.505 24.3491 165.601 24.5051C165.705 24.6524 165.861 24.7868 166.069 24.9081C166.285 25.0208 166.571 25.0771 166.927 25.0771C167.334 25.0771 167.65 24.9818 167.876 24.7911C168.101 24.5918 168.214 24.3491 168.214 24.0631C168.214 23.8118 168.123 23.6124 167.941 23.4651C167.767 23.3178 167.516 23.2051 167.187 23.1271L166.251 22.9061C165.904 22.8194 165.579 22.7024 165.276 22.5551C164.972 22.4078 164.725 22.2084 164.535 21.9571C164.353 21.6971 164.262 21.3764 164.262 20.9951C164.262 20.4058 164.483 19.9248 164.925 19.5521C165.367 19.1708 165.943 18.9801 166.654 18.9801C167.13 18.9801 167.525 19.0494 167.837 19.1881C168.149 19.3181 168.396 19.4828 168.578 19.6821C168.768 19.8814 168.907 20.0808 168.994 20.2801C169.089 20.4794 169.15 20.6484 169.176 20.7871C169.202 20.9171 169.215 20.9821 169.215 20.9821H168.019C168.019 20.9821 168.006 20.9344 167.98 20.8391C167.954 20.7351 167.893 20.6224 167.798 20.5011C167.711 20.3711 167.577 20.2584 167.395 20.1631C167.213 20.0591 166.97 20.0071 166.667 20.0071C166.251 20.0071 165.947 20.1024 165.757 20.2931C165.566 20.4838 165.471 20.6918 165.471 20.9171C165.471 21.1338 165.557 21.3114 165.731 21.4501C165.913 21.5801 166.147 21.6798 166.433 21.7491L167.382 21.9701C167.971 22.1088 168.456 22.3384 168.838 22.6591C169.228 22.9711 169.423 23.4218 169.423 24.0111C169.423 24.3924 169.323 24.7478 169.124 25.0771C168.924 25.3978 168.638 25.6534 168.266 25.8441C167.893 26.0348 167.438 26.1301 166.901 26.1301Z" fill="white"/>
</svg>
