<svg width="264" height="42" viewBox="0 0 264 42" fill="none" xmlns="http://www.w3.org/2000/svg">
<path d="M7.98178 36.5259C5.55068 38.1932 6.73065 42 9.67854 42H230.834C231.386 42 231.927 41.848 232.397 41.5607L260.054 24.6809C261.909 23.5491 261.983 20.8826 260.194 19.6499L232.446 0.529698C231.946 0.184725 231.352 0 230.744 0H8.7745C5.91477 0 4.67668 3.62121 6.9378 5.37204L25.5113 19.7537C27.1194 20.9989 27.0486 23.4495 25.3713 24.5998L7.98178 36.5259Z" fill="#7239EA"/>
<path d="M79.684 26.1402C78.8533 26.1402 78.1253 25.9909 77.5 25.6922C76.884 25.3842 76.366 24.9782 75.946 24.4742C75.5353 23.9609 75.2227 23.3916 75.008 22.7662C74.8027 22.1316 74.7 21.4829 74.7 20.8202C74.7 20.1576 74.8027 19.5089 75.008 18.8742C75.2227 18.2396 75.5353 17.6702 75.946 17.1662C76.366 16.6529 76.884 16.2469 77.5 15.9482C78.1253 15.6496 78.8533 15.5002 79.684 15.5002C80.3653 15.5002 80.9487 15.5889 81.434 15.7662C81.9287 15.9436 82.3393 16.1722 82.666 16.4522C83.002 16.7229 83.268 17.0122 83.464 17.3202C83.6693 17.6282 83.8187 17.9222 83.912 18.2022C84.0147 18.4822 84.0847 18.7109 84.122 18.8882C84.1593 19.0562 84.178 19.1402 84.178 19.1402H82.54C82.54 19.1402 82.5213 19.0702 82.484 18.9302C82.456 18.7809 82.386 18.5989 82.274 18.3842C82.1713 18.1696 82.0127 17.9596 81.798 17.7542C81.5927 17.5396 81.3173 17.3622 80.972 17.2222C80.636 17.0729 80.2113 16.9982 79.698 16.9982C79.1473 16.9982 78.662 17.1056 78.242 17.3202C77.8313 17.5349 77.486 17.8242 77.206 18.1882C76.926 18.5522 76.716 18.9629 76.576 19.4202C76.4453 19.8776 76.38 20.3442 76.38 20.8202C76.38 21.2962 76.4453 21.7629 76.576 22.2202C76.716 22.6682 76.926 23.0789 77.206 23.4522C77.486 23.8162 77.8313 24.1056 78.242 24.3202C78.662 24.5349 79.1473 24.6422 79.698 24.6422C80.2113 24.6422 80.636 24.5722 80.972 24.4322C81.3173 24.2829 81.5927 24.1009 81.798 23.8862C82.0127 23.6716 82.1713 23.4569 82.274 23.2422C82.386 23.0276 82.456 22.8502 82.484 22.7102C82.5213 22.5609 82.54 22.4862 82.54 22.4862H84.178C84.178 22.4862 84.1593 22.5749 84.122 22.7522C84.0847 22.9296 84.0147 23.1582 83.912 23.4382C83.8187 23.7089 83.6693 24.0029 83.464 24.3202C83.268 24.6282 83.002 24.9222 82.666 25.2022C82.3393 25.4729 81.9287 25.6969 81.434 25.8742C80.9487 26.0516 80.3653 26.1402 79.684 26.1402ZM89.4188 26.1402C88.6068 26.1402 87.9208 25.9582 87.3608 25.5942C86.8101 25.2302 86.3901 24.7542 86.1008 24.1662C85.8208 23.5782 85.6808 22.9529 85.6808 22.2902C85.6808 21.6276 85.8208 21.0022 86.1008 20.4142C86.3901 19.8262 86.8101 19.3502 87.3608 18.9862C87.9208 18.6222 88.6068 18.4402 89.4188 18.4402C90.2215 18.4402 90.8981 18.6222 91.4488 18.9862C92.0088 19.3502 92.4288 19.8262 92.7088 20.4142C92.9981 21.0022 93.1428 21.6276 93.1428 22.2902C93.1428 22.9529 92.9981 23.5782 92.7088 24.1662C92.4288 24.7542 92.0088 25.2302 91.4488 25.5942C90.8981 25.9582 90.2215 26.1402 89.4188 26.1402ZM89.4188 24.7822C89.8761 24.7822 90.2588 24.6656 90.5668 24.4322C90.8841 24.1989 91.1221 23.8909 91.2808 23.5082C91.4488 23.1256 91.5328 22.7196 91.5328 22.2902C91.5328 21.8516 91.4488 21.4456 91.2808 21.0722C91.1221 20.6896 90.8841 20.3816 90.5668 20.1482C90.2588 19.9149 89.8761 19.7982 89.4188 19.7982C88.9615 19.7982 88.5741 19.9149 88.2568 20.1482C87.9395 20.3816 87.7015 20.6896 87.5428 21.0722C87.3841 21.4456 87.3048 21.8516 87.3048 22.2902C87.3048 22.7196 87.3841 23.1256 87.5428 23.5082C87.7015 23.8909 87.9395 24.1989 88.2568 24.4322C88.5741 24.6656 88.9615 24.7822 89.4188 24.7822ZM97.2513 26.1402C96.5046 26.1402 95.9213 25.9069 95.5013 25.4402C95.0813 24.9736 94.8713 24.3529 94.8713 23.5782V18.5802H96.4673V23.3822C96.4673 23.8302 96.5839 24.1802 96.8173 24.4322C97.0599 24.6749 97.3866 24.7962 97.7973 24.7962C98.1986 24.7962 98.5206 24.6936 98.7633 24.4882C99.0059 24.2829 99.1786 24.0216 99.2813 23.7042C99.3933 23.3776 99.4493 23.0416 99.4493 22.6962V18.5802H101.045V26.0002H99.4493V24.9362H99.3653C99.2906 25.0762 99.1693 25.2442 99.0013 25.4402C98.8426 25.6269 98.6186 25.7902 98.3293 25.9302C98.0493 26.0702 97.6899 26.1402 97.2513 26.1402ZM103.037 28.7442V18.5802H104.633V19.6862H104.717C104.81 19.5462 104.945 19.3782 105.123 19.1822C105.309 18.9862 105.557 18.8136 105.865 18.6642C106.182 18.5149 106.579 18.4402 107.055 18.4402C107.605 18.4402 108.091 18.5522 108.511 18.7762C108.931 18.9909 109.276 19.2849 109.547 19.6582C109.827 20.0222 110.032 20.4329 110.163 20.8902C110.303 21.3476 110.373 21.8142 110.373 22.2902C110.373 22.7662 110.303 23.2329 110.163 23.6902C110.032 24.1476 109.827 24.5629 109.547 24.9362C109.276 25.3002 108.931 25.5942 108.511 25.8182C108.091 26.0329 107.605 26.1402 107.055 26.1402C106.579 26.1402 106.182 26.0656 105.865 25.9162C105.557 25.7669 105.309 25.5942 105.123 25.3982C104.945 25.2022 104.81 25.0342 104.717 24.8942H104.633V28.7442H103.037ZM104.633 22.2902C104.633 22.7102 104.707 23.1116 104.857 23.4942C105.015 23.8769 105.244 24.1942 105.543 24.4462C105.851 24.6889 106.233 24.8102 106.691 24.8102C107.157 24.8102 107.54 24.6889 107.839 24.4462C108.147 24.1942 108.375 23.8769 108.525 23.4942C108.683 23.1116 108.763 22.7102 108.763 22.2902C108.763 21.8702 108.683 21.4689 108.525 21.0862C108.375 20.7036 108.147 20.3909 107.839 20.1482C107.54 19.8962 107.157 19.7702 106.691 19.7702C106.233 19.7702 105.851 19.8962 105.543 20.1482C105.244 20.3909 105.015 20.7036 104.857 21.0862C104.707 21.4689 104.633 21.8702 104.633 22.2902ZM115.641 26.1402C114.829 26.1402 114.143 25.9582 113.583 25.5942C113.033 25.2302 112.613 24.7542 112.323 24.1662C112.043 23.5782 111.903 22.9529 111.903 22.2902C111.903 21.6276 112.043 21.0022 112.323 20.4142C112.613 19.8262 113.033 19.3502 113.583 18.9862C114.143 18.6222 114.829 18.4402 115.641 18.4402C116.444 18.4402 117.121 18.6222 117.671 18.9862C118.231 19.3502 118.651 19.8262 118.931 20.4142C119.221 21.0022 119.365 21.6276 119.365 22.2902C119.365 22.9529 119.221 23.5782 118.931 24.1662C118.651 24.7542 118.231 25.2302 117.671 25.5942C117.121 25.9582 116.444 26.1402 115.641 26.1402ZM115.641 24.7822C116.099 24.7822 116.481 24.6656 116.789 24.4322C117.107 24.1989 117.345 23.8909 117.503 23.5082C117.671 23.1256 117.755 22.7196 117.755 22.2902C117.755 21.8516 117.671 21.4456 117.503 21.0722C117.345 20.6896 117.107 20.3816 116.789 20.1482C116.481 19.9149 116.099 19.7982 115.641 19.7982C115.184 19.7982 114.797 19.9149 114.479 20.1482C114.162 20.3816 113.924 20.6896 113.765 21.0722C113.607 21.4456 113.527 21.8516 113.527 22.2902C113.527 22.7196 113.607 23.1256 113.765 23.5082C113.924 23.8909 114.162 24.1989 114.479 24.4322C114.797 24.6656 115.184 24.7822 115.641 24.7822ZM121.067 26.0002V18.5802H122.663V19.6582H122.747C122.812 19.5276 122.924 19.3689 123.083 19.1822C123.241 18.9862 123.461 18.8136 123.741 18.6642C124.03 18.5149 124.394 18.4402 124.833 18.4402C125.383 18.4402 125.845 18.5662 126.219 18.8182C126.592 19.0702 126.872 19.4062 127.059 19.8262C127.255 20.2462 127.353 20.7082 127.353 21.2122V26.0002H125.757V21.3802C125.757 20.9322 125.631 20.5542 125.379 20.2462C125.136 19.9382 124.772 19.7842 124.287 19.7842C123.904 19.7842 123.591 19.8822 123.349 20.0782C123.115 20.2649 122.943 20.5122 122.831 20.8202C122.719 21.1189 122.663 21.4409 122.663 21.7862V26.0002H121.067ZM135.914 26.1402C135.261 26.1402 134.659 26.0236 134.108 25.7902C133.557 25.5476 133.119 25.2022 132.792 24.7542C132.465 24.3062 132.302 23.7649 132.302 23.1302C132.302 22.4769 132.484 21.9169 132.848 21.4502C133.221 20.9742 133.725 20.5589 134.36 20.2042V20.1902C134.117 19.9196 133.884 19.6069 133.66 19.2522C133.445 18.8882 133.338 18.4449 133.338 17.9222C133.338 17.3902 133.459 16.9469 133.702 16.5922C133.954 16.2282 134.276 15.9576 134.668 15.7802C135.069 15.5936 135.489 15.5002 135.928 15.5002C136.357 15.5002 136.763 15.5889 137.146 15.7662C137.529 15.9342 137.841 16.1862 138.084 16.5222C138.327 16.8582 138.448 17.2689 138.448 17.7542C138.448 18.3329 138.266 18.8416 137.902 19.2802C137.538 19.7189 137.048 20.1016 136.432 20.4282L138.742 23.0042C138.91 22.6309 139.041 22.2016 139.134 21.7162C139.227 21.2309 139.274 20.6802 139.274 20.0642H140.604C140.604 20.9229 140.52 21.6836 140.352 22.3462C140.193 22.9996 139.969 23.5689 139.68 24.0542L141.416 25.9862H139.428L138.728 25.1882C138.327 25.5149 137.888 25.7576 137.412 25.9162C136.936 26.0656 136.437 26.1402 135.914 26.1402ZM134.71 17.8662C134.71 18.1649 134.803 18.4496 134.99 18.7202C135.177 18.9816 135.401 19.2569 135.662 19.5462H135.69C136.101 19.3409 136.432 19.0982 136.684 18.8182C136.945 18.5289 137.076 18.1976 137.076 17.8242C137.076 17.4509 136.959 17.1709 136.726 16.9842C136.502 16.7882 136.236 16.6902 135.928 16.6902C135.611 16.6902 135.326 16.7976 135.074 17.0122C134.831 17.2176 134.71 17.5022 134.71 17.8662ZM133.786 23.0042C133.786 23.5736 133.996 24.0216 134.416 24.3482C134.845 24.6749 135.373 24.8382 135.998 24.8382C136.343 24.8382 136.675 24.7869 136.992 24.6842C137.309 24.5816 137.599 24.4182 137.86 24.1942L135.13 21.0862C134.719 21.3289 134.393 21.6089 134.15 21.9262C133.907 22.2342 133.786 22.5936 133.786 23.0042ZM150.985 26.1402C150.154 26.1402 149.422 25.9909 148.787 25.6922C148.152 25.3842 147.62 24.9782 147.191 24.4742C146.762 23.9609 146.44 23.3869 146.225 22.7522C146.01 22.1176 145.903 21.4689 145.903 20.8062C145.903 20.1436 146.01 19.4996 146.225 18.8742C146.44 18.2396 146.762 17.6702 147.191 17.1662C147.62 16.6622 148.152 16.2609 148.787 15.9622C149.422 15.6542 150.154 15.5002 150.985 15.5002C151.825 15.5002 152.562 15.6542 153.197 15.9622C153.832 16.2609 154.364 16.6622 154.793 17.1662C155.222 17.6702 155.544 18.2396 155.759 18.8742C155.974 19.4996 156.081 20.1436 156.081 20.8062C156.081 21.4689 155.974 22.1176 155.759 22.7522C155.544 23.3869 155.222 23.9609 154.793 24.4742C154.364 24.9782 153.832 25.3842 153.197 25.6922C152.562 25.9909 151.825 26.1402 150.985 26.1402ZM150.985 24.6422C151.732 24.6422 152.357 24.4602 152.861 24.0962C153.365 23.7229 153.748 23.2469 154.009 22.6682C154.27 22.0802 154.401 21.4596 154.401 20.8062C154.401 20.3209 154.326 19.8542 154.177 19.4062C154.028 18.9489 153.808 18.5382 153.519 18.1742C153.239 17.8102 152.884 17.5256 152.455 17.3202C152.035 17.1056 151.545 16.9982 150.985 16.9982C150.434 16.9982 149.944 17.1056 149.515 17.3202C149.095 17.5256 148.74 17.8102 148.451 18.1742C148.171 18.5382 147.956 18.9489 147.807 19.4062C147.658 19.8542 147.583 20.3209 147.583 20.8062C147.583 21.4596 147.714 22.0802 147.975 22.6682C148.236 23.2469 148.619 23.7229 149.123 24.0962C149.627 24.4602 150.248 24.6422 150.985 24.6422ZM158.575 26.0002V19.8682H157.371V18.5802H158.575V17.7822C158.575 17.4929 158.613 17.1989 158.687 16.9002C158.762 16.6016 158.888 16.3262 159.065 16.0742C159.243 15.8129 159.485 15.6076 159.793 15.4582C160.101 15.2996 160.489 15.2202 160.955 15.2202C161.226 15.2202 161.45 15.2436 161.627 15.2902C161.805 15.3276 161.893 15.3462 161.893 15.3462V16.5502C161.893 16.5502 161.823 16.5362 161.683 16.5082C161.553 16.4802 161.403 16.4662 161.235 16.4662C160.825 16.4662 160.545 16.5922 160.395 16.8442C160.246 17.0869 160.171 17.3996 160.171 17.7822V18.5802H163.755V17.7822C163.755 17.4929 163.793 17.1989 163.867 16.9002C163.942 16.6016 164.068 16.3262 164.245 16.0742C164.423 15.8129 164.665 15.6076 164.973 15.4582C165.281 15.2996 165.664 15.2202 166.121 15.2202C166.401 15.2202 166.625 15.2436 166.793 15.2902C166.971 15.3276 167.059 15.3462 167.059 15.3462V16.5502C167.059 16.5502 166.989 16.5362 166.849 16.5082C166.719 16.4802 166.574 16.4662 166.415 16.4662C165.995 16.4662 165.711 16.5922 165.561 16.8442C165.421 17.0869 165.351 17.3996 165.351 17.7822V18.5802H166.989V19.8682H165.351V26.0002H163.755V19.8682H160.171V26.0002H158.575ZM171.502 26.1402C170.876 26.1402 170.335 26.0329 169.878 25.8182C169.43 25.5942 169.056 25.3002 168.758 24.9362C168.468 24.5629 168.249 24.1476 168.1 23.6902C167.96 23.2329 167.89 22.7662 167.89 22.2902C167.89 21.8236 167.96 21.3616 168.1 20.9042C168.24 20.4469 168.454 20.0316 168.744 19.6582C169.033 19.2849 169.402 18.9909 169.85 18.7762C170.298 18.5522 170.825 18.4402 171.432 18.4402C172.085 18.4402 172.659 18.5896 173.154 18.8882C173.658 19.1776 174.05 19.6116 174.33 20.1902C174.619 20.7596 174.764 21.4689 174.764 22.3182V22.7522H169.5C169.537 23.3216 169.728 23.8116 170.074 24.2222C170.419 24.6329 170.895 24.8382 171.502 24.8382C171.847 24.8382 172.132 24.7822 172.356 24.6702C172.58 24.5489 172.752 24.4136 172.874 24.2642C172.995 24.1149 173.079 23.9842 173.126 23.8722C173.182 23.7602 173.21 23.7042 173.21 23.7042H174.694C174.694 23.7042 174.67 23.7882 174.624 23.9562C174.577 24.1149 174.488 24.3156 174.358 24.5582C174.236 24.8009 174.059 25.0436 173.826 25.2862C173.592 25.5289 173.284 25.7342 172.902 25.9022C172.519 26.0609 172.052 26.1402 171.502 26.1402ZM169.514 21.6322H173.224C173.186 20.9789 172.99 20.4982 172.636 20.1902C172.29 19.8822 171.884 19.7282 171.418 19.7282C170.895 19.7282 170.461 19.9009 170.116 20.2462C169.77 20.5822 169.57 21.0442 169.514 21.6322ZM176.492 26.0002V18.5802H178.088V19.5602H178.144C178.284 19.2709 178.504 19.0142 178.802 18.7902C179.11 18.5569 179.554 18.4402 180.132 18.4402C180.31 18.4402 180.459 18.4496 180.58 18.4682C180.711 18.4869 180.776 18.4962 180.776 18.4962V20.0362C180.776 20.0362 180.706 20.0269 180.566 20.0082C180.426 19.9896 180.268 19.9802 180.09 19.9802C179.437 19.9802 178.938 20.1669 178.592 20.5402C178.256 20.9042 178.088 21.4969 178.088 22.3182V26.0002H176.492ZM185.009 26.1402C184.421 26.1402 183.935 26.0609 183.553 25.9022C183.179 25.7342 182.881 25.5336 182.657 25.3002C182.433 25.0576 182.265 24.8149 182.153 24.5722C182.05 24.3296 181.985 24.1289 181.957 23.9702C181.929 23.8022 181.915 23.7182 181.915 23.7182H183.469C183.469 23.7182 183.483 23.7789 183.511 23.9002C183.548 24.0122 183.618 24.1429 183.721 24.2922C183.823 24.4416 183.982 24.5769 184.197 24.6982C184.411 24.8102 184.696 24.8662 185.051 24.8662C185.48 24.8662 185.797 24.7682 186.003 24.5722C186.217 24.3762 186.325 24.1522 186.325 23.9002C186.325 23.6576 186.236 23.4662 186.059 23.3262C185.881 23.1862 185.629 23.0789 185.303 23.0042L184.295 22.7802C183.903 22.6869 183.534 22.5609 183.189 22.4022C182.853 22.2342 182.577 22.0149 182.363 21.7442C182.157 21.4642 182.055 21.1049 182.055 20.6662C182.055 20.0222 182.297 19.4902 182.783 19.0702C183.268 18.6502 183.921 18.4402 184.743 18.4402C185.275 18.4402 185.713 18.5149 186.059 18.6642C186.413 18.8136 186.693 19.0002 186.899 19.2242C187.104 19.4389 187.258 19.6582 187.361 19.8822C187.463 20.0969 187.529 20.2789 187.557 20.4282C187.594 20.5682 187.613 20.6382 187.613 20.6382H186.115C186.115 20.6382 186.101 20.5916 186.073 20.4982C186.045 20.4049 185.984 20.2976 185.891 20.1762C185.797 20.0456 185.657 19.9336 185.471 19.8402C185.293 19.7376 185.051 19.6862 184.743 19.6862C184.323 19.6862 184.019 19.7796 183.833 19.9662C183.646 20.1529 183.553 20.3536 183.553 20.5682C183.553 20.7922 183.641 20.9696 183.819 21.1002C184.005 21.2216 184.248 21.3149 184.547 21.3802L185.541 21.6042C186.203 21.7536 186.749 22.0009 187.179 22.3462C187.608 22.6822 187.823 23.1722 187.823 23.8162C187.823 24.2456 187.711 24.6376 187.487 24.9922C187.272 25.3376 186.955 25.6176 186.535 25.8322C186.115 26.0376 185.606 26.1402 185.009 26.1402Z" fill="white"/>
</svg>
