<svg width="237" height="42" viewBox="0 0 237 42" fill="none" xmlns="http://www.w3.org/2000/svg">
<path d="M7.90401 36.5998C5.59732 38.3295 6.82063 42 9.7038 42H206.852C207.464 42 208.062 41.8125 208.565 41.4627L232.821 24.5892C234.477 23.4375 234.547 21.0129 232.961 19.7672L208.608 0.640685C208.08 0.225617 207.427 0 206.755 0H8.21692C5.41903 0 4.14427 3.49167 6.28405 5.29433L23.8217 20.0691C25.2976 21.3125 25.2326 23.6058 23.6886 24.7636L7.90401 36.5998Z" fill="#7239EA"/>
<path d="M69.2648 26.13C68.5108 26.13 67.8478 25.9913 67.2758 25.714C66.7038 25.428 66.2271 25.051 65.8458 24.583C65.4731 24.1063 65.1915 23.5777 65.0008 22.997C64.8101 22.4077 64.7148 21.8053 64.7148 21.19C64.7148 20.5747 64.8101 19.9723 65.0008 19.383C65.1915 18.7937 65.4731 18.265 65.8458 17.797C66.2271 17.3203 66.7038 16.9433 67.2758 16.666C67.8478 16.3887 68.5108 16.25 69.2648 16.25C69.8888 16.25 70.4218 16.3323 70.8638 16.497C71.3145 16.653 71.6871 16.8567 71.9818 17.108C72.2851 17.3593 72.5278 17.628 72.7098 17.914C72.9005 18.2 73.0391 18.4687 73.1258 18.72C73.2211 18.9713 73.2818 19.1793 73.3078 19.344C73.3425 19.5 73.3598 19.578 73.3598 19.578H72.0858C72.0858 19.578 72.0685 19.5087 72.0338 19.37C71.9991 19.2227 71.9298 19.045 71.8258 18.837C71.7218 18.6203 71.5658 18.4037 71.3578 18.187C71.1498 17.9703 70.8768 17.7927 70.5388 17.654C70.2008 17.5067 69.7805 17.433 69.2778 17.433C68.7318 17.433 68.2551 17.5413 67.8478 17.758C67.4405 17.966 67.0981 18.252 66.8208 18.616C66.5521 18.9713 66.3485 19.3743 66.2098 19.825C66.0798 20.267 66.0148 20.722 66.0148 21.19C66.0148 21.658 66.0798 22.1173 66.2098 22.568C66.3485 23.01 66.5521 23.413 66.8208 23.777C67.0981 24.1323 67.4405 24.4183 67.8478 24.635C68.2551 24.843 68.7318 24.947 69.2778 24.947C69.7805 24.947 70.2008 24.8733 70.5388 24.726C70.8768 24.5787 71.1498 24.401 71.3578 24.193C71.5658 23.9763 71.7218 23.764 71.8258 23.556C71.9298 23.3393 71.9991 23.1573 72.0338 23.01C72.0685 22.8627 72.0858 22.789 72.0858 22.789H73.3598C73.3598 22.789 73.3425 22.8713 73.3078 23.036C73.2818 23.192 73.2211 23.4 73.1258 23.66C73.0391 23.9113 72.9005 24.18 72.7098 24.466C72.5278 24.7433 72.2851 25.012 71.9818 25.272C71.6871 25.5233 71.3145 25.7313 70.8638 25.896C70.4218 26.052 69.8888 26.13 69.2648 26.13ZM78.2529 26.13C77.5162 26.13 76.8965 25.961 76.3939 25.623C75.8912 25.2763 75.5099 24.83 75.2499 24.284C74.9899 23.738 74.8599 23.1617 74.8599 22.555C74.8599 21.9397 74.9899 21.3633 75.2499 20.826C75.5099 20.28 75.8912 19.838 76.3939 19.5C76.8965 19.1533 77.5162 18.98 78.2529 18.98C78.9895 18.98 79.6092 19.1533 80.1119 19.5C80.6145 19.838 80.996 20.28 81.256 20.826C81.516 21.3633 81.646 21.9397 81.646 22.555C81.646 23.1617 81.516 23.738 81.256 24.284C80.996 24.83 80.6145 25.2763 80.1119 25.623C79.6092 25.961 78.9895 26.13 78.2529 26.13ZM78.2529 25.051C78.7209 25.051 79.111 24.934 79.423 24.7C79.7436 24.4573 79.9819 24.1453 80.1379 23.764C80.3025 23.3827 80.3849 22.9797 80.3849 22.555C80.3849 22.1217 80.3025 21.7187 80.1379 21.346C79.9819 20.9647 79.7436 20.657 79.423 20.423C79.111 20.1803 78.7209 20.059 78.2529 20.059C77.7935 20.059 77.4035 20.1803 77.0829 20.423C76.7622 20.657 76.5195 20.9647 76.3549 21.346C76.1989 21.7187 76.1209 22.1217 76.1209 22.555C76.1209 22.9797 76.1989 23.3827 76.3549 23.764C76.5195 24.1453 76.7622 24.4573 77.0829 24.7C77.4035 24.934 77.7935 25.051 78.2529 25.051ZM85.5798 26.13C84.8951 26.13 84.349 25.9177 83.9417 25.493C83.5344 25.0683 83.3307 24.479 83.3307 23.725V19.11H84.5658V23.66C84.5658 24.1107 84.687 24.4573 84.9297 24.7C85.181 24.9427 85.5104 25.064 85.9177 25.064C86.3337 25.064 86.6674 24.9557 86.9187 24.739C87.17 24.5223 87.352 24.245 87.4647 23.907C87.5774 23.569 87.6338 23.2223 87.6338 22.867V19.11H88.8687V26H87.6338V25.012H87.5557C87.5037 25.116 87.404 25.259 87.2567 25.441C87.1094 25.6143 86.9014 25.7747 86.6327 25.922C86.364 26.0607 86.0131 26.13 85.5798 26.13ZM90.8241 28.548V19.11H92.059V20.202H92.137C92.241 20.0373 92.3796 19.8597 92.553 19.669C92.735 19.4783 92.9734 19.318 93.2681 19.188C93.5627 19.0493 93.9266 18.98 94.36 18.98C94.88 18.98 95.335 19.084 95.725 19.292C96.115 19.4913 96.4401 19.7643 96.7001 20.111C96.9601 20.449 97.155 20.8303 97.285 21.255C97.415 21.6797 97.48 22.113 97.48 22.555C97.48 22.997 97.415 23.4303 97.285 23.855C97.155 24.2797 96.9601 24.6653 96.7001 25.012C96.4401 25.35 96.115 25.623 95.725 25.831C95.335 26.0303 94.88 26.13 94.36 26.13C93.9266 26.13 93.5627 26.0607 93.2681 25.922C92.9734 25.7833 92.735 25.6187 92.553 25.428C92.3796 25.2373 92.241 25.064 92.137 24.908H92.059V28.548H90.8241ZM92.085 22.555C92.085 22.971 92.1586 23.374 92.306 23.764C92.462 24.1453 92.6916 24.4617 92.995 24.713C93.307 24.9557 93.6926 25.077 94.152 25.077C94.62 25.077 95.0056 24.9557 95.309 24.713C95.621 24.4617 95.8506 24.1453 95.998 23.764C96.154 23.374 96.232 22.971 96.232 22.555C96.232 22.1303 96.154 21.7273 95.998 21.346C95.8506 20.9647 95.621 20.6527 95.309 20.41C95.0056 20.1587 94.62 20.033 94.152 20.033C93.6926 20.033 93.307 20.1587 92.995 20.41C92.6916 20.6527 92.462 20.9647 92.306 21.346C92.1586 21.7273 92.085 22.1303 92.085 22.555ZM102.374 26.13C101.638 26.13 101.018 25.961 100.515 25.623C100.013 25.2763 99.631 24.83 99.371 24.284C99.111 23.738 98.981 23.1617 98.981 22.555C98.981 21.9397 99.111 21.3633 99.371 20.826C99.631 20.28 100.013 19.838 100.515 19.5C101.018 19.1533 101.638 18.98 102.374 18.98C103.111 18.98 103.731 19.1533 104.233 19.5C104.736 19.838 105.117 20.28 105.377 20.826C105.637 21.3633 105.767 21.9397 105.767 22.555C105.767 23.1617 105.637 23.738 105.377 24.284C105.117 24.83 104.736 25.2763 104.233 25.623C103.731 25.961 103.111 26.13 102.374 26.13ZM102.374 25.051C102.842 25.051 103.232 24.934 103.544 24.7C103.865 24.4573 104.103 24.1453 104.259 23.764C104.424 23.3827 104.506 22.9797 104.506 22.555C104.506 22.1217 104.424 21.7187 104.259 21.346C104.103 20.9647 103.865 20.657 103.544 20.423C103.232 20.1803 102.842 20.059 102.374 20.059C101.915 20.059 101.525 20.1803 101.204 20.423C100.884 20.657 100.641 20.9647 100.476 21.346C100.32 21.7187 100.242 22.1217 100.242 22.555C100.242 22.9797 100.32 23.3827 100.476 23.764C100.641 24.1453 100.884 24.4573 101.204 24.7C101.525 24.934 101.915 25.051 102.374 25.051ZM107.452 26V19.11H108.687V20.111H108.765C108.826 20.007 108.925 19.864 109.064 19.682C109.211 19.5 109.419 19.3397 109.688 19.201C109.957 19.0537 110.295 18.98 110.702 18.98C111.205 18.98 111.634 19.097 111.989 19.331C112.344 19.5563 112.613 19.864 112.795 20.254C112.986 20.644 113.081 21.0817 113.081 21.567V26H111.846V21.645C111.846 21.1857 111.716 20.8043 111.456 20.501C111.205 20.1977 110.836 20.046 110.351 20.046C109.961 20.046 109.645 20.1457 109.402 20.345C109.159 20.5357 108.977 20.7913 108.856 21.112C108.743 21.424 108.687 21.7577 108.687 22.113V26H107.452ZM121.111 26.13C120.513 26.13 119.963 26.0217 119.46 25.805C118.958 25.5883 118.555 25.2763 118.251 24.869C117.948 24.4617 117.796 23.9677 117.796 23.387C117.796 22.763 117.978 22.23 118.342 21.788C118.715 21.3373 119.196 20.943 119.785 20.605L119.681 20.488C119.456 20.228 119.248 19.9377 119.057 19.617C118.867 19.2963 118.771 18.9063 118.771 18.447C118.771 17.9617 118.88 17.5587 119.096 17.238C119.322 16.9087 119.612 16.6617 119.967 16.497C120.323 16.3323 120.695 16.25 121.085 16.25C121.475 16.25 121.839 16.328 122.177 16.484C122.524 16.64 122.801 16.8697 123.009 17.173C123.226 17.4763 123.334 17.849 123.334 18.291C123.334 18.811 123.17 19.2833 122.84 19.708C122.511 20.1327 122.043 20.4967 121.436 20.8L123.776 23.439C123.958 23.0837 124.101 22.659 124.205 22.165C124.309 21.671 124.361 21.1077 124.361 20.475H125.414C125.414 21.2983 125.332 22.0263 125.167 22.659C125.011 23.2917 124.795 23.8333 124.517 24.284L126.025 25.987H124.465L123.763 25.181C123.391 25.5017 122.979 25.74 122.528 25.896C122.078 26.052 121.605 26.13 121.111 26.13ZM120.669 19.929L120.812 20.085L120.903 20.046C121.319 19.8467 121.644 19.604 121.878 19.318C122.121 19.0233 122.242 18.7027 122.242 18.356C122.242 17.992 122.125 17.7147 121.891 17.524C121.666 17.3247 121.402 17.225 121.098 17.225C120.778 17.225 120.492 17.3333 120.24 17.55C119.998 17.758 119.876 18.044 119.876 18.408C119.876 18.668 119.946 18.915 120.084 19.149C120.223 19.383 120.418 19.643 120.669 19.929ZM118.966 23.283C118.966 23.6643 119.066 23.9937 119.265 24.271C119.465 24.5397 119.729 24.7433 120.058 24.882C120.396 25.0207 120.769 25.09 121.176 25.09C121.532 25.09 121.87 25.0337 122.19 24.921C122.52 24.8083 122.814 24.6307 123.074 24.388L120.396 21.307C119.972 21.5497 119.625 21.8313 119.356 22.152C119.096 22.4727 118.966 22.8497 118.966 23.283ZM134.978 26.13C134.216 26.13 133.544 25.9913 132.963 25.714C132.383 25.428 131.897 25.051 131.507 24.583C131.117 24.1063 130.823 23.5733 130.623 22.984C130.424 22.3947 130.324 21.7923 130.324 21.177C130.324 20.5617 130.424 19.9637 130.623 19.383C130.823 18.7937 131.117 18.265 131.507 17.797C131.897 17.329 132.383 16.9563 132.963 16.679C133.544 16.393 134.216 16.25 134.978 16.25C135.741 16.25 136.413 16.393 136.993 16.679C137.574 16.9563 138.059 17.329 138.449 17.797C138.839 18.265 139.134 18.7937 139.333 19.383C139.533 19.9637 139.632 20.5617 139.632 21.177C139.632 21.7923 139.533 22.3947 139.333 22.984C139.134 23.5733 138.839 24.1063 138.449 24.583C138.059 25.051 137.574 25.428 136.993 25.714C136.413 25.9913 135.741 26.13 134.978 26.13ZM134.978 24.947C135.524 24.947 136.005 24.843 136.421 24.635C136.837 24.427 137.184 24.1453 137.461 23.79C137.747 23.4347 137.964 23.0317 138.111 22.581C138.259 22.1303 138.332 21.6623 138.332 21.177C138.332 20.7003 138.259 20.241 138.111 19.799C137.964 19.3483 137.747 18.9453 137.461 18.59C137.184 18.2347 136.837 17.953 136.421 17.745C136.005 17.537 135.524 17.433 134.978 17.433C134.432 17.433 133.951 17.537 133.535 17.745C133.119 17.953 132.768 18.2347 132.482 18.59C132.205 18.9453 131.993 19.3483 131.845 19.799C131.698 20.241 131.624 20.7003 131.624 21.177C131.624 21.6623 131.698 22.1303 131.845 22.581C131.993 23.0317 132.205 23.4347 132.482 23.79C132.768 24.1453 133.119 24.427 133.535 24.635C133.951 24.843 134.432 24.947 134.978 24.947ZM142.066 26V20.124H140.935V19.11H142.066V18.265C142.066 17.901 142.131 17.5457 142.261 17.199C142.391 16.8437 142.607 16.5533 142.911 16.328C143.214 16.1027 143.626 15.99 144.146 15.99C144.397 15.99 144.596 16.0117 144.744 16.055C144.9 16.0897 144.978 16.107 144.978 16.107V17.082C144.978 17.082 144.908 17.069 144.77 17.043C144.64 17.0083 144.488 16.991 144.315 16.991C143.916 16.991 143.647 17.1123 143.509 17.355C143.37 17.5977 143.301 17.901 143.301 18.265V19.11H146.824V18.265C146.824 17.901 146.889 17.5457 147.019 17.199C147.149 16.8437 147.365 16.5533 147.669 16.328C147.972 16.1027 148.384 15.99 148.904 15.99C149.155 15.99 149.354 16.0117 149.502 16.055C149.658 16.0897 149.736 16.107 149.736 16.107V17.082C149.736 17.082 149.666 17.069 149.528 17.043C149.398 17.0083 149.246 16.991 149.073 16.991C148.674 16.991 148.405 17.1123 148.267 17.355C148.128 17.5977 148.059 17.901 148.059 18.265V19.11H149.658V20.124H148.059V26H146.824V20.124H143.301V26H142.066ZM153.774 26.13C153.211 26.13 152.721 26.0303 152.305 25.831C151.898 25.623 151.56 25.3457 151.291 24.999C151.031 24.6523 150.836 24.271 150.706 23.855C150.576 23.4303 150.511 22.997 150.511 22.555C150.511 22.1217 150.572 21.6927 150.693 21.268C150.823 20.8433 151.018 20.4577 151.278 20.111C151.547 19.7643 151.881 19.4913 152.279 19.292C152.687 19.084 153.168 18.98 153.722 18.98C154.312 18.98 154.832 19.1143 155.282 19.383C155.733 19.6517 156.088 20.0503 156.348 20.579C156.608 21.1077 156.738 21.7707 156.738 22.568V22.932H151.759C151.785 23.322 151.876 23.6817 152.032 24.011C152.197 24.3317 152.427 24.5917 152.721 24.791C153.016 24.9817 153.367 25.077 153.774 25.077C154.13 25.077 154.416 25.0207 154.632 24.908C154.858 24.7867 155.035 24.648 155.165 24.492C155.295 24.336 155.382 24.2017 155.425 24.089C155.477 23.9677 155.503 23.907 155.503 23.907H156.66C156.66 23.907 156.639 23.985 156.595 24.141C156.552 24.2883 156.474 24.4703 156.361 24.687C156.249 24.9037 156.084 25.1247 155.867 25.35C155.651 25.5667 155.373 25.753 155.035 25.909C154.697 26.0563 154.277 26.13 153.774 26.13ZM151.772 21.97H155.529C155.512 21.5193 155.417 21.1553 155.243 20.878C155.07 20.592 154.849 20.3797 154.58 20.241C154.312 20.1023 154.026 20.033 153.722 20.033C153.176 20.033 152.73 20.2107 152.383 20.566C152.037 20.9127 151.833 21.3807 151.772 21.97ZM158.424 26V19.11H159.659V19.968H159.711C159.858 19.708 160.075 19.4783 160.361 19.279C160.647 19.0797 161.05 18.98 161.57 18.98C161.717 18.98 161.851 18.9887 161.973 19.006C162.094 19.0147 162.155 19.019 162.155 19.019V20.202C162.155 20.202 162.085 20.1977 161.947 20.189C161.817 20.1717 161.678 20.163 161.531 20.163C160.933 20.163 160.469 20.3363 160.14 20.683C159.819 21.021 159.659 21.5757 159.659 22.347V26H158.424ZM166.036 26.13C165.508 26.13 165.07 26.0563 164.723 25.909C164.385 25.7617 164.117 25.5797 163.917 25.363C163.718 25.1377 163.571 24.9167 163.475 24.7C163.38 24.4747 163.319 24.2883 163.293 24.141C163.267 23.9937 163.254 23.92 163.254 23.92H164.502C164.502 23.92 164.515 23.9807 164.541 24.102C164.576 24.2147 164.641 24.349 164.736 24.505C164.84 24.6523 164.996 24.7867 165.204 24.908C165.421 25.0207 165.707 25.077 166.062 25.077C166.47 25.077 166.786 24.9817 167.011 24.791C167.237 24.5917 167.349 24.349 167.349 24.063C167.349 23.8117 167.258 23.6123 167.076 23.465C166.903 23.3177 166.652 23.205 166.322 23.127L165.386 22.906C165.04 22.8193 164.715 22.7023 164.411 22.555C164.108 22.4077 163.861 22.2083 163.67 21.957C163.488 21.697 163.397 21.3763 163.397 20.995C163.397 20.4057 163.618 19.9247 164.06 19.552C164.502 19.1707 165.079 18.98 165.789 18.98C166.266 18.98 166.66 19.0493 166.972 19.188C167.284 19.318 167.531 19.4827 167.713 19.682C167.904 19.8813 168.043 20.0807 168.129 20.28C168.225 20.4793 168.285 20.6483 168.311 20.787C168.337 20.917 168.35 20.982 168.35 20.982H167.154C167.154 20.982 167.141 20.9343 167.115 20.839C167.089 20.735 167.029 20.6223 166.933 20.501C166.847 20.371 166.712 20.2583 166.53 20.163C166.348 20.059 166.106 20.007 165.802 20.007C165.386 20.007 165.083 20.1023 164.892 20.293C164.702 20.4837 164.606 20.6917 164.606 20.917C164.606 21.1337 164.693 21.3113 164.866 21.45C165.048 21.58 165.282 21.6797 165.568 21.749L166.517 21.97C167.107 22.1087 167.592 22.3383 167.973 22.659C168.363 22.971 168.558 23.4217 168.558 24.011C168.558 24.3923 168.459 24.7477 168.259 25.077C168.06 25.3977 167.774 25.6533 167.401 25.844C167.029 26.0347 166.574 26.13 166.036 26.13Z" fill="white"/>
</svg>
