<svg width="238" height="42" viewBox="0 0 238 42" fill="none" xmlns="http://www.w3.org/2000/svg">
<path d="M7.96003 36.5278C5.53211 38.1967 6.71323 42 9.65946 42H207.926C208.533 42 209.125 41.816 209.625 41.4722L234.173 24.5981C235.847 23.4476 235.917 21.0012 234.313 19.7559L209.669 0.630023C209.143 0.221654 208.496 0 207.83 0H8.75784C5.8998 0 4.66065 3.61766 6.91848 5.36998L25.4545 19.7559C27.059 21.0012 26.9883 23.4476 25.3146 24.5981L7.96003 36.5278Z" fill="#7239EA"/>
<path d="M61.0391 26V16.38H64.4451C65.1298 16.38 65.6974 16.5143 66.1481 16.783C66.5988 17.0517 66.9368 17.3983 67.1621 17.823C67.3874 18.2477 67.5001 18.694 67.5001 19.162C67.5001 19.552 67.4221 19.929 67.2661 20.293C67.1101 20.657 66.8761 20.9777 66.5641 21.255C66.2608 21.5237 65.8751 21.7187 65.4071 21.84L67.8381 26H66.3951L64.0681 21.957H62.3131V26H61.0391ZM64.4321 17.498H62.3131V20.865H64.4321C64.8308 20.865 65.1601 20.7827 65.4201 20.618C65.6801 20.4533 65.8751 20.2453 66.0051 19.994C66.1351 19.734 66.2001 19.4653 66.2001 19.188C66.2001 18.902 66.1351 18.6333 66.0051 18.382C65.8751 18.122 65.6801 17.9097 65.4201 17.745C65.1601 17.5803 64.8308 17.498 64.4321 17.498ZM72.0782 26.13C71.5149 26.13 71.0252 26.0303 70.6092 25.831C70.2019 25.623 69.8639 25.3457 69.5952 24.999C69.3352 24.6523 69.1402 24.271 69.0102 23.855C68.8802 23.4303 68.8152 22.997 68.8152 22.555C68.8152 22.1217 68.8759 21.6927 68.9972 21.268C69.1272 20.8433 69.3222 20.4577 69.5822 20.111C69.8509 19.7643 70.1846 19.4913 70.5832 19.292C70.9906 19.084 71.4716 18.98 72.0262 18.98C72.6156 18.98 73.1356 19.1143 73.5862 19.383C74.0369 19.6517 74.3922 20.0503 74.6522 20.579C74.9122 21.1077 75.0422 21.7707 75.0422 22.568V22.932H70.0632C70.0892 23.322 70.1802 23.6817 70.3362 24.011C70.5009 24.3317 70.7306 24.5917 71.0252 24.791C71.3199 24.9817 71.6709 25.077 72.0782 25.077C72.4336 25.077 72.7196 25.0207 72.9362 24.908C73.1616 24.7867 73.3392 24.648 73.4692 24.492C73.5992 24.336 73.6859 24.2017 73.7292 24.089C73.7812 23.9677 73.8072 23.907 73.8072 23.907H74.9642C74.9642 23.907 74.9426 23.985 74.8992 24.141C74.8559 24.2883 74.7779 24.4703 74.6652 24.687C74.5526 24.9037 74.3879 25.1247 74.1712 25.35C73.9546 25.5667 73.6772 25.753 73.3392 25.909C73.0012 26.0563 72.5809 26.13 72.0782 26.13ZM70.0762 21.97H73.8332C73.8159 21.5193 73.7206 21.1553 73.5472 20.878C73.3739 20.592 73.1529 20.3797 72.8842 20.241C72.6156 20.1023 72.3296 20.033 72.0262 20.033C71.4802 20.033 71.0339 20.2107 70.6872 20.566C70.3406 20.9127 70.1369 21.3807 70.0762 21.97ZM78.6446 26L76.0186 19.11H77.3056L79.3206 24.492L81.2966 19.11H82.5966L79.9576 26H78.6446ZM84.7698 17.797C84.5358 17.797 84.3408 17.719 84.1848 17.563C84.0375 17.407 83.9638 17.2207 83.9638 17.004C83.9638 16.7787 84.0375 16.588 84.1848 16.432C84.3408 16.276 84.5358 16.198 84.7698 16.198C84.9951 16.198 85.1858 16.276 85.3418 16.432C85.4978 16.588 85.5758 16.7787 85.5758 17.004C85.5758 17.2207 85.4978 17.407 85.3418 17.563C85.1858 17.719 84.9951 17.797 84.7698 17.797ZM84.1588 26V19.11H85.3938V26H84.1588ZM90.5245 26.13C89.9612 26.13 89.4715 26.0303 89.0555 25.831C88.6482 25.623 88.3102 25.3457 88.0415 24.999C87.7815 24.6523 87.5865 24.271 87.4565 23.855C87.3265 23.4303 87.2615 22.997 87.2615 22.555C87.2615 22.1217 87.3222 21.6927 87.4435 21.268C87.5735 20.8433 87.7685 20.4577 88.0285 20.111C88.2972 19.7643 88.6309 19.4913 89.0295 19.292C89.4369 19.084 89.9179 18.98 90.4725 18.98C91.0619 18.98 91.5819 19.1143 92.0325 19.383C92.4832 19.6517 92.8385 20.0503 93.0985 20.579C93.3585 21.1077 93.4885 21.7707 93.4885 22.568V22.932H88.5095C88.5355 23.322 88.6265 23.6817 88.7825 24.011C88.9472 24.3317 89.1769 24.5917 89.4715 24.791C89.7662 24.9817 90.1172 25.077 90.5245 25.077C90.8799 25.077 91.1659 25.0207 91.3825 24.908C91.6079 24.7867 91.7855 24.648 91.9155 24.492C92.0455 24.336 92.1322 24.2017 92.1755 24.089C92.2275 23.9677 92.2535 23.907 92.2535 23.907H93.4105C93.4105 23.907 93.3889 23.985 93.3455 24.141C93.3022 24.2883 93.2242 24.4703 93.1115 24.687C92.9989 24.9037 92.8342 25.1247 92.6175 25.35C92.4009 25.5667 92.1235 25.753 91.7855 25.909C91.4475 26.0563 91.0272 26.13 90.5245 26.13ZM88.5225 21.97H92.2795C92.2622 21.5193 92.1669 21.1553 91.9935 20.878C91.8202 20.592 91.5992 20.3797 91.3305 20.241C91.0619 20.1023 90.7759 20.033 90.4725 20.033C89.9265 20.033 89.4802 20.2107 89.1335 20.566C88.7869 20.9127 88.5832 21.3807 88.5225 21.97ZM96.6878 26L94.4648 19.11H95.7258L97.3638 24.336L99.0798 19.11H100.25L101.953 24.336L103.604 19.11H104.865L102.629 26H101.303L99.6648 20.917L98.0268 26H96.6878ZM112.438 26.13C111.84 26.13 111.29 26.0217 110.787 25.805C110.285 25.5883 109.882 25.2763 109.578 24.869C109.275 24.4617 109.123 23.9677 109.123 23.387C109.123 22.763 109.305 22.23 109.669 21.788C110.042 21.3373 110.523 20.943 111.112 20.605L111.008 20.488C110.783 20.228 110.575 19.9377 110.384 19.617C110.194 19.2963 110.098 18.9063 110.098 18.447C110.098 17.9617 110.207 17.5587 110.423 17.238C110.649 16.9087 110.939 16.6617 111.294 16.497C111.65 16.3323 112.022 16.25 112.412 16.25C112.802 16.25 113.166 16.328 113.504 16.484C113.851 16.64 114.128 16.8697 114.336 17.173C114.553 17.4763 114.661 17.849 114.661 18.291C114.661 18.811 114.497 19.2833 114.167 19.708C113.838 20.1327 113.37 20.4967 112.763 20.8L115.103 23.439C115.285 23.0837 115.428 22.659 115.532 22.165C115.636 21.671 115.688 21.1077 115.688 20.475H116.741C116.741 21.2983 116.659 22.0263 116.494 22.659C116.338 23.2917 116.122 23.8333 115.844 24.284L117.352 25.987H115.792L115.09 25.181C114.718 25.5017 114.306 25.74 113.855 25.896C113.405 26.052 112.932 26.13 112.438 26.13ZM111.996 19.929L112.139 20.085L112.23 20.046C112.646 19.8467 112.971 19.604 113.205 19.318C113.448 19.0233 113.569 18.7027 113.569 18.356C113.569 17.992 113.452 17.7147 113.218 17.524C112.993 17.3247 112.729 17.225 112.425 17.225C112.105 17.225 111.819 17.3333 111.567 17.55C111.325 17.758 111.203 18.044 111.203 18.408C111.203 18.668 111.273 18.915 111.411 19.149C111.55 19.383 111.745 19.643 111.996 19.929ZM110.293 23.283C110.293 23.6643 110.393 23.9937 110.592 24.271C110.792 24.5397 111.056 24.7433 111.385 24.882C111.723 25.0207 112.096 25.09 112.503 25.09C112.859 25.09 113.197 25.0337 113.517 24.921C113.847 24.8083 114.141 24.6307 114.401 24.388L111.723 21.307C111.299 21.5497 110.952 21.8313 110.683 22.152C110.423 22.4727 110.293 22.8497 110.293 23.283ZM121.977 26V16.38H125.409C126.145 16.38 126.756 16.5317 127.242 16.835C127.736 17.1383 128.104 17.5327 128.347 18.018C128.598 18.4947 128.724 18.993 128.724 19.513C128.724 20.0417 128.598 20.5487 128.347 21.034C128.104 21.5107 127.736 21.905 127.242 22.217C126.756 22.5203 126.145 22.672 125.409 22.672H123.251V26H121.977ZM125.409 17.498H123.251V21.554H125.409C125.868 21.554 126.249 21.4543 126.553 21.255C126.856 21.0557 127.081 20.8043 127.229 20.501C127.385 20.189 127.463 19.864 127.463 19.526C127.463 19.188 127.385 18.863 127.229 18.551C127.081 18.239 126.856 17.9877 126.553 17.797C126.249 17.5977 125.868 17.498 125.409 17.498ZM132.949 18.98C133.382 18.98 133.746 19.0493 134.041 19.188C134.335 19.3267 134.574 19.4913 134.756 19.682C134.938 19.864 135.076 20.0373 135.172 20.202H135.25V19.11H136.485V26H135.25V24.908H135.172C135.076 25.0727 134.938 25.2503 134.756 25.441C134.574 25.6317 134.335 25.7963 134.041 25.935C133.746 26.065 133.382 26.13 132.949 26.13C132.429 26.13 131.974 26.0303 131.584 25.831C131.194 25.623 130.869 25.35 130.609 25.012C130.349 24.6653 130.154 24.2797 130.024 23.855C129.894 23.4303 129.829 22.997 129.829 22.555C129.829 22.113 129.894 21.6797 130.024 21.255C130.154 20.8303 130.349 20.449 130.609 20.111C130.869 19.7643 131.194 19.4913 131.584 19.292C131.974 19.084 132.429 18.98 132.949 18.98ZM133.157 20.033C132.697 20.033 132.312 20.1587 132 20.41C131.688 20.6527 131.454 20.9647 131.298 21.346C131.15 21.7273 131.077 22.1303 131.077 22.555C131.077 22.971 131.15 23.374 131.298 23.764C131.454 24.1453 131.688 24.4617 132 24.713C132.312 24.9557 132.697 25.077 133.157 25.077C133.616 25.077 133.997 24.9557 134.301 24.713C134.613 24.4617 134.842 24.1453 134.99 23.764C135.146 23.374 135.224 22.971 135.224 22.555C135.224 22.1303 135.146 21.7273 134.99 21.346C134.842 20.9647 134.613 20.6527 134.301 20.41C133.997 20.1587 133.616 20.033 133.157 20.033ZM138.369 28.535C138.17 28.535 138.001 28.5263 137.862 28.509C137.724 28.4917 137.654 28.483 137.654 28.483V27.43C137.654 27.43 137.724 27.4343 137.862 27.443C138.01 27.4603 138.166 27.469 138.33 27.469C138.842 27.469 139.258 27.3607 139.578 27.144C139.908 26.936 140.185 26.5893 140.41 26.104L137.745 19.11H139.032L141.021 24.492L143.023 19.11H144.323L141.658 26.013C141.32 26.8797 140.883 27.5167 140.345 27.924C139.817 28.3313 139.158 28.535 138.369 28.535ZM145.688 26V19.11H146.923V20.111H146.975C147.045 19.981 147.153 19.8293 147.3 19.656C147.448 19.474 147.647 19.318 147.898 19.188C148.158 19.0493 148.483 18.98 148.873 18.98C149.385 18.98 149.814 19.1057 150.16 19.357C150.516 19.5997 150.78 19.929 150.953 20.345H150.966C151.157 19.9637 151.426 19.643 151.772 19.383C152.128 19.1143 152.587 18.98 153.15 18.98C153.896 18.98 154.468 19.2357 154.866 19.747C155.274 20.2497 155.477 20.8997 155.477 21.697V26H154.242V21.762C154.242 21.2507 154.121 20.839 153.878 20.527C153.636 20.2063 153.285 20.046 152.825 20.046C152.427 20.046 152.106 20.1543 151.863 20.371C151.629 20.5877 151.46 20.8563 151.356 21.177C151.252 21.4977 151.2 21.8183 151.2 22.139V26H149.965V21.762C149.965 21.2507 149.844 20.839 149.601 20.527C149.367 20.2063 149.016 20.046 148.548 20.046C148.15 20.046 147.829 20.1543 147.586 20.371C147.352 20.5877 147.183 20.8607 147.079 21.19C146.975 21.5107 146.923 21.827 146.923 22.139V26H145.688ZM160.425 26.13C159.861 26.13 159.372 26.0303 158.956 25.831C158.548 25.623 158.21 25.3457 157.942 24.999C157.682 24.6523 157.487 24.271 157.357 23.855C157.227 23.4303 157.162 22.997 157.162 22.555C157.162 22.1217 157.222 21.6927 157.344 21.268C157.474 20.8433 157.669 20.4577 157.929 20.111C158.197 19.7643 158.531 19.4913 158.93 19.292C159.337 19.084 159.818 18.98 160.373 18.98C160.962 18.98 161.482 19.1143 161.933 19.383C162.383 19.6517 162.739 20.0503 162.999 20.579C163.259 21.1077 163.389 21.7707 163.389 22.568V22.932H158.41C158.436 23.322 158.527 23.6817 158.683 24.011C158.847 24.3317 159.077 24.5917 159.372 24.791C159.666 24.9817 160.017 25.077 160.425 25.077C160.78 25.077 161.066 25.0207 161.283 24.908C161.508 24.7867 161.686 24.648 161.816 24.492C161.946 24.336 162.032 24.2017 162.076 24.089C162.128 23.9677 162.154 23.907 162.154 23.907H163.311C163.311 23.907 163.289 23.985 163.246 24.141C163.202 24.2883 163.124 24.4703 163.012 24.687C162.899 24.9037 162.734 25.1247 162.518 25.35C162.301 25.5667 162.024 25.753 161.686 25.909C161.348 26.0563 160.927 26.13 160.425 26.13ZM158.423 21.97H162.18C162.162 21.5193 162.067 21.1553 161.894 20.878C161.72 20.592 161.499 20.3797 161.231 20.241C160.962 20.1023 160.676 20.033 160.373 20.033C159.827 20.033 159.38 20.2107 159.034 20.566C158.687 20.9127 158.483 21.3807 158.423 21.97ZM165.074 26V19.11H166.309V20.111H166.387C166.448 20.007 166.547 19.864 166.686 19.682C166.833 19.5 167.041 19.3397 167.31 19.201C167.579 19.0537 167.917 18.98 168.324 18.98C168.827 18.98 169.256 19.097 169.611 19.331C169.966 19.5563 170.235 19.864 170.417 20.254C170.608 20.644 170.703 21.0817 170.703 21.567V26H169.468V21.645C169.468 21.1857 169.338 20.8043 169.078 20.501C168.827 20.1977 168.458 20.046 167.973 20.046C167.583 20.046 167.267 20.1457 167.024 20.345C166.781 20.5357 166.599 20.7913 166.478 21.112C166.365 21.424 166.309 21.7577 166.309 22.113V26H165.074ZM175.197 26.13C174.487 26.13 173.949 25.948 173.585 25.584C173.23 25.22 173.052 24.7087 173.052 24.05V20.124H171.817V19.11H173.052V17.381H174.287V19.11H175.964V20.124H174.287V24.05C174.287 24.3967 174.383 24.6523 174.573 24.817C174.764 24.973 175.041 25.051 175.405 25.051C175.596 25.051 175.778 25.038 175.951 25.012C176.125 24.986 176.211 24.973 176.211 24.973V26.026C176.211 26.026 176.112 26.0433 175.912 26.078C175.713 26.1127 175.475 26.13 175.197 26.13Z" fill="white"/>
</svg>
