<svg width="272" height="42" viewBox="0 0 272 42" fill="none" xmlns="http://www.w3.org/2000/svg">
<path d="M8.19117 36.5082C5.72914 38.1589 6.89762 42 9.86179 42H237.832C238.377 42 238.911 41.8516 239.378 41.5707L267.44 24.6902C269.316 23.5615 269.39 20.868 267.579 19.6378L239.428 0.518273C238.931 0.18056 238.343 0 237.742 0H8.78091C5.9205 0 4.68283 3.62263 6.94527 5.37285L25.7927 19.9532C27.4123 21.2061 27.3285 23.6776 25.6277 24.8179L8.19117 36.5082Z" fill="#7239EA"/>
<path d="M73.064 26.0002V15.6402H76.914C77.6513 15.6402 78.272 15.7849 78.776 16.0742C79.2893 16.3542 79.6767 16.7276 79.938 17.1942C80.1993 17.6516 80.33 18.1509 80.33 18.6922C80.33 19.3456 80.1433 19.9382 79.77 20.4702C79.406 21.0022 78.8693 21.3756 78.16 21.5902L80.652 26.0002H78.818L76.466 21.7722H74.702V26.0002H73.064ZM76.886 17.0682H74.702V20.4002H76.886C77.474 20.4002 77.9173 20.2322 78.216 19.8962C78.5147 19.5509 78.664 19.1636 78.664 18.7342C78.664 18.3049 78.5147 17.9222 78.216 17.5862C77.9173 17.2409 77.474 17.0682 76.886 17.0682ZM85.2694 26.1402C84.644 26.1402 84.1027 26.0329 83.6454 25.8182C83.1974 25.5942 82.824 25.3002 82.5254 24.9362C82.236 24.5629 82.0167 24.1476 81.8674 23.6902C81.7274 23.2329 81.6574 22.7662 81.6574 22.2902C81.6574 21.8236 81.7274 21.3616 81.8674 20.9042C82.0074 20.4469 82.222 20.0316 82.5114 19.6582C82.8007 19.2849 83.1694 18.9909 83.6174 18.7762C84.0654 18.5522 84.5927 18.4402 85.1994 18.4402C85.8527 18.4402 86.4267 18.5896 86.9214 18.8882C87.4254 19.1776 87.8174 19.6116 88.0974 20.1902C88.3867 20.7596 88.5314 21.4689 88.5314 22.3182V22.7522H83.2674C83.3047 23.3216 83.496 23.8116 83.8414 24.2222C84.1867 24.6329 84.6627 24.8382 85.2694 24.8382C85.6147 24.8382 85.8994 24.7822 86.1234 24.6702C86.3474 24.5489 86.52 24.4136 86.6414 24.2642C86.7627 24.1149 86.8467 23.9842 86.8934 23.8722C86.9494 23.7602 86.9774 23.7042 86.9774 23.7042H88.4614C88.4614 23.7042 88.438 23.7882 88.3914 23.9562C88.3447 24.1149 88.256 24.3156 88.1254 24.5582C88.004 24.8009 87.8267 25.0436 87.5934 25.2862C87.36 25.5289 87.052 25.7342 86.6694 25.9022C86.2867 26.0609 85.82 26.1402 85.2694 26.1402ZM83.2814 21.6322H86.9914C86.954 20.9789 86.758 20.4982 86.4034 20.1902C86.058 19.8822 85.652 19.7282 85.1854 19.7282C84.6627 19.7282 84.2287 19.9009 83.8834 20.2462C83.538 20.5822 83.3374 21.0442 83.2814 21.6322ZM92.2415 26.0002L89.4555 18.5802H91.0935L93.1095 24.1382L95.0835 18.5802H96.7355L93.9355 26.0002H92.2415ZM99.0879 17.3062C98.7986 17.3062 98.5606 17.2082 98.3739 17.0122C98.1873 16.8162 98.0939 16.5876 98.0939 16.3262C98.0939 16.0556 98.1873 15.8269 98.3739 15.6402C98.5606 15.4442 98.7986 15.3462 99.0879 15.3462C99.3773 15.3462 99.6153 15.4442 99.8019 15.6402C99.9979 15.8269 100.096 16.0556 100.096 16.3262C100.096 16.5969 99.9979 16.8302 99.8019 17.0262C99.6153 17.2129 99.3773 17.3062 99.0879 17.3062ZM98.3039 26.0002V18.5802H99.8999V26.0002H98.3039ZM105.435 26.1402C104.81 26.1402 104.269 26.0329 103.811 25.8182C103.363 25.5942 102.99 25.3002 102.691 24.9362C102.402 24.5629 102.183 24.1476 102.033 23.6902C101.893 23.2329 101.823 22.7662 101.823 22.2902C101.823 21.8236 101.893 21.3616 102.033 20.9042C102.173 20.4469 102.388 20.0316 102.677 19.6582C102.967 19.2849 103.335 18.9909 103.783 18.7762C104.231 18.5522 104.759 18.4402 105.365 18.4402C106.019 18.4402 106.593 18.5896 107.087 18.8882C107.591 19.1776 107.983 19.6116 108.263 20.1902C108.553 20.7596 108.697 21.4689 108.697 22.3182V22.7522H103.433C103.471 23.3216 103.662 23.8116 104.007 24.2222C104.353 24.6329 104.829 24.8382 105.435 24.8382C105.781 24.8382 106.065 24.7822 106.289 24.6702C106.513 24.5489 106.686 24.4136 106.807 24.2642C106.929 24.1149 107.013 23.9842 107.059 23.8722C107.115 23.7602 107.143 23.7042 107.143 23.7042H108.627C108.627 23.7042 108.604 23.7882 108.557 23.9562C108.511 24.1149 108.422 24.3156 108.291 24.5582C108.17 24.8009 107.993 25.0436 107.759 25.2862C107.526 25.5289 107.218 25.7342 106.835 25.9022C106.453 26.0609 105.986 26.1402 105.435 26.1402ZM103.447 21.6322H107.157C107.12 20.9789 106.924 20.4982 106.569 20.1902C106.224 19.8822 105.818 19.7282 105.351 19.7282C104.829 19.7282 104.395 19.9009 104.049 20.2462C103.704 20.5822 103.503 21.0442 103.447 21.6322ZM111.988 26.0002L109.622 18.5802H111.232L112.856 23.9422L114.564 18.5802H116.048L117.756 23.9422L119.38 18.5802H121.004L118.624 26.0002H116.93L115.306 20.9042L113.696 26.0002H111.988ZM129.074 26.1402C128.421 26.1402 127.819 26.0236 127.268 25.7902C126.717 25.5476 126.279 25.2022 125.952 24.7542C125.625 24.3062 125.462 23.7649 125.462 23.1302C125.462 22.4769 125.644 21.9169 126.008 21.4502C126.381 20.9742 126.885 20.5589 127.52 20.2042V20.1902C127.277 19.9196 127.044 19.6069 126.82 19.2522C126.605 18.8882 126.498 18.4449 126.498 17.9222C126.498 17.3902 126.619 16.9469 126.862 16.5922C127.114 16.2282 127.436 15.9576 127.828 15.7802C128.229 15.5936 128.649 15.5002 129.088 15.5002C129.517 15.5002 129.923 15.5889 130.306 15.7662C130.689 15.9342 131.001 16.1862 131.244 16.5222C131.487 16.8582 131.608 17.2689 131.608 17.7542C131.608 18.3329 131.426 18.8416 131.062 19.2802C130.698 19.7189 130.208 20.1016 129.592 20.4282L131.902 23.0042C132.07 22.6309 132.201 22.2016 132.294 21.7162C132.387 21.2309 132.434 20.6802 132.434 20.0642H133.764C133.764 20.9229 133.68 21.6836 133.512 22.3462C133.353 22.9996 133.129 23.5689 132.84 24.0542L134.576 25.9862H132.588L131.888 25.1882C131.487 25.5149 131.048 25.7576 130.572 25.9162C130.096 26.0656 129.597 26.1402 129.074 26.1402ZM127.87 17.8662C127.87 18.1649 127.963 18.4496 128.15 18.7202C128.337 18.9816 128.561 19.2569 128.822 19.5462H128.85C129.261 19.3409 129.592 19.0982 129.844 18.8182C130.105 18.5289 130.236 18.1976 130.236 17.8242C130.236 17.4509 130.119 17.1709 129.886 16.9842C129.662 16.7882 129.396 16.6902 129.088 16.6902C128.771 16.6902 128.486 16.7976 128.234 17.0122C127.991 17.2176 127.87 17.5022 127.87 17.8662ZM126.946 23.0042C126.946 23.5736 127.156 24.0216 127.576 24.3482C128.005 24.6749 128.533 24.8382 129.158 24.8382C129.503 24.8382 129.835 24.7869 130.152 24.6842C130.469 24.5816 130.759 24.4182 131.02 24.1942L128.29 21.0862C127.879 21.3289 127.553 21.6089 127.31 21.9262C127.067 22.2342 126.946 22.5936 126.946 23.0042ZM139.427 26.0002V15.6402H143.319C144.131 15.6402 144.808 15.8082 145.349 16.1442C145.891 16.4709 146.297 16.8956 146.567 17.4182C146.838 17.9316 146.973 18.4729 146.973 19.0422C146.973 19.6116 146.838 20.1576 146.567 20.6802C146.297 21.2029 145.891 21.6322 145.349 21.9682C144.808 22.2949 144.131 22.4582 143.319 22.4582H141.065V26.0002H139.427ZM143.319 17.0682H141.065V21.0302H143.319C143.767 21.0302 144.141 20.9369 144.439 20.7502C144.738 20.5542 144.962 20.3069 145.111 20.0082C145.261 19.7002 145.335 19.3829 145.335 19.0562C145.335 18.7202 145.261 18.4029 145.111 18.1042C144.962 17.7962 144.738 17.5489 144.439 17.3622C144.141 17.1662 143.767 17.0682 143.319 17.0682ZM151.366 18.4402C151.833 18.4402 152.22 18.5149 152.528 18.6642C152.846 18.8136 153.098 18.9862 153.284 19.1822C153.471 19.3782 153.606 19.5462 153.69 19.6862H153.774V18.5802H155.37V26.0002H153.774V24.8942H153.69C153.606 25.0342 153.471 25.2022 153.284 25.3982C153.098 25.5942 152.846 25.7669 152.528 25.9162C152.22 26.0656 151.833 26.1402 151.366 26.1402C150.806 26.1402 150.316 26.0329 149.896 25.8182C149.486 25.5942 149.14 25.3002 148.86 24.9362C148.58 24.5629 148.37 24.1476 148.23 23.6902C148.1 23.2329 148.034 22.7662 148.034 22.2902C148.034 21.8142 148.1 21.3476 148.23 20.8902C148.37 20.4329 148.58 20.0222 148.86 19.6582C149.14 19.2849 149.486 18.9909 149.896 18.7762C150.316 18.5522 150.806 18.4402 151.366 18.4402ZM151.716 19.7702C151.259 19.7702 150.876 19.8962 150.568 20.1482C150.26 20.3909 150.027 20.7036 149.868 21.0862C149.719 21.4689 149.644 21.8702 149.644 22.2902C149.644 22.7102 149.719 23.1116 149.868 23.4942C150.027 23.8769 150.26 24.1942 150.568 24.4462C150.876 24.6889 151.259 24.8102 151.716 24.8102C152.174 24.8102 152.552 24.6889 152.85 24.4462C153.158 24.1942 153.387 23.8769 153.536 23.4942C153.695 23.1116 153.774 22.7102 153.774 22.2902C153.774 21.8702 153.695 21.4689 153.536 21.0862C153.387 20.7036 153.158 20.3909 152.85 20.1482C152.552 19.8962 152.174 19.7702 151.716 19.7702ZM157.425 28.7302C157.192 28.7302 157.001 28.7209 156.851 28.7022C156.702 28.6836 156.627 28.6742 156.627 28.6742V27.3442C156.627 27.3442 156.702 27.3489 156.851 27.3582C157.001 27.3769 157.164 27.3862 157.341 27.3862C157.855 27.3862 158.275 27.2882 158.601 27.0922C158.937 26.9056 159.222 26.5742 159.455 26.0982L156.627 18.5802H158.251L160.253 24.1382L162.255 18.5802H163.907L161.107 25.9162C160.734 26.8776 160.258 27.5869 159.679 28.0442C159.101 28.5016 158.349 28.7302 157.425 28.7302ZM165.264 26.0002V18.5802H166.86V19.6302H166.916C167 19.4809 167.121 19.3129 167.28 19.1262C167.448 18.9396 167.667 18.7809 167.938 18.6502C168.209 18.5102 168.549 18.4402 168.96 18.4402C169.511 18.4402 169.968 18.5709 170.332 18.8322C170.696 19.0936 170.967 19.4389 171.144 19.8682H171.172C171.368 19.4949 171.653 19.1636 172.026 18.8742C172.399 18.5849 172.894 18.4402 173.51 18.4402C174.033 18.4402 174.476 18.5662 174.84 18.8182C175.204 19.0609 175.475 19.3922 175.652 19.8122C175.839 20.2229 175.932 20.6896 175.932 21.2122V26.0002H174.336V21.4362C174.336 20.9509 174.219 20.5542 173.986 20.2462C173.753 19.9382 173.407 19.7842 172.95 19.7842C172.577 19.7842 172.273 19.8869 172.04 20.0922C171.816 20.2976 171.653 20.5542 171.55 20.8622C171.447 21.1609 171.396 21.4642 171.396 21.7722V26.0002H169.8V21.4362C169.8 20.9509 169.683 20.5542 169.45 20.2462C169.217 19.9382 168.871 19.7842 168.414 19.7842C168.041 19.7842 167.737 19.8869 167.504 20.0922C167.28 20.2976 167.117 20.5542 167.014 20.8622C166.911 21.1609 166.86 21.4642 166.86 21.7722V26.0002H165.264ZM181.232 26.1402C180.607 26.1402 180.066 26.0329 179.608 25.8182C179.16 25.5942 178.787 25.3002 178.488 24.9362C178.199 24.5629 177.98 24.1476 177.83 23.6902C177.69 23.2329 177.62 22.7662 177.62 22.2902C177.62 21.8236 177.69 21.3616 177.83 20.9042C177.97 20.4469 178.185 20.0316 178.474 19.6582C178.764 19.2849 179.132 18.9909 179.58 18.7762C180.028 18.5522 180.556 18.4402 181.162 18.4402C181.816 18.4402 182.39 18.5896 182.884 18.8882C183.388 19.1776 183.78 19.6116 184.06 20.1902C184.35 20.7596 184.494 21.4689 184.494 22.3182V22.7522H179.23C179.268 23.3216 179.459 23.8116 179.804 24.2222C180.15 24.6329 180.626 24.8382 181.232 24.8382C181.578 24.8382 181.862 24.7822 182.086 24.6702C182.31 24.5489 182.483 24.4136 182.604 24.2642C182.726 24.1149 182.81 23.9842 182.856 23.8722C182.912 23.7602 182.94 23.7042 182.94 23.7042H184.424C184.424 23.7042 184.401 23.7882 184.354 23.9562C184.308 24.1149 184.219 24.3156 184.088 24.5582C183.967 24.8009 183.79 25.0436 183.556 25.2862C183.323 25.5289 183.015 25.7342 182.632 25.9022C182.25 26.0609 181.783 26.1402 181.232 26.1402ZM179.244 21.6322H182.954C182.917 20.9789 182.721 20.4982 182.366 20.1902C182.021 19.8822 181.615 19.7282 181.148 19.7282C180.626 19.7282 180.192 19.9009 179.846 20.2462C179.501 20.5822 179.3 21.0442 179.244 21.6322ZM186.195 26.0002V18.5802H187.791V19.6582H187.875C187.941 19.5276 188.053 19.3689 188.211 19.1822C188.37 18.9862 188.589 18.8136 188.869 18.6642C189.159 18.5149 189.523 18.4402 189.961 18.4402C190.512 18.4402 190.974 18.5662 191.347 18.8182C191.721 19.0702 192.001 19.4062 192.187 19.8262C192.383 20.2462 192.481 20.7082 192.481 21.2122V26.0002H190.885V21.3802C190.885 20.9322 190.759 20.5542 190.507 20.2462C190.265 19.9382 189.901 19.7842 189.415 19.7842C189.033 19.7842 188.72 19.8822 188.477 20.0782C188.244 20.2649 188.071 20.5122 187.959 20.8202C187.847 21.1189 187.791 21.4409 187.791 21.7862V26.0002H186.195ZM197.36 26.1402C196.772 26.1402 196.3 26.0329 195.946 25.8182C195.591 25.6036 195.334 25.3189 195.176 24.9642C195.026 24.6002 194.952 24.2082 194.952 23.7882V19.8682H193.649V18.5802H194.952V16.7322H196.548V18.5802H198.284V19.8682H196.548V23.7602C196.548 24.4602 196.935 24.8102 197.71 24.8102C197.906 24.8102 198.088 24.7962 198.256 24.7682C198.424 24.7402 198.508 24.7262 198.508 24.7262V26.0282C198.508 26.0282 198.391 26.0469 198.158 26.0842C197.934 26.1216 197.668 26.1402 197.36 26.1402Z" fill="white"/>
</svg>
