<svg width="14" height="16" viewBox="0 0 14 16" fill="none" xmlns="http://www.w3.org/2000/svg">
<path d="M7.0678 6.4C5.26057 6.37203 3.88004 4.91923 3.86781 3.2C3.89766 1.40889 5.36162 0.01256 7.0678 0C8.87662 0.0684 10.2549 1.45293 10.2678 3.2C10.2322 4.99252 8.77572 6.38787 7.0678 6.4ZM9.65504 7.06384C11.9296 7.09039 13.083 9.08557 13.0934 11.0808V16H10.8636L10.8636 11.6766C10.8094 11.3777 10.6069 11.2764 10.4215 11.3057C10.2478 11.3331 10.0891 11.475 10.0807 11.6766V16H3.88506V11.6766C3.83764 11.3922 3.65669 11.2828 3.48065 11.2938C3.29214 11.3057 3.10928 11.4556 3.10208 11.6766V16H0.906344V11.0808C0.893278 8.95443 2.23836 7.0796 4.3615 7.06384H9.65504Z" fill="#7239EA"/>
</svg>
