<svg width="216" height="42" viewBox="0 0 216 42" fill="none" xmlns="http://www.w3.org/2000/svg">
<path fill-rule="evenodd" clip-rule="evenodd" d="M182.468 0.515422C181.971 0.179522 181.386 0 180.786 0H3C1.34315 0 0 1.34315 0 3V39C0 40.6569 1.34315 42 3 42H180.896C181.427 42 181.947 41.8594 182.406 41.5925L210.941 24.9769C212.851 23.8646 212.943 21.1386 211.113 19.8998L182.468 0.515422Z" fill="#7239EA"/>
<path d="M26.0792 26.0001V17.4981H23.0762V16.3801H30.3562V17.4981H27.3532V26.0001H26.0792ZM30.9423 26.0001V19.1101H32.1773V19.9681H32.2293C32.3766 19.7081 32.5933 19.4784 32.8793 19.2791C33.1653 19.0798 33.5683 18.9801 34.0883 18.9801C34.2356 18.9801 34.3699 18.9888 34.4913 19.0061C34.6126 19.0148 34.6733 19.0191 34.6733 19.0191V20.2021C34.6733 20.2021 34.6039 20.1978 34.4653 20.1891C34.3353 20.1718 34.1966 20.1631 34.0493 20.1631C33.4513 20.1631 32.9876 20.3364 32.6583 20.6831C32.3376 21.0211 32.1773 21.5758 32.1773 22.3471V26.0001H30.9423ZM38.5026 18.9801C38.9359 18.9801 39.2999 19.0494 39.5946 19.1881C39.8892 19.3268 40.1276 19.4914 40.3096 19.6821C40.4916 19.8641 40.6302 20.0374 40.7256 20.2021H40.8036V19.1101H42.0386V26.0001H40.8036V24.9081H40.7256C40.6302 25.0728 40.4916 25.2504 40.3096 25.4411C40.1276 25.6318 39.8892 25.7964 39.5946 25.9351C39.2999 26.0651 38.9359 26.1301 38.5026 26.1301C37.9826 26.1301 37.5276 26.0304 37.1376 25.8311C36.7476 25.6231 36.4226 25.3501 36.1626 25.0121C35.9026 24.6654 35.7076 24.2798 35.5776 23.8551C35.4476 23.4304 35.3826 22.9971 35.3826 22.5551C35.3826 22.1131 35.4476 21.6798 35.5776 21.2551C35.7076 20.8304 35.9026 20.4491 36.1626 20.1111C36.4226 19.7644 36.7476 19.4914 37.1376 19.2921C37.5276 19.0841 37.9826 18.9801 38.5026 18.9801ZM38.7106 20.0331C38.2512 20.0331 37.8656 20.1588 37.5536 20.4101C37.2416 20.6528 37.0076 20.9648 36.8516 21.3461C36.7042 21.7274 36.6306 22.1304 36.6306 22.5551C36.6306 22.9711 36.7042 23.3741 36.8516 23.7641C37.0076 24.1454 37.2416 24.4618 37.5536 24.7131C37.8656 24.9558 38.2512 25.0771 38.7106 25.0771C39.1699 25.0771 39.5512 24.9558 39.8546 24.7131C40.1666 24.4618 40.3962 24.1454 40.5436 23.7641C40.6996 23.3741 40.7776 22.9711 40.7776 22.5551C40.7776 22.1304 40.6996 21.7274 40.5436 21.3461C40.3962 20.9648 40.1666 20.6528 39.8546 20.4101C39.5512 20.1588 39.1699 20.0331 38.7106 20.0331ZM45.7705 26.0001L43.1445 19.1101H44.4315L46.4465 24.4921L48.4225 19.1101H49.7225L47.0835 26.0001H45.7705ZM53.9688 26.1301C53.4055 26.1301 52.9158 26.0304 52.4998 25.8311C52.0925 25.6231 51.7545 25.3458 51.4858 24.9991C51.2258 24.6524 51.0308 24.2711 50.9008 23.8551C50.7708 23.4304 50.7058 22.9971 50.7058 22.5551C50.7058 22.1218 50.7665 21.6928 50.8878 21.2681C51.0178 20.8434 51.2128 20.4578 51.4728 20.1111C51.7415 19.7644 52.0751 19.4914 52.4738 19.2921C52.8811 19.0841 53.3621 18.9801 53.9168 18.9801C54.5061 18.9801 55.0261 19.1144 55.4768 19.3831C55.9275 19.6518 56.2828 20.0504 56.5428 20.5791C56.8028 21.1078 56.9328 21.7708 56.9328 22.5681V22.9321H51.9538C51.9798 23.3221 52.0708 23.6818 52.2268 24.0111C52.3915 24.3318 52.6211 24.5918 52.9158 24.7911C53.2105 24.9818 53.5615 25.0771 53.9688 25.0771C54.3241 25.0771 54.6101 25.0208 54.8268 24.9081C55.0521 24.7868 55.2298 24.6481 55.3598 24.4921C55.4898 24.3361 55.5765 24.2018 55.6198 24.0891C55.6718 23.9678 55.6978 23.9071 55.6978 23.9071H56.8548C56.8548 23.9071 56.8331 23.9851 56.7898 24.1411C56.7465 24.2884 56.6685 24.4704 56.5558 24.6871C56.4431 24.9038 56.2785 25.1248 56.0618 25.3501C55.8451 25.5668 55.5678 25.7531 55.2298 25.9091C54.8918 26.0564 54.4715 26.1301 53.9688 26.1301ZM51.9668 21.9701H55.7238C55.7065 21.5194 55.6111 21.1554 55.4378 20.8781C55.2645 20.5921 55.0435 20.3798 54.7748 20.2411C54.5061 20.1024 54.2201 20.0331 53.9168 20.0331C53.3708 20.0331 52.9245 20.2108 52.5778 20.5661C52.2311 20.9128 52.0275 21.3808 51.9668 21.9701ZM58.748 26.0001L58.761 16.1201H59.983V26.0001H58.748ZM65.0645 26.1301C64.5012 26.1301 64.0115 26.0304 63.5955 25.8311C63.1882 25.6231 62.8502 25.3458 62.5815 24.9991C62.3215 24.6524 62.1265 24.2711 61.9965 23.8551C61.8665 23.4304 61.8015 22.9971 61.8015 22.5551C61.8015 22.1218 61.8622 21.6928 61.9835 21.2681C62.1135 20.8434 62.3085 20.4578 62.5685 20.1111C62.8372 19.7644 63.1708 19.4914 63.5695 19.2921C63.9768 19.0841 64.4578 18.9801 65.0125 18.9801C65.6018 18.9801 66.1218 19.1144 66.5725 19.3831C67.0232 19.6518 67.3785 20.0504 67.6385 20.5791C67.8985 21.1078 68.0285 21.7708 68.0285 22.5681V22.9321H63.0495C63.0755 23.3221 63.1665 23.6818 63.3225 24.0111C63.4872 24.3318 63.7168 24.5918 64.0115 24.7911C64.3062 24.9818 64.6572 25.0771 65.0645 25.0771C65.4198 25.0771 65.7058 25.0208 65.9225 24.9081C66.1478 24.7868 66.3255 24.6481 66.4555 24.4921C66.5855 24.3361 66.6722 24.2018 66.7155 24.0891C66.7675 23.9678 66.7935 23.9071 66.7935 23.9071H67.9505C67.9505 23.9071 67.9288 23.9851 67.8855 24.1411C67.8422 24.2884 67.7642 24.4704 67.6515 24.6871C67.5388 24.9038 67.3742 25.1248 67.1575 25.3501C66.9408 25.5668 66.6635 25.7531 66.3255 25.9091C65.9875 26.0564 65.5672 26.1301 65.0645 26.1301ZM63.0625 21.9701H66.8195C66.8022 21.5194 66.7068 21.1554 66.5335 20.8781C66.3602 20.5921 66.1392 20.3798 65.8705 20.2411C65.6018 20.1024 65.3158 20.0331 65.0125 20.0331C64.4665 20.0331 64.0202 20.2108 63.6735 20.5661C63.3268 20.9128 63.1232 21.3808 63.0625 21.9701ZM69.7137 26.0001V19.1101H70.9487V19.9681H71.0007C71.1481 19.7081 71.3647 19.4784 71.6507 19.2791C71.9367 19.0798 72.3397 18.9801 72.8597 18.9801C73.0071 18.9801 73.1414 18.9888 73.2627 19.0061C73.3841 19.0148 73.4447 19.0191 73.4447 19.0191V20.2021C73.4447 20.2021 73.3754 20.1978 73.2367 20.1891C73.1067 20.1718 72.9681 20.1631 72.8207 20.1631C72.2227 20.1631 71.7591 20.3364 71.4297 20.6831C71.1091 21.0211 70.9487 21.5758 70.9487 22.3471V26.0001H69.7137ZM77.9306 26.0001V16.3801H81.0506C81.822 16.3801 82.4936 16.5188 83.0656 16.7961C83.6376 17.0648 84.1143 17.4288 84.4956 17.8881C84.877 18.3474 85.163 18.8631 85.3536 19.4351C85.5443 20.0071 85.6396 20.5921 85.6396 21.1901C85.6396 21.7881 85.5443 22.3731 85.3536 22.9451C85.163 23.5171 84.877 24.0328 84.4956 24.4921C84.1143 24.9514 83.6376 25.3198 83.0656 25.5971C82.4936 25.8658 81.822 26.0001 81.0506 26.0001H77.9306ZM80.9986 17.4981H79.2046V24.8821H80.9986C81.562 24.8821 82.0516 24.7781 82.4676 24.5701C82.8923 24.3621 83.2433 24.0848 83.5206 23.7381C83.8066 23.3828 84.019 22.9841 84.1576 22.5421C84.2963 22.1001 84.3656 21.6494 84.3656 21.1901C84.3656 20.7308 84.2963 20.2801 84.1576 19.8381C84.019 19.3961 83.8066 19.0018 83.5206 18.6551C83.2433 18.2998 82.8923 18.0181 82.4676 17.8101C82.0516 17.6021 81.562 17.4981 80.9986 17.4981ZM90.3917 26.1301C89.8283 26.1301 89.3387 26.0304 88.9227 25.8311C88.5153 25.6231 88.1773 25.3458 87.9087 24.9991C87.6487 24.6524 87.4537 24.2711 87.3237 23.8551C87.1937 23.4304 87.1287 22.9971 87.1287 22.5551C87.1287 22.1218 87.1893 21.6928 87.3107 21.2681C87.4407 20.8434 87.6357 20.4578 87.8957 20.1111C88.1643 19.7644 88.498 19.4914 88.8967 19.2921C89.304 19.0841 89.785 18.9801 90.3397 18.9801C90.929 18.9801 91.449 19.1144 91.8997 19.3831C92.3503 19.6518 92.7057 20.0504 92.9657 20.5791C93.2257 21.1078 93.3557 21.7708 93.3557 22.5681V22.9321H88.3767C88.4027 23.3221 88.4937 23.6818 88.6497 24.0111C88.8143 24.3318 89.044 24.5918 89.3387 24.7911C89.6333 24.9818 89.9843 25.0771 90.3917 25.0771C90.747 25.0771 91.033 25.0208 91.2497 24.9081C91.475 24.7868 91.6527 24.6481 91.7827 24.4921C91.9127 24.3361 91.9993 24.2018 92.0427 24.0891C92.0947 23.9678 92.1207 23.9071 92.1207 23.9071H93.2777C93.2777 23.9071 93.256 23.9851 93.2127 24.1411C93.1693 24.2884 93.0913 24.4704 92.9787 24.6871C92.866 24.9038 92.7013 25.1248 92.4847 25.3501C92.268 25.5668 91.9907 25.7531 91.6527 25.9091C91.3147 26.0564 90.8943 26.1301 90.3917 26.1301ZM88.3897 21.9701H92.1467C92.1293 21.5194 92.034 21.1554 91.8607 20.8781C91.6873 20.5921 91.4663 20.3798 91.1977 20.2411C90.929 20.1024 90.643 20.0331 90.3397 20.0331C89.7937 20.0331 89.3473 20.2108 89.0007 20.5661C88.654 20.9128 88.4503 21.3808 88.3897 21.9701ZM97.8389 26.1301C97.1283 26.1301 96.5909 25.9481 96.2269 25.5841C95.8716 25.2201 95.6939 24.7088 95.6939 24.0501V20.1241H94.4589V19.1101H95.6939V17.3811H96.9289V19.1101H98.6059V20.1241H96.9289V24.0501C96.9289 24.3968 97.0243 24.6524 97.2149 24.8171C97.4056 24.9731 97.6829 25.0511 98.0469 25.0511C98.2376 25.0511 98.4196 25.0381 98.5929 25.0121C98.7663 24.9861 98.8529 24.9731 98.8529 24.9731V26.0261C98.8529 26.0261 98.7533 26.0434 98.5539 26.0781C98.3546 26.1128 98.1163 26.1301 97.8389 26.1301ZM103.211 18.9801C103.644 18.9801 104.008 19.0494 104.303 19.1881C104.597 19.3268 104.836 19.4914 105.018 19.6821C105.2 19.8641 105.338 20.0374 105.434 20.2021H105.512V19.1101H106.747V26.0001H105.512V24.9081H105.434C105.338 25.0728 105.2 25.2504 105.018 25.4411C104.836 25.6318 104.597 25.7964 104.303 25.9351C104.008 26.0651 103.644 26.1301 103.211 26.1301C102.691 26.1301 102.236 26.0304 101.846 25.8311C101.456 25.6231 101.131 25.3501 100.871 25.0121C100.611 24.6654 100.416 24.2798 100.286 23.8551C100.156 23.4304 100.091 22.9971 100.091 22.5551C100.091 22.1131 100.156 21.6798 100.286 21.2551C100.416 20.8304 100.611 20.4491 100.871 20.1111C101.131 19.7644 101.456 19.4914 101.846 19.2921C102.236 19.0841 102.691 18.9801 103.211 18.9801ZM103.419 20.0331C102.959 20.0331 102.574 20.1588 102.262 20.4101C101.95 20.6528 101.716 20.9648 101.56 21.3461C101.412 21.7274 101.339 22.1304 101.339 22.5551C101.339 22.9711 101.412 23.3741 101.56 23.7641C101.716 24.1454 101.95 24.4618 102.262 24.7131C102.574 24.9558 102.959 25.0771 103.419 25.0771C103.878 25.0771 104.259 24.9558 104.563 24.7131C104.875 24.4618 105.104 24.1454 105.252 23.7641C105.408 23.3741 105.486 22.9711 105.486 22.5551C105.486 22.1304 105.408 21.7274 105.252 21.3461C105.104 20.9648 104.875 20.6528 104.563 20.4101C104.259 20.1588 103.878 20.0331 103.419 20.0331ZM109.367 17.7971C109.133 17.7971 108.938 17.7191 108.782 17.5631C108.635 17.4071 108.561 17.2208 108.561 17.0041C108.561 16.7788 108.635 16.5881 108.782 16.4321C108.938 16.2761 109.133 16.1981 109.367 16.1981C109.593 16.1981 109.783 16.2761 109.939 16.4321C110.095 16.5881 110.173 16.7788 110.173 17.0041C110.173 17.2208 110.095 17.4071 109.939 17.5631C109.783 17.7191 109.593 17.7971 109.367 17.7971ZM108.756 26.0001V19.1101H109.991V26.0001H108.756ZM112.119 26.0001L112.132 16.1201H113.354V26.0001H112.119ZM117.825 26.1301C117.296 26.1301 116.858 26.0564 116.512 25.9091C116.174 25.7618 115.905 25.5798 115.706 25.3631C115.506 25.1378 115.359 24.9168 115.264 24.7001C115.168 24.4748 115.108 24.2884 115.082 24.1411C115.056 23.9938 115.043 23.9201 115.043 23.9201H116.291C116.291 23.9201 116.304 23.9808 116.33 24.1021C116.364 24.2148 116.429 24.3491 116.525 24.5051C116.629 24.6524 116.785 24.7868 116.993 24.9081C117.209 25.0208 117.495 25.0771 117.851 25.0771C118.258 25.0771 118.574 24.9818 118.8 24.7911C119.025 24.5918 119.138 24.3491 119.138 24.0631C119.138 23.8118 119.047 23.6124 118.865 23.4651C118.691 23.3178 118.44 23.2051 118.111 23.1271L117.175 22.9061C116.828 22.8194 116.503 22.7024 116.2 22.5551C115.896 22.4078 115.649 22.2084 115.459 21.9571C115.277 21.6971 115.186 21.3764 115.186 20.9951C115.186 20.4058 115.407 19.9248 115.849 19.5521C116.291 19.1708 116.867 18.9801 117.578 18.9801C118.054 18.9801 118.449 19.0494 118.761 19.1881C119.073 19.3181 119.32 19.4828 119.502 19.6821C119.692 19.8814 119.831 20.0808 119.918 20.2801C120.013 20.4794 120.074 20.6484 120.1 20.7871C120.126 20.9171 120.139 20.9821 120.139 20.9821H118.943C118.943 20.9821 118.93 20.9344 118.904 20.8391C118.878 20.7351 118.817 20.6224 118.722 20.5011C118.635 20.3711 118.501 20.2584 118.319 20.1631C118.137 20.0591 117.894 20.0071 117.591 20.0071C117.175 20.0071 116.871 20.1024 116.681 20.2931C116.49 20.4838 116.395 20.6918 116.395 20.9171C116.395 21.1338 116.481 21.3114 116.655 21.4501C116.837 21.5801 117.071 21.6798 117.357 21.7491L118.306 21.9701C118.895 22.1088 119.38 22.3384 119.762 22.6591C120.152 22.9711 120.347 23.4218 120.347 24.0111C120.347 24.3924 120.247 24.7478 120.048 25.0771C119.848 25.3978 119.562 25.6534 119.19 25.8441C118.817 26.0348 118.362 26.1301 117.825 26.1301Z" fill="white"/>
</svg>
