<svg width="216" height="42" viewBox="0 0 216 42" fill="none" xmlns="http://www.w3.org/2000/svg">
<path fill-rule="evenodd" clip-rule="evenodd" d="M182.468 0.515422C181.971 0.179522 181.386 0 180.786 0H3C1.34315 0 0 1.34315 0 3V39C0 40.6569 1.34315 42 3 42H180.896C181.427 42 181.947 41.8594 182.406 41.5925L210.941 24.9769C212.851 23.8646 212.943 21.1386 211.113 19.8998L182.468 0.515422Z" fill="#E4EAEF"/>
<path d="M26.0782 26V17.498H23.0752V16.38H30.3552V17.498H27.3522V26H26.0782ZM30.9413 26V19.11H32.1763V19.968H32.2283C32.3756 19.708 32.5923 19.4783 32.8783 19.279C33.1643 19.0797 33.5673 18.98 34.0873 18.98C34.2346 18.98 34.3689 18.9887 34.4903 19.006C34.6116 19.0147 34.6723 19.019 34.6723 19.019V20.202C34.6723 20.202 34.6029 20.1977 34.4643 20.189C34.3343 20.1717 34.1956 20.163 34.0483 20.163C33.4503 20.163 32.9866 20.3363 32.6573 20.683C32.3366 21.021 32.1763 21.5757 32.1763 22.347V26H30.9413ZM38.5016 18.98C38.9349 18.98 39.2989 19.0493 39.5936 19.188C39.8882 19.3267 40.1266 19.4913 40.3086 19.682C40.4906 19.864 40.6292 20.0373 40.7246 20.202H40.8026V19.11H42.0376V26H40.8026V24.908H40.7246C40.6292 25.0727 40.4906 25.2503 40.3086 25.441C40.1266 25.6317 39.8882 25.7963 39.5936 25.935C39.2989 26.065 38.9349 26.13 38.5016 26.13C37.9816 26.13 37.5266 26.0303 37.1366 25.831C36.7466 25.623 36.4216 25.35 36.1616 25.012C35.9016 24.6653 35.7066 24.2797 35.5766 23.855C35.4466 23.4303 35.3816 22.997 35.3816 22.555C35.3816 22.113 35.4466 21.6797 35.5766 21.255C35.7066 20.8303 35.9016 20.449 36.1616 20.111C36.4216 19.7643 36.7466 19.4913 37.1366 19.292C37.5266 19.084 37.9816 18.98 38.5016 18.98ZM38.7096 20.033C38.2502 20.033 37.8646 20.1587 37.5526 20.41C37.2406 20.6527 37.0066 20.9647 36.8506 21.346C36.7032 21.7273 36.6296 22.1303 36.6296 22.555C36.6296 22.971 36.7032 23.374 36.8506 23.764C37.0066 24.1453 37.2406 24.4617 37.5526 24.713C37.8646 24.9557 38.2502 25.077 38.7096 25.077C39.1689 25.077 39.5502 24.9557 39.8536 24.713C40.1656 24.4617 40.3952 24.1453 40.5426 23.764C40.6986 23.374 40.7766 22.971 40.7766 22.555C40.7766 22.1303 40.6986 21.7273 40.5426 21.346C40.3952 20.9647 40.1656 20.6527 39.8536 20.41C39.5502 20.1587 39.1689 20.033 38.7096 20.033ZM45.7695 26L43.1435 19.11H44.4305L46.4455 24.492L48.4215 19.11H49.7215L47.0825 26H45.7695ZM53.9678 26.13C53.4045 26.13 52.9148 26.0303 52.4988 25.831C52.0915 25.623 51.7535 25.3457 51.4848 24.999C51.2248 24.6523 51.0298 24.271 50.8998 23.855C50.7698 23.4303 50.7048 22.997 50.7048 22.555C50.7048 22.1217 50.7655 21.6927 50.8868 21.268C51.0168 20.8433 51.2118 20.4577 51.4718 20.111C51.7405 19.7643 52.0741 19.4913 52.4728 19.292C52.8801 19.084 53.3611 18.98 53.9158 18.98C54.5051 18.98 55.0251 19.1143 55.4758 19.383C55.9265 19.6517 56.2818 20.0503 56.5418 20.579C56.8018 21.1077 56.9318 21.7707 56.9318 22.568V22.932H51.9528C51.9788 23.322 52.0698 23.6817 52.2258 24.011C52.3905 24.3317 52.6201 24.5917 52.9148 24.791C53.2095 24.9817 53.5605 25.077 53.9678 25.077C54.3231 25.077 54.6091 25.0207 54.8258 24.908C55.0511 24.7867 55.2288 24.648 55.3588 24.492C55.4888 24.336 55.5755 24.2017 55.6188 24.089C55.6708 23.9677 55.6968 23.907 55.6968 23.907H56.8538C56.8538 23.907 56.8321 23.985 56.7888 24.141C56.7455 24.2883 56.6675 24.4703 56.5548 24.687C56.4421 24.9037 56.2775 25.1247 56.0608 25.35C55.8441 25.5667 55.5668 25.753 55.2288 25.909C54.8908 26.0563 54.4705 26.13 53.9678 26.13ZM51.9658 21.97H55.7228C55.7055 21.5193 55.6101 21.1553 55.4368 20.878C55.2635 20.592 55.0425 20.3797 54.7738 20.241C54.5051 20.1023 54.2191 20.033 53.9158 20.033C53.3698 20.033 52.9235 20.2107 52.5768 20.566C52.2301 20.9127 52.0265 21.3807 51.9658 21.97ZM58.747 26L58.76 16.12H59.982V26H58.747ZM65.0635 26.13C64.5002 26.13 64.0105 26.0303 63.5945 25.831C63.1872 25.623 62.8492 25.3457 62.5805 24.999C62.3205 24.6523 62.1255 24.271 61.9955 23.855C61.8655 23.4303 61.8005 22.997 61.8005 22.555C61.8005 22.1217 61.8612 21.6927 61.9825 21.268C62.1125 20.8433 62.3075 20.4577 62.5675 20.111C62.8362 19.7643 63.1698 19.4913 63.5685 19.292C63.9758 19.084 64.4568 18.98 65.0115 18.98C65.6008 18.98 66.1208 19.1143 66.5715 19.383C67.0222 19.6517 67.3775 20.0503 67.6375 20.579C67.8975 21.1077 68.0275 21.7707 68.0275 22.568V22.932H63.0485C63.0745 23.322 63.1655 23.6817 63.3215 24.011C63.4862 24.3317 63.7158 24.5917 64.0105 24.791C64.3052 24.9817 64.6562 25.077 65.0635 25.077C65.4188 25.077 65.7048 25.0207 65.9215 24.908C66.1468 24.7867 66.3245 24.648 66.4545 24.492C66.5845 24.336 66.6712 24.2017 66.7145 24.089C66.7665 23.9677 66.7925 23.907 66.7925 23.907H67.9495C67.9495 23.907 67.9278 23.985 67.8845 24.141C67.8412 24.2883 67.7632 24.4703 67.6505 24.687C67.5378 24.9037 67.3732 25.1247 67.1565 25.35C66.9398 25.5667 66.6625 25.753 66.3245 25.909C65.9865 26.0563 65.5662 26.13 65.0635 26.13ZM63.0615 21.97H66.8185C66.8012 21.5193 66.7058 21.1553 66.5325 20.878C66.3592 20.592 66.1382 20.3797 65.8695 20.241C65.6008 20.1023 65.3148 20.033 65.0115 20.033C64.4655 20.033 64.0192 20.2107 63.6725 20.566C63.3258 20.9127 63.1222 21.3807 63.0615 21.97ZM69.7127 26V19.11H70.9477V19.968H70.9997C71.1471 19.708 71.3637 19.4783 71.6497 19.279C71.9357 19.0797 72.3387 18.98 72.8587 18.98C73.0061 18.98 73.1404 18.9887 73.2617 19.006C73.3831 19.0147 73.4437 19.019 73.4437 19.019V20.202C73.4437 20.202 73.3744 20.1977 73.2357 20.189C73.1057 20.1717 72.9671 20.163 72.8197 20.163C72.2217 20.163 71.7581 20.3363 71.4287 20.683C71.1081 21.021 70.9477 21.5757 70.9477 22.347V26H69.7127ZM77.9296 26V16.38H81.0496C81.821 16.38 82.4926 16.5187 83.0646 16.796C83.6366 17.0647 84.1133 17.4287 84.4946 17.888C84.876 18.3473 85.162 18.863 85.3526 19.435C85.5433 20.007 85.6386 20.592 85.6386 21.19C85.6386 21.788 85.5433 22.373 85.3526 22.945C85.162 23.517 84.876 24.0327 84.4946 24.492C84.1133 24.9513 83.6366 25.3197 83.0646 25.597C82.4926 25.8657 81.821 26 81.0496 26H77.9296ZM80.9976 17.498H79.2036V24.882H80.9976C81.561 24.882 82.0506 24.778 82.4666 24.57C82.8913 24.362 83.2423 24.0847 83.5196 23.738C83.8056 23.3827 84.018 22.984 84.1566 22.542C84.2953 22.1 84.3646 21.6493 84.3646 21.19C84.3646 20.7307 84.2953 20.28 84.1566 19.838C84.018 19.396 83.8056 19.0017 83.5196 18.655C83.2423 18.2997 82.8913 18.018 82.4666 17.81C82.0506 17.602 81.561 17.498 80.9976 17.498ZM90.3907 26.13C89.8273 26.13 89.3377 26.0303 88.9217 25.831C88.5143 25.623 88.1763 25.3457 87.9077 24.999C87.6477 24.6523 87.4527 24.271 87.3227 23.855C87.1927 23.4303 87.1277 22.997 87.1277 22.555C87.1277 22.1217 87.1883 21.6927 87.3097 21.268C87.4397 20.8433 87.6347 20.4577 87.8947 20.111C88.1633 19.7643 88.497 19.4913 88.8957 19.292C89.303 19.084 89.784 18.98 90.3387 18.98C90.928 18.98 91.448 19.1143 91.8987 19.383C92.3493 19.6517 92.7047 20.0503 92.9647 20.579C93.2247 21.1077 93.3547 21.7707 93.3547 22.568V22.932H88.3757C88.4017 23.322 88.4927 23.6817 88.6487 24.011C88.8133 24.3317 89.043 24.5917 89.3377 24.791C89.6323 24.9817 89.9833 25.077 90.3907 25.077C90.746 25.077 91.032 25.0207 91.2487 24.908C91.474 24.7867 91.6517 24.648 91.7817 24.492C91.9117 24.336 91.9983 24.2017 92.0417 24.089C92.0937 23.9677 92.1197 23.907 92.1197 23.907H93.2767C93.2767 23.907 93.255 23.985 93.2117 24.141C93.1683 24.2883 93.0903 24.4703 92.9777 24.687C92.865 24.9037 92.7003 25.1247 92.4837 25.35C92.267 25.5667 91.9897 25.753 91.6517 25.909C91.3137 26.0563 90.8933 26.13 90.3907 26.13ZM88.3887 21.97H92.1457C92.1283 21.5193 92.033 21.1553 91.8597 20.878C91.6863 20.592 91.4653 20.3797 91.1967 20.241C90.928 20.1023 90.642 20.033 90.3387 20.033C89.7927 20.033 89.3463 20.2107 88.9997 20.566C88.653 20.9127 88.4493 21.3807 88.3887 21.97ZM97.8379 26.13C97.1273 26.13 96.5899 25.948 96.2259 25.584C95.8706 25.22 95.6929 24.7087 95.6929 24.05V20.124H94.4579V19.11H95.6929V17.381H96.9279V19.11H98.6049V20.124H96.9279V24.05C96.9279 24.3967 97.0233 24.6523 97.2139 24.817C97.4046 24.973 97.6819 25.051 98.0459 25.051C98.2366 25.051 98.4186 25.038 98.5919 25.012C98.7653 24.986 98.8519 24.973 98.8519 24.973V26.026C98.8519 26.026 98.7523 26.0433 98.5529 26.078C98.3536 26.1127 98.1153 26.13 97.8379 26.13ZM103.21 18.98C103.643 18.98 104.007 19.0493 104.302 19.188C104.596 19.3267 104.835 19.4913 105.017 19.682C105.199 19.864 105.337 20.0373 105.433 20.202H105.511V19.11H106.746V26H105.511V24.908H105.433C105.337 25.0727 105.199 25.2503 105.017 25.441C104.835 25.6317 104.596 25.7963 104.302 25.935C104.007 26.065 103.643 26.13 103.21 26.13C102.69 26.13 102.235 26.0303 101.845 25.831C101.455 25.623 101.13 25.35 100.87 25.012C100.61 24.6653 100.415 24.2797 100.285 23.855C100.155 23.4303 100.09 22.997 100.09 22.555C100.09 22.113 100.155 21.6797 100.285 21.255C100.415 20.8303 100.61 20.449 100.87 20.111C101.13 19.7643 101.455 19.4913 101.845 19.292C102.235 19.084 102.69 18.98 103.21 18.98ZM103.418 20.033C102.958 20.033 102.573 20.1587 102.261 20.41C101.949 20.6527 101.715 20.9647 101.559 21.346C101.411 21.7273 101.338 22.1303 101.338 22.555C101.338 22.971 101.411 23.374 101.559 23.764C101.715 24.1453 101.949 24.4617 102.261 24.713C102.573 24.9557 102.958 25.077 103.418 25.077C103.877 25.077 104.258 24.9557 104.562 24.713C104.874 24.4617 105.103 24.1453 105.251 23.764C105.407 23.374 105.485 22.971 105.485 22.555C105.485 22.1303 105.407 21.7273 105.251 21.346C105.103 20.9647 104.874 20.6527 104.562 20.41C104.258 20.1587 103.877 20.033 103.418 20.033ZM109.366 17.797C109.132 17.797 108.937 17.719 108.781 17.563C108.634 17.407 108.56 17.2207 108.56 17.004C108.56 16.7787 108.634 16.588 108.781 16.432C108.937 16.276 109.132 16.198 109.366 16.198C109.592 16.198 109.782 16.276 109.938 16.432C110.094 16.588 110.172 16.7787 110.172 17.004C110.172 17.2207 110.094 17.407 109.938 17.563C109.782 17.719 109.592 17.797 109.366 17.797ZM108.755 26V19.11H109.99V26H108.755ZM112.118 26L112.131 16.12H113.353V26H112.118ZM117.824 26.13C117.295 26.13 116.857 26.0563 116.511 25.909C116.173 25.7617 115.904 25.5797 115.705 25.363C115.505 25.1377 115.358 24.9167 115.263 24.7C115.167 24.4747 115.107 24.2883 115.081 24.141C115.055 23.9937 115.042 23.92 115.042 23.92H116.29C116.29 23.92 116.303 23.9807 116.329 24.102C116.363 24.2147 116.428 24.349 116.524 24.505C116.628 24.6523 116.784 24.7867 116.992 24.908C117.208 25.0207 117.494 25.077 117.85 25.077C118.257 25.077 118.573 24.9817 118.799 24.791C119.024 24.5917 119.137 24.349 119.137 24.063C119.137 23.8117 119.046 23.6123 118.864 23.465C118.69 23.3177 118.439 23.205 118.11 23.127L117.174 22.906C116.827 22.8193 116.502 22.7023 116.199 22.555C115.895 22.4077 115.648 22.2083 115.458 21.957C115.276 21.697 115.185 21.3763 115.185 20.995C115.185 20.4057 115.406 19.9247 115.848 19.552C116.29 19.1707 116.866 18.98 117.577 18.98C118.053 18.98 118.448 19.0493 118.76 19.188C119.072 19.318 119.319 19.4827 119.501 19.682C119.691 19.8813 119.83 20.0807 119.917 20.28C120.012 20.4793 120.073 20.6483 120.099 20.787C120.125 20.917 120.138 20.982 120.138 20.982H118.942C118.942 20.982 118.929 20.9343 118.903 20.839C118.877 20.735 118.816 20.6223 118.721 20.501C118.634 20.371 118.5 20.2583 118.318 20.163C118.136 20.059 117.893 20.007 117.59 20.007C117.174 20.007 116.87 20.1023 116.68 20.293C116.489 20.4837 116.394 20.6917 116.394 20.917C116.394 21.1337 116.48 21.3113 116.654 21.45C116.836 21.58 117.07 21.6797 117.356 21.749L118.305 21.97C118.894 22.1087 119.379 22.3383 119.761 22.659C120.151 22.971 120.346 23.4217 120.346 24.011C120.346 24.3923 120.246 24.7477 120.047 25.077C119.847 25.3977 119.561 25.6533 119.189 25.844C118.816 26.0347 118.361 26.13 117.824 26.13Z" fill="#A1ABB7"/>
</svg>
