<svg width="20" height="20" viewBox="0 0 20 20" fill="none" xmlns="http://www.w3.org/2000/svg">
<path d="M17.2 3H2.8C2.32344 3.00272 1.86717 3.1948 1.53019 3.53456C1.19321 3.87431 1.0027 4.33434 1 4.81481V15.1852C1.0027 15.6657 1.19321 16.1257 1.53019 16.4654C1.86717 16.8052 2.32344 16.9973 2.8 17H17.2C17.6766 16.9973 18.1328 16.8052 18.4698 16.4654C18.8068 16.1257 18.9973 15.6657 19 15.1852V4.81481C18.9973 4.33434 18.8068 3.87431 18.4698 3.53456C18.1328 3.1948 17.6766 3.00272 17.2 3ZM17.4571 4.81481V6.54667H17.2411C17.1182 6.56165 16.9938 6.56165 16.8709 6.54667H16.7371C16.6212 6.52202 16.5077 6.48732 16.3977 6.44296H16.2743C16.1275 6.37103 15.995 6.27262 15.8834 6.15259C15.7308 6.00072 15.6096 5.8199 15.5266 5.62056C15.4436 5.42122 15.4006 5.20729 15.4 4.99111C15.401 4.84719 15.4217 4.70409 15.4617 4.56593H17.2C17.2665 4.56587 17.3303 4.59176 17.3783 4.63816C17.4262 4.68456 17.4545 4.74787 17.4571 4.81481ZM2.8 4.55556H4.53829C4.57827 4.69372 4.59904 4.83682 4.6 4.98074C4.5994 5.19692 4.55638 5.41085 4.47341 5.61019C4.39044 5.80953 4.26916 5.99035 4.11657 6.14222C4.0023 6.2592 3.87038 6.35721 3.72571 6.43259H3.592C3.49141 6.48292 3.38394 6.51787 3.27314 6.5363H3.12914C3.00616 6.55128 2.88184 6.55128 2.75886 6.5363H2.54286V4.81481C2.54286 4.74605 2.56995 4.68011 2.61817 4.63149C2.6664 4.58287 2.7318 4.55556 2.8 4.55556ZM2.54286 15.1852V13.4533H2.75886C2.88184 13.4383 3.00616 13.4383 3.12914 13.4533H3.26286C3.38007 13.4726 3.49421 13.5074 3.60229 13.557H3.72571C3.87038 13.6324 4.0023 13.7304 4.11657 13.8474C4.26916 13.9993 4.39044 14.1801 4.47341 14.3794C4.55638 14.5788 4.5994 14.7927 4.6 15.0089C4.59904 15.1528 4.57827 15.2959 4.53829 15.4341H2.8C2.73355 15.4341 2.66965 15.4082 2.62171 15.3618C2.57378 15.3154 2.54552 15.2521 2.54286 15.1852ZM6.112 15.4444C6.12162 15.3029 6.12162 15.1608 6.112 15.0193C6.11586 14.5982 6.03489 14.1807 5.874 13.7921C5.71311 13.4035 5.47565 13.0519 5.176 12.7585C5.02478 12.6037 4.85555 12.4679 4.672 12.3541L4.49714 12.24C4.37745 12.1766 4.25376 12.1211 4.12686 12.0741L3.92114 11.9911C3.74283 11.9381 3.56051 11.8999 3.376 11.877C3.26996 11.8666 3.16318 11.8666 3.05714 11.877H2.54286V8.15407H3.41714C3.55648 8.12906 3.69395 8.09441 3.82857 8.05037L4.05486 7.97778C4.212 7.92354 4.36357 7.85408 4.50743 7.77037L4.672 7.67704C4.86404 7.54992 5.04319 7.40403 5.20686 7.24148C5.5065 6.94813 5.74396 6.59651 5.90485 6.20791C6.06574 5.81931 6.14671 5.40182 6.14286 4.98074C6.15247 4.83918 6.15247 4.69712 6.14286 4.55556H13.9189C13.9092 4.69712 13.9092 4.83918 13.9189 4.98074C13.915 5.40182 13.996 5.81931 14.1569 6.20791C14.3178 6.59651 14.5552 6.94813 14.8549 7.24148C15.0165 7.4063 15.1959 7.55239 15.3897 7.67704L15.5543 7.77037C15.6981 7.85408 15.8497 7.92354 16.0069 7.97778L16.2331 8.05037C16.3714 8.09137 16.5123 8.12256 16.6549 8.1437H17.5189V11.8356H17.0046C16.8985 11.8252 16.7918 11.8252 16.6857 11.8356C16.5012 11.8585 16.3189 11.8966 16.1406 11.9496L15.9349 12.0326C15.7969 12.0851 15.6628 12.1475 15.5337 12.2193L15.3589 12.3333C15.1753 12.4472 15.0061 12.583 14.8549 12.7378C14.5552 13.0311 14.3178 13.3827 14.1569 13.7714C13.996 14.16 13.915 14.5774 13.9189 14.9985C13.9092 15.1401 13.9092 15.2821 13.9189 15.4237L6.112 15.4444ZM17.2 15.4444H15.4617C15.4217 15.3063 15.401 15.1632 15.4 15.0193C15.4006 14.8031 15.4436 14.5892 15.5266 14.3898C15.6096 14.1905 15.7308 14.0097 15.8834 13.8578C15.995 13.7378 16.1275 13.6393 16.2743 13.5674H16.3977C16.5077 13.5231 16.6212 13.4884 16.7371 13.4637H16.8709C16.9938 13.4487 17.1182 13.4487 17.2411 13.4637H17.4571V15.1852C17.4571 15.2539 17.4301 15.3199 17.3818 15.3685C17.3336 15.4171 17.2682 15.4444 17.2 15.4444Z" fill="#3F4754"/>
<path d="M9.99992 7.0835C9.42306 7.0835 8.85915 7.25456 8.37951 7.57504C7.89986 7.89553 7.52603 8.35105 7.30527 8.884C7.08452 9.41695 7.02676 10.0034 7.1393 10.5692C7.25184 11.135 7.52962 11.6547 7.93753 12.0626C8.34543 12.4705 8.86513 12.7482 9.43091 12.8608C9.99668 12.9733 10.5831 12.9156 11.1161 12.6948C11.649 12.4741 12.1046 12.1002 12.425 11.6206C12.7455 11.1409 12.9166 10.577 12.9166 10.0002C12.9166 9.22661 12.6093 8.48475 12.0623 7.93777C11.5153 7.39079 10.7735 7.0835 9.99992 7.0835ZM9.99992 11.6668C9.67028 11.6668 9.34805 11.5691 9.07397 11.3859C8.79989 11.2028 8.58627 10.9425 8.46012 10.638C8.33397 10.3334 8.30097 9.99831 8.36528 9.67501C8.42959 9.35171 8.58832 9.05474 8.82141 8.82165C9.0545 8.58856 9.35147 8.42983 9.67477 8.36552C9.99807 8.30121 10.3332 8.33422 10.6377 8.46036C10.9423 8.58651 11.2026 8.80013 11.3857 9.07421C11.5688 9.34829 11.6666 9.67053 11.6666 10.0002C11.6666 10.4422 11.491 10.8661 11.1784 11.1787C10.8659 11.4912 10.4419 11.6668 9.99992 11.6668Z" fill="#3F4754"/>
</svg>
