<svg width="20" height="20" viewBox="0 0 20 20" fill="none" xmlns="http://www.w3.org/2000/svg">
<path d="M12.6502 11.0037C12.695 11.0036 12.7398 11.0033 12.7846 11.0031C12.9054 11.0025 13.0263 11.0026 13.1471 11.0027C13.2483 11.0028 13.3496 11.0027 13.4508 11.0025C13.6899 11.002 13.929 11.0021 14.168 11.0024C14.4138 11.0028 14.6596 11.0023 14.9053 11.0015C15.1172 11.0008 15.329 11.0006 15.5408 11.0008C15.6669 11.0009 15.7931 11.0008 15.9192 11.0003C16.038 10.9998 16.1567 10.9999 16.2754 11.0005C16.3187 11.0006 16.3619 11.0005 16.4052 11.0002C16.8912 10.9968 17.2463 11.1309 17.6027 11.4615C17.9302 11.8076 17.9979 12.189 17.9963 12.6502C17.9964 12.695 17.9967 12.7398 17.9969 12.7846C17.9975 12.9054 17.9974 13.0263 17.9973 13.1471C17.9972 13.2483 17.9973 13.3496 17.9975 13.4508C17.998 13.6899 17.9979 13.929 17.9976 14.168C17.9972 14.4138 17.9977 14.6596 17.9985 14.9053C17.9992 15.1172 17.9994 15.329 17.9992 15.5408C17.9991 15.6669 17.9992 15.7931 17.9997 15.9192C18.0002 16.038 18.0001 16.1567 17.9995 16.2754C17.9994 16.3187 17.9995 16.3619 17.9998 16.4052C18.0032 16.8912 17.8691 17.2463 17.5385 17.6027C17.1924 17.9302 16.811 17.9979 16.3498 17.9963C16.305 17.9964 16.2602 17.9967 16.2154 17.9969C16.0946 17.9975 15.9737 17.9974 15.8529 17.9973C15.7517 17.9972 15.6504 17.9973 15.5492 17.9975C15.3101 17.998 15.071 17.9979 14.832 17.9976C14.5862 17.9972 14.3404 17.9977 14.0947 17.9985C13.8828 17.9992 13.671 17.9994 13.4592 17.9992C13.3331 17.9991 13.2069 17.9992 13.0808 17.9997C12.962 18.0002 12.8433 18.0001 12.7246 17.9995C12.6813 17.9994 12.6381 17.9995 12.5948 17.9998C12.1088 18.0032 11.7537 17.8691 11.3973 17.5385C11.0698 17.1924 11.0021 16.811 11.0037 16.3498C11.0036 16.305 11.0033 16.2602 11.0031 16.2154C11.0025 16.0946 11.0026 15.9737 11.0027 15.8529C11.0028 15.7517 11.0027 15.6504 11.0025 15.5492C11.002 15.3101 11.0021 15.071 11.0024 14.832C11.0028 14.5862 11.0023 14.3404 11.0015 14.0947C11.0008 13.8828 11.0006 13.671 11.0008 13.4592C11.0009 13.3331 11.0008 13.2069 11.0003 13.0808C10.9998 12.962 10.9999 12.8433 11.0005 12.7246C11.0006 12.6813 11.0005 12.6381 11.0002 12.5948C10.9968 12.1088 11.1309 11.7537 11.4615 11.3973C11.8076 11.0698 12.189 11.0021 12.6502 11.0037ZM12.138 12.1905C11.9948 12.4161 12.0025 12.6349 12.0031 12.8951C12.0029 12.9335 12.0028 12.9719 12.0026 13.0115C12.0023 13.1164 12.0022 13.2212 12.0023 13.3261C12.0023 13.4139 12.0021 13.5017 12.002 13.5895C12.0017 13.7968 12.0016 14.0041 12.0018 14.2114C12.002 14.4247 12.0016 14.6379 12.001 14.8512C12.0004 15.0348 12.0002 15.2185 12.0003 15.4021C12.0004 15.5115 12.0003 15.621 11.9999 15.7304C11.9994 15.8526 11.9997 15.9747 12.0001 16.0969C11.9998 16.1328 11.9996 16.1686 11.9993 16.2056C12.0007 16.4176 12.0055 16.6471 12.1446 16.8199C12.3583 17.016 12.6238 16.9975 12.8951 16.9969C12.9335 16.9971 12.9719 16.9972 13.0115 16.9974C13.1164 16.9977 13.2212 16.9978 13.3261 16.9977C13.4139 16.9977 13.5017 16.9979 13.5895 16.998C13.7968 16.9983 14.0041 16.9984 14.2114 16.9982C14.4247 16.998 14.6379 16.9984 14.8512 16.999C15.0348 16.9996 15.2185 16.9998 15.4021 16.9997C15.5115 16.9996 15.621 16.9997 15.7304 17.0001C15.8526 17.0006 15.9747 17.0003 16.0969 16.9999C16.1328 17.0002 16.1686 17.0004 16.2056 17.0007C16.4176 16.9993 16.6471 16.9945 16.8199 16.8554C17.016 16.6417 16.9975 16.3762 16.9969 16.1049C16.9971 16.0665 16.9972 16.0281 16.9974 15.9885C16.9977 15.8836 16.9978 15.7788 16.9977 15.6739C16.9977 15.5861 16.9979 15.4983 16.998 15.4105C16.9983 15.2032 16.9984 14.9959 16.9982 14.7886C16.998 14.5753 16.9984 14.3621 16.999 14.1488C16.9996 13.9652 16.9998 13.7815 16.9997 13.5979C16.9996 13.4885 16.9997 13.379 17.0001 13.2696C17.0006 13.1474 17.0003 13.0253 16.9999 12.9031C17.0002 12.8672 17.0004 12.8314 17.0007 12.7944C16.9993 12.5824 16.9945 12.3529 16.8554 12.1801C16.6417 11.984 16.3762 12.0025 16.1049 12.0031C16.0665 12.0029 16.0281 12.0028 15.9885 12.0026C15.8836 12.0023 15.7788 12.0022 15.6739 12.0023C15.5861 12.0023 15.4983 12.0021 15.4105 12.002C15.2032 12.0017 14.9959 12.0016 14.7886 12.0018C14.5753 12.002 14.3621 12.0016 14.1488 12.001C13.9652 12.0004 13.7815 12.0002 13.5979 12.0003C13.4885 12.0004 13.379 12.0003 13.2696 11.9999C13.1474 11.9994 13.0253 11.9997 12.9031 12.0001C12.8672 11.9998 12.8314 11.9996 12.7944 11.9993C12.5609 12.0009 12.3062 12.0073 12.138 12.1905Z" fill="#3F4754"/>
<path d="M3.65024 11.0037C3.69504 11.0036 3.73983 11.0033 3.78463 11.0031C3.90545 11.0025 4.02627 11.0026 4.14709 11.0027C4.24834 11.0028 4.34959 11.0027 4.45084 11.0025C4.68991 11.002 4.92897 11.0021 5.16804 11.0024C5.41381 11.0028 5.65957 11.0023 5.90534 11.0015C6.11716 11.0008 6.32897 11.0006 6.54078 11.0008C6.66693 11.0009 6.79308 11.0008 6.91923 11.0003C7.03795 10.9998 7.15666 10.9999 7.27539 11.0005C7.31867 11.0006 7.36195 11.0005 7.40523 11.0002C7.89121 10.9968 8.24633 11.1309 8.60267 11.4615C8.93021 11.8076 8.99793 12.189 8.99626 12.6502C8.99644 12.695 8.99666 12.7398 8.99691 12.7846C8.99747 12.9054 8.99743 13.0263 8.99725 13.1471C8.99716 13.2483 8.99735 13.3496 8.99754 13.4508C8.99797 13.6899 8.99792 13.929 8.99757 14.168C8.99721 14.4138 8.99765 14.6596 8.99848 14.9053C8.99918 15.1172 8.99938 15.329 8.9992 15.5408C8.99909 15.6669 8.99916 15.7931 8.9997 15.9192C9.00019 16.038 9.00006 16.1567 8.99948 16.2754C8.99936 16.3187 8.99945 16.3619 8.99978 16.4052C9.00318 16.8912 8.86912 17.2463 8.53851 17.6027C8.19243 17.9302 7.81103 17.9979 7.34976 17.9963C7.30496 17.9964 7.26017 17.9967 7.21537 17.9969C7.09455 17.9975 6.97373 17.9974 6.85291 17.9973C6.75166 17.9972 6.65041 17.9973 6.54916 17.9975C6.31009 17.998 6.07103 17.9979 5.83196 17.9976C5.58619 17.9972 5.34043 17.9977 5.09466 17.9985C4.88284 17.9992 4.67103 17.9994 4.45922 17.9992C4.33307 17.9991 4.20692 17.9992 4.08077 17.9997C3.96205 18.0002 3.84334 18.0001 3.72461 17.9995C3.68133 17.9994 3.63805 17.9995 3.59477 17.9998C3.10879 18.0032 2.75367 17.8691 2.39733 17.5385C2.06979 17.1924 2.00207 16.811 2.00374 16.3498C2.00356 16.305 2.00334 16.2602 2.00309 16.2154C2.00253 16.0946 2.00257 15.9737 2.00275 15.8529C2.00284 15.7517 2.00265 15.6504 2.00246 15.5492C2.00203 15.3101 2.00208 15.071 2.00243 14.832C2.00279 14.5862 2.00235 14.3404 2.00152 14.0947C2.00082 13.8828 2.00062 13.671 2.0008 13.4592C2.00091 13.3331 2.00084 13.2069 2.0003 13.0808C1.99981 12.962 1.99994 12.8433 2.00052 12.7246C2.00064 12.6813 2.00055 12.6381 2.00022 12.5948C1.99682 12.1088 2.13088 11.7537 2.46149 11.3973C2.80757 11.0698 3.18897 11.0021 3.65024 11.0037ZM3.13801 12.1905C2.99482 12.4161 3.00255 12.6349 3.0031 12.8951C3.00294 12.9335 3.00278 12.9719 3.00262 13.0115C3.00226 13.1164 3.00219 13.2212 3.00227 13.3261C3.0023 13.4139 3.00215 13.5017 3.002 13.5895C3.00165 13.7968 3.00164 14.0041 3.00183 14.2114C3.00201 14.4247 3.00163 14.6379 3.00097 14.8512C3.00042 15.0348 3.00024 15.2185 3.00034 15.4021C3.00039 15.5115 3.00031 15.621 2.99988 15.7304C2.99941 15.8526 2.99971 15.9747 3.00007 16.0969C2.99983 16.1328 2.99959 16.1686 2.99934 16.2056C3.00072 16.4176 3.0055 16.6471 3.14461 16.8199C3.35825 17.016 3.62379 16.9975 3.89507 16.9969C3.93348 16.9971 3.9719 16.9972 4.01148 16.9974C4.11636 16.9977 4.22124 16.9978 4.32613 16.9977C4.41393 16.9977 4.50173 16.9979 4.58954 16.998C4.79682 16.9983 5.0041 16.9984 5.21139 16.9982C5.42467 16.998 5.63794 16.9984 5.85121 16.999C6.03484 16.9996 6.21846 16.9998 6.40208 16.9997C6.51152 16.9996 6.62096 16.9997 6.73041 17.0001C6.85257 17.0006 6.97472 17.0003 7.09688 16.9999C7.13276 17.0002 7.16864 17.0004 7.20561 17.0007C7.41758 16.9993 7.64712 16.9945 7.81986 16.8554C8.01602 16.6417 7.99748 16.3762 7.9969 16.1049C7.99706 16.0665 7.99721 16.0281 7.99738 15.9885C7.99774 15.8836 7.99781 15.7788 7.99773 15.6739C7.9977 15.5861 7.99785 15.4983 7.998 15.4105C7.99835 15.2032 7.99836 14.9959 7.99817 14.7886C7.99799 14.5753 7.99837 14.3621 7.99903 14.1488C7.99958 13.9652 7.99976 13.7815 7.99966 13.5979C7.99961 13.4885 7.99969 13.379 8.00012 13.2696C8.00059 13.1474 8.00029 13.0253 7.99993 12.9031C8.00017 12.8672 8.00041 12.8314 8.00066 12.7944C7.99928 12.5824 7.9945 12.3529 7.85539 12.1801C7.64175 11.984 7.37621 12.0025 7.10493 12.0031C7.06652 12.0029 7.0281 12.0028 6.98852 12.0026C6.88364 12.0023 6.77876 12.0022 6.67387 12.0023C6.58607 12.0023 6.49827 12.0021 6.41046 12.002C6.20318 12.0017 5.9959 12.0016 5.78861 12.0018C5.57533 12.002 5.36206 12.0016 5.14879 12.001C4.96516 12.0004 4.78154 12.0002 4.59792 12.0003C4.48848 12.0004 4.37904 12.0003 4.26959 11.9999C4.14743 11.9994 4.02528 11.9997 3.90312 12.0001C3.86724 11.9998 3.83136 11.9996 3.79439 11.9993C3.56089 12.0009 3.30622 12.0073 3.13801 12.1905Z" fill="#3F4754"/>
<path d="M12.6502 2.00374C12.695 2.00356 12.7398 2.00334 12.7846 2.00309C12.9054 2.00253 13.0263 2.00257 13.1471 2.00275C13.2483 2.00284 13.3496 2.00265 13.4508 2.00246C13.6899 2.00203 13.929 2.00208 14.168 2.00243C14.4138 2.00279 14.6596 2.00235 14.9053 2.00152C15.1172 2.00082 15.329 2.00062 15.5408 2.0008C15.6669 2.00091 15.7931 2.00084 15.9192 2.0003C16.038 1.99981 16.1567 1.99994 16.2754 2.00052C16.3187 2.00064 16.3619 2.00055 16.4052 2.00022C16.8912 1.99682 17.2463 2.13088 17.6027 2.46149C17.9302 2.80757 17.9979 3.18897 17.9963 3.65024C17.9964 3.69504 17.9967 3.73983 17.9969 3.78463C17.9975 3.90545 17.9974 4.02627 17.9973 4.14709C17.9972 4.24834 17.9973 4.34959 17.9975 4.45084C17.998 4.68991 17.9979 4.92897 17.9976 5.16804C17.9972 5.41381 17.9977 5.65957 17.9985 5.90534C17.9992 6.11716 17.9994 6.32897 17.9992 6.54078C17.9991 6.66693 17.9992 6.79308 17.9997 6.91923C18.0002 7.03795 18.0001 7.15666 17.9995 7.27539C17.9994 7.31867 17.9995 7.36195 17.9998 7.40523C18.0032 7.89121 17.8691 8.24633 17.5385 8.60267C17.1924 8.93021 16.811 8.99793 16.3498 8.99626C16.305 8.99644 16.2602 8.99666 16.2154 8.99691C16.0946 8.99747 15.9737 8.99743 15.8529 8.99725C15.7517 8.99716 15.6504 8.99735 15.5492 8.99754C15.3101 8.99797 15.071 8.99792 14.832 8.99757C14.5862 8.99721 14.3404 8.99765 14.0947 8.99848C13.8828 8.99918 13.671 8.99938 13.4592 8.9992C13.3331 8.99909 13.2069 8.99916 13.0808 8.9997C12.962 9.00019 12.8433 9.00006 12.7246 8.99948C12.6813 8.99936 12.6381 8.99945 12.5948 8.99978C12.1088 9.00318 11.7537 8.86912 11.3973 8.53851C11.0698 8.19243 11.0021 7.81103 11.0037 7.34976C11.0036 7.30496 11.0033 7.26017 11.0031 7.21537C11.0025 7.09455 11.0026 6.97373 11.0027 6.85291C11.0028 6.75166 11.0027 6.65041 11.0025 6.54916C11.002 6.31009 11.0021 6.07103 11.0024 5.83196C11.0028 5.58619 11.0023 5.34043 11.0015 5.09466C11.0008 4.88284 11.0006 4.67104 11.0008 4.45922C11.0009 4.33307 11.0008 4.20692 11.0003 4.08077C10.9998 3.96205 10.9999 3.84334 11.0005 3.72461C11.0006 3.68133 11.0005 3.63805 11.0002 3.59477C10.9968 3.10879 11.1309 2.75367 11.4615 2.39733C11.8076 2.06979 12.189 2.00207 12.6502 2.00374ZM12.138 3.1905C11.9948 3.41613 12.0025 3.63487 12.0031 3.89507C12.0029 3.93348 12.0028 3.9719 12.0026 4.01148C12.0023 4.11636 12.0022 4.22124 12.0023 4.32613C12.0023 4.41393 12.0021 4.50173 12.002 4.58954C12.0017 4.79682 12.0016 5.0041 12.0018 5.21139C12.002 5.42467 12.0016 5.63794 12.001 5.85121C12.0004 6.03484 12.0002 6.21846 12.0003 6.40208C12.0004 6.51152 12.0003 6.62096 11.9999 6.73041C11.9994 6.85257 11.9997 6.97472 12.0001 7.09688C11.9998 7.13276 11.9996 7.16864 11.9993 7.20561C12.0007 7.41758 12.0055 7.64712 12.1446 7.81986C12.3583 8.01602 12.6238 7.99748 12.8951 7.9969C12.9335 7.99706 12.9719 7.99721 13.0115 7.99738C13.1164 7.99774 13.2212 7.99781 13.3261 7.99773C13.4139 7.9977 13.5017 7.99785 13.5895 7.998C13.7968 7.99835 14.0041 7.99836 14.2114 7.99817C14.4247 7.99799 14.6379 7.99837 14.8512 7.99903C15.0348 7.99958 15.2185 7.99976 15.4021 7.99966C15.5115 7.99961 15.621 7.99969 15.7304 8.00012C15.8526 8.00059 15.9747 8.00029 16.0969 7.99993C16.1328 8.00017 16.1686 8.00041 16.2056 8.00066C16.4176 7.99928 16.6471 7.9945 16.8199 7.85539C17.016 7.64175 16.9975 7.37621 16.9969 7.10493C16.9971 7.06652 16.9972 7.0281 16.9974 6.98852C16.9977 6.88364 16.9978 6.77876 16.9977 6.67387C16.9977 6.58607 16.9979 6.49827 16.998 6.41046C16.9983 6.20318 16.9984 5.9959 16.9982 5.78861C16.998 5.57533 16.9984 5.36206 16.999 5.14879C16.9996 4.96516 16.9998 4.78154 16.9997 4.59792C16.9996 4.48848 16.9997 4.37904 17.0001 4.26959C17.0006 4.14743 17.0003 4.02528 16.9999 3.90312C17.0002 3.86724 17.0004 3.83136 17.0007 3.79439C16.9993 3.58241 16.9945 3.35288 16.8554 3.18014C16.6417 2.98398 16.3762 3.00252 16.1049 3.0031C16.0665 3.00294 16.0281 3.00278 15.9885 3.00262C15.8836 3.00226 15.7788 3.00219 15.6739 3.00227C15.5861 3.0023 15.4983 3.00215 15.4105 3.002C15.2032 3.00165 14.9959 3.00164 14.7886 3.00183C14.5753 3.00201 14.3621 3.00163 14.1488 3.00097C13.9652 3.00042 13.7815 3.00024 13.5979 3.00034C13.4885 3.00039 13.379 3.00031 13.2696 2.99988C13.1474 2.99941 13.0253 2.99971 12.9031 3.00007C12.8672 2.99983 12.8314 2.99959 12.7944 2.99934C12.5609 3.00086 12.3062 3.0073 12.138 3.1905Z" fill="#3F4754"/>
<path d="M3.65024 2.00374C3.69504 2.00356 3.73983 2.00334 3.78463 2.00309C3.90545 2.00253 4.02627 2.00257 4.14709 2.00275C4.24834 2.00284 4.34959 2.00265 4.45084 2.00246C4.68991 2.00203 4.92897 2.00208 5.16804 2.00243C5.41381 2.00279 5.65957 2.00235 5.90534 2.00152C6.11716 2.00082 6.32897 2.00062 6.54078 2.0008C6.66693 2.00091 6.79308 2.00084 6.91923 2.0003C7.03795 1.99981 7.15666 1.99994 7.27539 2.00052C7.31867 2.00064 7.36195 2.00055 7.40523 2.00022C7.89121 1.99682 8.24633 2.13088 8.60267 2.46149C8.93021 2.80757 8.99793 3.18897 8.99626 3.65024C8.99644 3.69504 8.99666 3.73983 8.99691 3.78463C8.99747 3.90545 8.99743 4.02627 8.99725 4.14709C8.99716 4.24834 8.99735 4.34959 8.99754 4.45084C8.99797 4.68991 8.99792 4.92897 8.99757 5.16804C8.99721 5.41381 8.99765 5.65957 8.99848 5.90534C8.99918 6.11716 8.99938 6.32897 8.9992 6.54078C8.99909 6.66693 8.99916 6.79308 8.9997 6.91923C9.00019 7.03795 9.00006 7.15666 8.99948 7.27539C8.99936 7.31867 8.99945 7.36195 8.99978 7.40523C9.00318 7.89121 8.86912 8.24633 8.53851 8.60267C8.19243 8.93021 7.81103 8.99793 7.34976 8.99626C7.30496 8.99644 7.26017 8.99666 7.21537 8.99691C7.09455 8.99747 6.97373 8.99743 6.85291 8.99725C6.75166 8.99716 6.65041 8.99735 6.54916 8.99754C6.31009 8.99797 6.07103 8.99792 5.83196 8.99757C5.58619 8.99721 5.34043 8.99765 5.09466 8.99848C4.88284 8.99918 4.67103 8.99938 4.45922 8.9992C4.33307 8.99909 4.20692 8.99916 4.08077 8.9997C3.96205 9.00019 3.84334 9.00006 3.72461 8.99948C3.68133 8.99936 3.63805 8.99945 3.59477 8.99978C3.10879 9.00318 2.75367 8.86912 2.39733 8.53851C2.06979 8.19243 2.00207 7.81103 2.00374 7.34976C2.00356 7.30496 2.00334 7.26017 2.00309 7.21537C2.00253 7.09455 2.00257 6.97373 2.00275 6.85291C2.00284 6.75166 2.00265 6.65041 2.00246 6.54916C2.00203 6.31009 2.00208 6.07103 2.00243 5.83196C2.00279 5.58619 2.00235 5.34043 2.00152 5.09466C2.00082 4.88284 2.00062 4.67104 2.0008 4.45922C2.00091 4.33307 2.00084 4.20692 2.0003 4.08077C1.99981 3.96205 1.99994 3.84334 2.00052 3.72461C2.00064 3.68133 2.00055 3.63805 2.00022 3.59477C1.99682 3.10879 2.13088 2.75367 2.46149 2.39733C2.80757 2.06979 3.18897 2.00207 3.65024 2.00374ZM3.13801 3.1905C2.99482 3.41613 3.00255 3.63487 3.0031 3.89507C3.00294 3.93348 3.00278 3.9719 3.00262 4.01148C3.00226 4.11636 3.00219 4.22124 3.00227 4.32613C3.0023 4.41393 3.00215 4.50173 3.002 4.58954C3.00165 4.79682 3.00164 5.0041 3.00183 5.21139C3.00201 5.42467 3.00163 5.63794 3.00097 5.85121C3.00042 6.03484 3.00024 6.21846 3.00034 6.40208C3.00039 6.51152 3.00031 6.62096 2.99988 6.73041C2.99941 6.85257 2.99971 6.97472 3.00007 7.09688C2.99983 7.13276 2.99959 7.16864 2.99934 7.20561C3.00072 7.41758 3.0055 7.64712 3.14461 7.81986C3.35825 8.01602 3.62379 7.99748 3.89507 7.9969C3.93348 7.99706 3.9719 7.99721 4.01148 7.99738C4.11636 7.99774 4.22124 7.99781 4.32613 7.99773C4.41393 7.9977 4.50173 7.99785 4.58954 7.998C4.79682 7.99835 5.0041 7.99836 5.21139 7.99817C5.42467 7.99799 5.63794 7.99837 5.85121 7.99903C6.03484 7.99958 6.21846 7.99976 6.40208 7.99966C6.51152 7.99961 6.62096 7.99969 6.73041 8.00012C6.85257 8.00059 6.97472 8.00029 7.09688 7.99993C7.13276 8.00017 7.16864 8.00041 7.20561 8.00066C7.41758 7.99928 7.64712 7.9945 7.81986 7.85539C8.01602 7.64175 7.99748 7.37621 7.9969 7.10493C7.99706 7.06652 7.99721 7.0281 7.99738 6.98852C7.99774 6.88364 7.99781 6.77876 7.99773 6.67387C7.9977 6.58607 7.99785 6.49827 7.998 6.41046C7.99835 6.20318 7.99836 5.9959 7.99817 5.78861C7.99799 5.57533 7.99837 5.36206 7.99903 5.14879C7.99958 4.96516 7.99976 4.78154 7.99966 4.59792C7.99961 4.48848 7.99969 4.37904 8.00012 4.26959C8.00059 4.14743 8.00029 4.02528 7.99993 3.90312C8.00017 3.86724 8.00041 3.83136 8.00066 3.79439C7.99928 3.58241 7.9945 3.35288 7.85539 3.18014C7.64175 2.98398 7.37621 3.00252 7.10493 3.0031C7.06652 3.00294 7.0281 3.00278 6.98852 3.00262C6.88364 3.00226 6.77876 3.00219 6.67387 3.00227C6.58607 3.0023 6.49827 3.00215 6.41046 3.002C6.20318 3.00165 5.9959 3.00164 5.78861 3.00183C5.57533 3.00201 5.36206 3.00163 5.14879 3.00097C4.96516 3.00042 4.78154 3.00024 4.59792 3.00034C4.48848 3.00039 4.37904 3.00031 4.26959 2.99988C4.14743 2.99941 4.02528 2.99971 3.90312 3.00007C3.86724 2.99983 3.83136 2.99959 3.79439 2.99934C3.56089 3.00086 3.30622 3.0073 3.13801 3.1905Z" fill="#3F4754"/>
</svg>
