<svg width="20" height="20" viewBox="0 0 20 20" fill="none" xmlns="http://www.w3.org/2000/svg">
<g clip-path="url(#clip0_5882_74603)">
<path d="M9.60478 0.615854C9.63322 0.615468 9.66166 0.615082 9.69097 0.614684C10.328 0.607822 10.9437 0.610848 11.5625 0.781412C11.5999 0.79169 11.6373 0.801969 11.6758 0.812559C12.4751 1.04055 13.2165 1.39419 13.8672 1.91422C13.8897 1.93219 13.9123 1.95015 13.9356 1.96866C15.2465 3.02414 16.0352 4.50436 16.25 6.17204C16.25 6.19782 16.25 6.2236 16.25 6.25016C16.2773 6.24982 16.3047 6.24947 16.3328 6.24911C16.5925 6.24596 16.8522 6.24359 17.1119 6.24207C17.2454 6.24126 17.3788 6.24016 17.5123 6.23837C17.6662 6.23633 17.8202 6.23559 17.9742 6.2349C18.0449 6.23369 18.0449 6.23369 18.1171 6.23246C18.6852 6.23231 19.1082 6.42578 19.5215 6.80924C19.8872 7.1957 20.0183 7.64225 20.0151 8.16393C20.0154 8.22614 20.0154 8.22614 20.0158 8.28961C20.0163 8.42767 20.016 8.5657 20.0158 8.70376C20.016 8.80311 20.0163 8.90247 20.0166 9.00183C20.0172 9.24314 20.0173 9.48445 20.0171 9.72577C20.0169 9.92203 20.017 10.1183 20.0172 10.3146C20.0172 10.3426 20.0172 10.3706 20.0173 10.3994C20.0173 10.4563 20.0174 10.5132 20.0175 10.5701C20.018 11.1029 20.0178 11.6357 20.0173 12.1685C20.0169 12.6551 20.0174 13.1418 20.0184 13.6285C20.0193 14.1291 20.0197 14.6296 20.0194 15.1302C20.0193 15.4109 20.0194 15.6916 20.0201 15.9723C20.0207 16.2363 20.0205 16.5003 20.0198 16.7643C20.0197 16.861 20.0198 16.9576 20.0202 17.0543C20.0231 17.8028 19.9703 18.326 19.4409 18.8966C18.9681 19.3441 18.4451 19.3926 17.8252 19.3903C17.755 19.3905 17.6847 19.3907 17.6145 19.3909C17.4221 19.3915 17.2297 19.3913 17.0373 19.3911C16.8295 19.3909 16.6218 19.3914 16.414 19.3918C16.0073 19.3924 15.6005 19.3925 15.1938 19.3923C14.8631 19.3921 14.5325 19.3922 14.2018 19.3924C14.1547 19.3924 14.1077 19.3924 14.0592 19.3925C13.9635 19.3925 13.8679 19.3926 13.7722 19.3926C12.8755 19.3932 11.9788 19.393 11.082 19.3925C10.2619 19.3921 9.44185 19.3926 8.62175 19.3936C7.77935 19.3945 6.93695 19.3949 6.09454 19.3946C5.62172 19.3945 5.14891 19.3946 4.6761 19.3953C4.2736 19.3958 3.87111 19.3959 3.46861 19.3952C3.26333 19.3949 3.05806 19.3948 2.85278 19.3954C2.66468 19.3959 2.47661 19.3957 2.28852 19.395C2.22065 19.3948 2.15278 19.3949 2.08491 19.3953C1.43723 19.399 0.961828 19.2645 0.478497 18.8161C0.112748 18.4296 -0.0183805 17.9831 -0.0151626 17.4614C-0.015373 17.4199 -0.0155836 17.3784 -0.0158004 17.3357C-0.0163563 17.1977 -0.0160809 17.0596 -0.0158022 16.9216C-0.0160251 16.8222 -0.0162972 16.7229 -0.0166146 16.6235C-0.017242 16.3822 -0.0173192 16.1409 -0.0171141 15.8996C-0.0169558 15.7033 -0.017013 15.507 -0.0172214 15.3108C-0.0172652 15.2688 -0.0172654 15.2688 -0.0173102 15.2259C-0.01737 15.169 -0.0174298 15.1121 -0.0174902 15.0552C-0.0180257 14.5224 -0.0178142 13.9896 -0.0173656 13.4569C-0.0169777 12.9702 -0.0174836 12.4835 -0.0184182 11.9968C-0.0193723 11.4963 -0.0197459 10.9957 -0.0194863 10.4951C-0.0193502 10.2144 -0.0194352 9.93374 -0.0201211 9.65305C-0.0207583 9.38905 -0.0205698 9.12506 -0.0198356 8.86105C-0.0196919 8.76437 -0.0198124 8.66768 -0.0202219 8.571C-0.0231486 7.82252 0.0296164 7.29933 0.559063 6.72868C0.983183 6.32728 1.45099 6.2315 2.01811 6.23872C2.06784 6.23888 2.11758 6.23905 2.16882 6.23922C2.2997 6.23976 2.43056 6.24081 2.56144 6.24212C2.69552 6.24332 2.82961 6.24385 2.9637 6.24444C3.2258 6.24573 3.48789 6.24768 3.74998 6.25016C3.75297 6.22859 3.75596 6.20702 3.75903 6.1848C3.87009 5.39163 3.87009 5.39163 3.97459 5.06852C3.98462 5.03651 3.99465 5.0045 4.00498 4.97151C4.53607 3.32507 5.67934 2.03746 7.19951 1.23549C7.93268 0.86741 8.78216 0.625084 9.60478 0.615854ZM6.75779 3.0861C6.72572 3.11218 6.69364 3.13827 6.6606 3.16514C6.42779 3.36216 6.24054 3.58732 6.05467 3.82829C6.02808 3.86162 6.00149 3.89496 5.9741 3.9293C5.16486 4.98194 4.91925 6.31618 5.05066 7.61497C5.08058 7.82976 5.13078 8.0355 5.19529 8.24235C5.20472 8.27291 5.21415 8.30347 5.22387 8.33495C5.58383 9.46534 6.32162 10.4744 7.34373 11.0939C7.40074 11.1341 7.40074 11.1341 7.45891 11.175C7.65516 11.2859 7.85739 11.2732 8.07762 11.2729C8.12333 11.2734 8.16903 11.2739 8.21613 11.2744C8.36692 11.2759 8.51769 11.2762 8.6685 11.2764C8.72071 11.2766 8.77293 11.2769 8.82514 11.2772C9.09876 11.2786 9.37237 11.2792 9.646 11.2791C9.89983 11.279 10.1536 11.2807 10.4074 11.2831C10.6263 11.2852 10.8452 11.286 11.064 11.2859C11.1943 11.2859 11.3246 11.2865 11.4549 11.288C12.2339 11.3063 12.2339 11.3063 12.8906 10.9377C12.9539 10.8911 13.0174 10.8446 13.081 10.7985C13.8534 10.1543 14.4129 9.38897 14.7388 8.43522C14.7478 8.40902 14.7568 8.38281 14.766 8.35582C14.92 7.87756 14.982 7.40782 14.978 6.9069C14.9778 6.86761 14.9778 6.86761 14.9776 6.82752C14.9689 5.62358 14.5544 4.5566 13.789 3.63297C13.763 3.6009 13.7369 3.56882 13.71 3.53578C13.513 3.30301 13.2879 3.11554 13.0469 2.92985C13.0131 2.90326 12.9793 2.87668 12.9445 2.84928C11.0919 1.43993 8.51137 1.63307 6.75779 3.0861ZM1.40867 7.72477C1.2468 7.97985 1.23857 8.21766 1.2398 8.51159C1.23965 8.54986 1.2395 8.58813 1.23934 8.62756C1.23894 8.75545 1.2391 8.88333 1.23925 9.01122C1.23908 9.10305 1.23888 9.19489 1.23865 9.28672C1.23812 9.53595 1.2381 9.78517 1.2382 10.0344C1.23825 10.2689 1.23801 10.5033 1.23779 10.7378C1.23737 11.2306 1.23745 11.7233 1.23769 12.2161C1.23789 12.6665 1.23745 13.1169 1.23671 13.5673C1.23595 14.0302 1.23563 14.4931 1.23578 14.956C1.23585 15.2157 1.23575 15.4754 1.2352 15.7351C1.23471 15.9794 1.23479 16.2236 1.2353 16.4679C1.23539 16.5574 1.23528 16.647 1.23496 16.7365C1.23455 16.859 1.23487 16.9814 1.23536 17.1038C1.23508 17.1391 1.23479 17.1743 1.23449 17.2107C1.23655 17.4535 1.25974 17.7175 1.41697 17.9139C1.63 18.1081 1.88439 18.1349 2.16143 18.1351C2.18907 18.1352 2.21672 18.1354 2.2452 18.1355C2.33761 18.1358 2.43 18.1356 2.52241 18.1353C2.58942 18.1355 2.65644 18.1356 2.72345 18.1358C2.90743 18.1362 3.09141 18.1361 3.27539 18.1359C3.47387 18.1359 3.67236 18.1362 3.87084 18.1365C4.25963 18.137 4.64842 18.1371 5.03721 18.137C5.3532 18.1369 5.6692 18.137 5.98519 18.1371C6.03015 18.1372 6.07511 18.1372 6.12144 18.1372C6.21277 18.1373 6.30411 18.1373 6.39545 18.1374C7.25215 18.1378 8.10886 18.1377 8.96556 18.1375C9.74938 18.1373 10.5332 18.1377 11.317 18.1384C12.1217 18.1392 12.9265 18.1395 13.7312 18.1394C14.1831 18.1393 14.6349 18.1394 15.0867 18.1399C15.4714 18.1404 15.856 18.1405 16.2407 18.14C16.4369 18.1398 16.6332 18.1397 16.8294 18.1402C17.0091 18.1406 17.1888 18.1405 17.3685 18.1399C17.4335 18.1398 17.4984 18.1399 17.5634 18.1402C18.0791 18.1591 18.0791 18.1591 18.5377 17.9582C18.7622 17.7166 18.7615 17.4232 18.7602 17.1137C18.7603 17.0755 18.7605 17.0372 18.7606 16.9978C18.761 16.8699 18.7609 16.742 18.7607 16.6141C18.7609 16.5223 18.7611 16.4304 18.7613 16.3386C18.7618 16.0894 18.7619 15.8402 18.7618 15.5909C18.7617 15.3565 18.762 15.122 18.7622 14.8875C18.7626 14.3948 18.7625 13.902 18.7623 13.4092C18.7621 12.9588 18.7625 12.5084 18.7633 12.0581C18.764 11.5951 18.7643 11.1322 18.7642 10.6693C18.7641 10.4096 18.7642 10.1499 18.7648 9.89019C18.7653 9.64593 18.7652 9.40169 18.7647 9.15744C18.7646 9.06789 18.7647 8.97834 18.765 8.88878C18.7654 8.76635 18.7651 8.64394 18.7646 8.52151C18.7649 8.48624 18.7652 8.45098 18.7655 8.41464C18.7634 8.17183 18.7402 7.90783 18.583 7.71138C18.3248 7.47607 18.0156 7.4892 17.6881 7.49253C17.6263 7.4927 17.6263 7.4927 17.5632 7.49287C17.4322 7.4933 17.3013 7.49428 17.1704 7.49528C17.0813 7.49567 16.9922 7.49603 16.9031 7.49635C16.6854 7.49721 16.4677 7.49851 16.25 7.50016C16.2424 7.5386 16.2424 7.5386 16.2347 7.57781C16.1992 7.75671 16.1631 7.93519 16.1215 8.1128C16.1129 8.14979 16.1044 8.18677 16.0956 8.22488C16.0778 8.30108 16.06 8.37727 16.0422 8.45345C16.0295 8.5084 16.0295 8.5084 16.0165 8.56446C16.0088 8.59737 16.0012 8.63027 15.9932 8.66417C15.9728 8.75474 15.9728 8.75474 15.9765 8.86735C16.0002 8.87737 16.0239 8.88739 16.0483 8.89771C16.5218 9.11408 16.8686 9.45982 17.0726 9.94157C17.2422 10.4479 17.2144 10.981 17.0021 11.4699C16.7543 11.9392 16.3554 12.247 15.8624 12.4239C15.6581 12.4809 15.4509 12.4721 15.2404 12.4715C15.1939 12.4717 15.1474 12.4719 15.0995 12.4721C14.971 12.4725 14.8425 12.4726 14.7139 12.4725C14.5751 12.4724 14.4363 12.4729 14.2975 12.4732C14.0257 12.4739 13.7539 12.4741 13.4821 12.4742C13.261 12.4742 13.04 12.4743 12.819 12.4746C12.1918 12.4753 11.5646 12.4756 10.9374 12.4756C10.9036 12.4756 10.8698 12.4756 10.835 12.4756C10.8011 12.4756 10.7673 12.4756 10.7324 12.4756C10.1844 12.4755 9.63631 12.4763 9.08825 12.4774C8.525 12.4785 7.96175 12.479 7.3985 12.479C7.08248 12.479 6.76647 12.4792 6.45045 12.48C6.18133 12.4807 5.91222 12.4809 5.6431 12.4804C5.50593 12.4801 5.36878 12.4801 5.23162 12.4808C5.08254 12.4814 4.93349 12.481 4.78441 12.4804C4.74158 12.4808 4.69875 12.4812 4.65463 12.4816C4.14038 12.4771 3.72352 12.3019 3.35066 11.9493C2.93056 11.5049 2.82728 11.0217 2.83949 10.4285C2.86207 9.93148 3.09314 9.54373 3.44969 9.20671C3.62452 9.0581 3.81374 8.9584 4.02342 8.86735C4.017 8.83525 4.017 8.83525 4.01045 8.8025C3.92363 8.36839 3.8368 7.93427 3.74998 7.50016C3.48939 7.49718 3.22881 7.49513 2.96821 7.49372C2.87967 7.49314 2.79113 7.49234 2.70259 7.49132C2.57488 7.48989 2.44719 7.48923 2.31947 7.48872C2.28027 7.48811 2.24107 7.48751 2.20069 7.48689C1.918 7.48682 1.61103 7.50361 1.40867 7.72477ZM4.25779 10.1955C4.10403 10.3654 4.07659 10.5048 4.08659 10.7268C4.11812 10.9243 4.22028 11.0253 4.37254 11.1452C4.54027 11.2376 4.68793 11.2552 4.87745 11.254C4.91207 11.2539 4.94669 11.2537 4.98236 11.2536C5.01798 11.2533 5.05361 11.2529 5.09031 11.2526C5.12669 11.2524 5.16307 11.2523 5.20056 11.2521C5.28995 11.2516 5.37934 11.251 5.46873 11.2502C5.37011 11.0977 5.26736 10.9586 5.14891 10.8205C4.98852 10.6283 4.8541 10.4274 4.72682 10.2119C4.69062 10.1524 4.65029 10.0955 4.60936 10.0392C4.44821 10.0392 4.38416 10.0975 4.25779 10.1955ZM15.3906 10.0392C15.366 10.077 15.3415 10.1148 15.3161 10.1537C14.8598 10.8498 14.8598 10.8498 14.6005 11.0996C14.5222 11.1647 14.5222 11.1647 14.5312 11.2502C14.6541 11.2536 14.777 11.2557 14.8999 11.2575C14.9342 11.2585 14.9685 11.2595 15.0039 11.2605C15.2535 11.2632 15.5322 11.2507 15.7276 11.0762C15.8859 10.8906 15.9118 10.766 15.9097 10.5292C15.8934 10.386 15.8345 10.3036 15.7422 10.1955C15.7156 10.1604 15.7156 10.1604 15.6885 10.1247C15.5965 10.0575 15.5018 10.0556 15.3906 10.0392Z" fill="#3F4754"/>
<path d="M10.2344 3.125C10.4254 3.21369 10.5281 3.32928 10.625 3.51563C10.6275 3.59371 10.6278 3.67193 10.625 3.75C10.6593 3.74918 10.6935 3.74836 10.7289 3.74752C10.8568 3.74485 10.9848 3.74289 11.1128 3.74142C11.168 3.74064 11.2233 3.73957 11.2785 3.73821C11.3582 3.7363 11.4379 3.73543 11.5176 3.73474C11.5894 3.73351 11.5894 3.73352 11.6627 3.73226C11.8667 3.75924 11.985 3.85756 12.124 4.00391C12.2177 4.20567 12.2169 4.39064 12.1875 4.60938C12.1032 4.79097 11.9831 4.92204 11.7969 5C11.6395 5.02248 11.4836 5.02084 11.3249 5.01969C11.2793 5.02005 11.2336 5.02042 11.1866 5.0208C11.0409 5.02192 10.8952 5.02204 10.7495 5.02197C10.6042 5.02212 10.459 5.02249 10.3137 5.02357C10.2234 5.02422 10.1332 5.02434 10.0429 5.02384C9.79261 5.02546 9.56289 5.04196 9.33594 5.15625C9.15658 5.34009 9.12676 5.47145 9.12964 5.72098C9.14578 5.86687 9.19956 5.94685 9.29688 6.05469C9.49039 6.19858 9.67787 6.21515 9.91364 6.21781C9.95689 6.21874 10.0001 6.21967 10.0447 6.22063C10.1344 6.22229 10.2241 6.22352 10.3139 6.22429C10.8255 6.23701 11.2868 6.41424 11.6675 6.7627C12.0458 7.16787 12.2082 7.64024 12.2039 8.18502C12.1852 8.72682 11.9645 9.18631 11.5771 9.56299C11.3031 9.79635 10.9827 9.95288 10.625 10C10.6282 10.0338 10.6314 10.0677 10.6348 10.1025C10.6193 10.3119 10.5197 10.4204 10.3711 10.5615C10.1693 10.6552 9.98437 10.6544 9.76563 10.625C9.5746 10.5363 9.4719 10.4207 9.375 10.2344C9.37252 10.1563 9.37217 10.0781 9.375 10C9.34073 10.0008 9.30646 10.0016 9.27115 10.0025C9.14316 10.0052 9.0152 10.0071 8.8872 10.0086C8.83196 10.0094 8.77672 10.0104 8.72149 10.0118C8.64177 10.0137 8.5621 10.0146 8.48236 10.0153C8.43449 10.0161 8.38663 10.0169 8.33731 10.0177C8.13328 9.99077 8.01501 9.89245 7.87598 9.74609C7.7823 9.54434 7.78306 9.35937 7.8125 9.14063C7.89681 8.95903 8.01688 8.82796 8.20313 8.75C8.36046 8.72752 8.51637 8.72916 8.67508 8.73032C8.74356 8.72977 8.74356 8.72977 8.81343 8.7292C8.95912 8.72808 9.10479 8.72796 9.25049 8.72803C9.39577 8.72789 9.54102 8.72751 9.6863 8.72644C9.77655 8.72578 9.86682 8.72567 9.95707 8.72616C10.2074 8.72454 10.4371 8.70804 10.6641 8.59375C10.8434 8.40991 10.8732 8.27855 10.8704 8.02902C10.8542 7.88313 10.8004 7.80315 10.7031 7.69531C10.5096 7.55142 10.3221 7.53486 10.0864 7.5322C10.0431 7.53127 9.99986 7.53033 9.95529 7.52937C9.86558 7.52771 9.77585 7.52648 9.68613 7.52571C9.17449 7.513 8.7132 7.33577 8.33252 6.98731C7.92981 6.55603 7.77946 6.05592 7.79892 5.47882C7.82914 4.99561 8.04506 4.53323 8.39966 4.20273C8.65469 3.99678 9.03624 3.75 9.375 3.75C9.37178 3.71616 9.36856 3.68233 9.36524 3.64746C9.38074 3.43809 9.48032 3.32964 9.62891 3.18848C9.83067 3.0948 10.0156 3.09556 10.2344 3.125Z" fill="#3F4754"/>
<path d="M17.1094 15.6249C17.3002 15.7134 17.4114 15.8247 17.5 16.0155C17.5294 16.2342 17.5302 16.4192 17.4365 16.6209C17.2579 16.809 17.1364 16.8847 16.875 16.8944C16.6136 16.8847 16.4921 16.809 16.3135 16.6209C16.2198 16.4192 16.2206 16.2342 16.25 16.0155C16.4249 15.6387 16.7245 15.573 17.1094 15.6249Z" fill="#3F4754"/>
<path d="M14.6094 15.6249C14.8002 15.7134 14.9114 15.8247 15 16.0155C15.0294 16.2342 15.0302 16.4192 14.9365 16.6209C14.7579 16.809 14.6364 16.8847 14.375 16.8944C14.1136 16.8847 13.9921 16.809 13.8135 16.6209C13.7198 16.4192 13.7206 16.2342 13.75 16.0155C13.9249 15.6387 14.2245 15.573 14.6094 15.6249Z" fill="#3F4754"/>
</g>
<defs>
<clipPath id="clip0_5882_74603">
<rect width="20" height="20" fill="white"/>
</clipPath>
</defs>
</svg>
