<svg width="20" height="20" viewBox="0 0 20 20" fill="none" xmlns="http://www.w3.org/2000/svg">
<g clip-path="url(#clip0_5885_75243)">
<path d="M18.2484 1.28707C18.4522 1.28707 18.5956 1.32492 18.6703 1.35367C18.76 1.59242 18.8803 2.44803 17.9959 3.33303L13.4844 7.84428L13.5169 8.40396C13.5853 9.57521 13.7122 11.6743 13.8216 13.4736C13.9181 15.0752 14.0097 16.5877 14.0156 16.7164C14.0187 16.8049 14.02 16.8258 13.9375 16.9252C13.7531 17.1493 13.4091 17.529 13.1191 17.8437C12.6694 16.6321 11.7244 14.073 11.2025 12.6405L10.5319 10.7974L9.1447 12.1846L6.59376 14.6374L6.23845 14.9921L6.22751 15.4937C6.21907 15.894 6.22095 16.6124 6.22188 17.2458C6.22313 17.6871 6.2244 18.088 6.22128 18.309C6.21565 18.3193 6.30659 18.3315 6.29815 18.3462C6.24378 18.259 6.18534 18.1649 6.12347 18.0671C5.60909 17.2468 4.89722 16.1121 4.68003 15.758L4.52128 15.4987L4.26065 15.3411C3.31284 14.7687 2.26284 14.1077 1.62221 13.6949C1.6444 13.6821 1.66251 13.7499 1.6772 13.7421H1.71876C1.92032 13.7421 2.25345 13.7464 2.62688 13.7518C3.11532 13.7583 3.66938 13.7664 4.09345 13.7664C4.25595 13.7664 4.40032 13.7652 4.51657 13.7627L5.01813 13.7511L5.37282 13.3964L7.82876 10.863L9.21126 9.48113L7.37659 8.80613C5.99784 8.29896 3.3569 7.3127 2.12159 6.84863C2.43845 6.55676 2.82032 6.2102 3.04313 6.0258C3.10532 5.97455 3.15378 5.94832 3.1872 5.94832L3.23126 5.94957C3.36907 5.95613 5.08063 6.06801 6.7353 6.17613C8.49186 6.29082 10.4744 6.4202 11.6015 6.49176L12.165 6.52707L16.6772 2.01457C17.3109 1.38176 17.9334 1.28707 18.2484 1.28707ZM18.2484 0.0371289C17.51 0.0371289 16.6035 0.32084 15.7938 1.13084L11.6804 5.24396C9.36348 5.0974 3.42973 4.7049 3.28255 4.70084C3.2508 4.69923 3.21902 4.69839 3.18723 4.69832C2.98692 4.69832 2.64098 4.73676 2.24723 5.06207C1.78505 5.44428 0.821297 6.35055 0.821297 6.35055C0.588797 6.58365 0.470984 6.8724 0.499109 7.14396C0.516297 7.30803 0.605359 7.60709 1.00817 7.76461C1.25286 7.86055 5.14692 9.31742 6.94507 9.97898L4.48913 12.5124C4.38036 12.5149 4.24567 12.5162 4.09348 12.5162C3.34473 12.5162 2.1838 12.4918 1.71846 12.4918C1.6569 12.4918 1.60753 12.4918 1.57251 12.493C1.43095 12.4974 1.13782 12.4277 0.364695 13.074L0.309695 13.1252C0.0778203 13.3571 0.0234453 13.5884 0.0184453 13.7412C0.0134453 13.8987 0.0556328 14.1255 0.283445 14.308C0.42032 14.4187 2.17501 15.5421 3.61405 16.4112C3.95907 16.974 5.54657 19.4971 5.62938 19.634C5.75034 19.8384 5.94813 19.9549 6.18472 19.9624H6.2044C6.4344 19.9624 6.67065 19.8484 6.9019 19.6237C7.55628 18.8584 7.46597 18.5415 7.46876 18.4084C7.47907 17.9909 7.46157 16.2221 7.47657 15.5209L10.0272 13.0677C10.6791 14.8584 12.1041 18.7124 12.1994 18.9577C12.3581 19.3605 12.6572 19.449 12.8213 19.4655C12.8481 19.4687 12.8757 19.4699 12.9025 19.4699C13.1491 19.4699 13.4047 19.354 13.6141 19.1446C13.6141 19.1446 14.5175 18.1859 14.9013 17.7193C15.2856 17.2531 15.2707 16.8549 15.2632 16.6671C15.26 16.5371 14.8981 10.6356 14.7638 8.33088L18.8781 4.21648C20.3363 2.75771 20.1044 0.999922 19.5628 0.459297C19.3238 0.218984 18.8397 0.0371484 18.2484 0.0371289Z" fill="#3F4754"/>
</g>
<defs>
<clipPath id="clip0_5885_75243">
<rect width="20" height="20" fill="white"/>
</clipPath>
</defs>
</svg>
