<svg width="200" height="200" fill="none" xmlns="http://www.w3.org/2000/svg"><g clip-path="url(#a)"><path d="M-.336-.333h200.333V200H-.336V-.333z" fill="#3A469D"/><path d="m193.665 155.621.253 3.424v.064h-.697c-.064 0-.064 0-.064-.064l-.126-1.395-.444 1.459c0 .063-.064.063-.064.063h-.443c-.064 0-.064 0-.064-.063l-.443-1.459-.128 1.395v.064h-.633c-.063 0-.063 0-.063-.064l.253-3.424c0-.063 0-.063.063-.063h.635c.063 0 .063 0 .063.063l.57 2.282.571-2.282c0-.063.063-.063.063-.063h.635c.063 0 .063 0 .063.063zm-6.023-.127h2.726c.063 0 .063 0 .063.064v.634c0 .063 0 .063-.063.063h-1.015v2.79c0 .064 0 .064-.063.064h-.633c-.064 0-.064 0-.064-.064v-2.79h-1.077v-.697c.063 0 .126-.064.126-.064z" fill="#fff"/><path d="M172.741 192.393c-9.129-.064-16.673-7.862-16.927-17.561-.19-9.953 7.735-18.258 17.181-18.258 9.192.063 16.863 7.797 17.053 17.497.254 10.017-7.734 18.448-17.307 18.322zm.634-29.797c-6.149-.253-11.158 5.326-11.158 11.855 0 6.34 4.628 11.729 10.588 11.792 6.212.064 11.094-5.642 11.031-12.109-.127-6.149-4.565-11.411-10.461-11.538zm-46.913 30.431c-13.123-.571-23.647-11.602-23.901-25.359-.19-14.328 10.461-26.246 24.661-26.246 4.438 0 11.665.253 19.97 9.002l-4.691 4.945c-7.164-6.974-12.489-7.481-15.279-7.354-12.679.38-18.004 11.538-17.751 19.463.254 12.109 9.954 18.829 17.434 19.082 8.939.254 17.561-6.973 17.688-16.103h-16.927v-6.656h24.154c1.141 19.589-12.172 29.923-25.358 29.226zM8.734 191.759v-50.147h7.291v50.147h-7.29zm60.037.634c-10.714-.444-16.293-8.876-16.547-17.625-.57-9.763 7.037-18.258 16.864-18.194 2.346 0 4.628.76 5.96 1.331l2.535 1.268v7.29l-1.078-1.204c-.824-.888-4.691-2.726-7.86-2.663-5.897.064-10.018 5.135-10.144 11.095-.317 6.91 3.867 12.235 10.46 12.616.507 0 10.524-.381 10.524-12.046v-32.649h6.593v32.839c0 9.066-6.91 18.449-17.307 17.942zm-27.07-.634v-18.195c0-10.08-4.945-10.27-7.545-10.524-3.423-.57-8.051 3.043-8.051 8.876v19.906h-6.34v-19.526c0-10.207 7.354-15.532 14.582-15.596 3.486 0 13.947 2.98 13.947 15.279v19.78H41.7zm48.625-42.476c.317-5.325 7.797-5.072 7.67.063-.19 5.516-7.987 4.819-7.67-.063zm.824 42.476v-34.742h6.656v34.742H91.15z" fill="#fff" stroke="#fff" stroke-width="1.688" stroke-miterlimit="10"/><path d="M132.798 84.934a2.853 2.853 0 1 0 0-5.705 2.853 2.853 0 0 0 0 5.705zM132.798 77.327a2.853 2.853 0 1 0 0-5.706 2.853 2.853 0 0 0 0 5.706zM117.587 69.72a2.853 2.853 0 1 0 0-5.705 2.853 2.853 0 0 0 0 5.705zM125.189 69.72a2.853 2.853 0 1 0 0-5.706 2.853 2.853 0 0 0 0 5.706zM131.54 40.558a2.853 2.853 0 1 0 0-5.705 2.853 2.853 0 0 0 0 5.705zM139.142 40.558a2.853 2.853 0 1 0 0-5.706 2.853 2.853 0 0 0 0 5.706zM146.751 40.558a2.853 2.853 0 1 0 0-5.705 2.853 2.853 0 0 0 0 5.705zM154.353 40.558a2.853 2.853 0 1 0 0-5.706 2.853 2.853 0 0 0 0 5.706zM161.962 70.988a2.853 2.853 0 1 0 0-5.705 2.853 2.853 0 0 0 0 5.705zM161.962 63.19a2.853 2.853 0 1 0 0-5.706 2.853 2.853 0 0 0 0 5.705zM161.962 55.584a2.853 2.853 0 1 0 0-5.706 2.853 2.853 0 0 0 0 5.706zM161.962 47.975a2.853 2.853 0 1 0 0-5.705 2.853 2.853 0 0 0 0 5.705zM132.798 69.72a2.853 2.853 0 1 0 0-5.705 2.853 2.853 0 0 0 0 5.705zM138.509 64.077a2.853 2.853 0 1 0 0-5.706 2.853 2.853 0 0 0 0 5.706zM143.579 59.07a2.853 2.853 0 1 0 0-5.705 2.853 2.853 0 0 0 0 5.705zM149.283 53.364a2.853 2.853 0 1 0-.001-5.705 2.853 2.853 0 0 0 .001 5.705zM154.353 47.91a2.853 2.853 0 1 0 0-5.706 2.853 2.853 0 0 0 0 5.707zM161.962 40.558a2.853 2.853 0 1 0 0-5.705 2.853 2.853 0 0 0 0 5.705zM167.033 35.232a2.853 2.853 0 1 0-.001-5.705 2.853 2.853 0 0 0 .001 5.705zM172.736 29.843a2.853 2.853 0 1 0-.001-5.705 2.853 2.853 0 0 0 .001 5.705z" fill="#fff"/></g><defs><clipPath id="a"><path fill="#fff" d="M0 0h200v200H0z"/></clipPath></defs></svg>