<svg width="200" height="200" fill="none" xmlns="http://www.w3.org/2000/svg"><path fill-rule="evenodd" clip-rule="evenodd" d="M147.091 49.182c.351-9.127-1.581-16.846-6.162-22.461-14.089-16.668-47.728-5.437-74.855 24.915-27.3 30.359-37.864 68.431-23.954 85.099 14.089 16.673 47.729 5.615 75.028-24.737 4.229-4.915 8.279-10.001 11.625-15.094l-44.907-4.558 64.99-8.426-71.688-10.178L164 64.798l-70.8-7.196 53.891-8.42z" fill="#FCAF1E"/><path fill-rule="evenodd" clip-rule="evenodd" d="M188.786 160.5c1.414 0 2.729.437 3.607.437.242-.048.437 0 .437.341 0 .097-.048.146-.048.244 0 .438.243 1.41.243 2.626 0 .488-.146.633-.487.633-.39 0-.487-.242-.536-.536-.098-.73-.195-1.069-.584-1.459-.634-.681-1.56-.973-2.875-.973-2.241 0-3.411 1.314-3.314 2.918.098 1.851 1.56 2.823 4.142 4.332 3.556 2.19 4.629 3.601 4.629 5.985 0 2.579-2.046 5.449-7.114 5.449-1.267 0-2.534-.195-3.655-.682-.439-.195-.487-.292-.487-1.119-.049-1.022-.049-2.384 0-2.87.098-.292.146-.486.537-.486.292 0 .439.145.486.535 0 .242.048.728.147 1.167.535 1.947 2.388 2.189 3.654 2.189 2.534 0 3.996-1.557 3.996-3.211 0-2.092-1.219-3.211-4.63-5.157-3.411-1.897-4.092-3.892-4.044-5.596.097-2.87 2.29-4.767 5.896-4.767zm-98.671 10.022c0-1.167.05-5.886.05-9.389 0-.099-.05-.196-.196-.196h-4.093c-.487 0-.634.097-.634.487 0 .292.099.437.39.486 1.364.098 1.56.73 1.608 2.385.05 2.432.05 4.281.05 6.227 0 2.53-.05 5.839-.147 9.342 0 .145.097.244.195.244h2.632c.145 0 .194-.099.194-.244-.05-3.454-.05-6.47-.05-9.342zm78.06-.534c.487.777.974 1.46 1.365 2.092 0 2.286-.05 4.962-.098 7.784 0 .145.048.244.195.244h2.583c.145 0 .242-.099.242-.244-.048-2.822-.097-5.401-.097-7.784 2.193-3.504 4.727-7.349 7.066-10.899.097-.147.048-.244-.098-.244h-3.703c-.438 0-.633.097-.633.487 0 .292.145.437.437.486.781.147.975.633.536 1.363-1.363 2.287-2.874 4.67-4.336 7.006-.39-.632-.779-1.216-1.169-1.848-1.608-2.434-2.923-4.525-4.678-7.298-.097-.147-.146-.196-.389-.196h-3.022c-.146 0-.194.097-.097.244a691.302 691.302 0 0 1 5.896 8.807zm-9.404 9.876c.097.145.145.244.292.244h2.875c.146 0 .194-.099.146-.244a293.7 293.7 0 0 1-4.191-9.487c-1.899-4.38-2.728-6.666-3.653-9.244-.05-.099-.147-.196-.293-.196h-3.168c-.439 0-.633.097-.633.487 0 .292.146.437.439.486.633.098 1.12.342 1.12 1.169 0 .436-.195.972-.437 1.557a169.014 169.014 0 0 1-2.388 5.741 293.7 293.7 0 0 1-4.191 9.487c-.048.145 0 .244.146.244h1.802c.147 0 .245-.099.294-.244.682-1.751 1.315-3.261 1.899-4.768h7.992c.634 1.606 1.315 3.26 1.949 4.768zm-9.356-6.325c.292-.681.585-1.361.828-2.044.731-1.751 1.414-3.406 2.485-5.984 1.122 2.578 1.804 4.233 2.535 5.984l.876 2.044h-6.724zm-9.697-12.602c-.439 0-.633.097-.633.487 0 .292.194.437.439.486.828.147 1.023.828.78 1.655-.78 2.14-1.414 4.038-2.096 5.984-.584 1.655-1.17 3.26-1.998 5.644-.926-2.482-1.51-3.94-2.144-5.644-1.023-2.676-1.851-4.818-3.069-8.077-.147-.339-.244-.535-.586-.535-.34 0-.437.196-.584.535-1.17 3.259-1.949 5.401-2.924 8.077-.633 1.655-1.218 3.26-2.143 5.644a322.924 322.924 0 0 0-2.047-5.644c-.975-2.676-1.851-5.157-3.021-8.416-.049-.099-.097-.196-.243-.196h-2.778c-.146 0-.195.049-.146.196 1.316 3.259 2.778 7.151 3.654 9.487 1.609 4.428 2.388 6.422 3.363 9.147.145.438.244.681.584.681.39 0 .536-.389.634-.681.828-2.287 2.777-7.347 3.46-9.147a146.406 146.406 0 0 1 1.657-4.088c.681 1.655.973 2.385 1.607 4.088 1.705 4.428 2.533 6.422 3.558 9.147.194.438.292.681.633.681.39 0 .487-.389.632-.681.781-2.287 2.583-7.347 3.266-9.147a693.3 693.3 0 0 1 3.654-9.487c.097-.099 0-.196-.146-.196h-3.363zm-96.33 0c-2.875 0-4.337-.048-7.798-.098-.097 0-.146.098-.194.195l-.39 1.654c0 .147.048.244.243.244 2.048-.097 4.483-.194 6.724-.244.05 2.434.05 5.937.05 7.834 0 2.53-.05 5.839-.147 9.342 0 .145.05.244.195.244h2.632c.097 0 .194-.099.194-.244-.048-3.454-.048-6.47-.048-9.342 0-.973 0-4.67.048-7.834 2.144.05 4.289.147 6.53.244.097 0 .195-.048.195-.194l.39-1.655c.049-.146-.05-.244-.148-.244-3.506.05-5.602.098-8.477.098zm35.034 18.927c.048.145.145.244.242.244h2.875c.147 0 .244-.099.147-.244a288.658 288.658 0 0 1-4.19-9.488c-1.901-4.379-2.73-6.665-3.655-9.243-.05-.099-.147-.196-.292-.196H70.38c-.438 0-.632.097-.632.487 0 .292.145.437.437.486.633.098 1.12.341 1.12 1.169 0 .436-.194.972-.437 1.557a168.09 168.09 0 0 1-2.388 5.74 292.779 292.779 0 0 1-4.191 9.488c-.048.145 0 .244.147.244h1.851c.097 0 .195-.099.244-.244.682-1.751 1.316-3.261 1.9-4.768h7.991c.634 1.606 1.316 3.26 1.999 4.768zm-9.406-6.325c.293-.681.586-1.361.828-2.044.733-1.751 1.415-3.406 2.487-5.984 1.12 2.578 1.85 4.233 2.582 5.984.243.682.535 1.363.827 2.044h-6.724zm32.501-11.142c.487-.048 1.17-.098 1.852-.098 2.826 0 4.628 1.314 4.628 4.38 0 2.384-1.265 4.281-4.189 4.281-.926 0-1.852-.145-2.34-.292 0-1.605.049-4.378.049-8.271zm3.264 9.975c2.145 3.211 3.363 4.914 4.873 6.276 1.267 1.119 2.777 1.605 4.532 1.605 1.364 0 2.777-.194 2.777-.633 0-.291-.243-.339-.974-.438-1.462-.242-2.437-.68-4.142-2.188-1.364-1.216-2.924-3.212-4.434-5.449 1.901-1.023 3.459-2.92 3.459-5.402 0-4.135-3.995-5.206-7.064-5.206h-6.58c-.437 0-.631.097-.631.487 0 .292.145.437.437.486 1.317.098 1.511.73 1.56 2.385.049 2.432.049 4.281.049 6.227 0 2.53 0 5.839-.147 9.342 0 .145.097.244.244.244h2.583c.145 0 .194-.099.194-.244 0-2.773-.049-5.304-.049-7.639.878.098 1.754.195 2.876.147h.437zm-78.887 6.032c-.05-2.676-.05-5.108-.05-7.395 1.268.048 3.509.244 5.263.34.147 0 .196-.048.244-.195l.39-1.652c0-.147-.048-.244-.195-.244-2.046.097-3.75.145-5.701.145 0-1.605 0-4.378.05-6.86 1.606.048 3.41.242 5.7.389.146 0 .195-.048.243-.194l.39-1.655c0-.146-.048-.244-.195-.244-2.583.05-4.677.098-6.967.098h-3.508c-.44 0-.634.097-.634.487 0 .292.147.437.439.486 1.363.098 1.56.73 1.607 2.385.05 2.432.05 4.281.05 6.227 0 2.53-.05 5.839-.147 9.342 0 .145.05.244.194.244H25.7c2.143 0 4.287.048 6.577.048.147 0 .195-.048.244-.195l.34-1.654c.05-.145 0-.244-.145-.244-2.632.195-5.02.293-6.822.341zm-11.353-17.271c0-.099-.097-.196-.244-.196h-4.289c-.437 0-.632.097-.632.487 0 .292.145.437.439.486 1.412.147 1.705.584 1.754 2.385.048 2.432.048 4.281.048 6.227 0 3.601 0 6.18-.048 8.66-.05 3.747-.244 6.083-1.17 7.883-1.754 3.358-3.899 3.358-3.899 3.989 0 .293.244.488.488.438.926-.194 7.504-2.626 7.504-11.578 0-3.164-.048-5.84-.048-9.392 0-1.167.048-5.886.097-9.389" fill="#00063F"/></svg>