<svg width="200" height="200" fill="none" xmlns="http://www.w3.org/2000/svg"><g clip-path="url(#a)"><path d="m88.89 117.954 16.675 27.708c5.169 8.304 13.684 12.073 24.294 12.073h42.897l-50.22-60.858-7.125-4.058-18.802 6.136-9.527 13.786 1.809 5.213z" fill="url(#b)"/><path d="m122.537 96.876-10.484-12.708-27.71 14.904 2.94 15.044 1.609 3.838c-.63-10.196 16.876-22.034 33.645-21.078z" fill="url(#c)"/><path d="M88.902 117.953 73.91 93.165c-1.806-2.812-2.3-5.273-2.3-8.14 0-3.153 1.344-4.881 6.506-7.62 6.013-2.879 18.12-4.13 30.602-4.13 20.281 0 25.142 6.508 27.213 13.532 0 0-2.864-1.138-9.599-1.138-21.366 0-38.444 10.371-38.444 26.075 0 3.295 1.014 6.209 1.014 6.209z" fill="url(#d)"/><path d="M24.5 12.5h20.166c8.504 0 11.992 3.479 15.433 6.892 3.937 3.58 15.88 19.743 41.126 51.29H73.901c-11.174 0-14.708-1.903-19.03-8.494L24.5 12.5z" fill="url(#e)"/><path d="m185.325 151.185 1.461 5.244h.027l1.483-5.244h1.241l.962 6.566h-.994l-.682-5.358h-.022l-1.531 5.358h-1.064l-1.488-5.336h-.016l-.683 5.336h-.945l.956-6.566h1.295zm-3.09 0v.843h-1.934v5.722h-.956v-5.722h-1.935v-.843h4.825zM116.162 168.046h-.044l-2.215 6.263h4.479l-2.22-6.263zm3.965 11.197-1.085-3.076h-5.8l-1.087 3.076h-2.476l5.195-13.694h2.759l5.116 13.694h-2.622zm21.016-14.242h2.422v2.289h-2.422v-2.289zm.027 3.812h2.367v10.43h-2.367v-10.43zM123.692 165h2.423v2.29h-2.423V165zm.028 3.813h2.367v10.43h-2.367v-10.43zm14.866-3.8h-2.367v14.23h2.367v-14.23zm-7.545 9.144v5.086h-2.374v-7.75c0-.745-.085-2.163-.114-2.678h1.911c.207 0 .266.087.272.29.004.308.021 1.293.021 1.293h.054c.186-.452.86-1.802 2.826-1.802.659 0 1.146.213 1.226.245 0 .449-.046 1.434-.07 1.694-.015.172-.09.228-.175.228-.08 0-.118-.019-.162-.037a2.624 2.624 0 0 0-.97-.167c-1.264 0-2.445.912-2.445 3.598m21.558 5.086v-6.736c0-1.286-.587-2.07-1.689-2.07-1.456 0-2.423 1.55-2.423 3.641v5.165h-2.368v-7.662c0-.843-.076-2.072-.116-2.766h1.903c.214 0 .275.088.278.281.006.223.024 1.302.024 1.302h.054c.286-.491 1.015-1.803 3.197-1.803 2.25 0 3.507 1.538 3.507 3.265v7.383h-2.367zm6.551-6.287h4.382c.09-1.681-.793-2.623-2.125-2.623-1.394 0-2.193 1.008-2.257 2.623zm5.841 3.997c.132 0 .17.115.181.233.04.445.078 1.451.072 1.708-.253.081-1.526.548-3.235.548-3.32 0-5.318-1.717-5.318-5.415 0-3.175 1.703-5.431 4.765-5.431 3.006 0 4.435 2.01 4.435 4.506 0 .293-.032.789-.084 1.448h-6.687c0 1.781 1.135 3.059 3.232 3.059 1.156 0 2.075-.414 2.44-.591.073-.035.115-.065.199-.065m5.545 2.489c3.082 0 4.557-1.26 4.557-3.133 0-1.844-1.31-2.62-2.698-3.079-.398-.128-.788-.259-1.152-.381-.951-.315-1.443-.728-1.443-1.344 0-.65.593-1.105 1.825-1.105 1.096 0 1.991.447 2.346.618.059.027.112.065.206.065.075 0 .167-.047.179-.231.024-.35.066-.983.066-1.592-.288-.132-1.324-.664-2.991-.664-2.546 0-4.111 1.324-4.111 3.072 0 1.695 1.158 2.469 2.433 2.891.294.1.838.278 1.157.386 1.33.442 1.71.843 1.71 1.465 0 .813-.865 1.214-2.353 1.214-1.221 0-2.06-.448-2.398-.606-.068-.03-.108-.065-.203-.065-.175 0-.178.233-.18.272a43.64 43.64 0 0 0-.064 1.552c.279.121 1.489.665 3.114.665M30.983 168.046h-.044l-2.216 6.263h4.476l-2.216-6.263zm3.964 11.197-1.086-3.076h-5.8l-1.086 3.076H24.5l5.196-13.695h2.757l5.115 13.695h-2.62zM73.635 165h2.421v2.289h-2.42V165zm.028 3.813h2.365v10.43h-2.365v-10.43zm-5.082 5.344v5.086h-2.37v-7.75c0-.746-.085-2.164-.116-2.68h1.912c.207 0 .268.089.269.291l.025 1.294h.053c.188-.452.859-1.802 2.826-1.802.657 0 1.148.211 1.23.244 0 .449-.05 1.434-.072 1.695-.016.171-.091.226-.175.226-.08 0-.12-.017-.164-.035a2.6 2.6 0 0 0-.967-.168c-1.264 0-2.451.913-2.451 3.599zm-17.485 5.086v-6.673c0-1.203-.508-2.135-1.735-2.135-1.382 0-2.178 1.512-2.178 3.63v5.178h-2.366v-6.694c0-1.093-.457-2.114-1.726-2.114-1.402 0-2.186 1.509-2.186 3.705v5.103h-2.371v-7.597c0-.981-.087-2.369-.115-2.833h1.895c.214 0 .284.07.288.291l.022 1.294h.054c.144-.298.923-1.803 3.097-1.803 2.026 0 2.8 1.453 2.993 1.901.186-.394 1.086-1.901 3.126-1.901 2.122 0 3.57 1.139 3.57 3.427v7.221h-2.368zm6.55-6.289h4.382c.09-1.678-.79-2.622-2.125-2.622-1.394 0-2.191 1.009-2.258 2.622zm5.843 3.999c.13 0 .17.115.18.233.04.445.078 1.452.072 1.708-.252.081-1.525.548-3.234.548-3.321 0-5.319-1.719-5.319-5.417 0-3.171 1.702-5.429 4.767-5.429 3.003 0 4.436 2.009 4.436 4.506 0 .293-.034.789-.087 1.446h-6.687c0 1.783 1.136 3.061 3.23 3.061 1.157 0 2.078-.414 2.442-.593.072-.035.114-.063.2-.063m29.699-3.002h-.403c-2.975 0-3.56 1.034-3.56 2.085 0 .859.567 1.672 1.679 1.672 1.477 0 2.284-1.426 2.284-2.927v-.83zm.57 5.292c-.19 0-.35-.063-.37-.34l-.07-.999h-.032c-.14.192-1.003 1.538-3.17 1.538-2.075 0-3.266-1.599-3.266-3.355 0-2.435 2.364-3.658 5.87-3.658h.468v-.382c0-1.092-.777-1.677-2.23-1.677a6.514 6.514 0 0 0-2.814.673c-.028.013-.104.058-.175.058-.112 0-.175-.07-.181-.193-.019-.392-.06-1.146-.066-1.624.428-.163 1.845-.689 3.404-.689 3.099 0 4.43 1.438 4.43 3.736v4.067c0 1.483.138 2.454.186 2.845h-1.984zm-8.183-2.29c.063 0 .15.041.171.224.046.497.065 1.31.067 1.565-.473.234-1.498.7-2.755.7-3.16 0-5.097-1.834-5.097-5.421 0-3.362 1.723-5.425 5.097-5.425 1.119 0 2.149.39 2.755.701 0 .371-.037 1.213-.067 1.566-.014.149-.086.22-.17.22-.095 0-.127-.025-.183-.05-.763-.373-1.48-.554-2.125-.554-2.01 0-2.838 1.317-2.838 3.542 0 1.983.661 3.538 2.838 3.538.832 0 1.59-.297 2.06-.523.127-.059.149-.083.247-.083m18.51 2.29v-6.736c0-1.287-.587-2.071-1.687-2.071-1.457 0-2.426 1.549-2.426 3.642v5.165h-2.366v-7.662c0-.843-.076-2.072-.114-2.768h1.9c.216 0 .278.09.28.283.005.221.022 1.302.022 1.302h.052c.288-.492 1.017-1.804 3.199-1.804 2.253 0 3.51 1.539 3.51 3.264v7.385h-2.37z" fill="#334357"/></g><defs><linearGradient id="b" x1="87.047" y1="97.408" x2="87.047" y2="157.582" gradientUnits="userSpaceOnUse"><stop stop-color="#EB2023"/><stop offset=".096" stop-color="#E92026"/><stop offset=".204" stop-color="#E31E27"/><stop offset=".299" stop-color="#E01E26"/><stop offset=".404" stop-color="#D81F27"/><stop offset=".5" stop-color="#CF2027"/><stop offset=".6" stop-color="#C62127"/><stop offset=".7" stop-color="#B92025"/><stop offset=".8" stop-color="#AE1F23"/><stop offset=".9" stop-color="#A01D22"/><stop offset="1" stop-color="#901C1C"/></linearGradient><linearGradient id="c" x1="88.717" y1="117.854" x2="122.152" y2="96.443" gradientUnits="userSpaceOnUse"><stop stop-color="#6C221F"/><stop offset=".249" stop-color="#7F2620"/><stop offset=".498" stop-color="#982B24"/><stop offset=".749" stop-color="#B53125"/><stop offset="1" stop-color="#CB3327"/></linearGradient><linearGradient id="d" x1="86.103" y1="112.086" x2="135.084" y2="83.747" gradientUnits="userSpaceOnUse"><stop stop-color="#E7EBEE"/><stop offset=".249" stop-color="#DFE4E8"/><stop offset=".498" stop-color="#CAD1D7"/><stop offset=".749" stop-color="#A8B5BD"/><stop offset="1" stop-color="#93A6AD"/></linearGradient><linearGradient id="e" x1="58.314" y1="12.518" x2="58.314" y2="70.649" gradientUnits="userSpaceOnUse"><stop stop-color="#05AEE9"/><stop offset=".096" stop-color="#00A9E0"/><stop offset=".204" stop-color="#07A3DC"/><stop offset=".299" stop-color="#089DD5"/><stop offset=".404" stop-color="#0A92CC"/><stop offset=".5" stop-color="#0F87C3"/><stop offset=".6" stop-color="#127CB8"/><stop offset=".7" stop-color="#0E70AD"/><stop offset=".8" stop-color="#0F63A3"/><stop offset=".9" stop-color="#135393"/><stop offset="1" stop-color="#184485"/></linearGradient><clipPath id="a"><path fill="#fff" d="M0 0h200v200H0z"/></clipPath></defs></svg>