<svg width="200" height="200" fill="none" xmlns="http://www.w3.org/2000/svg"><path fill-rule="evenodd" clip-rule="evenodd" d="m13.857 161.076.106.002-.085-.037-.021.035zm101.984-12.575c-1.645-.002-3.29-.005-4.934.028a17.73 17.73 0 0 0-.915 1.516c2.083.025 4.169.049 6.25-.003.455-.301.724-.792.984-1.268.05-.091.1-.183.151-.272-.512.001-1.024 0-1.536-.001zm9.646.02a6.003 6.003 0 0 0-3.453 1.114c-.373.26-.67.6-.967.939-.124.142-.248.284-.378.42a37.42 37.42 0 0 1-1.675.004c-.338.556-.676 1.113-.929 1.713.568.019 1.139.027 1.71.035a9487.399 9487.399 0 0 0-4.747 7.485c-.075.12-.153.239-.231.358-.25.38-.501.761-.656 1.191 1.295.087 2.593.076 3.892.065a78.672 78.672 0 0 1 2.477.005c.39.065.643-.277.818-.569 1.131-1.874 2.286-3.733 3.44-5.592.581-.936 1.162-1.873 1.74-2.81 2.16-.031 4.32-.026 6.478-.019.593.004 1.185 0 1.778-.005 1.294-.009 2.588-.019 3.881.061-.123.246-.249.492-.374.738l-.002.003-2.203.007c-1.836.006-3.672.012-5.508.011-.708.02-1.502.071-2.034.598-.567.541-1.041 1.195-1.331 1.927-.22.537.147 1.189.698 1.334.952.311 1.95.294 2.943.277.362-.007.724-.013 1.082-.003.318.011.638.005.958-.002.755-.016 1.513-.032 2.242.192-.086.798-.549 1.485-1.052 2.082-.522.462-1.254.334-1.894.221l-.214-.037c.206-.5.438-.99.69-1.47-1.683-.039-3.366-.03-5.049-.022-.443.003-.885.005-1.328.006-.384-.016-.572.309-.747.613-.057.098-.112.193-.172.275-.058.104-.128.21-.199.318-.257.386-.532.801-.303 1.256.295.514.96.556 1.495.59l.058.004c2.477.013 4.954.012 7.43.011 1.504-.001 3.008-.002 4.512.001.718-.01 1.507-.035 2.102-.496.483-.385.791-.921 1.096-1.451.081-.14.162-.279.245-.416.083-.147.17-.292.258-.437.245-.404.491-.809.629-1.264.13-.398-.106-.821-.421-1.058-.382-.289-.863-.366-1.325-.44a8.926 8.926 0 0 1-.173-.028c-1.075-.152-2.156-.132-3.238-.112-1.023.019-2.047.037-3.064-.089.02-.693.769-.953 1.355-.975 1.249-.044 2.5-.037 3.75-.031 1.343.007 2.686.014 4.028-.041.722-.091 1.063-.66 1.407-1.234.213-.356.428-.714.735-.959.464-.079.935-.071 1.406-.063.253.004.507.008.76-.001l.132-.204c.318-.495.637-.99.925-1.503-.422-.01-.843-.017-1.264-.023l-.95-.016c.33-.505.657-1.013.946-1.543-.44-.776-1.404-.91-2.212-.925-6.668-.014-13.336-.023-20.003-.016zm5.699 2.49-3.639-.009c.564-.561 1.275-1.044 2.101-1.053 1.396-.011 2.793-.009 4.189-.007.932.001 1.863.002 2.794-.001.269.005.539.002.809-.001.901-.01 1.806-.02 2.677.24-.118.226-.238.451-.357.676l-.086.161c-2.829.01-5.658.002-8.488-.006zm-78.85-.009c-.98.003-2.002.063-2.875.546-.863.433-1.347 1.277-1.812 2.091-.088.153-.176.306-.265.454.547.002 1.093.006 1.639.01 1.813.012 3.625.024 5.439-.03.124-.138.234-.297.345-.457.24-.349.483-.701.887-.848l.226-.018c.596-.05 1.253-.105 1.71.343-.1.162-.197.332-.294.505-.412.727-.844 1.492-1.67 1.761-.63.095-1.266.099-1.903.102-.565.004-1.13.007-1.69.074-.28.469-.555.942-.8 1.43.307.008.615.004.923 0 .591-.007 1.183-.014 1.77.06.332.054.76.236.764.631-.152.474-.413.902-.672 1.327-.085.14-.17.279-.251.42-.368.651-1.195.765-1.873.72-.053-.006-.109-.01-.165-.015-.294-.024-.612-.05-.801-.296.05-.338.203-.641.356-.942.052-.103.104-.205.151-.309-2.326 0-4.652.005-6.978.017l-.045.066c-.409.597-.826 1.205-1.029 1.905a.652.652 0 0 0 .2.717c.326.284.784.286 1.193.287 2.812-.015 5.623-.014 8.434-.013h3.514c.12-.001.24.001.36.002.765.008 1.55.016 2.248-.337.54-.237.926-.703 1.23-1.193.106-.168.216-.336.326-.503.338-.515.676-1.031.938-1.59.175-.391.04-.812-.086-1.2a8.956 8.956 0 0 1-.038-.118c.956-.412 1.782-1.148 2.206-2.109.125-.295.272-.581.419-.866.188-.367.377-.734.52-1.122.159-.401-.104-.84-.44-1.055-.57-.36-1.262-.438-1.92-.435-3.397-.013-6.794-.023-10.191-.012zm55.408.01c-2.626.004-5.251.008-7.876-.017a9.865 9.865 0 0 0-1.125 1.833c1.371.045 2.742.036 4.114.027 1.652-.011 3.305-.021 4.956.062a72.9 72.9 0 0 0-.358.747c-1.413.002-2.826.001-4.239.001a2200.75 2200.75 0 0 0-3.634 0c-.687.012-1.504.102-1.916.728a98.415 98.415 0 0 0-1.153 1.779l-.116.182c-.189.259-.16.575-.132.88.007.079.015.158.018.234 1.547.401 3.131.372 4.716.343.874-.016 1.749-.031 2.618.025.318-.009.711.24.628.601-.196.524-.503 1.002-.836 1.449l-.079.091c-.14.165-.29.342-.516.36-.53.081-1.065.056-1.599.032a36.413 36.413 0 0 0-.462-.019c.122-.539.337-1.049.576-1.545-1.44-.048-2.88-.041-4.319-.034-.576.003-1.151.005-1.727.005-.361-.04-.536.26-.697.536-.042.071-.082.14-.124.202-.129.229-.274.448-.42.667-.206.31-.413.62-.568.959.006.219.116.411.224.6.042.072.083.144.118.217-.23.408-.345.866-.373 1.332.422 0 .844.002 1.267.004 1.09.005 2.18.01 3.27-.019.715-.052 1.084-.746 1.388-1.318l.048-.089c1.469-.025 2.939-.024 4.409-.024 1.05.001 2.099.001 3.149-.008.168-.004.339-.001.51.002.608.009 1.227.019 1.779-.262.507-.229.873-.67 1.145-1.144l.251-.418c.355-.586.709-1.172 1.034-1.774.189-.341.157-.734.126-1.111l-.013-.163c-.688-.432-1.466-.752-2.286-.783a58.548 58.548 0 0 0-2.873-.038c-1.022.003-2.044.006-3.065-.048.16-.68.851-1.024 1.506-1.025 1.432-.025 2.865-.022 4.298-.019.938.001 1.876.003 2.814-.003h.006c.482-.02 1.035-.043 1.376-.435.246-.269.435-.58.624-.89.202-.332.404-.664.675-.946.394-.019.791-.026 1.188-.019.396-.541.771-1.101 1.051-1.713-3.126-.044-6.251-.039-9.376-.034zm-78.481.024-4.417.006c-.464.46-.802 1.019-1.138 1.575l-.075.125c.62-.003 1.24.004 1.86.029-.551 1.141-1.181 2.24-1.812 3.338-.506.884-1.013 1.768-1.48 2.673-.288.54-.503 1.229-.182 1.802.364.568 1.08.776 1.724.784 2.729.015 5.459.015 8.188.005.418.003.836.044 1.253.095a4.854 4.854 0 0 1-.333 1.496c.715-.001 1.43-.003 2.144-.006 1.649-.005 3.297-.011 4.946.003.105-.259.228-.511.352-.763.21-.429.419-.858.538-1.32-.017-.481-.566-.713-.984-.718-1.766-.04-3.532-.037-5.299-.034-1.364.002-2.729.004-4.093-.013a2.674 2.674 0 0 0-.092-.007c-.233-.015-.486-.032-.652-.207-.242-.545.021-1.143.307-1.617a554.626 554.626 0 0 0 3.188-5.559 70.821 70.821 0 0 1 3.126-.004c-.403.815-.886 1.583-1.37 2.351-.31.494-.62.987-.91 1.493-.047.078-.094.157-.14.237-.164.28-.33.562-.577.773-.223.154-.486.203-.748.251-.17.032-.34.063-.5.123-.254.201-.386.499-.517.792-.044.099-.088.198-.136.292 1.574.022 3.148.022 4.722.021.787 0 1.574 0 2.361.003 1.419.113 2.49-1.027 3.107-2.173.28-.462.567-.919.852-1.377.574-.918 1.147-1.836 1.676-2.782.166-.004.333-.006.5-.008.492-.006.985-.011 1.476-.073a7.317 7.317 0 0 0 .801-1.589c-5.889-.036-11.777-.026-17.666-.017zm41.648.017c-1.07-.006-2.14-.012-3.208.062-.288.48-.56.97-.792 1.48.44.023.877.053 1.316.089-.416.849-.934 1.64-1.452 2.429l-.196.3c-.79.089-1.584.098-2.375.108l-.176.002c-.292.466-.562.945-.777 1.453.713-.019 1.427-.015 2.136.081-.103.554-.4 1.02-.698 1.486-.151.236-.302.471-.427.719-.195.372-.418.728-.641 1.085-.3.479-.6.959-.832 1.476 2.332.023 4.663.028 6.995.005.505-.507.86-1.131 1.19-1.76.86-1.543 1.779-3.054 2.703-4.561.24-.384.465-.778.69-1.171.311-.546.623-1.092.977-1.612.49-.113.993-.113 1.495-.114.154 0 .309 0 .463-.004.34-.486.672-.977.97-1.49-1.233-.074-2.469-.068-3.704-.062-.657.003-1.314.006-1.97-.002-.563.008-1.125.005-1.687.001zm15.684-.002c-1.378-.003-2.756-.006-4.133.033-.298.499-.59 1.004-.864 1.517.472.025.944.059 1.415.102-.17.228-.342.455-.514.682-.281.371-.562.742-.835 1.118-.294.38-.63.813-1.142.876-.786.123-1.582.126-2.377.128a36.46 36.46 0 0 0-.936.011c-.298.461-.574.941-.765 1.458l.178-.006c.418-.015.847-.031 1.228.175-.191.498-.478.943-.766 1.389-.193.298-.385.596-.549.91-.275.542-.322 1.257.037 1.773.3.315.76.343 1.175.368l.092.006c.771.005 1.543.004 2.314.003.838-.002 1.677-.003 2.515.005.398-.01.797-.003 1.196.004.719.013 1.438.026 2.15-.062.24-.291.384-.639.527-.986.047-.113.094-.226.143-.336-.426-.03-.853-.029-1.28-.029-.62.001-1.237.001-1.851-.089-.027-.324.043-.645.246-.904.51-.731 1.026-1.458 1.546-2.183.796.039 1.627-.212 2.178-.809.527-.593.967-1.251 1.407-1.91.31-.463.619-.925.958-1.365.333-.356.791-.332 1.25-.308.276.015.552.029.801-.039.346-.302.593-.689.84-1.075.086-.135.172-.27.262-.401-1.049-.065-2.1-.06-3.151-.056-.44.002-.878.004-1.317.001-.66.003-1.319.001-1.978-.001zm66.468 1.404-.028.054c.077.105.155.211.237.317.543-.159 1.105-.15 1.665-.14.208.003.416.007.623.002h.213c.514-.002 1.059-.004 1.481.326-.052.751-.795 1.442-1.568 1.434-1.186.063-2.374.046-3.561.029-1.091-.016-2.182-.032-3.272.015-.693.047-1.121.681-1.424 1.232-.074.143-.156.284-.238.426-.252.433-.507.871-.535 1.381-.037.427.126.898.502 1.137.779.481 1.722.598 2.622.59h11.544c.553 0 1.157.01 1.59.412-.163.452-.403.864-.643 1.277-.165.285-.33.57-.471.868 1.522.036 3.045.032 4.568.029.645-.001 1.29-.003 1.936-.001.339.058.521-.228.683-.481.028-.045.056-.089.084-.13 1.522-2.502 3.046-5.004 4.573-7.502l.032-.048c.283-.429.623-.943 1.187-.97.765-.057 1.532-.03 2.298-.003l.423.014c.025.733-.362 1.324-.747 1.91-.144.22-.287.439-.409.665a106.932 106.932 0 0 1-1.823 3.144c-.662 1.114-1.324 2.228-1.943 3.366 1.061.044 2.121.039 3.183.035.574-.003 1.148-.005 1.723 0 .146 0 .293.002.44.004.534.009 1.07.017 1.6-.083 1.701-2.826 3.419-5.642 5.136-8.459l.002-.004c.354-.586 1.008-.611 1.643-.636.256-.01.509-.02.739-.067.26-.519.566-1.013.872-1.507l-.337-.018c-.28-.016-.558-.031-.837-.04l-4.11-.001c-9.591-.001-19.182-.003-28.773.01-.371.42-.626.918-.88 1.413zm11.179 1.126c.17-.291.34-.581.526-.858.65-.063 1.303-.044 1.956-.02.095.514-.159.952-.408 1.381a8.627 8.627 0 0 0-.18.321l-.4.695c-.357.624-.715 1.247-1.083 1.862-.348.591-1.093.725-1.723.734-1.311.007-2.623.006-3.934.005-1.105-.001-2.209-.002-3.314.002-.429.018-.886-.14-1.143-.494-.308-.53.118-1.314.742-1.305 1.282-.054 2.566-.043 3.849-.032.734.006 1.467.013 2.201.007.625-.011 1.292-.164 1.739-.634.483-.487.828-1.076 1.172-1.664zM22.436 168.643c-.354-.006-.71-.012-1.052.082-.325.209-.592.489-.858.769a2723.002 2723.002 0 0 1-4.427 4.559l-2.772 2.853c-.162.171-.328.339-.493.507-.474.481-.95.962-1.334 1.52 1.907.049 3.814.04 5.722.032a955.26 955.26 0 0 1 1.693-.005c.582.032.953-.367 1.323-.766.377-.405.753-.809 1.35-.759.969-.022 1.94-.008 2.91.006l.655.009c-.14.496-.296.99-.465 1.479 2.03.049 4.06.043 6.09.037l1.828-.004c.047-.002.098-.002.15-.002.243 0 .511 0 .561-.294.46-1.303.897-2.615 1.334-3.927.27-.814.541-1.627.818-2.439.147-.461.309-.917.47-1.373.261-.737.522-1.473.723-2.228a20.297 20.297 0 0 0-2.048-.047c-2.29.007-4.58.002-6.868-.002-1.649-.003-3.297-.006-4.945-.005-.121.002-.243 0-.365-.002zm3.955 6.157a13.85 13.85 0 0 1-2.647-.007c1.045-1.054 2.12-2.077 3.195-3.1.367-.349.735-.699 1.1-1.049-.243.799-.575 1.565-.907 2.33a27.84 27.84 0 0 0-.74 1.826zm24.557-6.061c-3.156-.04-6.312-.023-9.467-.003a112.75 112.75 0 0 1-1.884 2.969c-.518.798-1.036 1.596-1.538 2.405-.353.573-.72 1.139-1.087 1.704-.667 1.027-1.334 2.055-1.92 3.13 1.649.023 3.299.021 4.949.02 1.477-.002 2.955-.003 4.433.013a633.83 633.83 0 0 0 6.514-10.238zm12.502-.022c-3.094-.001-6.187-.002-9.28.019a197.823 197.823 0 0 1-2.752 4.328c-1.258 1.94-2.515 3.879-3.678 5.877l.93.007c2.797.021 5.596.043 8.39-.014.394-.543.733-1.122 1.072-1.7.372-.634.743-1.267 1.186-1.856.12.167.239.335.357.502.695.978 1.391 1.957 2.168 2.872.151.215.42.215.658.214h.028c.936-.003 1.872-.001 2.808.002 1.974.005 3.947.01 5.92-.045-.613-.8-1.34-1.495-2.067-2.189a72.64 72.64 0 0 1-.618-.596c.082-.014.164-.026.247-.039.59-.093 1.196-.187 1.694-.538.75-.477 1.201-1.236 1.647-1.986.133-.223.265-.446.405-.66.123-.212.26-.421.397-.631.434-.664.874-1.339.921-2.146-.043-1.015-1.196-1.486-2.08-1.434a1453.5 1453.5 0 0 1-8.353.013zm-2.44 3.741c.124-.23.248-.46.369-.692.247.016.506-.002.767-.02.615-.042 1.24-.085 1.744.313.17.605-.344 1.126-.746 1.508-.645.423-1.42.385-2.174.347a11.128 11.128 0 0 0-.701-.02c.23-.488.485-.962.74-1.436zm25.156-3.817c-.37-.02-.794.037-.963.416a344.579 344.579 0 0 1-2.272 3.508c-1.377 2.11-2.755 4.219-4.05 6.38 2.808.04 5.615.023 8.422.007l.97-.006c.451-.587.837-1.218 1.223-1.849.253-.415.507-.829.779-1.231.457-.728.915-1.454 1.374-2.18 1.048-1.66 2.096-3.32 3.123-4.993-1.719-.054-3.437-.049-5.155-.044-1.15.003-2.3.006-3.45-.008zm11.367.508-.062.092c-.704 1.172-1.424 2.334-2.143 3.496-.754 1.217-1.507 2.433-2.242 3.661-.17.296-.352.584-.534.872-.35.552-.7 1.104-.954 1.709l1.285-.004c2.142-.005 4.285-.011 6.428.016l.468-.693c.798-1.181 1.596-2.362 2.336-3.58l.815 1.245a329.71 329.71 0 0 1 1.957 3.011c1.136.007 2.272.004 3.409 0 1.516-.004 3.032-.009 4.548.01 1.112-1.78 2.254-3.541 3.396-5.302 1.076-1.659 2.153-3.318 3.204-4.994-1.488-.048-2.976-.043-4.464-.039-.974.003-1.947.006-2.92-.005-.073.009-.154.009-.236.009-.231.001-.476.002-.608.2-.35.521-.674 1.059-.998 1.597-.436.722-.871 1.445-1.367 2.127-.557-.811-1.063-1.655-1.569-2.498a97.938 97.938 0 0 0-.708-1.168c-.12-.237-.389-.245-.633-.253a2.759 2.759 0 0 1-.192-.01c-.868.001-1.735-.001-2.603-.002-1.639-.003-3.278-.006-4.915.011-.343-.041-.531.242-.698.492zm27.616-.5c-.766-.015-1.532-.031-2.295.056-1.285 1.925-2.53 3.876-3.775 5.826l-.967 1.513c-.205.34-.423.673-.64 1.006-.4.614-.8 1.227-1.126 1.884 6.359.05 12.719.04 19.078.031h.001c1.824.04 3.584-1.054 4.408-2.673a1587.922 1587.922 0 0 1 3.168-5.269c.195-.319.392-.641.456-1.013.064-.436-.278-.824-.67-.96-.852-.333-1.78-.363-2.685-.393a21.383 21.383 0 0 1-.257-.008c-2.214-.005-4.428-.001-6.642.003-2.213.003-4.427.007-6.64.002-.471.015-.942.005-1.414-.005zm4.124 5.15a79.58 79.58 0 0 1 1.121-1.996c.668-.072 1.366-.108 1.999.168.191.622-.118 1.178-.414 1.71-.065.117-.129.233-.188.348-.063.124-.124.25-.186.377-.356.727-.722 1.477-1.419 1.932-.59.43-1.332.394-2.035.359a17.55 17.55 0 0 0-.385-.017c.242-.62.57-1.199.898-1.777.159-.28.318-.561.467-.846l.142-.258zm18.133-4.5-.082.127c-.928 1.531-1.908 3.028-2.888 4.525-1.079 1.647-2.157 3.294-3.166 4.986 2.411.042 4.822.034 7.234.025.716-.003 1.431-.005 2.147-.006.204-.263.403-.529.58-.811.532-.857 1.08-1.704 1.627-2.551.698-1.08 1.396-2.159 2.06-3.259.218-.341.442-.679.666-1.016.566-.855 1.133-1.71 1.596-2.627-1.865-.053-3.729-.049-5.594-.044-1.095.003-2.19.006-3.285-.003-.442-.057-.685.325-.895.654zm16.202-.655c-.339-.011-.69.064-.941.303a931.001 931.001 0 0 1-4.943 4.995c-.955.96-1.91 1.92-2.862 2.882-.22.241-.457.469-.694.696-.466.446-.931.893-1.271 1.445l1.5.005c2.168.007 4.338.014 6.505-.013.241-.18.448-.404.655-.628.307-.333.614-.666 1.035-.853 1.088-.07 2.181-.05 3.272-.029l.825.015a29.518 29.518 0 0 1-.538 1.521c1.755-.007 3.51 0 5.265.007 1.105.005 2.211.009 3.316.01.328-.99.662-1.979.995-2.968.821-2.436 1.643-4.873 2.394-7.331-.858-.063-1.717-.059-2.577-.055a76.47 76.47 0 0 1-1.071 0h-4.076c-2.263 0-4.526 0-6.789-.002zm1.897 6.165-.248-.008.763-.749c1.179-1.161 2.359-2.322 3.618-3.398l-.756 1.764c-.342.797-.684 1.595-1.024 2.394-.786.047-1.57.022-2.353-.003z" fill="#C5012D"/><path d="M161.253 30.411c2.529-1.584 5.027-3.243 7.699-4.58-2.591 2.145-5.412 3.993-8.054 6.074-7.318 5.313-14.399 10.938-21.581 16.43a94.907 94.907 0 0 1-18.939 10.993c-.679.356-1.405.009-2.066-.197 3.349-2.695 7.137-4.779 10.581-7.344 1.107-.85 2.338-1.517 3.491-2.303 4.449-2.945 8.705-6.183 13.252-8.984 2.208-1.383 4.075-3.245 6.327-4.568 1.596-1.004 3.051-2.216 4.679-3.17.925-.54 1.703-1.36 2.753-1.67.633-.177 1.285-.338 1.858-.68zm11.296 11.724c1.981-.6 3.939-1.27 5.885-1.968-.543.726-1.468.9-2.252 1.244-4.496 1.82-8.937 3.77-13.43 5.596-3.579 1.491-7.182 2.93-10.717 4.526a100.414 100.414 0 0 1-22.39 8.542c-2.992.707-5.991 1.457-9.056 1.762-.099-.46-.194-.918-.292-1.376 7.856-4.26 16.184-7.732 24.882-9.858 4.567-1.11 9.044-2.546 13.527-3.946 4.635-1.443 9.234-3 13.843-4.521zm-17.661 16.418c5.952-.266 11.888-.796 17.833-1.17l1.028-.058c-.353.608-.699 1.223-1.181 1.739l.058-.578c-2.44.175-4.827.75-7.239 1.122-4.983.897-9.993 1.628-14.964 2.588-9.628 1.95-19.523 2.803-29.333 2.021l.126-1.364c1.769-.71 3.655-1.034 5.506-1.45 7.279-1.546 14.713-2.346 22.152-2.501 2.009-.062 4.008-.257 6.014-.35zm-33.67 6.691c9.737-.18 19.521.558 29.036 2.688 4.604.844 9.174 1.938 13.836 2.426.415.037.828.06 1.25.083-.392.623-.777 1.252-1.199 1.855-.515-.488-1.29-.199-1.921-.3-6.747-.563-13.527-.55-20.277-1.039-4.729-.423-9.434-1.168-14.038-2.331-2.37-.606-4.776-1.154-7.005-2.184.105-.4.211-.8.318-1.198zm-.598 2.436c6.39 1.096 12.527 3.25 18.642 5.347 3.092 1.083 6.037 2.528 8.993 3.934 3.261 1.622 6.619 3.04 10.011 4.367-.318.6-.682 1.174-1.091 1.716-.132-.043-.394-.134-.526-.178-2.146-.793-4.393-1.26-6.588-1.898-2.973-.852-5.991-1.548-8.962-2.404-7.328-2.24-14.291-5.565-20.816-9.554.112-.445.223-.889.337-1.33zm-1.947 3.286c.235-.374.474-.747.71-1.121 6.537 2.912 12.69 6.624 18.524 10.748 1.656 1.163 3.131 2.556 4.688 3.844 2.932 2.433 5.871 4.869 9.032 7.001a6.37 6.37 0 0 1-1.16 1.656c-4.397-2.613-8.814-5.204-13.365-7.55-6.873-3.836-13.04-8.865-18.429-14.578zM97 73.194c1.647-1.041 3.219-2.198 4.919-3.153.244.326.485.655.731.983-3.47 3.335-7.22 6.372-11.078 9.245-4.433 3.326-9.443 5.734-14.226 8.498-6.518 3.661-12.713 7.852-19.12 11.696-1.797 1.071-3.549 2.225-5.413 3.181 1.206-1.134 2.579-2.064 3.89-3.067 2.746-2.043 5.432-4.168 8.206-6.174 1.426-1.027 2.813-2.107 4.191-3.194 1.109-.89 2.392-1.556 3.398-2.57.666-.714 1.534-1.186 2.394-1.628 2.614-1.327 5.057-2.956 7.546-4.494 1.871-1.022 3.593-2.285 5.39-3.425 3.108-1.883 6.103-3.948 9.172-5.898zm19.755-.516c.2-.396.464-.752.717-1.113 2.651 1.788 4.841 4.129 7.13 6.338 3.046 3 5.98 6.127 8.545 9.552 2.703 3.694 5.296 7.469 8.096 11.09 2.317 3.114 4.896 6.021 7.288 9.079-.553 0-1.102.002-1.652.005-1.505-1.999-3.444-3.608-5.168-5.41-2.932-2.857-5.667-5.919-8.807-8.553-5.734-5.1-10.498-11.207-14.411-17.78-.585-1.062-1.443-2.012-1.738-3.208zm-13.622-.527c.57-.516 1.199.101 1.616.492-.707 1.388-1.679 2.611-2.523 3.914a94.018 94.018 0 0 1-6.667 8.84c-1.368 1.57-2.69 3.192-4.26 4.57-3.313 3.174-6.514 6.46-9.88 9.576-3.365 3.58-6.889 7.008-10.27 10.57-1.527 1.552-2.745 3.398-4.47 4.751 2.846-3.907 5.928-7.635 8.846-11.489 2.821-3.81 5.848-7.464 8.571-11.347 2.262-3.046 4.414-6.192 7.035-8.949 3.542-4.11 7.787-7.535 12.002-10.928zm2.855.943c.461.114.923.225 1.389.338-2.055 8.477-5.759 16.487-10.264 23.934-2.65 4.42-5.07 8.97-7.559 13.482-1.617 3.005-3.28 5.984-4.848 9.014-.647 1.298-1.243 2.625-2.094 3.809 1.595-4.447 3.479-8.786 5.18-13.195 2.632-6.562 5.167-13.163 7.718-19.757 1.631-4.469 4.127-8.558 6.702-12.539 1.22-1.72 2.324-3.545 3.776-5.086zm8.167.389c.489-.104.981-.208 1.475-.31 1.944 2.96 3.923 5.907 5.597 9.03 2.299 4.228 4.222 8.655 5.804 13.197a171.542 171.542 0 0 0 4.219 11.396c.174.437.353.874.522 1.319-.851-.074-1.724.011-2.556-.213-.578-1.867-1.789-3.442-2.617-5.193-1.266-2.639-3.119-4.924-4.583-7.445-2.886-5.07-5.033-10.533-6.615-16.138-.511-1.86-1.04-3.721-1.246-5.643zm-9.835 14.46c.951-4.739 2.403-9.367 4.212-13.847.534-.023 1.065-.049 1.601-.072.014 4.09-.158 8.18-.575 12.252-.404 3.663-.868 7.346-1.916 10.894-1.383 4.989-2.598 10.029-3.551 15.117-.655.305-1.332.564-2.021.786l.088-.506c.304-1.645.29-3.324.441-4.982.487-6.553.322-13.186 1.721-19.642zm6.898-13.891 1.856.03c.455 1.934 1.035 3.832 1.54 5.752 1.097 4.337 2.021 8.727 2.51 13.177.652 5.385.257 10.832.997 16.209.3-.007.597-.014.898-.023-1.016.421-2.118.502-3.201.576-.032-.305-.067-.606-.097-.909-.181-1.816-.719-3.569-1.104-5.345-.559-2.558-1.603-4.978-2.183-7.531-1.73-7.173-1.587-14.618-1.216-21.936z" fill="#F19817"/><path fill-rule="evenodd" clip-rule="evenodd" d="M174.52 21.036c-.75.004-1.537.009-2.151.485a2874.407 2874.407 0 0 1-12.306 8.56c-.571.39-1.117.816-1.62 1.289l.16-.044c.567-.157 1.143-.316 1.654-.622.438-.275.875-.553 1.313-.83 2.027-1.288 4.059-2.578 6.205-3.655-1.417 1.176-2.905 2.262-4.393 3.347-1.168.853-2.337 1.705-3.471 2.601-5.009 3.647-9.905 7.444-14.8 11.241-2.089 1.62-4.178 3.24-6.275 4.848a92.636 92.636 0 0 1-18.494 10.766c-.566.298-1.164.095-1.729-.096a11.887 11.887 0 0 0-.289-.096 2208.986 2208.986 0 0 0-5.644 3.779 1282.02 1282.02 0 0 1-10.364 6.905l.331.447c.127.172.254.344.383.516-3.389 3.266-7.052 6.24-10.819 9.053-3.115 2.345-6.523 4.224-9.93 6.102-1.326.73-2.653 1.462-3.961 2.22-3.846 2.167-7.577 4.523-11.309 6.88-2.443 1.542-4.887 3.085-7.363 4.575-.515.308-1.027.623-1.539.938-1.23.758-2.461 1.516-3.747 2.177.86-.812 1.809-1.517 2.757-2.221.348-.26.697-.518 1.041-.783 1.095-.816 2.18-1.646 3.264-2.476 1.573-1.203 3.147-2.407 4.75-3.57 1.393-1.005 2.748-2.063 4.093-3.128.423-.34.872-.647 1.32-.954.7-.479 1.4-.958 1.998-1.562-.861.278-1.647.725-2.43 1.17l-.387.218a152.315 152.315 0 0 1-7.45 3.674c-.898.404-1.861.589-2.823.773-.377.073-.755.145-1.127.23-17.156 3.74-34.772 5.061-52.304 4.782-.858-.027-1.72.016-2.564.175 2.107.305 4.217.598 6.327.892 7.388 1.027 14.779 2.055 22.082 3.579 7.964 1.69 15.828 4.003 23.238 7.405 4.185 1.968 8.294 4.116 12.204 6.591 2.48 1.743 4.93 3.528 7.381 5.314.965.703 1.93 1.406 2.896 2.107 3.943 2.793 8.04 5.388 12.367 7.552 8.06 3.721 17.07 5.08 25.897 4.727a103.715 103.715 0 0 0 17.545-2.222c-4.636.138-9.277-.036-13.898-.408-5.255-.367-10.469-1.375-15.462-3.06-3.619-1.264-7.19-2.811-10.304-5.076-1.62-1.198-3.141-2.712-3.79-4.666-.53-1.93.456-3.971 1.935-5.203 2.727-2.331 6.15-3.631 9.523-4.716l.108-.406c.196-1.06.257-2.135.317-3.21.032-.557.063-1.114.114-1.669.14-1.888.225-3.784.309-5.68.204-4.546.408-9.094 1.371-13.555.929-4.641 2.347-9.174 4.114-13.561l.764-.034c.266-.012.532-.025.799-.036.013 4.004-.154 8.011-.562 11.998-.394 3.588-.847 7.194-1.871 10.669-1.35 4.885-2.537 9.821-3.468 14.804.917-.175 1.812-.432 2.708-.689.572-.163 1.145-.327 1.723-.47a55.037 55.037 0 0 1 6.96-1.305c-.009-.222-.027-.666-.034-.888-.123-1.247-.419-2.463-.714-3.679a64.912 64.912 0 0 1-.364-1.556c-.279-1.279-.681-2.524-1.083-3.768-.386-1.192-.771-2.384-1.048-3.607-1.69-7.024-1.55-14.315-1.187-21.482l.897.015.915.014c.279 1.189.605 2.364.932 3.54.194.697.388 1.394.572 2.094 1.071 4.247 1.973 8.546 2.451 12.904.305 2.53.375 5.074.446 7.618.076 2.758.152 5.516.528 8.256.292-.007.582-.014.876-.023 1.127-.103 2.251-.235 3.375-.367 1.632-.191 3.264-.382 4.904-.487.674-.129 1.358-.111 2.042-.093.715.019 1.431.038 2.133-.113-.283-.025-.568-.031-.853-.038-.553-.013-1.106-.025-1.643-.17-.352-1.14-.944-2.168-1.536-3.197-.357-.621-.715-1.243-1.019-1.888-.743-1.553-1.693-2.98-2.643-4.408-.631-.949-1.262-1.898-1.833-2.884-2.818-4.965-4.915-10.315-6.46-15.803l-.075-.275c-.475-1.73-.95-3.465-1.142-5.252.478-.102.959-.204 1.441-.304l.54.825c1.722 2.623 3.445 5.25 4.926 8.018 2.244 4.14 4.122 8.476 5.667 12.925a169.349 169.349 0 0 0 4.12 11.16c.133.299.269.596.406.895l.111.24c.878-.037 1.756-.077 2.635-.117 4.034-.184 8.072-.368 12.11-.203-.982-1.308-2.154-2.446-3.326-3.584-.581-.565-1.162-1.129-1.72-1.714a168.735 168.735 0 0 1-2.758-2.777c-1.888-1.93-3.775-3.86-5.843-5.599-5.599-4.995-10.252-10.974-14.073-17.412-.184-.336-.397-.661-.61-.987-.445-.68-.892-1.362-1.086-2.154.168-.334.382-.64.597-.944l.103-.146c2.107 1.425 3.916 3.21 5.722 4.99.413.407.825.814 1.24 1.216 2.975 2.938 5.84 6 8.345 9.355a447.086 447.086 0 0 1 2.713 3.773c1.702 2.384 3.404 4.768 5.192 7.088 1.314 1.77 2.715 3.473 4.115 5.176 1.011 1.229 2.023 2.459 3.002 3.715 2.988.143 5.978.242 8.97.294-.447-.194-.899-.381-1.35-.569-1.58-.654-3.164-1.311-4.573-2.291-1.805-1.126-3.371-2.975-3.473-5.183-.079-2.372 1.115-4.521 2.318-6.48-4.295-2.56-8.608-5.097-13.052-7.394-6.711-3.758-12.734-8.682-17.996-14.277.141-.226.284-.452.427-.678l.266-.42c6.383 2.852 12.392 6.487 18.089 10.526 1.114.784 2.144 1.675 3.173 2.566.466.403.932.805 1.405 1.198 2.863 2.383 5.733 4.768 8.82 6.857.852-1.262 1.675-2.542 2.499-3.822a180.978 180.978 0 0 1 2.874-4.376l-.234-.098a86.967 86.967 0 0 1-.235-.099c-1.374-.51-2.791-.882-4.208-1.254a85.712 85.712 0 0 1-2.225-.605c-1.429-.41-2.869-.784-4.309-1.158-1.485-.385-2.97-.77-4.443-1.196-7.156-2.195-13.955-5.45-20.327-9.357.109-.435.217-.87.328-1.302 5.992 1.03 11.755 3.015 17.49 4.99l.715.247c2.742.962 5.366 2.218 7.987 3.472l.795.38c3.184 1.588 6.464 2.977 9.776 4.277.926-1.534 1.902-3.036 2.877-4.538.821-1.265 1.643-2.53 2.435-3.814a1.63 1.63 0 0 0 .015-.702l-.301-.014a28.667 28.667 0 0 1-1.164-.072c-3.522-.294-7.052-.428-10.583-.561-3.075-.117-6.15-.233-9.219-.456-4.618-.414-9.212-1.144-13.708-2.283l-.782-.199c-2.059-.521-4.127-1.045-6.059-1.94.102-.391.207-.783.311-1.173 9.509-.176 19.063.546 28.354 2.632 1.31.241 2.617.503 3.924.765 3.18.636 6.361 1.273 9.588 1.612.272.002.546-.001.82-.005.206-.002.412-.004.618-.004l-.143-.098c1.151-1.898 2.365-3.758 3.578-5.618 1.154-1.768 2.307-3.536 3.405-5.336l.029-.283.028-.283c-1.583.114-3.143.4-4.703.687-.788.144-1.576.289-2.366.411-2.048.37-4.1.711-6.153 1.052-2.824.47-5.648.939-8.459 1.483-9.403 1.91-19.066 2.745-28.645 1.98l.122-1.337c1.391-.559 2.854-.874 4.314-1.188.355-.076.71-.152 1.064-.232 7.108-1.513 14.367-2.297 21.631-2.449a88.907 88.907 0 0 0 3.316-.185c.852-.059 1.704-.117 2.558-.157 3.661-.164 7.315-.43 10.97-.697 2.148-.156 4.295-.313 6.444-.449.204-.019.407-.041.612-.065l.419-.046c7.06-10.99 14.138-21.969 21.221-32.945l.088-.133c.617-.935 1.235-1.87 1.704-2.89-4.07-.057-8.14-.038-12.209-.02-2.798.013-5.596.026-8.394.014-.124.003-.25.004-.377.004zm-6.367 22.192c1.045-.348 2.09-.696 3.135-1.042a120.82 120.82 0 0 0 5.747-1.928c-.401.538-1.016.767-1.623.992-.195.072-.39.145-.577.227-2.236.908-4.458 1.849-6.681 2.79-2.14.906-4.281 1.812-6.433 2.69-.886.37-1.772.736-2.659 1.103-2.614 1.08-5.229 2.162-7.806 3.329a97.904 97.904 0 0 1-21.865 8.365l-.702.167c-2.689.64-5.388 1.284-8.141 1.559-.063-.29-.123-.578-.184-.866l-.102-.482c7.672-4.172 15.804-7.572 24.298-9.654 4.016-.979 7.96-2.217 11.903-3.454l1.307-.41c3.475-1.085 6.929-2.236 10.383-3.386zM91.781 82.283c3.459-4.026 7.604-7.38 11.72-10.703.543-.492 1.139.07 1.546.452l.032.03c-.466.918-1.05 1.762-1.634 2.606-.281.406-.562.813-.83 1.227a92.022 92.022 0 0 1-6.51 8.657l-.658.763c-1.11 1.292-2.222 2.585-3.503 3.713A387.336 387.336 0 0 0 88.09 92.8c-1.912 1.89-3.824 3.777-5.793 5.606-1.74 1.857-3.525 3.672-5.308 5.487-1.584 1.612-3.168 3.223-4.722 4.864-.56.571-1.078 1.183-1.595 1.795-.86 1.016-1.718 2.031-2.77 2.858 1.637-2.253 3.354-4.446 5.071-6.639a330.622 330.622 0 0 0 3.569-4.612 254.964 254.964 0 0 1 3.405-4.474c1.69-2.186 3.38-4.373 4.964-6.639.43-.58.855-1.164 1.28-1.748 1.763-2.419 3.528-4.84 5.59-7.015zm11.723-6.108c.864-1.273 1.731-2.55 2.785-3.67l.893.217.464.113c-2.007 8.302-5.624 16.146-10.023 23.44-1.997 3.337-3.859 6.751-5.721 10.165a969.901 969.901 0 0 1-1.661 3.037c-.52.969-1.044 1.934-1.569 2.9a314.984 314.984 0 0 0-3.165 5.928c-.107.213-.211.428-.316.642-.519 1.061-1.038 2.123-1.73 3.088.952-2.66 2.009-5.281 3.065-7.902.674-1.67 1.347-3.34 1.993-5.02 2.202-5.502 4.333-11.033 6.464-16.563l1.075-2.786c1.592-4.376 4.029-8.38 6.543-12.279.306-.432.604-.871.903-1.31z" fill="#C5012D"/></svg>