<svg width="200" height="200" fill="none" xmlns="http://www.w3.org/2000/svg"><path d="M182.671 73.81c-4.234 4.209-13.408 7.821-17.921 9.513-6.167 2.316-8.903 3.136-12.353 4.259-3.905 1.267-11.717 3.63-11.717 3.63 16.183 4.833 27.587 6.29 27.587 6.29s5.313-1.643 13.73-6.144c4.558-2.316 6.801-3.876 8.405-5.367.591-.534 2.119-2.125 2.499-4.16.024-.148.098-.537.098-.92 0 0 0-.27-.025-.504-.009-.27-.056-.45-.056-.45s-.091-.483-.21-.822c-.124-.338-.645-1.383-1.489-2.062-.564-.458-1.538-1.6-5.068-2.84-1.2-.417-3.143-.801-3.143-.801l-.337.378z" fill="url(#a)"/><path d="M192.997 80.805s-.025-.45-.135-.832a3.217 3.217 0 0 0-.466-1.007 8.667 8.667 0 0 0-1.198-1.41c-.415-.392-.87-.738-1.419-1.105-2.207-1.447-5.057-2.262-7.579-2.606-3.908-.52-8.391-.428-8.815-.443-1.442-.02-10.756.056-13.151.1-10.634.218-23.652.248-27.062.248-35.205.16-50.528-.598-67.583-4.017-14.508-2.882-22.558-5.62-22.558-5.62 12.797-.443 87.466-3.54 101.087-3.902 8.918-.251 15.25-.305 20.317-.012 2.598.145 5.016.366 8.052.882a38.696 38.696 0 0 1 6.636 1.791c3.033 1.123 5.59 2.747 6.854 4.41 0 0 .374.384.881 1.064.568.79 1.229 1.763 1.452 2.126 1.846 2.798 2.723 4.555 3.028 5.168.329.644.62 1.311.903 1.966.278.65.391 1.043.48 1.317.195.688.242 1.315.251 1.456l.025.425z" fill="#CE210F"/><path fill-rule="evenodd" clip-rule="evenodd" d="M15.576 118.999c0 .778-.333 1.688-1.076 2.071v.001h9.79c3.817 0 9.241-1.331 9.241-6.546 0-3.649-3.169-5.669-6.449-5.64 2.277-.432 4.389-2.359 4.389-4.802 0-4.605-3.926-6.266-7.95-6.266H14.5c.743.406 1.076 1.289 1.076 2.096V119zm4.749-19.086c.77-.093 1.06-.093 1.478-.093 2.736 0 4.873.935 4.873 4.14 0 3.231-2.673 4.092-5.438 4.092h-.913v-8.139zm2.053 10.234c2.912 0 5.695.792 5.695 4.312 0 3.566-2.354 4.607-4.669 4.607-.997 0-2.079-.065-3.08-.263v-8.595c.803-.061 1.395-.061 2.054-.061zm19.108-10.233c.324-.048.63-.094.968-.094 2.538 0 4.426 1.035 4.426 3.943 0 2.846-1.92 4.291-4.516 4.291-.272 0-.528-.021-.793-.043-.098-.008-.198-.017-.3-.024v-8.041l.215-.032zm12.324 21.294.272-.001c1.482 0 2.963-.174 4.384-.598-2.715-.017-4.78-3.005-6.793-5.92-1.916-2.774-3.786-5.481-6.127-5.495 3.374 0 6.4-1.89 6.4-5.578 0-4.394-4.54-5.8-8.168-5.8h-8.339c.727.407 1.075 1.29 1.075 2.097V119c0 .813-.347 1.688-1.075 2.071h6.926c-.743-.351-1.093-1.293-1.093-2.071v-8.886c2.54.029 3.766 2.275 4.893 4.343.206.377.409.748.615 1.099l.056.091c.897 1.457 3.006 4.885 4.543 5.342.758.226 1.622.223 2.43.22zm6.175-2.209c0 1.044-.599 1.806-1.17 2.071h7.096c-.609-.265-1.164-1.027-1.164-2.071V99.913c0-1.06.555-1.809 1.164-2.096h-7.097c.572.287 1.172 1.037 1.172 2.096V119zm14.233 2.07-.003.001v-.001h.003zm1.129-2.07c0 .812-.37 1.718-1.13 2.07h7.039c-.746-.351-1.146-1.258-1.146-2.071v-18.573c1.362 0 2.88.046 4.126.084.504.015.964.029 1.35.038 1.105 0 3.021-1.297 3.665-3.047-1.33.286-2.73.315-4.1.315H68.248l-1.584 3.418c1.01-.604 2.412-.75 3.587-.75h5.097v18.516zm15.91 0c0 1.044-.595 1.806-1.162 2.071h7.098c-.604-.265-1.182-1.027-1.182-2.071V99.913c0-1.06.578-1.809 1.182-2.096h-7.098c.567.287 1.162 1.037 1.162 2.096V119zm15.48-7.871c2.254 1.437 4.274 2.725 4.274 4.681 0 2.525-1.712 3.535-4.009 3.534-3.025 0-5.446-2.104-6.616-4.792a19.363 19.363 0 0 0-.222 2.837c0 .796.052 1.61.165 2.388 1.876 1.293 4.901 1.724 7.124 1.724 4.251 0 8.462-2.013 8.462-6.873 0-3.663-3.148-5.658-6-7.465-2.362-1.497-4.521-2.865-4.521-4.946 0-1.929 1.753-2.764 3.427-2.764 2.117 0 4.397 1.39 5.307 3.31l-.258-4.347c-1.481-.687-3.826-.914-5.446-.914-3.631 0-7.759 1.433-7.759 5.81 0 3.946 3.223 6.001 6.072 7.817zm27.476 7.871c0 1.044-.536 1.843-1.037 2.071H140c-.511-.265-1.017-1.027-1.017-2.071V99.913c0-1.06.506-1.839 1.017-2.096h-6.824c.503.256 1.037 1.037 1.037 2.096v7.818c-1.234.115-2.959.2-4.893.2-1.995 0-3.702-.065-4.968-.2v-7.818c0-1.06.522-1.839 1.03-2.096h-6.833c.506.256 1.046 1.037 1.046 2.096V119c0 1.044-.54 1.843-1.046 2.071h6.833c-.508-.265-1.03-1.027-1.03-2.071v-8.652c1.266-.14 3.004-.201 4.968-.201 1.934 0 3.659.061 4.893.201v8.652zM25.459 151.587l-.002.001v-.001h.002zm.046-.048-.046.048h6.352c-.547-.307-1.197-.909-1.502-1.734l-7.466-20.552h-5.759c.467.247.814.744.814 1.269a.682.682 0 0 1-.046.274l-7.34 19.028c-.282.688-.853 1.38-1.512 1.716h4.467c-.24-.117-.524-.278-.524-.609 0-.145.09-.372.348-1.031l.005-.014s1.954-4.954 2.14-5.452c1.313-.139 2.66-.17 3.985-.17 1.397 0 2.824 0 4.192.17.214.58 2.036 5.56 2.036 5.56.162.415.212.638.212.77 0 .365-.164.532-.356.727zm-9.21-9.319 3.365-8.676 3.138 8.676c-1.131.137-2.281.137-3.445.137-1.015 0-2.056-.026-3.059-.137zm17.773 7.383c0 1.001-.57 1.731-1.12 1.985h6.824c-.581-.254-1.121-.984-1.121-1.985v-18.292c0-1.015.54-1.733 1.121-2.009h-6.825c.551.276 1.12.994 1.12 2.009v18.292zm15.169-18.29c.31-.046.605-.091.91-.091 2.445 0 4.268.992 4.27 3.779 0 2.728-1.844 4.112-4.347 4.112-.253 0-.494-.02-.744-.041a21.036 21.036 0 0 0-.284-.023v-7.706l.195-.03zm12.394 20.407.263-.001c1.434 0 2.86-.166 4.237-.573-2.396 0-4.317-2.711-6.248-5.435-1.898-2.678-3.804-5.368-6.178-5.505 2.408 0 5.59-1.811 5.59-5.346 0-4.212-4.361-5.558-7.843-5.558h-8.04c.715.389 1.048 1.235 1.048 2.009v18.292c0 .78-.333 1.617-1.049 1.985h6.66c-.708-.336-1.03-1.239-1.03-1.985v-8.516c2.768 0 4.42 2.815 5.685 4.97l.144.245.07.114c.873 1.41 2.881 4.658 4.354 5.093.746.217 1.563.214 2.337.211zm21.204-.132 6.744-20.11c.276-.83.857-1.753 1.66-2.176h-4.344c.274.216.392.389.392.662 0 .174-.038.292-.105.501l-.067.212-4.365 13.127-5.764-14.502-5.233 15.043-4.915-13.337-.02-.062c-.077-.229-.17-.507-.17-.714 0-.469.19-.714.467-.93h-6.56c.824.445 1.378 1.268 1.702 2.126l7.547 20.16h2.09l4.389-12.476 3.048 7.732c.378.994 1.426 3.688 2.093 4.333.31.218.855.411 1.41.411zm11.441-9.368 3.364-8.676 3.141 8.676c-1.125.137-2.288.137-3.44.137-1.012 0-2.05-.026-3.065-.137zm9.156 9.367-.001.001v-.001h.001zm.004-.004-.004.004h6.367c-.542-.307-1.201-.909-1.51-1.734l-7.463-20.552h-5.764c.479.247.827.744.827 1.269 0 .107-.02.195-.042.274l-7.366 19.028c-.276.688-.846 1.38-1.506 1.716h4.468c-.238-.117-.51-.278-.51-.609 0-.146.078-.375.357-1.045 0 0 1.94-4.954 2.13-5.452 1.32-.139 2.668-.17 3.981-.17 1.397 0 2.821 0 4.202.17.22.58 2.03 5.56 2.03 5.56.134.415.201.638.201.77 0 .392-.171.555-.398.771zm14.79-10.684 5.257-9.257c.503-.876 1.272-1.895 2.196-2.34h-4.711c.324.216.461.425.461.745 0 .249-.276.752-.68 1.464 0 0-3.347 5.845-3.702 6.505l-4.228-6.729c-1.316-2.07-2.381-2.268-4.532-2.268-1.289 0-3.209.367-3.841.609 2.323 0 4.228 3.202 4.638 3.89l4.569 7.352v8.733c0 .685-.308 1.617-.976 1.985h6.54c-.702-.336-.991-1.277-.991-1.985v-8.704zm13.447 1.161c2.17 1.377 4.113 2.611 4.113 4.486 0 2.42-1.649 3.388-3.87 3.387-2.91 0-5.248-2.016-6.372-4.593a17.927 17.927 0 0 0-.224 2.719c0 .763.056 1.543.174 2.288 1.807 1.24 4.724 1.653 6.862 1.653 4.12 0 8.144-1.929 8.144-6.587 0-3.511-3.029-5.422-5.773-7.155-2.273-1.434-4.351-2.746-4.351-4.74 0-1.849 1.677-2.649 3.29-2.649 2.038 0 4.222 1.333 5.108 3.173l-.249-4.166c-1.432-.659-3.674-.876-5.239-.876-3.494 0-7.456 1.373-7.456 5.568 0 3.782 3.102 5.751 5.843 7.492z" fill="#2E5C99"/><defs><linearGradient id="a" x1="177.277" y1="68.699" x2="158.377" y2="101.433" gradientUnits="userSpaceOnUse"><stop stop-color="#E6EBEF"/><stop offset=".076" stop-color="#BBCEE5"/><stop offset=".185" stop-color="#85A9D8"/><stop offset=".28" stop-color="#5D8FCF"/><stop offset=".354" stop-color="#457EC9"/><stop offset=".4" stop-color="#3C78C7"/><stop offset=".9" stop-color="#2E5C99"/></linearGradient></defs></svg>