<svg width="200" height="200" fill="none" xmlns="http://www.w3.org/2000/svg"><path fill-rule="evenodd" clip-rule="evenodd" d="m87.955 155.737 2.094-.466 2.69-.291 3.44.291c1.046.058 1.792.466 2.24.931.3.407.599.873.749 1.57v1.862l-.897 5.528c-.3.64-.3 1.163-.3 1.454l.3 1.222h-4.784l-.299-.64v-.873a7.637 7.637 0 0 1-2.242 1.339c-.748.29-1.645.465-2.99.465-1.645 0-2.691-.349-3.438-1.047-.748-.698-1.046-1.454-.748-2.502.299-.989.448-1.745 1.196-2.327.748-.699 2.093-1.164 3.587-1.455l3.887-.814 1.794-.466c.299-.698.299-1.047 0-1.28-.298-.291-.747-.349-1.196-.349-.746 0-1.494.058-2.092.349-.15.233-.748.582-.897 1.106l-4.784-.524c.3-.756.748-1.338 1.196-1.803l1.494-1.28zm-5.68 4.247-1.495 7.854h-4.932l1.195-7.156c.3-.582.3-.989 0-1.28-.299-.465-.448-.64-1.195-.64-.598 0-1.047.175-1.496.64-.298.408-.598 1.105-.748 1.978l-1.344 6.458h-4.933l1.195-6.865c.3-.582.3-.989 0-1.163 0-.292 0-.582-.15-.757l-1.045-.291a2.13 2.13 0 0 0-1.496.64c-.448.408-.748 1.105-1.046 2.036l-1.196 6.4h-4.933l2.392-12.567h4.783l-.448 1.804c.747-.756 1.645-1.338 2.392-1.629.747-.291 1.494-.466 2.541-.466s1.794.175 2.242.582c.748.291 1.046.873 1.196 1.513 1.046-.756 1.794-1.338 2.541-1.629.748-.291 1.496-.466 2.542-.466 1.196 0 2.242.349 2.99 1.222.747.815.747 2.036.449 3.782zm11.511 1.978-2.242.582c-1.047.291-1.794.465-2.093.756l-.45.872c-.298.408 0 .699.3.99.15.175.449.291.897.291.748 0 1.346-.117 1.794-.407.448-.291 1.046-.582 1.196-.874.299-.406.299-.872.598-1.57v-.64zm6.876 5.876 2.242-12.567h4.785l-.449 2.095a7.187 7.187 0 0 1 2.392-1.804c.748-.407 1.794-.582 2.84-.582 1.196 0 2.243.349 2.99 1.222.747.815.747 2.036.449 3.724l-1.496 7.912h-4.933l1.196-6.865c.3-.757 0-1.339-.298-1.745-.15-.291-.449-.466-.898-.466-.747 0-1.345.175-1.793.64-.449.524-.748 1.28-1.048 2.444l-.896 5.992h-5.083zm76.838 13.159c-.154.227-.35.437-.598.629-.748.583-1.495.874-2.691.874-1.196 0-1.944-.291-2.69-.757-.748-.523-1.346-1.104-1.496-1.978l1.944-.464c.298.464.448.755 1.046 1.045.15.293.748.409 1.495.409.15 0 .748-.116.897-.293.299-.174.299-.464.299-.871 0-.465-.448-.874-1.495-1.28l-.448-.175c-.748-.29-1.496-.699-1.794-1.047-.448-.523-.748-.99-.748-1.571 0-.874.3-1.571 1.046-2.152.748-.467 1.496-.757 2.393-.757.747 0 1.494.174 2.242.697.214.135.415.27.598.407v7.284zm0-5.793-1.046.314c0-.465-.3-.758-.449-.99-.299-.29-.747-.348-1.345-.348-.449 0-.748.058-.897.29l-.3.758c0 .464.449.871 1.496 1.28l.747.29c.748.291 1.196.581 1.794 1.048v-2.642zm-7.325-.85h-4.485l-.448 2.212h4.036l-.299 1.57h-4.036l-.448 2.445h4.932l-.149 1.745h-7.025l1.793-9.543h6.427l-.298 1.571zm-8.222-1.571-1.495 9.543h-1.644l-2.99-6.982-1.346 6.982h-1.495l1.495-9.543h2.094l2.989 6.343.897-6.343h1.495zm-13.603 7.798-.3 1.745h-6.278l1.495-9.543h2.242l-1.494 7.798h4.335zm.448 1.745 1.794-9.543h2.243l-1.795 9.543h-2.242zm-7.175-6.808c0 .699-.299 1.164-.599 1.629-.448.522-.896.815-1.494.989l1.046 4.19h-1.944l-1.046-3.899h-1.943l-.748 3.899h-1.793l1.495-9.543h3.737c1.046 0 1.794.233 2.541.7.449.464.747 1.161.747 2.035h.001zm-2.541-.99c-.3-.174-.748-.29-1.197-.29h-1.495l-.597 2.734h1.793c.449 0 1.046-.116 1.196-.406.3-.293.598-.583.598-1.048 0-.407 0-.697-.298-.99zm-6.279-1.745-1.645 9.543h-2.242l1.644-9.543h2.243zm-7.474 1.861-1.646 3.783h2.244l-.598-3.783zm1.494-1.861 1.495 9.543h-1.943l-.3-2.328h-2.989l-1.196 2.328h-1.494l4.185-9.543h2.242zm-15.845 5.353-.748 4.19h-2.093l1.495-9.543h2.092l-.597 3.725h3.288l.448-3.725h2.243l-1.644 9.543h-2.093l.598-4.19h-2.989zm-4.485-4.83c.747.467.896.932 1.196 1.631l-1.794.581c-.15-.465-.449-.758-.748-.99-.149-.29-.748-.348-1.196-.348l-1.047.29-.148.758c0 .464.448.871 1.494 1.28l.748.29c.747.291 1.495.581 1.643 1.048.3.465.599.987.599 1.571 0 .871-.299 1.628-1.047 2.209-.747.583-1.494.874-2.69.874-1.047 0-2.093-.291-2.841-.757-.747-.523-.896-1.104-1.196-1.978l1.794-.464c.15.464.448.755.898 1.045.298.293.746.409 1.494.409.299 0 .747-.116 1.047-.293.299-.174.448-.464.448-.871 0-.465-.448-.874-1.644-1.28l-.599-.175c-.746-.29-1.494-.699-1.644-1.047-.298-.523-.598-.99-.598-1.571 0-.874.3-1.571.748-2.152.748-.467 1.494-.757 2.541-.757.748 0 1.794.174 2.542.697zm-7.027 1.048h-4.484l-.45 2.212h3.888l-.149 1.57h-4.037l-.298 2.445h4.783l-.3 1.745h-6.875l1.644-9.543h6.578l-.3 1.571zm-8.52 2.735c0 .873-.15 1.744-.449 2.502-.3.755-.747 1.338-1.495 1.861-.299.291-.747.583-1.195.641l-1.496.233h-4.035l1.494-9.543h2.99l1.195.116 1.047.291c.748.293 1.196.757 1.495 1.454.299.7.449 1.455.449 2.445zm-4.187-2.561h-1.045l-1.196 6.053h1.495c.746 0 1.494-.293 1.942-.874.598-.697.748-1.57.748-2.618 0-.872-.15-1.455-.448-1.978-.3-.351-.748-.583-1.496-.583zm-13.005 7.215 4.335-8.96h2.243l1.494 9.543h-2.092l-.15-2.328h-3.289l-1.045 2.328h-7.624l1.643-9.543h2.094l-1.346 7.798h4.037l-.3 1.162zm5.083-7.099-1.794 3.783h2.242l-.448-3.783zM34.14 150.5h10.464c1.794 0 2.99.407 3.737 1.28.748.873 1.346 1.804 1.047 3.084-.3 1.047-.748 1.92-1.495 2.618-.748.465-1.495.873-2.243 1.164 1.196.291 1.944.756 2.542 1.57.448.64.747 1.63.448 2.677-.299.873-.448 1.745-1.196 2.443-.598.698-1.345 1.28-2.093 1.746-.448.291-1.195.465-2.242.582l-2.392.174H31l3.14-17.338zm19.434 0h5.082l-.598 3.316h-4.933l.448-3.316zm-14.351 3.491-.599 3.316h2.541c.748 0 1.495-.116 1.794-.406.449-.292.748-.757.748-1.281.15-.465 0-.873-.3-1.164-.298-.29-1.046-.465-1.793-.465h-2.392zm-1.795 10.181h2.691c1.046 0 1.794-.174 2.242-.581.3-.291.599-.698.748-1.28.299-.465 0-.931-.15-1.222-.299-.291-1.046-.524-2.092-.524h-2.99l-.449 3.607zm15.398-8.901h5.083l-2.542 12.567h-4.933l2.392-12.567zm13.005 18.096c.748.522 1.047 1.277 1.197 2.151l-1.645.407c-.3-.523-.598-.872-.747-1.165-.3-.29-.748-.522-1.345-.522l-.748.29-.748.816c-.15.348-.448.873-.448 1.454l-.299 1.745c0 .641.3 1.222.598 1.629.15.467.448.699 1.196.699.449 0 1.046-.232 1.195-.583.3-.29.599-.871.599-1.571h-1.794l.299-1.454h3.737l-.748 5.063h-1.046l-.299-1.106c-.15.406-.449.697-.897.873-.597.291-1.046.407-1.495.407-1.046 0-1.794-.407-2.541-1.164-.747-.755-1.046-1.745-1.046-3.025l.597-2.386c.15-.814.449-1.455 1.196-2.036l1.196-.873c.598-.291 1.047-.407 1.794-.407.747 0 1.495.29 2.242.757v.001zm-7.474-.584-1.794 9.543h-1.495l-3.139-6.982-1.345 6.982h-1.495l1.793-9.543h1.944l2.84 6.343.897-6.343h1.794zm-12.707 1.861-1.793 3.783h2.242l-.449-3.783zm-5.232-1.278c.449.407.747.988.747 1.745 0 .581-.298 1.106-.448 1.455-.598.406-1.046.697-1.494.813.448.174.747.467.896.874.3.348.598.873.598 1.338 0 .871-.299 1.571-.747 2.035-.747.467-1.495.7-2.84.7h-4.486l1.496-9.543h3.737c1.345 0 2.093.233 2.541.583zm-1.195 2.036c0-.349-.3-.641-.599-.758-.15-.174-.448-.29-.897-.29h-1.793l-.3 2.328h1.794c.45 0 1.047-.116 1.197-.409.298-.174.598-.465.598-.871zm-2.243 2.618h-1.495l-.598 2.735h2.093c.448 0 .897-.116 1.196-.409.299-.29.448-.581.448-1.046 0-.408-.15-.699-.448-.873-.299-.291-.449-.407-1.196-.407zm3.438 4.305 4.485-9.542h2.242l1.495 9.543h-1.944l-.298-2.328h-2.99l-1.196 2.328-1.794-.001z" fill="#3D7357"/><path fill-rule="evenodd" clip-rule="evenodd" d="M40.692 31.243c5.903-6.203 13.118-10.76 20.66-14.178C69.552 13.645 77.75 12 86.605 12c8.525 0 16.724 1.646 24.923 5.065 7.871 3.417 14.757 7.975 20.988 14.178 5.903 5.825 10.167 12.787 13.446 20.636 3.278 7.976 4.918 16.457 4.918 25.32 0 8.607-1.64 17.091-4.918 25.317-3.279 7.851-7.543 14.56-13.446 20.637-6.231 6.204-13.117 10.764-20.988 13.924-8.199 3.422-16.398 5.066-24.923 5.066-8.854 0-17.053-1.644-25.251-5.066-7.543-3.16-14.758-7.72-20.66-13.924-6.232-6.077-10.495-12.786-13.774-20.637C23.64 94.29 22 85.806 22 77.199c0-8.863 1.64-17.344 4.92-25.32 3.278-7.85 7.541-14.811 13.772-20.635zm60.997 43.802 6.558 6.332c1.641 1.77 4.592 1.77 7.215 0l14.758-9.876-3.936-3.544h20.989L116.118 90.24c-3.935 2.149-6.559 2.402-8.854.506-2.624-1.901-3.936-3.039-3.936-2.786-1.968-2.785-4.92-3.165-8.526-1.269L75.453 101H41.021l32.793-24.688-47.88.254 6.56-6.33h60.668c3.28-.38 5.903 1.266 8.527 4.81z" fill="#E1241A"/><path fill-rule="evenodd" clip-rule="evenodd" d="m101.691 75.046 6.559 6.333c1.641 1.77 4.592 1.77 7.214 0l14.758-9.877-3.935-3.544h20.988l-31.154 22.284c-3.935 2.148-6.559 2.4-8.854.505-2.624-1.9-3.936-3.038-3.936-2.785-1.968-2.786-4.92-3.166-8.527-1.27L75.456 101H41.024l32.793-24.688-47.88.255 6.56-6.332h60.668c3.28-.379 5.902 1.267 8.526 4.811z" fill="#fff"/></svg>