<svg id="Layer_1" data-name="Layer 1" xmlns="http://www.w3.org/2000/svg" viewBox="0 0 100 100"><defs><style>.cls-1{fill:#fff;}.cls-2{fill:#e1241a;}</style></defs><rect class="cls-1" width="100" height="100"/><path class="cls-2" d="M18,17.24A46.87,46.87,0,0,1,32.81,7.07a46.43,46.43,0,0,1,36,0,47.88,47.88,0,0,1,15,10.17,44.53,44.53,0,0,1,9.64,14.8A47.27,47.27,0,0,1,97,50.21a48.53,48.53,0,0,1-3.53,18.15,46.25,46.25,0,0,1-9.64,14.81,44.63,44.63,0,0,1-15,10,46.37,46.37,0,0,1-36,0A43.59,43.59,0,0,1,18,83.17,43,43,0,0,1,8.12,68.36,48.89,48.89,0,0,1,4.59,50.2,47.42,47.42,0,0,1,8.12,32,41.36,41.36,0,0,1,18,17.24ZM61.73,48.65l4.7,4.54c1.17,1.26,3.28,1.26,5.17,0L82.18,46.1l-2.81-2.54h15l-22.34,16c-2.81,1.54-4.7,1.73-6.34.37-1.89-1.36-2.82-2.19-2.82-2-1.41-2-3.53-2.27-6.11-.91L42.93,67.26H18.24l23.51-17.7-34.33.19,4.7-4.55H55.63c2.34-.27,4.22.91,6.1,3.45Z"/><path class="cls-1" d="M62.16,48.11l4.09,4c1,1.11,2.87,1.11,4.51,0L80,45.89l-2.45-2.22H90.64L71.17,57.6c-2.45,1.34-4.1,1.5-5.53.32C64,56.73,63.19,56,63.19,56.18c-1.23-1.74-3.07-2-5.33-.8L45.77,64.33H24.26L44.75,48.9l-29.91.17,4.09-4H56.84c2-.23,3.69.8,5.32,3Z"/></svg>