<svg width="200" height="200" fill="none" xmlns="http://www.w3.org/2000/svg"><g clip-path="url(#a)"><path d="m83.018 155.386-.19.947h-2.012l-.152.795h1.974l-.19.871h-1.974l-.342 1.78h-1.366l.949-4.393h3.303zM84.992 155.386l-.949 4.393h-1.215l.95-4.393h1.214zM88.864 156.598l-2.012 3.56c-.19.341-.38.568-.57.72-.19.113-.417.189-.683.189-.304 0-.608-.038-.912-.114l.114-.833c.114.038.266.076.38.076.228 0 .418-.152.57-.417l-.608-3.181h1.215l.152 2.196 1.063-2.196h1.29zM95.05 155.386l-.19.947h-2.013l-.152.795h1.974l-.19.871h-1.974l-.341 1.78h-1.367l.949-4.393h3.303zM95.17 157.469c.076-.303.228-.531.493-.682.266-.152.684-.227 1.215-.227.608 0 1.063.075 1.253.227.228.151.342.379.342.682 0 .189-.038.53-.152.984-.114.417-.152.72-.152.909 0 .152.038.303.076.455h-1.177c-.038-.114-.038-.227-.038-.379a1.502 1.502 0 0 1-1.063.455c-.418 0-.683-.076-.873-.266a.884.884 0 0 1-.266-.643c0-.266.076-.493.228-.644.152-.152.342-.265.57-.303.227-.038.53-.114.949-.152.341-.038.607-.076.72-.113.039-.076.039-.152.039-.228a.209.209 0 0 0-.114-.189.714.714 0 0 0-.645 0c-.076.038-.152.151-.228.265l-1.177-.151zm1.974.871c-.57.075-.873.189-.987.265-.114.076-.152.151-.152.265 0 .114.038.189.114.227.076.076.152.076.266.076.152 0 .303-.076.455-.189.152-.114.266-.341.304-.644zM102.342 157.356l-1.139.113c-.038-.189-.19-.303-.417-.303a.759.759 0 0 0-.342.076.208.208 0 0 0-.114.189c0 .076.038.152.114.19.076.037.228.075.531.151.456.076.798.19.95.303a.77.77 0 0 1 .227.568c0 .341-.151.606-.455.834-.304.227-.759.34-1.405.34-.493 0-.873-.075-1.1-.227-.229-.151-.38-.379-.419-.719l1.215-.114c.038.265.228.379.494.379a.759.759 0 0 0 .342-.076c.114-.076.151-.152.151-.265 0-.114-.037-.152-.113-.19a2.098 2.098 0 0 0-.418-.113c-.456-.076-.797-.19-.95-.341-.151-.152-.265-.341-.265-.568 0-.19.076-.379.19-.531.114-.189.304-.302.57-.416.265-.114.569-.152.949-.152.417 0 .759.076.987.19.227.151.341.379.417.682zM105.264 156.598l-.19.871h-.646l-.227 1.137c0 .037-.038.113-.038.151 0 .152.075.227.265.227.076 0 .19 0 .38-.038l-.152.834c-.38.038-.645.075-.797.075-.342 0-.57-.075-.722-.227a.749.749 0 0 1-.227-.53c0-.076.038-.227.076-.492l.227-1.099h-.455l.19-.871h.455l.114-.492 1.367-.682-.266 1.174h.646v-.038zM107.201 157.696l-.19.947h-1.784l.189-.947h1.785zM111.682 155.386l-.19.947h-2.012l-.152.795h1.974l-.19.871h-1.974l-.342 1.78h-1.366l.949-4.393h3.303zM113.618 155.386l-.949 4.393h-1.177l.949-4.393h1.177zM117.528 156.598l-2.012 3.56c-.19.341-.38.568-.57.72-.19.113-.417.189-.683.189-.304 0-.608-.038-.911-.114l.113-.833c.114.038.266.076.38.076.228 0 .418-.152.57-.417l-.608-3.181h1.215l.152 2.196 1.063-2.196h1.291zM123.753 156.598l-1.253.076c-.038-.379-.227-.568-.645-.568-.152 0-.304.038-.38.113a.344.344 0 0 0-.114.265c0 .076.038.152.114.19.076.076.228.151.494.227.342.114.607.265.797.379.19.113.38.265.494.454.114.19.19.417.19.682 0 .265-.076.492-.228.72a1.384 1.384 0 0 1-.608.53c-.265.151-.645.227-1.139.227-.683 0-1.177-.151-1.48-.416a1.296 1.296 0 0 1-.456-1.023v-.114l1.291-.075c0 .265.076.454.19.568.114.113.303.151.493.151.228 0 .38-.038.494-.151a.345.345 0 0 0 .152-.303.406.406 0 0 0-.114-.265c-.076-.076-.266-.152-.532-.266-.645-.227-1.063-.454-1.215-.643a1.117 1.117 0 0 1-.265-.72c0-.265.076-.492.227-.682.152-.189.342-.379.608-.492.266-.114.607-.19.949-.19 1.215.038 1.86.455 1.936 1.326zM124.248 157.469c.076-.303.228-.531.494-.682.265-.152.683-.227 1.214-.227.608 0 1.063.075 1.253.227.228.151.342.379.342.682 0 .189-.038.53-.152.984-.114.417-.152.72-.152.909 0 .152.038.303.076.455h-1.177c-.038-.114-.038-.227-.038-.379a1.5 1.5 0 0 1-1.063.455c-.417 0-.683-.076-.873-.266a.883.883 0 0 1-.266-.643c0-.266.076-.493.228-.644.152-.152.342-.265.57-.303.227-.038.531-.114.949-.152.341-.038.607-.076.721-.113.038-.076.038-.152.038-.228a.209.209 0 0 0-.114-.189.716.716 0 0 0-.645 0c-.076.038-.152.151-.228.265l-1.177-.151zm1.974.871c-.569.075-.873.189-.987.265-.114.076-.152.151-.152.265 0 .114.038.189.114.227.076.076.152.076.266.076.152 0 .304-.076.455-.189.152-.114.228-.341.304-.644zM130.893 155.462l-.19.719c-.151-.037-.303-.075-.417-.075-.076 0-.152.038-.228.075-.038.038-.114.19-.152.455h.57l-.19.871h-.57l-.493 2.31h-1.215l.493-2.31h-.455l.19-.871h.455c.076-.379.114-.606.152-.72a.743.743 0 0 1 .532-.492 1.91 1.91 0 0 1 .493-.076c.266-.038.608 0 1.025.114zM133.853 158.946a1.945 1.945 0 0 1-.683.682c-.304.152-.645.19-1.063.19-.646 0-1.063-.152-1.329-.417s-.38-.644-.38-1.023c0-.265.076-.53.19-.795s.304-.455.494-.644c.228-.151.417-.265.607-.341.19-.076.456-.076.722-.076.607 0 1.025.114 1.291.379.265.265.379.568.379.947 0 .114-.038.341-.076.644h-2.43c.038.417.228.644.57.644.228 0 .418-.114.569-.303l1.139.113zm-1.025-1.06c0-.038.038-.114.038-.189a.484.484 0 0 0-.152-.379.61.61 0 0 0-.341-.114.571.571 0 0 0-.418.152 1.214 1.214 0 0 0-.304.492h1.177v.038z" fill="#414141"/><path d="M14.075 124.859h13.022s2.734-.796 4.025-4.129l3.34-12.309h-7.82l-3.227 11.893s-.494 1.553-1.86 1.401c0 0-1.71-.076-1.367-1.894l3.037-11.4h-7.48l-3.53 12.309s-.608 2.765 1.86 4.129z" fill="#C82323"/><path d="m44.712 150.462.76-3.105 1.367 3.105h9.15l-1.937-4.885c4.063-3.296 3.797-7.083 3.797-7.083.114-2.083-.57-2.992-1.215-3.371h-15.11l-4.063 15.339h7.252zm3-11.286h1.632c1.975.871-.303 2.916-.303 2.916h-2.05l.72-2.916zM71.859 150.463l1.328-4.432h-6.416l3.075-10.87H62.71l-4.139 15.302H71.86zM34.727 150.463l4.1-15.302h-6.796l-4.062 15.302h6.758zM90.654 150.463l1.48-5.416 1.444 5.416h7.289l4.138-15.302H97.64l-1.48 5.681-1.33-5.681h-6.644l-4.1 15.302h6.568zM121.94 144.024h9.415s-.417 3.333-2.505 3.484c0 0-1.405.265-1.291-1.628h-7.328s-.531 3.37 1.823 4.545h12.035s2.544-.872 3.531-3.485l1.101-4.242s.417-1.553-.722-1.591h-9.339s.076-2.802 2.392-3.03c0 0 1.442.076 1.328 1.629h7.1s.57-3.182-1.329-4.583h-12.377c-.721.341-2.771 1.515-3.72 4.204l-.874 3.826c.038 0-.076.909.76.871zM116.732 150.463l1.177-4.28h-6.264l.266-1.326h6.34l1.063-3.787h-6.302l.266-1.326h6.378l1.291-4.583h-13.554l-3.987 15.302h13.326zM81.314 150.463l4.138-15.302h-6.796l-4.062 15.302h6.72z" fill="#1E417D"/><path d="M35.674 117.965H45.81s-.418 3.599-2.658 3.75c0 0-1.518.265-1.405-1.742h-7.897s-.57 3.636 1.975 4.886h12.946s2.734-.947 3.797-3.75l1.215-4.545s.455-1.666-.76-1.704H43.001s.114-2.992 2.582-3.258c0 0 1.557.076 1.443 1.781h7.63s.646-3.409-1.442-4.962H39.926c-.797.379-2.961 1.629-3.986 4.507l-.95 4.091c-.076 0-.227.984.684.946zM113.093 124.859l1.633-5.833 1.518 5.833h7.821l4.442-16.438h-7.897l-1.594 6.098-1.405-6.098h-7.176l-4.404 16.438h7.062zM129.269 124.859h17.465v-4.583l.835-3.333h-9.112l-.987 3.636h1.139s-.418 1.099-1.557 1.137c0 0-1.746.037-1.404-2.197l1.708-6.439s.494-1.477 2.202-1.515c0 0 1.177 0 1.253 1.364l-.417 1.552h7.821l.455-1.552s.987-3.22-1.86-4.583h-12.985c-.797.265-2.392 1.136-3.493 3.674l-2.391 8.673c-.038.038-.57 2.689 1.328 4.166zM79.267 124.859c.684 0 1.443-.757 1.86-1.212 1.671-1.818 2.469-4.62 2.24-7.082 0 0 3.722-5.227.267-8.181H67.46l-4.366 16.438c-.038.037 16.173.037 16.173.037zm-5.125-12.423h1.784c2.127.909-.341 3.144-.341 3.144h-2.202l.759-3.144zm-1.367 5.189h1.823c2.202.947-.342 3.22-.342 3.22h-2.278l.797-3.22zM92.135 124.859l1.518-5.757h3.417l-1.48 5.757h7.707l3.227-12.31s.607-2.765-1.861-4.128H91.641s-2.544.871-3.797 4.204l-3.227 12.234h7.517zm3.15-11.893s.494-1.553 1.861-1.401c0 0 1.709.075 1.367 1.893l-.342 1.364h-3.379l.494-1.856zM63.05 115.276H56.67l-1.1 4.129h6.416l1.063-4.129z" fill="#C82323"/><path d="m14.948 150.463 1.405-5.341h3.189l-1.367 5.341h7.138l2.999-11.439s.57-2.575-1.709-3.863H14.53s-2.354.833-3.53 3.901l-3 11.401h6.948zm2.923-11.06s.456-1.477 1.747-1.288c0 0 1.594.076 1.29 1.781l-.341 1.249h-3.151l.455-1.742z" fill="#1E417D"/><path d="m163.775 124.859 1.405-4.735h-6.91l3.341-11.703h-7.707l-4.404 16.438h14.275zM174.252 124.859l1.518-5.757h3.417l-1.48 5.757h7.707l3.227-12.31s.607-2.765-1.86-4.128h-13.023s-2.544.871-3.796 4.204l-3.228 12.234h7.518zm3.113-11.893s.494-1.553 1.86-1.401c0 0 1.709.075 1.367 1.893l-.342 1.364h-3.379l.494-1.856z" fill="#C82323"/><path d="M107.507 54.411c1.215-11.476-71.756-.757-71.756-.757C96.155 31.573 191.83 40.132 191.83 40.132S96.117 83.651 15.477 101.112c0 0 17.616-5.264 46.736-19.316 0 0 43.358-20.415 45.294-27.384z" fill="url(#b)"/><path d="M15.898 100.429c87.285-39.428 83.526-44.844 83.526-44.844.342-6.438-64.239 0-64.239 0s32.234.341 31.057 10.075c0 0 2.847 8.105-50.344 34.769z" fill="url(#c)"/><path d="M107.317 54.903a2.62 2.62 0 0 0 .189-.492c1.215-11.476-71.756-.758-71.756-.758s62.796-7.499 71.567 1.25z" fill="url(#d)"/><path d="M15.477 101.112s97.953-8.56 176.391-60.98c0 0-95.75 43.52-176.391 60.98z" fill="url(#e)"/><path d="M15.477 101.111s.72-.227 2.126-.681l-2.126.681z" stroke="#231F20" stroke-miterlimit="10"/><path d="M15.898 100.429s75.44-29.164 83.07-43.784c-2.24 2.917-14.806 12.954-83.07 43.784z" fill="url(#f)"/><path d="M66.274 65.13c-.076-9.203-31.094-9.544-31.094-9.544s22.893 1.212 31.094 9.544z" fill="url(#g)"/><path d="M32.866 71.152c.76 3.712 7.48 5.454 14.959 3.901 7.48-1.553 12.947-5.832 12.15-9.544-.76-3.712-7.48-5.454-14.96-3.901-7.479 1.553-12.946 5.832-12.149 9.544z" fill="url(#h)"/><path d="M60.047 66.04c0-.039 0-.076-.038-.114.304 3.598-5.011 7.613-12.225 9.128-7.48 1.552-14.2-.19-14.959-3.901-.076-.266-.076-.569-.076-.834-.038.455-.038.947.076 1.402.873 4.242 7.707 6.4 15.187 4.848 7.555-1.591 12.946-6.288 12.035-10.53z" fill="#871919"/><path d="m116.928 66.72-1.367-1.06-1.594.72.569-1.629-1.177-1.288 1.747.038.873-1.515.494 1.667 1.708.379-1.443.984.19 1.705zM102.304 47.215l-1.366-1.06-1.595.719.57-1.629-1.14-1.287 1.709.038.873-1.516.494 1.667 1.708.34-1.443 1.023.19 1.705zM92.74 75.053l-1.404-1.023-1.595.682.57-1.629-1.14-1.287 1.747.038.836-1.478.531 1.63 1.67.378-1.404.985.19 1.704zM120.489 54.146l-1.215-1.174-1.594.53.721-1.515-.987-1.325 1.633.189.987-1.326.303 1.629 1.595.53-1.443.796v1.666zM127.478 45.398l-1.328-1.023-1.519.72.531-1.591-1.139-1.212h1.671l.835-1.44.494 1.591 1.632.341-1.366.947.189 1.666zM151.174 54.677l-1.329-.985-1.519.682.532-1.59-1.139-1.213h1.67l.836-1.44.493 1.592 1.633.34-1.367.947.19 1.667zM135.647 60.244l-1.177-1.174-1.595.53.722-1.515-.988-1.364 1.671.228.987-1.326.304 1.629 1.556.53-1.442.795-.038 1.667zM147.49 45.435l-1.177-1.174-1.594.53.721-1.515-.987-1.363 1.671.227.987-1.325.304 1.628 1.556.53-1.443.796-.038 1.666zM169.436 45.928l-1.215-1.137-1.595.493.722-1.477-.95-1.364 1.633.227.987-1.325.304 1.628 1.594.53-1.48.758v1.667z" fill="#fff"/></g><defs><linearGradient id="b" x1="21.548" y1="71.525" x2="191.374" y2="66.278" gradientUnits="userSpaceOnUse"><stop stop-color="#05508C"/><stop offset=".5" stop-color="#0095DB"/><stop offset="1" stop-color="#05508C"/></linearGradient><linearGradient id="c" x1="42.851" y1="75.816" x2="98.825" y2="68.675" gradientUnits="userSpaceOnUse"><stop offset=".005" stop-color="#009756"/><stop offset="1" stop-color="#008C4F"/></linearGradient><linearGradient id="d" x1="28.671" y1="51.124" x2="115.484" y2="52.217" gradientUnits="userSpaceOnUse"><stop stop-color="#141E4B"/><stop offset=".5" stop-color="#1E468C"/><stop offset="1" stop-color="#141E4B"/></linearGradient><linearGradient id="e" x1="21.868" y1="101.732" x2="179.715" y2="50.374" gradientUnits="userSpaceOnUse"><stop stop-color="#141E4B"/><stop offset=".5" stop-color="#1E468C"/><stop offset="1" stop-color="#141E4B"/></linearGradient><linearGradient id="f" x1="17.818" y1="100.743" x2="112.378" y2="52.111" gradientUnits="userSpaceOnUse"><stop offset=".005" stop-color="#008C41"/><stop offset="1" stop-color="#0A4B23"/></linearGradient><linearGradient id="g" x1="40.703" y1="54.506" x2="74.992" y2="68.924" gradientUnits="userSpaceOnUse"><stop offset=".005" stop-color="#008C41"/><stop offset="1" stop-color="#0A4B23"/></linearGradient><linearGradient id="h" x1="32.783" y1="68.317" x2="60.044" y2="68.317" gradientUnits="userSpaceOnUse"><stop offset=".005" stop-color="#F61423"/><stop offset="1" stop-color="#AC1E23"/></linearGradient><clipPath id="a"><path fill="#fff" d="M0 0h200v200H0z"/></clipPath></defs></svg>