<?xml version="1.0" encoding="utf-8"?>
<!-- Generator: Adobe Illustrator 19.2.1, SVG Export Plug-In . SVG Version: 6.00 Build 0)  -->
<svg version="1.1" id="layer" xmlns="http://www.w3.org/2000/svg" xmlns:xlink="http://www.w3.org/1999/xlink" x="0px" y="0px"
	 viewBox="0 0 652 652" style="enable-background:new 0 0 652 652;" xml:space="preserve">
<style type="text/css">
	.st0{fill:#0A468C;}
</style>
<path id="SVGID_1_" class="st0" d="M626.3,305.4c-0.2,0-3.4-0.2-3.4-0.2c-13.4-0.9-13.2-13.2-13.2-13.2c0.2-14.9-8.3-38.6-41.8-39.9
	h-57.7l-0.8,2.8H558c4.9,0.2,8.3,3.8,6.8,9.6l-8.7,31.6c-3.4,9.4-12,9-12,9c-8.8-0.8-6.4-9.2-6.4-9.2l3.9-14.5
	c1.3-4.9-2.3-7.3-5.3-7.3h-32.2l-0.8,2.8h13.7c5.1,0.2,6.2,3.9,5.3,7.3c0,0-1.7,6-3.8,13.5c-1.9,7.3-8.7,7.5-9.8,7.5h-13.4l-0.9,3.4
	h12.6c1.5,0,8.3,0.2,6.2,7.5c-2.1,7.5-3.8,13.5-3.8,13.5c-0.9,3.4-4.1,7.1-9.2,7.3h-13.7L486,340h32.2c3-0.2,7.9-2.4,9.4-7.3
	l3.9-14.5c0,0,2.1-8.5,11.5-9.2c0,0,9-0.6,7,9l-8.7,31.6c-1.7,5.8-7,9.4-12,9.6h-48.5l-0.8,3h57.9c34.2-1.3,55.7-25,63.8-39.9
	c0,0,6.4-12,20.3-13.2l3.4-0.2c0,0,0.2,0,0.4-0.2c0.2-0.6,0.8-2.8,0.8-3C626.5,305.4,626.5,305.4,626.3,305.4"/>
<path class="st0" d="M108.1,310.1c-1.9-2.3-5.3-5.1-11.8-5.1H42.1l-15.6,57h15.2L54,317.6h13.5l-12,44.4h15.2l12-44.4h5.8
	c2.4,0,4.1,0.6,5.1,1.9c1.3,1.7,0.9,4.5,0.6,5.8l-10,36.7h15.2l10.7-39.5C111.3,318,110.6,313.5,108.1,310.1z M171.1,310.6
	c-2.6-3.4-7.5-5.5-12.8-5.5h-32.9l-3.2,11.8H151c3,0,5.1,0.8,6.2,2.1c1.1,1.3,1.3,3.6,0.6,6.2l-0.8,2.3H133
	c-10.9,0-19.4,6.6-22.4,17.1c-1.5,5.3-0.9,9.8,1.5,12.8c2.3,3,6.4,4.5,11.7,4.5h39.1l10-36.5C174.5,319.3,174,314.2,171.1,310.6z
	 M151,350.1h-18.4c-1.7,0-4.3-0.2-5.3-1.5c-0.6-0.8-0.8-2.1-0.4-3.8c1.3-4.9,5.1-5.5,8.8-5.5H154L151,350.1z M259,310.6
	c-2.6-3.4-7.5-5.5-12.8-5.5h-32.7l-3.2,11.8H239c3,0,5.1,0.8,6.2,2.1c1.1,1.3,1.3,3.6,0.6,6.2l-0.6,2.3h-24.1
	c-10.9,0-19.4,6.6-22.4,17.1c-1.5,5.3-0.9,9.8,1.5,12.8c2.3,3,6.4,4.5,11.7,4.5h39.1l10-36.5C262.6,319.3,262,314.2,259,310.6z
	 M238.9,350.1h-18.4c-1.7,0-4.3-0.2-5.3-1.5c-0.6-0.8-0.8-2.1-0.4-3.8c1.3-4.9,5.1-5.5,8.8-5.5h18.2L238.9,350.1z M312.8,305.2
	l-12.2,44.4h-15c-2.4,0-4.1-0.6-5.1-1.9c-1.5-1.7-0.9-4.5-0.6-6l10-36.7h-15l-10.3,38c-1.7,5.8-1.1,10.5,1.5,13.7
	c3.4,4.1,9.4,5.1,13.7,5.1h17.5l-1.5,5.6c-0.9,3.4-4.9,7.1-10.5,7.1h-28l-3.2,11.8h32.5c9,0,21.4-7.9,24.5-19.2L328,305L312.8,305.2
	L312.8,305.2z M381,332.1c-2.3-3-6.4-4.5-11.7-4.5h-15.6c-1.9,0-4.5-0.2-5.5-1.5c-0.6-0.8-0.8-2.1-0.4-3.6c1.3-4.9,5.3-5.5,9-5.5
	h30.3l3.2-11.8h-36.3c-10.9,0-19.4,6.6-22.4,17.1c-1.5,5.3-0.9,9.6,1.5,12.8c2.3,3,6.4,4.5,11.7,4.5h15.6c1.9,0,4.3,0.2,5.5,1.5
	c0.6,0.8,0.8,2.1,0.4,3.8c-1.3,4.9-5.3,5.5-9,5.5h-33.3l-3.2,11.8h39.3c10.9,0,19.4-6.6,22.4-17.1
	C384.1,339.6,383.5,335.3,381,332.1z M400.4,305.2L385,362h15.2l15.4-56.8H400.4z M471.7,310.6c-2.6-3.4-7.5-5.5-12.8-5.5H426
	l-3.2,11.8h28.8c3,0,5.1,0.8,6.2,2.1c1.1,1.3,1.3,3.6,0.6,6.2l-0.6,2.3h-24.1c-10.9,0-19.4,6.6-22.4,17.1c-1.5,5.3-0.9,9.8,1.5,12.8
	c2.3,3,6.4,4.5,11.7,4.5h39.1l10-36.5C475.3,319.3,474.5,314.2,471.7,310.6z M451.6,350.1h-18.4c-1.7,0-4.3-0.2-5.3-1.5
	c-0.6-0.8-0.8-2.1-0.4-3.8c1.3-4.9,5.1-5.5,8.8-5.5h18.2L451.6,350.1z M191.5,289.8L171.7,362h15.2l19.7-72.2H191.5z M338.9,376.7
	c-1.3-1.7-3.8-1.9-4.5-1.9H318l-0.9,3.6h15c1.3,0,2.3,0.4,2.8,1.1c0.4,0.6,0.4,1.5,0.2,2.3c-0.2,0.8-0.9,3.2-0.9,3.2h-11.5
	c-5.5,0-9.2,2.8-10.5,7.9c-0.6,2.4,0,4.1,0.9,5.5c1.1,1.3,3,2.1,5.8,2.1h15.4l4.9-18.2C340.2,379.7,340,378,338.9,376.7z M331,396.8
	h-10c-1.9,0-3-0.4-3.6-1.1c-0.6-0.8-0.8-1.7-0.4-3c0.8-2.8,2.8-4.1,6.2-4.1h10.2L331,396.8z M343.4,400.4l6.8-25.6h-4.3l-7,25.6
	H343.4z M368.3,400.4l8.8-32.7h-4.3l-9,32.7H368.3z M377.1,400.4l6.8-25.6h-4.3l-7,25.6H377.1z M401.5,374.8h-13.4l-7,25.6h4.5l6-22
	h8.3c1.9,0,3,0.4,3.6,1.3c0.8,1.1,0.4,2.6,0,4.7l-4.3,16h4.5l4.7-17.1c0.8-2.8,0.4-4.9-0.6-6.2C406.6,375.5,404.6,374.8,401.5,374.8
	z M416.2,385.3c1.1-2.8,4.1-7,9.4-7h9l0.9-3.6h-10.5c-7.5,0-12.8,6.4-14.5,12.8c-1.1,4.1-0.8,7.7,0.9,10c1.3,1.9,3.6,2.6,6.4,2.6
	h10.5l0.9-3.6c0,0-7,0-9,0c-2.3,0-3.8-0.6-4.7-1.5c-1.1-1.3-1.1-3.6-0.6-5.8v-0.2h16l0.9-3.6h-15.8V385.3z M460.2,378.5l0.9-3.6
	h-14.1c-7.1,0-9.4,4.7-10.3,7.3c-0.6,2.1-0.2,3.8,0.6,4.7c0.9,1.3,2.6,2.1,5.5,2.1h7c4.1,0,3.6,3.2,3.2,4.1
	c-1.1,3.2-4.5,3.6-8.1,3.6h-12l-0.9,3.6h16.9c4.3,0,7.9-2.6,9-7.3c0.6-2.3,0-4.1-0.9-5.5c-0.9-1.1-2.6-2.1-5.6-2.1h-6
	c-0.6,0-2.6,0-3.2-0.9c-0.4-0.8-0.4-1.5-0.2-2.4c0.9-3.2,3.8-3.6,5.1-3.6C446.9,378.5,460.2,378.5,460.2,378.5z M361.9,374.8
	c-7.7,0-9.2,7.1-9.4,7.7c-0.2,0.6-4.9,18.1-4.9,18.1h4.5c0,0,4.5-16.9,4.7-17.5c0.2-0.8,1.5-4.7,5.8-4.7c3,0,3.8,0,3.8,0l0.9-3.8
	h-5.5V374.8z"/>
</svg>
