<?xml version="1.0" encoding="UTF-8"?>
<svg version="1.1" xmlns="http://www.w3.org/2000/svg" width="249" height="79">
<path d="M0 0 C3.85770014 0.55110002 5.34360647 2.26310969 8 5 C9.64605826 6.03357147 11.30963442 7.04060332 13 8 C14 9 14 9 14.4375 12.25 C14 16 14 16 11.6875 18.6875 C6.28030353 22.59771607 -0.56855543 24.49027123 -7 26 C-6.25234375 26.15855469 -5.5046875 26.31710938 -4.734375 26.48046875 C3.40994854 28.40994854 3.40994854 28.40994854 6.6875 31.6875 C7.120625 32.450625 7.55375 33.21375 8 34 C8.46148437 33.54109375 8.92296875 33.0821875 9.3984375 32.609375 C14.64423173 27.67459624 20.65953909 23.03807815 28.19140625 22.984375 C30.125 23.25 30.125 23.25 33 24 C33.493778 31.28322549 33.493778 31.28322549 31.0625 34.8125 C30.381875 35.534375 29.70125 36.25625 29 37 C28.67 37.99 28.34 38.98 28 40 C34.98294121 35.60011345 34.98294121 35.60011345 41 30 C39.68 29.67 38.36 29.34 37 29 C38.45094013 25.61447304 40.1216504 23.31867051 43 21 C44.546875 20.7525 44.546875 20.7525 46.125 20.5 C47.07375 20.335 48.0225 20.17 49 20 C49.69937532 18.68352881 50.36729133 17.34977849 51 16 C53.625 15.25 53.625 15.25 56 15 C56 16.32 56 17.64 56 19 C56.66 19.33 57.32 19.66 58 20 C57.42141121 23.9054743 55.73020952 26.19600103 53 29 C51.989375 29.2475 50.97875 29.495 49.9375 29.75 C46.87405914 30.67765089 46.87405914 30.67765089 45.94921875 33.1171875 C45.19961096 35.39798467 44.54815118 37.66314498 44 40 C50.36063397 37.4334284 53.52956955 34.63942787 57.45703125 29.0234375 C59 27 59 27 62 25 C64.6875 24.875 64.6875 24.875 67 25 C67.495 26.485 67.495 26.485 68 28 C66.6015625 29.9375 66.6015625 29.9375 64.625 32 C62.28526395 34.4609176 61.08782959 35.73651124 60 39 C63.55060608 38.39132467 66.83461241 37.75854866 70 36 C70.34274406 34.33524314 70.67364302 32.66804677 71 31 C72.7603293 28.14102546 74.86443413 25.58589172 77 23 C77.61359375 22.25105469 78.2271875 21.50210938 78.859375 20.73046875 C83.19691838 15.63819282 87.97718145 10.09250648 94 7 C96.76953125 7.3203125 96.76953125 7.3203125 99 8 C97.50465495 12.99071412 94.53374989 15.97456969 91 19.625 C89.91487379 20.76131141 88.83147358 21.89927417 87.75 23.0390625 C87.27046875 23.53615723 86.7909375 24.03325195 86.296875 24.54541016 C84.78025872 26.17829229 84.78025872 26.17829229 83 29 C85.97 27.02 88.94 25.04 92 23 C96 25 96 25 97 27.3125 C97 30 97 30 95.5 32.5625 C92.52447079 35.46364098 89.68049243 37.08897509 86 39 C87.75873951 39.78579435 87.75873951 39.78579435 90 40 C92.43716206 38.81891205 92.43716206 38.81891205 94.75 37.0625 C95.54921875 36.49660156 96.3484375 35.93070313 97.171875 35.34765625 C97.77515625 34.90292969 98.3784375 34.45820312 99 34 C99.33 35.32 99.66 36.64 100 38 C99.01 38.33 98.02 38.66 97 39 C97 39.66 97 40.32 97 41 C95.20703125 42.5078125 95.20703125 42.5078125 92.8125 44.125 C92.03519531 44.66382813 91.25789063 45.20265625 90.45703125 45.7578125 C87.66808102 47.16780642 86.08197399 47.43737585 83 47 C80.3125 44.5 80.3125 44.5 78 42 C77.34 42 76.68 42 76 42 C75.34 42.99 74.68 43.98 74 45 C72.68 45 71.36 45 70 45 C69.505 43.02 69.505 43.02 69 41 C68.13375 41.804375 67.2675 42.60875 66.375 43.4375 C63.30632364 45.95020441 61.10210812 47.26183669 57 47 C54.89601079 45.17764714 53.60903634 43.31890532 52 41 C51.154375 41.78375 50.30875 42.5675 49.4375 43.375 C46.12074083 46.16931023 43.20395906 47.07512901 39 48 C36.7522025 45.94766315 35.9977758 44.99332739 35 42 C34.48050781 42.37253906 33.96101563 42.74507812 33.42578125 43.12890625 C27.65866209 47.04116638 27.65866209 47.04116638 24 46.8125 C23.34 46.544375 22.68 46.27625 22 46 C21.67 44.35 21.34 42.7 21 41 C20.55269531 41.38414063 20.10539062 41.76828125 19.64453125 42.1640625 C17.80913829 43.62768076 16.08112949 44.90988455 14 46 C11.125 45.4375 11.125 45.4375 9 44 C8.67 43.34 8.34 42.68 8 42 C7.40832031 42.20496094 6.81664062 42.40992188 6.20703125 42.62109375 C5.41683594 42.89050781 4.62664063 43.15992188 3.8125 43.4375 C3.03519531 43.70433594 2.25789063 43.97117188 1.45703125 44.24609375 C-3.55921142 45.78525883 -8.00567751 46.02473225 -13.25 46.0625 C-19.88406108 46.31831004 -23.66533953 48.10788174 -28.36328125 52.796875 C-30.08529262 55.11480916 -31.06282555 57.27886402 -32 60 C-32.66 60 -33.32 60 -34 60 C-33.979375 58.865625 -33.95875 57.73125 -33.9375 56.5625 C-33.90373317 53.38279003 -34.250155 50.49972833 -34.8125 47.375 C-35.24398896 43.9170954 -34.95602717 42.21493612 -32.8125 39.4375 C-30 37 -30 37 -26 37 C-25.896875 36.401875 -25.79375 35.80375 -25.6875 35.1875 C-24.91123545 32.71756736 -23.92911079 31.67748765 -22 30 C-22.99 29.34 -23.98 28.68 -25 28 C-24.67 26.68 -24.34 25.36 -24 24 C-22.7625 23.79375 -21.525 23.5875 -20.25 23.375 C-16.91690316 22.57127452 -15.38034194 21.76364124 -13.5 18.875 C-13.005 17.92625 -12.51 16.9775 -12 16 C-12.680625 16.45375 -13.36125 16.9075 -14.0625 17.375 C-18.85702754 20.02729183 -23.51270689 21.33256322 -29 21 C-28.72926179 16.53281959 -26.84723187 13.79189328 -23.9296875 10.57421875 C-19.79585018 7.20187777 -14.5878857 6.48572624 -9.4609375 5.5234375 C-4.69019572 4.72783071 -4.69019572 4.72783071 -0.9375 1.875 C-0.628125 1.25625 -0.31875 0.6375 0 0 Z M1 12 C-0.98 14.97 -2.96 17.94 -5 21 C2.16953066 19.91633714 2.16953066 19.91633714 8 16 C8 15.01 8 14.02 8 13 C5.69 12.67 3.38 12.34 1 12 Z M-14.8125 34 C-15.55929064 35.3235428 -16.29406697 36.65422128 -17 38 C-10.5589964 39.64451156 -6.78217394 38.05498079 -1 35 C-1 34.01 -1 33.02 -1 32 C-9.10425551 28.71785015 -9.10425551 28.71785015 -14.8125 34 Z M20.02734375 31.85546875 C19.33769531 32.29503906 18.64804688 32.73460937 17.9375 33.1875 C17.24527344 33.61417969 16.55304688 34.04085937 15.83984375 34.48046875 C13.81305096 36.15440165 12.99526704 37.59176317 12 40 C16.1724106 39.48118887 18.25416821 38.28848726 21.3125 35.4375 C22.00988281 34.79683594 22.70726562 34.15617187 23.42578125 33.49609375 C23.94527344 33.00238281 24.46476562 32.50867187 25 32 C22.14356547 30.67698461 22.14356547 30.67698461 20.02734375 31.85546875 Z M81 35 C82.72476911 35.95502158 82.72476911 35.95502158 85 36 C87.77122275 33.64573501 87.77122275 33.64573501 90 31 C86.00095031 31 84.19799578 32.72586967 81 35 Z " fill="#C32F5D" transform="translate(50,12)"/>
<path d="M0 0 C3.85770014 0.55110002 5.34360647 2.26310969 8 5 C9.64605826 6.03357147 11.30963442 7.04060332 13 8 C14 9 14 9 14.4375 12.25 C14 16 14 16 11.6875 18.6875 C6.28030353 22.59771607 -0.56855543 24.49027123 -7 26 C-6.24074219 26.18175781 -5.48148438 26.36351563 -4.69921875 26.55078125 C-3.70535156 26.80214844 -2.71148437 27.05351563 -1.6875 27.3125 C-0.70136719 27.55613281 0.28476562 27.79976562 1.30078125 28.05078125 C4.05048714 29.01775452 5.34470422 29.62157159 7 32 C7 33.32 7 34.64 7 36 C8.65 36.33 10.3 36.66 12 37 C12 38.32 12 39.64 12 41 C12.99 41 13.98 41 15 41 C14.67 42.65 14.34 44.3 14 46 C9.125 44.25 9.125 44.25 8 42 C7.40832031 42.20496094 6.81664062 42.40992188 6.20703125 42.62109375 C5.41683594 42.89050781 4.62664063 43.15992188 3.8125 43.4375 C3.03519531 43.70433594 2.25789063 43.97117188 1.45703125 44.24609375 C-3.55921142 45.78525883 -8.00567751 46.02473225 -13.25 46.0625 C-19.88406108 46.31831004 -23.66533953 48.10788174 -28.36328125 52.796875 C-30.08529262 55.11480916 -31.06282555 57.27886402 -32 60 C-32.66 60 -33.32 60 -34 60 C-33.979375 58.865625 -33.95875 57.73125 -33.9375 56.5625 C-33.90373317 53.38279003 -34.250155 50.49972833 -34.8125 47.375 C-35.24398896 43.9170954 -34.95602717 42.21493612 -32.8125 39.4375 C-30 37 -30 37 -26 37 C-25.896875 36.401875 -25.79375 35.80375 -25.6875 35.1875 C-24.91123545 32.71756736 -23.92911079 31.67748765 -22 30 C-22.99 29.34 -23.98 28.68 -25 28 C-24.67 26.68 -24.34 25.36 -24 24 C-22.7625 23.79375 -21.525 23.5875 -20.25 23.375 C-16.91690316 22.57127452 -15.38034194 21.76364124 -13.5 18.875 C-13.005 17.92625 -12.51 16.9775 -12 16 C-12.680625 16.45375 -13.36125 16.9075 -14.0625 17.375 C-18.85702754 20.02729183 -23.51270689 21.33256322 -29 21 C-28.72926179 16.53281959 -26.84723187 13.79189328 -23.9296875 10.57421875 C-19.79585018 7.20187777 -14.5878857 6.48572624 -9.4609375 5.5234375 C-4.69019572 4.72783071 -4.69019572 4.72783071 -0.9375 1.875 C-0.628125 1.25625 -0.31875 0.6375 0 0 Z M1 12 C-0.98 14.97 -2.96 17.94 -5 21 C2.16953066 19.91633714 2.16953066 19.91633714 8 16 C8 15.01 8 14.02 8 13 C5.69 12.67 3.38 12.34 1 12 Z M-14.8125 34 C-15.55929064 35.3235428 -16.29406697 36.65422128 -17 38 C-10.5589964 39.64451156 -6.78217394 38.05498079 -1 35 C-1 34.01 -1 33.02 -1 32 C-9.10425551 28.71785015 -9.10425551 28.71785015 -14.8125 34 Z " fill="#BF315A" transform="translate(50,12)"/>
<path d="M0 0 C1.06480314 4.02258964 1.12574298 6.97948937 0 11 C-1.52054336 13.48907428 -3.20004724 15.69236826 -5 18 C-4.34 18.33 -3.68 18.66 -3 19 C1.90030251 16.54984874 6.02759112 12.84953979 10.18359375 9.3203125 C14.36487653 5.95560965 14.36487653 5.95560965 17.90625 6.203125 C18.5971875 6.46609375 19.288125 6.7290625 20 7 C19.40300869 10.33135891 18.27987719 12.21275667 16.0625 14.75 C15.53785156 15.36359375 15.01320312 15.9771875 14.47265625 16.609375 C13 18 13 18 11 18 C11.495 18.99 11.495 18.99 12 20 C15.1685371 20.35205968 16.59267675 20.28286337 19.25 18.4375 C21.27368335 16.02695861 21.27368335 16.02695861 21.4375 12.5625 C22.13742056 8.12966981 23.48259629 6.69940285 27 4 C28.32 4 29.64 4 31 4 C31 4.66 31 5.32 31 6 C32.093125 5.773125 33.18625 5.54625 34.3125 5.3125 C38 5 38 5 40 6.1875 C41 8 41 8 41 9.8125 C39.54648299 12.99206845 37.25609952 15.34908306 35 18 C34.505 19.485 34.505 19.485 34 21 C35.093125 20.360625 36.18625 19.72125 37.3125 19.0625 C39.5838291 17.73398675 41.47439892 16.84186703 44 16 C43.44315964 19.70953944 42.05164536 21.25975843 39.25 23.6875 C38.57453125 24.28949219 37.8990625 24.89148438 37.203125 25.51171875 C34.73967076 27.17586071 32.94489351 27.71138087 30 28 C28.125 27 28.125 27 27 25 C27.22410699 20.81666944 27.6614896 18.50776561 30 15 C28.68 15 27.36 15 26 15 C25.7525 15.556875 25.505 16.11375 25.25 16.6875 C22.4993177 21.77626226 19.18394099 25.35720656 14 28 C10.3125 28.125 10.3125 28.125 7 27 C5.0625 23.9375 5.0625 23.9375 4 21 C3.31164062 21.61488281 3.31164062 21.61488281 2.609375 22.2421875 C1.99578125 22.78101562 1.3821875 23.31984375 0.75 23.875 C0.14671875 24.40867187 -0.4565625 24.94234375 -1.078125 25.4921875 C-4.02042494 27.80057729 -5.90308711 29.12754801 -9.6875 28.6875 C-12 28 -12 28 -13 27 C-13.04092937 24.66702567 -13.04241723 22.33294775 -13 20 C-13.59167969 20.51691406 -14.18335938 21.03382812 -14.79296875 21.56640625 C-15.58316406 22.22511719 -16.37335938 22.88382813 -17.1875 23.5625 C-17.96480469 24.22378906 -18.74210938 24.88507812 -19.54296875 25.56640625 C-22 27 -22 27 -24.65625 26.8515625 C-28.00548483 25.63467385 -29.18209274 24.02984544 -31 21 C-31.6875 18.1875 -31.6875 18.1875 -31 15 C-25.55272688 6.6398346 -17.79455247 2.03641959 -8.34375 -0.57421875 C-5.35246675 -1.11763521 -2.90995107 -0.84235426 0 0 Z M-17 11.25 C-18.299375 11.87648438 -18.299375 11.87648438 -19.625 12.515625 C-22.16464107 14.10290067 -23.48550252 15.4293398 -25 18 C-25 18.99 -25 19.98 -25 21 C-21.12954075 20.40592951 -18.87279423 18.56797858 -15.875 16.125 C-15.00617188 15.42632812 -14.13734375 14.72765625 -13.2421875 14.0078125 C-10.83058227 12.01650382 -10.83058227 12.01650382 -9 9 C-12.38624366 9 -13.98833974 9.76209642 -17 11.25 Z " fill="#C3305D" transform="translate(188,30)"/>
<path d="M0 0 C-1.60931234 4.90411748 -4.41745942 8.69784237 -7.4375 12.8125 C-7.92798828 13.50537109 -8.41847656 14.19824219 -8.92382812 14.91210938 C-9.40142578 15.56630859 -9.87902344 16.22050781 -10.37109375 16.89453125 C-10.80349365 17.49112549 -11.23589355 18.08771973 -11.68139648 18.70239258 C-13 20 -13 20 -16 20 C-16.02126953 20.8353125 -16.02126953 20.8353125 -16.04296875 21.6875 C-16.48149416 28.70390659 -18.55432103 33.85813358 -23.81640625 38.65625 C-25.03178755 39.65088355 -26.25412207 40.6371023 -27.484375 41.61328125 C-29.51008587 43.46670228 -30.30439392 45.37215483 -31 48 C-31.66 48 -32.32 48 -33 48 C-32.979375 46.865625 -32.95875 45.73125 -32.9375 44.5625 C-32.90373317 41.38279003 -33.250155 38.49972833 -33.8125 35.375 C-34.24398896 31.9170954 -33.95602717 30.21493612 -31.8125 27.4375 C-29 25 -29 25 -25 25 C-24.896875 24.401875 -24.79375 23.80375 -24.6875 23.1875 C-23.91123545 20.71756736 -22.92911079 19.67748765 -21 18 C-21.99 17.34 -22.98 16.68 -24 16 C-23.67 14.68 -23.34 13.36 -23 12 C-21.2365625 11.7834375 -21.2365625 11.7834375 -19.4375 11.5625 C-14.34935937 10.35361552 -12.36381262 7.18380733 -9.54296875 2.99609375 C-6.92438859 -0.39148717 -3.99329944 -0.10792701 0 0 Z " fill="#FCDF06" transform="translate(49,24)"/>
<path d="M0 0 C0.33 0.66 0.66 1.32 1 2 C0.67 2.99 0.34 3.98 0 5 C1.13888672 5.27263672 1.13888672 5.27263672 2.30078125 5.55078125 C3.29464844 5.80214844 4.28851563 6.05351563 5.3125 6.3125 C6.29863281 6.55613281 7.28476562 6.79976562 8.30078125 7.05078125 C11.05048714 8.01775452 12.34470422 8.62157159 14 11 C14 12.32 14 13.64 14 15 C16.475 15.495 16.475 15.495 19 16 C19 17.32 19 18.64 19 20 C19.99 20 20.98 20 22 20 C21.505 22.475 21.505 22.475 21 25 C16.125 23.25 16.125 23.25 15 21 C14.40832031 21.20496094 13.81664063 21.40992187 13.20703125 21.62109375 C12.41683594 21.89050781 11.62664063 22.15992187 10.8125 22.4375 C10.03519531 22.70433594 9.25789063 22.97117187 8.45703125 23.24609375 C3.31573251 24.82363057 -1.45413273 25.12915911 -6.8125 25.0625 C-7.50537109 25.05798828 -8.19824219 25.05347656 -8.91210938 25.04882812 C-10.60811068 25.03713156 -12.30406703 25.01919924 -14 25 C-13.69320313 24.27425781 -13.38640625 23.54851563 -13.0703125 22.80078125 C-12.09634766 20.25212143 -11.4318317 17.85233743 -10.875 15.1875 C-10.70742188 14.39730469 -10.53984375 13.60710938 -10.3671875 12.79296875 C-10.18542969 11.90544922 -10.18542969 11.90544922 -10 11 C-9.01 11 -8.02 11 -7 11 C-6.773125 10.484375 -6.54625 9.96875 -6.3125 9.4375 C-4.5024447 6.07596873 -2.26003596 3.07088856 0 0 Z M-7.8125 13 C-8.55929064 14.3235428 -9.29406697 15.65422128 -10 17 C-3.5589964 18.64451156 0.21782606 17.05498079 6 14 C6 13.01 6 12.02 6 11 C-2.10425551 7.71785015 -2.10425551 7.71785015 -7.8125 13 Z " fill="#C3305D" transform="translate(43,33)"/>
<path d="M0 0 C1.65 0 3.3 0 5 0 C3.39068766 4.90411748 0.58254058 8.69784237 -2.4375 12.8125 C-2.92798828 13.50537109 -3.41847656 14.19824219 -3.92382812 14.91210938 C-4.40142578 15.56630859 -4.87902344 16.22050781 -5.37109375 16.89453125 C-5.80349365 17.49112549 -6.23589355 18.08771973 -6.68139648 18.70239258 C-8 20 -8 20 -11 20 C-11.02126953 20.8353125 -11.02126953 20.8353125 -11.04296875 21.6875 C-11.48395749 28.7433198 -13.86059596 33.47813049 -18.5390625 38.7265625 C-20 40 -20 40 -22 40 C-21.59872233 35.58594558 -19.79660605 33.040988 -17.15625 29.6484375 C-15.803469 27.88688064 -15.803469 27.88688064 -15 25 C-14.34 25 -13.68 25 -13 25 C-13.22558594 24.41347656 -13.45117188 23.82695313 -13.68359375 23.22265625 C-14 21 -14 21 -12.84765625 19.24609375 C-12.25855469 18.64925781 -11.66945313 18.05242188 -11.0625 17.4375 C-6.55480843 12.62990153 -2.80218083 7.37243213 1 2 C0.67 1.34 0.34 0.68 0 0 Z " fill="#E9BD06" transform="translate(44,24)"/>
<path d="M0 0 C0.66 0.99 1.32 1.98 2 3 C1.030625 3.474375 0.06125 3.94875 -0.9375 4.4375 C-3.80477437 5.70193947 -3.80477437 5.70193947 -5 7 C-5.04063832 8.66617115 -5.042721 10.33388095 -5 12 C-4.01 12.33 -3.02 12.66 -2 13 C-1.25 15.75 -1.25 15.75 -1 19 C-2.875 21.1875 -2.875 21.1875 -5 23 C-5.33 23.99 -5.66 24.98 -6 26 C-6.66 26 -7.32 26 -8 26 C-7.979375 24.865625 -7.95875 23.73125 -7.9375 22.5625 C-7.90373317 19.38279003 -8.250155 16.49972833 -8.8125 13.375 C-9.24398896 9.9170954 -8.95602717 8.21493612 -6.8125 5.4375 C-4 3 -4 3 0 3 C0 2.01 0 1.02 0 0 Z " fill="#F9E122" transform="translate(24,46)"/>
<path d="M0 0 C0 2.97 0 5.94 0 9 C0.66 9.33 1.32 9.66 2 10 C2 11.65 2 13.3 2 15 C-0.31 15 -2.62 15 -5 15 C-5.144375 14.2575 -5.28875 13.515 -5.4375 12.75 C-5.91029023 10.09772948 -5.91029023 10.09772948 -6.71484375 8.03125 C-7 6 -7 6 -5.8203125 4.296875 C-5.26085937 3.78640625 -4.70140625 3.2759375 -4.125 2.75 C-3.57070312 2.22921875 -3.01640625 1.7084375 -2.4453125 1.171875 C-1 0 -1 0 0 0 Z " fill="#C02757" transform="translate(94,43)"/>
<path d="M0 0 C3.1875 0.875 3.1875 0.875 6 2 C6 3.98 6 5.96 6 8 C8.475 8.495 8.475 8.495 11 9 C10.01 9.66 9.02 10.32 8 11 C4.52100842 9.60840337 3.51947499 8.36748512 2 5 C1.48050781 5.37253906 0.96101563 5.74507812 0.42578125 6.12890625 C-5.34133791 10.04116638 -5.34133791 10.04116638 -9 9.8125 C-9.66 9.544375 -10.32 9.27625 -11 9 C-11 7.02 -11 5.04 -11 3 C-10.34 4.32 -9.68 5.64 -9 7 C-7.35 6.67 -5.7 6.34 -4 6 C-3.8453125 5.071875 -3.8453125 5.071875 -3.6875 4.125 C-3 2 -3 2 0 0 Z M1 1 C2 3 2 3 2 3 Z " fill="#C63A66" transform="translate(83,49)"/>
<path d="M0 0 C0.33 1.32 0.66 2.64 1 4 C0.01 4.33 -0.98 4.66 -2 5 C-2 5.66 -2 6.32 -2 7 C-3.4609375 8.2890625 -3.4609375 8.2890625 -5.375 9.625 C-6.00148437 10.07101563 -6.62796875 10.51703125 -7.2734375 10.9765625 C-9 12 -9 12 -11 12 C-10.67 10.68 -10.34 9.36 -10 8 C-10.66 7.67 -11.32 7.34 -12 7 C-11.13375 6.5875 -10.2675 6.175 -9.375 5.75 C-6.04180856 4.02167851 -3.08372099 2.12923592 0 0 Z " fill="#C43360" transform="translate(149,46)"/>
<path d="M0 0 C0.625 1.875 0.625 1.875 1 4 C0.34 4.66 -0.32 5.32 -1 6 C-1 6.99 -1 7.98 -1 9 C-0.34 9.33 0.32 9.66 1 10 C0.34 10.66 -0.32 11.32 -1 12 C-1.66 11.01 -2.32 10.02 -3 9 C-3.928125 9.99 -3.928125 9.99 -4.875 11 C-7 13 -7 13 -9 13 C-9.33 11.35 -9.66 9.7 -10 8 C-9.36191406 7.59007812 -8.72382812 7.18015625 -8.06640625 6.7578125 C-7.24011719 6.21898437 -6.41382812 5.68015625 -5.5625 5.125 C-4.73878906 4.59132813 -3.91507812 4.05765625 -3.06640625 3.5078125 C-0.88961129 2.16165694 -0.88961129 2.16165694 0 0 Z " fill="#C73E68" transform="translate(105,44)"/>
<path d="M0 0 C0.33 0.99 0.66 1.98 1 3 C3.64 2.67 6.28 2.34 9 2 C9 2.66 9 3.32 9 4 C8.01 4.495 8.01 4.495 7 5 C5.86649466 7.01669827 5.86649466 7.01669827 5 9 C0.25 8.25 0.25 8.25 -2 6 C-2 5.01 -2 4.02 -2 3 C-1.34 3 -0.68 3 0 3 C0 2.01 0 1.02 0 0 Z " fill="#C02555" transform="translate(161,48)"/>
<path d="M0 0 C0.33 0.66 0.66 1.32 1 2 C0.01 2.495 0.01 2.495 -1 3 C-0.67 3.66 -0.34 4.32 0 5 C-1.41396902 5.50757862 -2.83131729 6.00574925 -4.25 6.5 C-5.43335938 6.91765625 -5.43335938 6.91765625 -6.640625 7.34375 C-9 8 -9 8 -13 8 C-12.87890625 6.140625 -12.87890625 6.140625 -12 4 C-9.27734375 2.734375 -9.27734375 2.734375 -5.9375 1.75 C-4.83277344 1.41484375 -3.72804688 1.0796875 -2.58984375 0.734375 C-1.73519531 0.49203125 -0.88054688 0.2496875 0 0 Z " fill="#C73C68" transform="translate(56,29)"/>
<path d="M0 0 C0.598125 0.20625 1.19625 0.4125 1.8125 0.625 C1.0625 5.375 1.0625 5.375 -1.1875 7.625 C-3.8125 7.25 -3.8125 7.25 -6.1875 6.625 C-5.875 4.25 -5.875 4.25 -5.1875 1.625 C-2.1875 -0.375 -2.1875 -0.375 0 0 Z " fill="#C32F5D" transform="translate(211.1875,28.375)"/>
<path d="M0 0 C0.99 1.32 1.98 2.64 3 4 C1.73022941 6.53954117 0.35227757 7.1684675 -2.0625 8.625 C-2.79597656 9.07101563 -3.52945313 9.51703125 -4.28515625 9.9765625 C-4.85105469 10.31429687 -5.41695313 10.65203125 -6 11 C-6 9.68 -6 8.36 -6 7 C-6.99 6.67 -7.98 6.34 -9 6 C-8.071875 5.566875 -7.14375 5.13375 -6.1875 4.6875 C-3.52815927 3.27961373 -1.91894095 2.23876444 0 0 Z " fill="#C63B66" transform="translate(71,46)"/>
<path d="M0 0 C0.78375 0.04125 1.5675 0.0825 2.375 0.125 C2.705 1.115 3.035 2.105 3.375 3.125 C1.725 4.775 0.075 6.425 -1.625 8.125 C-2.615 7.795 -3.605 7.465 -4.625 7.125 C-4.75 4.75 -4.75 4.75 -4.625 2.125 C-2.625 0.125 -2.625 0.125 0 0 Z " fill="#C9456E" transform="translate(119.625,28.875)"/>
<path d="M0 0 C0.33 0.66 0.66 1.32 1 2 C0.01 3.32 -0.98 4.64 -2 6 C0.97 6.495 0.97 6.495 4 7 C4 7.66 4 8.32 4 9 C2.80375 8.835 1.6075 8.67 0.375 8.5 C-2.64789606 8.45696945 -3.64590799 8.66220511 -5.8671875 10.78125 C-7.35585808 12.8041325 -8.72519922 14.8367017 -10 17 C-11.125 13.25 -11.125 13.25 -10 11 C-9.01 11 -8.02 11 -7 11 C-6.773125 10.484375 -6.54625 9.96875 -6.3125 9.4375 C-4.5024447 6.07596873 -2.26003596 3.07088856 0 0 Z " fill="#8E3A30" transform="translate(43,33)"/>
<path d="M0 0 C2.625 0.375 2.625 0.375 5 1 C4.25 5.75 4.25 5.75 2 8 C-0.125 7.625 -0.125 7.625 -2 7 C-2.125 4.625 -2.125 4.625 -2 2 C-1.34 1.34 -0.68 0.68 0 0 Z " fill="#4B261A" transform="translate(20,51)"/>
<path d="M0 0 C0.33 0 0.66 0 1 0 C0.50528333 4.94716669 -0.33906605 8.7622163 -3 13 C-5.1875 14.375 -5.1875 14.375 -7 15 C-6.59872233 10.58594558 -4.79660605 8.040988 -2.15625 4.6484375 C-0.803469 2.88688064 -0.803469 2.88688064 0 0 Z " fill="#652A12" transform="translate(29,49)"/>
<path d="M0 0 C1.65 0 3.3 0 5 0 C3.46462766 4.91319147 0.58639157 9.32235164 -3 13 C-3.99 13 -4.98 13 -6 13 C-4.22054913 8.95579349 -1.60470327 5.53921513 1 2 C0.67 1.34 0.34 0.68 0 0 Z " fill="#E6AD03" transform="translate(44,24)"/>
<path d="M0 0 C0.66 0 1.32 0 2 0 C2 0.99 2 1.98 2 3 C2.99 3 3.98 3 5 3 C4.67 4.32 4.34 5.64 4 7 C2.35 7.33 0.7 7.66 -1 8 C-1.625 5.6875 -1.625 5.6875 -2 3 C-1.34 2.01 -0.68 1.02 0 0 Z " fill="#BE2051" transform="translate(75,49)"/>
<path d="M0 0 C0.66 0.99 1.32 1.98 2 3 C1.01 3.33 0.02 3.66 -1 4 C-1.0825 4.763125 -1.165 5.52625 -1.25 6.3125 C-2.14615794 9.52373261 -3.21611025 10.29374499 -6 12 C-6.33 11.01 -6.66 10.02 -7 9 C-7.66 8.34 -8.32 7.68 -9 7 C-2.25 3 -2.25 3 0 3 C0 2.01 0 1.02 0 0 Z " fill="#C53763" transform="translate(120,45)"/>
<path d="M0 0 C-0.76167457 1.46313772 -1.53470707 2.92036661 -2.3125 4.375 C-2.95638672 5.59316406 -2.95638672 5.59316406 -3.61328125 6.8359375 C-5 9 -5 9 -8 11 C-7.67 10.236875 -7.34 9.47375 -7 8.6875 C-5.82563314 6.00930865 -5.82563314 6.00930865 -6 3 C-6.99 2.34 -7.98 1.68 -9 1 C-5.47051709 -0.66670026 -3.71727674 -1.13583456 0 0 Z " fill="#E6C903" transform="translate(30,49)"/>
<path d="M0 0 C-1 2 -2 4 -3 6 C-4.65 5.67 -6.3 5.34 -8 5 C-7.625 3.0625 -7.625 3.0625 -7 1 C-4.53721199 -0.231394 -2.7204945 -0.07159196 0 0 Z " fill="#C43567" transform="translate(33,35)"/>
<path d="M0 0 C0.33 0.66 0.66 1.32 1 2 C1.99 2.66 2.98 3.32 4 4 C-1.75 9 -1.75 9 -4 9 C-3.67 8.01 -3.34 7.02 -3 6 C-2.34 6 -1.68 6 -1 6 C-1 5.34 -1 4.68 -1 4 C-2.32 4.33 -3.64 4.66 -5 5 C-3.35 3.35 -1.7 1.7 0 0 Z " fill="#C73F69" transform="translate(171,46)"/>
<path d="M0 0 C1.32 0.33 2.64 0.66 4 1 C4 2.98 4 4.96 4 7 C5.65 7.33 7.3 7.66 9 8 C8.01 8.66 7.02 9.32 6 10 C3.13367003 8.94901234 2.16993357 8.33137046 0.75 5.5625 C0 3 0 3 0 0 Z " fill="#C9456E" transform="translate(85,50)"/>
<path d="M0 0 C-0.34879632 3.25543229 -1.02133261 4.01873107 -3.5625 6.25 C-4.366875 6.8275 -5.17125 7.405 -6 8 C-6 7.34 -6 6.68 -6 6 C-6.99 5.67 -7.98 5.34 -9 5 C-7.87926138 4.16094435 -6.75325453 3.32892169 -5.625 2.5 C-4.99851563 2.0359375 -4.37203125 1.571875 -3.7265625 1.09375 C-2 0 -2 0 0 0 Z " fill="#C63B66" transform="translate(232,46)"/>
<path d="M0 0 C1.32 0.33 2.64 0.66 4 1 C4.33 2.32 4.66 3.64 5 5 C2.36 5 -0.28 5 -3 5 C-2.01 3.35 -1.02 1.7 0 0 Z " fill="#FCDF1A" transform="translate(50,12)"/>
<path d="M0 0 C0.66 0 1.32 0 2 0 C0.33248852 3.94139078 -2.22710649 6.7892812 -5 10 C-5.33 8.68 -5.66 7.36 -6 6 C-5.38125 5.7525 -4.7625 5.505 -4.125 5.25 C-1.64931313 3.79371361 -1.04874998 2.62187494 0 0 Z " fill="#C63D67" transform="translate(129,40)"/>
<path d="M0 0 C0 0.66 0 1.32 0 2 C-0.66 2 -1.32 2 -2 2 C-2.33 2.66 -2.66 3.32 -3 4 C-4 5 -4 5 -6 6 C-6.33 6.66 -6.66 7.32 -7 8 C-7 7.34 -7 6.68 -7 6 C-7.66 5.67 -8.32 5.34 -9 5 C-4.32258065 0 -4.32258065 0 0 0 Z " fill="#BD1A4D" transform="translate(132,45)"/>
<path d="M0 0 C1.32 0.33 2.64 0.66 4 1 C3.67 1.99 3.34 2.98 3 4 C3.66 4.33 4.32 4.66 5 5 C4.67 6.32 4.34 7.64 4 9 C1.47740939 7.02579865 1.0070192 6.03254358 0.3125 2.8125 C0.209375 1.884375 0.10625 0.95625 0 0 Z " fill="#CE567B" transform="translate(103,27)"/>
<path d="M0 0 C0.33 0.99 0.66 1.98 1 3 C1.66 3 2.32 3 3 3 C2.67 3.66 2.34 4.32 2 5 C-0.32156597 5.40729228 -2.6568787 5.74438677 -5 6 C-5 5.34 -5 4.68 -5 4 C-3.37373596 2.61767557 -1.7074998 1.28062485 0 0 Z " fill="#C73F69" transform="translate(56,49)"/>
<path d="M0 0 C0.33 0.99 0.66 1.98 1 3 C0.34 3.66 -0.32 4.32 -1 5 C-1.33 4.01 -1.66 3.02 -2 2 C-3.98 2.33 -5.96 2.66 -8 3 C-5.53387212 -0.1151089 -3.89156016 -0.31553191 0 0 Z " fill="#CA4870" transform="translate(117,37)"/>
<path d="M0 0 C0.99 0.33 1.98 0.66 3 1 C0.69 3.31 -1.62 5.62 -4 8 C-4.66 7.34 -5.32 6.68 -6 6 C-4.71034824 4.62437146 -3.37310707 3.29233607 -2 2 C-1.34 2 -0.68 2 0 2 C0 1.34 0 0.68 0 0 Z " fill="#C8446C" transform="translate(140,29)"/>
<path d="M0 0 C0.99 0.33 1.98 0.66 3 1 C2.67 2.65 2.34 4.3 2 6 C1.01 6.33 0.02 6.66 -1 7 C-1 3 -1 3 0 0 Z " fill="#BF2253" transform="translate(118,30)"/>
<path d="M0 0 C0.66 0.33 1.32 0.66 2 1 C0.49776416 5.20626034 -2.28550034 6.73900021 -6 9 C-4.47291037 5.56404834 -2.40072955 2.88087546 0 0 Z " fill="#FCDF20" transform="translate(41,25)"/>
<path d="M0 0 C0.99 0.33 1.98 0.66 3 1 C2.1875 2.9375 2.1875 2.9375 1 5 C0.01 5.33 -0.98 5.66 -2 6 C-1.125 1.125 -1.125 1.125 0 0 Z " fill="#8D5E18" transform="translate(24,58)"/>
<path d="M0 0 C0.763125 0.20625 1.52625 0.4125 2.3125 0.625 C1.9825 1.945 1.6525 3.265 1.3125 4.625 C0.3225 3.965 -0.6675 3.305 -1.6875 2.625 C-3.80030345 1.99207617 -3.80030345 1.99207617 -5.6875 1.625 C-2.6875 -0.375 -2.6875 -0.375 0 0 Z " fill="#CC5076" transform="translate(205.6875,36.375)"/>
<path d="M0 0 C0.99 1.32 1.98 2.64 3 4 C2.67 4.66 2.34 5.32 2 6 C1.01 6.33 0.02 6.66 -1 7 C-1 6.01 -1 5.02 -1 4 C-1.66 3.67 -2.32 3.34 -3 3 C-2.01 2.01 -1.02 1.02 0 0 Z " fill="#CB4D74" transform="translate(71,46)"/>
<path d="M0 0 C2.475 0.495 2.475 0.495 5 1 C4.34 2.65 3.68 4.3 3 6 C2.67 5.34 2.34 4.68 2 4 C1.34 4 0.68 4 0 4 C0 2.68 0 1.36 0 0 Z " fill="#BD1C4E" transform="translate(57,48)"/>
<path d="M0 0 C0.66 0 1.32 0 2 0 C1.01 2.97 0.02 5.94 -1 9 C-1.33 9 -1.66 9 -2 9 C-2.25 3.375 -2.25 3.375 0 0 Z " fill="#C7406A" transform="translate(159,42)"/>
<path d="M0 0 C0.99 0.495 0.99 0.495 2 1 C2 1.99 2 2.98 2 4 C1.34 4 0.68 4 0 4 C0 2.68 0 1.36 0 0 Z M-2 4 C-1.34 4 -0.68 4 0 4 C-0.33 5.32 -0.66 6.64 -1 8 C-2.32 7.67 -3.64 7.34 -5 7 C-4.01 6.67 -3.02 6.34 -2 6 C-2 5.34 -2 4.68 -2 4 Z " fill="#BD1C4E" transform="translate(59,25)"/>
<path d="M0 0 C0.33 1.32 0.66 2.64 1 4 C0.01 4.66 -0.98 5.32 -2 6 C-2.66 4.35 -3.32 2.7 -4 1 C-2.68 0.67 -1.36 0.34 0 0 Z " fill="#593418" transform="translate(22,52)"/>
<path d="M0 0 C0.33 1.32 0.66 2.64 1 4 C-3.75 5.125 -3.75 5.125 -6 4 C-4.02 2.68 -2.04 1.36 0 0 Z " fill="#CC5076" transform="translate(149,46)"/>
<path d="M0 0 C0.598125 0.20625 1.19625 0.4125 1.8125 0.625 C1.4825 2.275 1.1525 3.925 0.8125 5.625 C0.1525 4.635 -0.5075 3.645 -1.1875 2.625 C-3.24675139 1.90117533 -3.24675139 1.90117533 -5.1875 1.625 C-2.1875 -0.375 -2.1875 -0.375 0 0 Z " fill="#CD5278" transform="translate(211.1875,28.375)"/>
<path d="M0 0 C2.625 0.9375 2.625 0.9375 5 2 C3.68 3.32 2.36 4.64 1 6 C0.67 5.01 0.34 4.02 0 3 C-0.66 2.34 -1.32 1.68 -2 1 C-1.34 0.67 -0.68 0.34 0 0 Z " fill="#CA4870" transform="translate(113,51)"/>
<path d="M0 0 C-0.33 1.32 -0.66 2.64 -1 4 C-2.65 4 -4.3 4 -6 4 C-5.67 3.01 -5.34 2.02 -5 1 C-2 0 -2 0 0 0 Z " fill="#BE1F50" transform="translate(177,45)"/>
<path d="M0 0 C2.13093906 1.06546953 3.36587557 2.29159719 5 4 C3.35 4.66 1.7 5.32 0 6 C0 5.01 0 4.02 0 3 C-0.66 2.67 -1.32 2.34 -2 2 C-1.34 1.34 -0.68 0.68 0 0 Z " fill="#C9466F" transform="translate(135,39)"/>
<path d="M0 0 C1.32 0.33 2.64 0.66 4 1 C3.67 1.99 3.34 2.98 3 4 C2.01 4.33 1.02 4.66 0 5 C-0.66 4.34 -1.32 3.68 -2 3 C-1.34 2.01 -0.68 1.02 0 0 Z " fill="#C02756" transform="translate(138,37)"/>
</svg>
