<svg width="200" height="200" fill="none" xmlns="http://www.w3.org/2000/svg"><g clip-path="url(#a)"><path d="M146.314 93.074c0 .749-10.479 1.45-25.44 2.04-2.642-1.505-4.646-3.017-6.114-4.32 18.143.644 31.554 1.439 31.554 2.28zm-10.747-25.356c0 .624-8.783 1.21-21.341 1.714 1.8-1.055 3.654-2.117 5.601-3.184 9.487.438 15.74.946 15.74 1.47zm-93.568 54.55c-5.813.07-10.912.097-14.894.097-5.733 0-10.375-1.772-10.375-3.971 0-2.187 4.642-3.959 10.375-3.959 5.075 0 11.95.054 19.838.155-3.05 4.421-4.5 7.077-4.635 7.244-.089.128-.2.279-.309.434zm3.132 5.311c1.916 2.323 3.754 4.277 6.215 6.414 0 0 .927 1.33 3.743.19 2.866-1.171 5.296-2.765 8.034-6.453 7.996.136 16.475.315 24.822.504a993.966 993.966 0 0 1 3.8 5.647c-23.268.605-48.523.965-61.459.965-5.388 0-9.76-1.679-9.76-3.734 0-2.067 4.372-3.735 9.76-3.735 3.94 0 9.016.028 14.825.093a.267.267 0 0 0 .02.109zm-9.001 19.482c-4.783 0-8.657-1.478-8.657-3.301 0-1.826 3.874-3.308 8.657-3.308 12.65 0 38.584.388 60.794 1.02 1.07 1.54 2.14 3.072 3.156 4.479-22.867.675-50.701 1.11-63.95 1.11m73.766 10.593c-18.653.822-50.725 1.373-64.051 1.373-3.75 0-6.798-1.175-6.798-2.598 0-1.435 3.047-2.602 6.798-2.602 12.747 0 42.683.504 61.575 1.26a90.308 90.308 0 0 0 2.476 2.567m-48.663 7.024c11.005 0 44.506.834 44.506 1.842 0 1.024-33.505 1.85-44.506 1.85-2.144 0-3.878-.826-3.878-1.85 0-1.008 1.734-1.842 3.878-1.842zm.122-68.005c-13.852.236-26.263.368-34.251.368-5.729 0-10.375-1.772-10.375-3.967 0-2.191 4.646-3.971 10.375-3.971 9.278 0 24.524.178 41.053.493a207.314 207.314 0 0 0-6.802 7.077zm67.94-17.737c8.115.442 13.222.927 13.222 1.431 0 .555-6.18 1.086-15.744 1.559 2.043-1.543 2.491-2.889 2.522-2.99zm-99.007 5.16c-5.392 0-9.765-1.668-9.765-3.731 0-2.06 4.373-3.735 9.765-3.735 11.06 0 31.118.272 51.239.718a233.906 233.906 0 0 0-7.019 6.185c-17.66.357-34.447.562-44.22.562m60.134-13.917c-20.572.523-42.86.845-54.294.845-4.782 0-8.652-1.477-8.652-3.304 0-1.826 3.87-3.311 8.652-3.311 12.62 0 38.492.395 60.672 1.023-1.105.807-2.218 1.614-3.345 2.459-1.028.768-2.04 1.524-3.032 2.288m-44.58-12.533c-3.75 0-6.798-1.16-6.798-2.598 0-1.435 3.048-2.603 6.798-2.603 14.15 0 49.44.628 67.362 1.524-1.143.753-2.287 1.532-3.442 2.316-18.68.81-50.62 1.36-63.92 1.36zm-19.808 52.129c-5.832 0-10.568-1.804-10.568-4.041 0-2.222 4.736-4.033 10.568-4.033 7.312 0 18.255.108 30.631.299a181.345 181.345 0 0 0-6.076 7.569c-9.854.132-18.467.206-24.555.206zm31.321-64.822c0-1.02 1.734-1.846 3.878-1.846 11.001 0 44.506.826 44.506 1.846 0 1.012-33.5 1.842-44.506 1.842-2.143 0-3.878-.83-3.878-1.842z" fill="#747F8A"/><path d="M147.41 102.746c.077 1.989.066 3.98-.035 5.968-19.491.776-37.974 1.955-37.974 3.281 0 1.303 18.07 2.47 37.337 3.242a72.68 72.68 0 0 1-1.309 6.573c-18.993.78-36.619 1.927-36.619 3.219 0 1.245 16.455 2.365 34.676 3.145a66.092 66.092 0 0 1-2.843 6.774c-15.648.757-28.581 1.765-28.581 2.866 0 1.028 11.299 1.978 25.541 2.711a60.333 60.333 0 0 1-2.507 3.796 60.92 60.92 0 0 1-3.002 3.909c-8.903.679-15.014 1.451-15.014 2.276 0 .71 4.376 1.373 11.121 1.967-3.681 3.657-8.031 7.073-13.157 10.055 0 0-6.037-5.22-11.02-11.316-4.442-5.437-13.867-19.769-16.084-22.976-2.221-3.207-3.681-4.146-6.277-3.215-3.48 1.237-7.524 1.857-8.768 1.857-1.244 0-1.928-.484.158-1.314 2.078-.842 10.294-4.735 14.339-12.782 4.542-9.062.548-21.576.548-21.576-1.526 6.689-4.995 9.186-4.995 9.186 1.12-6.212-.1-11.843-3.155-15.794l-1.704 7.864s-1.066-.054-3.704 2.172c-2.635 2.23-3.36 5.479-3.36 5.479 2.074.838 4.569-1.252 4.569-1.252-3.187 11.971-7.756 21.716-11.09 26.87-3.33 5.153-6.076 7.096-9.413 8.457-2.816 1.133-3.743-.198-3.743-.198-2.46-2.132-4.3-4.087-6.215-6.41 0 0-.155-.271.363-.263 1.371.019 3.812-2.335 4.345-3.312.61-1.121.545-1.978.24-2.036-.302-.05-.823.838-3.469 2.513-2.63 1.671-3.84.512-4.716-.419-.68-.741-.012-1.656.413-2.23.402-.512 14.32-26.567 51.146-53.941 48.261-35.875 79.081-45.562 80.847-46.26 1.166-.461 3.07-1.07 3.503-.624.479.504.714.907.649 1.493-.062.581-.371.88-2.604 1.869-18.525 8.194-40.152 21.852-52.439 29.801-15.111 7.392-29.539 17.947-30.064 18.2-1.163.725-.305 1.78.398 1.337 25.517-17.04 55.434-28.646 88.494-38.154 1.58-.45 2.445-.45 2.708-.101.297.388.425.83.471 1.318.043.61-.459.931-1.815 1.462-35.518 13.247-61.695 25.552-78.533 36.926 0 0-1.742 1.054-1.765 2.276-.007.465.935.52.935.52 8.428.15 19.696.647 25.057.961 0 0-.765 2.727-5.898 4.921-3.963 1.699-7.633 1.427-11.264 1.459-.807-.016-1.491.802-.846 1.675.325.434 8.05 12.92 36.124 15.775m-257.376 65.299h-4.759s-.641-2.94 1.082-4.064c1.731-1.14 3.677-2.017 3.677-2.017v6.081zm22.582-11.006s-2.894 1.668-4.724 3.304c-1.82 1.621.374 2.238.374 2.238v5.464h-13.809v-19.122s-5.033 4.646-5.504 5.262c-.487.66 1.197 1.257 1.197 1.257l-.286 1.811s-2.004 1.043-4.438 2.695c-2.418 1.632-4.21 3.715-4.21 5.157 0 1.447-.611 7.124-.611 7.124h32.01v-15.19zm-28.588-6.992c1.576 0 2.688-.624 2.688-1.884 0-1.264-.738-2.145-2.688-2.145-1.735 0-2.198.76-2.198 2.145 0 1.396.602 1.884 2.198 1.884m5.886 0c1.592 0 2.67-.624 2.67-1.884 0-1.264-.73-2.145-2.67-2.145-1.742 0-2.197.76-2.197 2.145 0 1.396.598 1.884 2.198 1.884m8.918 23.826c-1.722 0-2.197.741-2.197 2.133 0 1.38.61 1.885 2.198 1.885 1.575 0 2.692-.629 2.692-1.885 0-1.268-.727-2.133-2.692-2.133m6.118 0c-1.723 0-2.194.741-2.194 2.133 0 1.38.626 1.885 2.194 1.885 1.6 0 2.696-.629 2.696-1.885 0-1.268-.722-2.133-2.696-2.133zm68.976-24.202c1.588 0 2.7-.609 2.7-1.869 0-1.253-.734-2.148-2.7-2.148-1.719 0-2.186.76-2.186 2.148 0 1.388.614 1.869 2.186 1.869zm6.115 0c1.576 0 2.68-.609 2.68-1.869 0-1.253-.733-2.148-2.68-2.148-1.73 0-2.19.76-2.19 2.148 0 1.388.59 1.869 2.19 1.869zm16.88.52c-.862.748-.61 1.644.483 1.52v20.545H1.94v-25.575s-4.172 2.765-5.018 3.51zm-18.224 11.521h-2.936c0-1.617 2.936-2.513 2.936-2.513v2.513zm-19.325 3.393c0 .745-.035 1.959-.07 2.94h-25.621v-4.522c.668-1.741 1.796-1.943 3.542-1.943h18.73c4.044 0 3.419 2.137 3.419 3.525m29.962-13.417v16.357h-6.099v-14.853s-1.247.481-2.959 1.241c-1.695.772-7.83 3.273-7.83 6.655v3.909h6.25v3.048h-14.824c.011-.718.027-1.772.027-3.32 0-4.874-4.137-7.527-7.818-7.527h-17.14c-3 0-4.45.729-5.26 1.563v-12.592s-2.677 1.889-4.643 3.39c-1.963 1.501 0 2.509 0 2.509v15.977h-5.617l-.12-13.713s-3.908 2.866-5.028 3.739c-1.094.868-.487 1.644.737 1.644 0 0-.224 10.125-.224 12.514 0 2.404-1.981 5.15-6.141 3.901 0 0-1.322.256-.225 1.256 1.094.997 2.415 1.757 3.894 1.757 1.472 0 6.864-1.02 6.864-6.914h70.676v-25.563s-4.16 2.757-5.018 3.505c-.861.749-.61 1.648.498 1.517" fill="#5C0632"/></g><defs><clipPath id="a"><path fill="#fff" transform="translate(15 21)" d="M0 0h171v158H0z"/></clipPath></defs></svg>