<?xml version="1.0" encoding="UTF-8"?>
<svg version="1.1" xmlns="http://www.w3.org/2000/svg" width="787" height="224">
<path d="M0 0 C12.47803057 2.46903166 24.95597089 4.93851885 37.43380737 7.40853119 C43.23268578 8.55641698 49.03159104 9.70416664 54.83056641 10.8515625 C67.04714954 13.26884113 79.26335954 15.68798272 91.47866821 18.11169434 C96.71643018 19.15088417 101.95438478 20.1890765 107.19287109 21.22460938 C111.97680998 22.17028829 116.76021956 23.11859664 121.54321289 24.06904602 C123.29170954 24.41599895 125.04040473 24.76195299 126.78930664 25.1068573 C129.16606505 25.57573758 131.54209529 26.04814366 133.91796875 26.52148438 C134.61415817 26.65794373 135.3103476 26.79440308 136.02763367 26.93499756 C140.77173393 27.88586696 140.77173393 27.88586696 143 29 C144.00066407 34.75452478 144.19638092 40.4824294 144.31640625 46.3125 C144.33718735 47.16682617 144.35796844 48.02115234 144.37937927 48.90136719 C144.44418599 51.60083842 144.50343565 54.30039765 144.5625 57 C144.60575092 58.84245661 144.64936718 60.68490469 144.69335938 62.52734375 C144.79979557 67.01814154 144.90125193 71.50902684 145 76 C143.57875619 75.53951715 142.15864787 75.07552892 140.73901367 74.61010742 C139.94806808 74.35210861 139.1571225 74.0941098 138.34220886 73.82829285 C134.85657415 72.59564176 131.61448228 70.96349114 128.3125 69.3125 C106.55568724 58.80751678 84.2575193 51.88109059 60 52 C60.58676514 52.10957031 61.17353027 52.21914062 61.77807617 52.33203125 C89.52336959 57.63275326 114.82967979 68.45718549 139 83 C139 83.99 139 84.98 139 86 C136.71191406 87.69824219 136.71191406 87.69824219 133.515625 89.546875 C132.94479187 89.88116516 132.37395874 90.21545532 131.78582764 90.55987549 C129.94645453 91.63379558 128.0985776 92.69201814 126.25 93.75 C125.05018737 94.44689522 123.85096153 95.14480171 122.65234375 95.84375 C120.2770424 97.22692507 117.89723519 98.6018189 115.51367188 99.97070312 C113.16549485 101.32140137 110.82939868 102.69006185 108.50195312 104.07617188 C107.42365234 104.71619141 106.34535156 105.35621094 105.234375 106.015625 C104.27241211 106.59086914 103.31044922 107.16611328 102.31933594 107.75878906 C100 109 100 109 98 109 C99.73559438 112.057952 101.38472619 114.63379989 104 117 C107.57299093 115.67640536 110.64588017 114.08962659 113.84375 112.0234375 C114.75479492 111.43836426 115.66583984 110.85329102 116.60449219 110.25048828 C117.56000977 109.63157715 118.51552734 109.01266602 119.5 108.375 C121.4735761 107.10877905 123.44753321 105.84315173 125.421875 104.578125 C126.37642578 103.96517578 127.33097656 103.35222656 128.31445312 102.72070312 C131.77968019 100.50043764 135.25523479 98.29844828 138.75 96.125 C139.73484375 95.50882812 140.7196875 94.89265625 141.734375 94.2578125 C144 93 144 93 146 93 C146.29161538 99.8417681 146.57546672 106.68383008 146.85449219 113.52612305 C146.94980596 115.84259951 147.04675011 118.1590096 147.14550781 120.4753418 C147.80569196 135.99303765 148.14637764 151.46806552 148 167 C146.8910314 166.06286242 145.78398642 165.12344827 144.67773438 164.18310547 C144.06103882 163.66021942 143.44434326 163.13733337 142.80895996 162.59860229 C140.16747918 160.26429013 137.86231769 157.74439344 135.5 155.125 C135.02425537 154.59962646 134.54851074 154.07425293 134.05834961 153.53295898 C130.97891064 150.12292627 127.9532675 146.66826538 124.9453125 143.1953125 C122.32114482 140.23390239 119.6286777 137.33795967 116.9375 134.4375 C112.85620281 130.03876157 108.85294899 125.60213351 105 121 C101.53133433 122.34270929 98.21418118 123.86529638 94.875 125.5 C79.77049179 132.35465634 65.39973546 130.37758978 50 126 C50 125.67 50 125.34 50 125 C50.58265625 124.91548584 51.1653125 124.83097168 51.765625 124.74389648 C67.32272322 122.40941447 80.94282761 119.07632715 94 110 C89.89608887 104.2650106 85.44291685 99.08397442 80.5625 94 C76.15956525 89.38525569 71.84706883 84.72499566 67.66772461 79.90625 C65.16920771 77.0503841 62.58703306 74.27549242 60 71.5 C56.23342743 67.44083301 52.52776613 63.3458471 48.90625 59.15625 C46.31715042 56.22759638 43.65805319 53.36601823 41 50.5 C37.2344644 46.43985037 33.52779974 42.34588598 29.90625 38.15625 C27.31714953 35.22759537 24.65802213 32.36604832 22 29.5 C18.20024988 25.40213892 14.43773467 21.28665496 10.8046875 17.0390625 C9.34895453 15.3942733 7.84208574 13.79482393 6.3203125 12.2109375 C5.85447754 11.72125488 5.38864258 11.23157227 4.90869141 10.72705078 C3.56213973 9.31515517 2.20322345 7.91508296 0.84375 6.515625 C0.2353125 5.68546875 -0.373125 4.8553125 -1 4 C-0.61523438 1.84277344 -0.61523438 1.84277344 0 0 Z " fill="#006530" transform="translate(1,57)"/>
<path d="M0 0 C-1.31879167 2.86994188 -2.77095302 5.08745747 -4.875 7.4375 C-5.49117187 8.12714844 -6.10734375 8.81679687 -6.7421875 9.52734375 C-10.01045614 13.10660681 -13.29973666 16.66624491 -16.59521484 20.22045898 C-19.27284124 23.11207773 -21.92247023 26.01815183 -24.5 29 C-28.10082614 33.16566161 -31.85390974 37.18600048 -35.59765625 41.22265625 C-38.27415929 44.11381617 -40.92318724 47.01898132 -43.5 50 C-47.10082614 54.16566161 -50.85390974 58.18600048 -54.59765625 62.22265625 C-57.27415929 65.11381617 -59.92318724 68.01898132 -62.5 71 C-65.58897307 74.57351786 -68.78842213 78.03711114 -72 81.5 C-75.77690343 85.57281385 -79.49982396 89.67656876 -83.1328125 93.87890625 C-87.34041728 98.65867486 -91.68453211 103.31775635 -96 108 C-92.24926344 111.24445843 -88.36088918 113.51231517 -83.875 115.5625 C-82.87932007 116.01919067 -82.87932007 116.01919067 -81.86352539 116.48510742 C-71.86404283 120.95948079 -61.83773454 122.65517163 -51 124 C-61.00604649 130.67069766 -75.27983804 130.12793996 -86.625 127.875 C-92.2122671 126.47140256 -96.85316823 124.19784548 -101.7578125 121.20703125 C-104.01585441 119.76299583 -104.01585441 119.76299583 -107 120 C-108.53494367 121.35517144 -108.53494367 121.35517144 -110 123.25 C-113.03767117 126.87726135 -116.16471248 130.40042731 -119.375 133.875 C-123.5474496 138.40903342 -127.68998848 142.96805168 -131.8046875 147.5546875 C-133.32719436 149.25057592 -134.85350555 150.94305367 -136.3828125 152.6328125 C-141.27144734 158.03355162 -141.27144734 158.03355162 -145.9375 163.625 C-146.9584375 164.800625 -146.9584375 164.800625 -148 166 C-148.66 166 -149.32 166 -150 166 C-149.09662228 131.77912251 -149.09662228 131.77912251 -148.5 114.9375 C-148.46463135 113.88328857 -148.4292627 112.82907715 -148.39282227 111.74291992 C-148.1493615 105.13538414 -147.66615525 98.57828309 -147 92 C-139.59832738 95.49260769 -132.73523224 99.54703372 -125.875 104 C-123.99755885 105.2085866 -122.11995741 106.41692425 -120.2421875 107.625 C-117.69616001 109.26377978 -115.15023995 110.90250059 -112.61035156 112.55078125 C-111.89588867 113.00839844 -111.18142578 113.46601563 -110.4453125 113.9375 C-109.82414551 114.33839844 -109.20297852 114.73929687 -108.56298828 115.15234375 C-107.00332546 116.15891142 -107.00332546 116.15891142 -105 116 C-103.41544134 114.21276059 -103.41544134 114.21276059 -101.875 112 C-101.33617187 111.2575 -100.79734375 110.515 -100.2421875 109.75 C-99.83226562 109.1725 -99.42234375 108.595 -99 108 C-99.85287598 107.74710205 -100.70575195 107.4942041 -101.58447266 107.23364258 C-105.23759072 105.91418542 -108.30650193 104.23840066 -111.6484375 102.26171875 C-112.26465973 101.89907425 -112.88088196 101.53642975 -113.51577759 101.16279602 C-115.47202674 100.00964335 -117.42346564 98.84860978 -119.375 97.6875 C-120.67678998 96.91942446 -121.97887102 96.151842 -123.28125 95.38476562 C-129.57287529 91.67178844 -135.83001972 87.91286091 -142 84 C-139.48994375 81.14448397 -136.72119731 79.63404028 -133.36328125 77.890625 C-132.23631836 77.304021 -131.10935547 76.71741699 -129.94824219 76.11303711 C-128.73668277 75.49133313 -127.52476141 74.87033406 -126.3125 74.25 C-125.70152466 73.93563995 -125.09054932 73.62127991 -124.46105957 73.2973938 C-106.06800354 63.84263815 -87.96218863 55.7708285 -67.38671875 52.578125 C-64.14480118 52.19337224 -64.14480118 52.19337224 -62 51 C-88.29263778 50.07745131 -112.93807314 60.44536839 -136.25561523 71.44360352 C-137.23473877 71.90436279 -138.2138623 72.36512207 -139.22265625 72.83984375 C-140.53375366 73.46427368 -140.53375366 73.46427368 -141.87133789 74.10131836 C-144 75 -144 75 -146 75 C-146.11569028 60.8145918 -145.99331951 46.68759223 -145.24024963 32.5198822 C-145.19525109 31.67267577 -145.15025255 30.82546934 -145.10389042 29.95258999 C-145.06960658 29.30823529 -145.03532274 28.6638806 -145 28 C-126.42017561 23.97579108 -107.81812768 20.09179347 -89.1796875 16.34765625 C-87.93911716 16.0981616 -86.69854683 15.84866695 -85.42038345 15.59161186 C-79.56246797 14.41368021 -73.70428292 13.23711371 -67.84562194 12.06289679 C-61.13506618 10.71789843 -54.42570903 9.36710299 -47.71724308 8.01172072 C-41.84611664 6.8259324 -35.97354467 5.64746756 -30.10040665 4.47167778 C-27.6175348 3.97352206 -25.13511626 3.47310149 -22.65316391 2.9703846 C-19.21645238 2.2748322 -15.77817169 1.58764679 -12.33935547 0.90258789 C-11.31520035 0.6933519 -10.29104523 0.48411591 -9.2358551 0.26853943 C-8.30594254 0.08505951 -7.37602997 -0.09842041 -6.41793823 -0.28746033 C-5.60809919 -0.45019912 -4.79826015 -0.61293791 -3.96388054 -0.78060818 C-2 -1 -2 -1 0 0 Z " fill="#006530" transform="translate(307,58)"/>
<path d="M0 0 C6.6 0 13.2 0 20 0 C20 36.63 20 73.26 20 111 C13.4 111 6.8 111 0 111 C-0.33 105.72 -0.66 100.44 -1 95 C-1.71414063 96.155 -2.42828125 97.31 -3.1640625 98.5 C-7.34656842 104.23688464 -11.8559019 109.89880435 -19.13952637 111.45800781 C-30.95661203 112.96701641 -43.16699889 111.92891917 -55 111 C-55.46177204 103.35673611 -55.77368507 95.71712745 -55.98876953 88.06298828 C-56.07852225 85.46852356 -56.20079436 82.87494928 -56.35791016 80.28369141 C-57.09002045 67.88566674 -57.74233515 56.6436505 -49.47686768 46.62567139 C-42.94896953 39.94290714 -36.64620966 35.63063463 -27.1484375 35.2421875 C-23.84402171 35.26180267 -20.68585013 35.56808772 -17.375 35.875 C-11.64125 36.24625 -5.9075 36.6175 0 37 C0 24.79 0 12.58 0 0 Z M-35 56 C-35 67.88 -35 79.76 -35 92 C-23.45 92 -11.9 92 0 92 C0 80.12 0 68.24 0 56 C-11.55 56 -23.1 56 -35 56 Z " fill="#006630" transform="translate(653,57)"/>
<path d="M0 0 C2.66837527 0.09526431 5.33658504 0.16296485 8.00585938 0.23242188 C14.48972222 0.4181422 20.96062842 0.71040952 27.4375 1.0625 C27.4375 7.3325 27.4375 13.6025 27.4375 20.0625 C9.2875 20.0625 -8.8625 20.0625 -27.5625 20.0625 C-27.5625 25.6725 -27.5625 31.2825 -27.5625 37.0625 C-9.4125 37.0625 8.7375 37.0625 27.4375 37.0625 C27.80875 42.96125 28.18 48.86 28.5625 54.9375 C28.72637207 56.75749512 28.89024414 58.57749023 29.05908203 60.45263672 C29.53257396 69.28677718 27.90960701 75.77617683 22.39910889 82.8237915 C15.56121147 90.32519236 9.30787543 93.96480896 -0.88504028 94.74368286 C-7.17873367 94.87455066 -13.40721324 94.56829278 -19.6875 94.1875 C-22.30310667 94.0970159 -24.91901764 94.01492082 -27.53515625 93.94140625 C-33.88524722 93.74494179 -40.22043901 93.43563745 -46.5625 93.0625 C-46.5625 86.7925 -46.5625 80.5225 -46.5625 74.0625 C-28.4125 74.0625 -10.2625 74.0625 8.4375 74.0625 C8.4375 68.1225 8.4375 62.1825 8.4375 56.0625 C-9.7125 56.0625 -27.8625 56.0625 -46.5625 56.0625 C-46.913125 50.143125 -47.26375 44.22375 -47.625 38.125 C-47.77976807 36.29590088 -47.93453613 34.46680176 -48.09399414 32.58227539 C-48.52639334 24.05299804 -47.17765013 17.53586878 -41.90890503 10.66049194 C-30.21273248 -2.28357654 -16.26305827 -0.91097392 0 0 Z " fill="#006530" transform="translate(390.5625,74.9375)"/>
<path d="M0 0 C3 1 3 1 3.94921875 2.84765625 C4.19285156 3.57855469 4.43648437 4.30945313 4.6875 5.0625 C4.93886719 5.79597656 5.19023437 6.52945312 5.44921875 7.28515625 C5.63097656 7.85105469 5.81273437 8.41695312 6 9 C6.845625 8.505 7.69125 8.01 8.5625 7.5 C12.33796832 5.85252292 14.92817548 5.75569053 19 6 C19 6.99 19 7.98 19 9 C18.01 9.66 17.02 10.32 16 11 C17.03898437 11.09796875 18.07796875 11.1959375 19.1484375 11.296875 C34.13519769 12.8396562 45.27273429 16.72467937 55.3203125 28.78515625 C55.87460938 29.51605469 56.42890625 30.24695313 57 31 C56.67 31.66 56.34 32.32 56 33 C54.62328125 32.27683594 54.62328125 32.27683594 53.21875 31.5390625 C44.72924599 27.14271221 37.79811948 23.87614737 28 24 C29.08667969 24.56267578 29.08667969 24.56267578 30.1953125 25.13671875 C42.59844617 31.70211084 50.23404355 39.48984828 54.6875 53.02734375 C55.04805101 55.30332198 54.60889312 56.80048806 54 59 C52.67548828 57.60587891 52.67548828 57.60587891 51.32421875 56.18359375 C44.38018989 48.99093952 37.85102643 42.80484292 29 38 C29.40992188 38.76183594 29.81984375 39.52367187 30.2421875 40.30859375 C35.11701251 49.65006465 38.31298917 58.30299999 37 69 C36.34 69.99 35.68 70.98 35 72 C34.36384766 70.42412109 34.36384766 70.42412109 33.71484375 68.81640625 C29.73156826 59.19397693 25.45107417 51.41083318 18 44 C18.01047363 44.74572266 18.02094727 45.49144531 18.03173828 46.25976562 C18.07358445 49.67314213 18.09941676 53.08646442 18.125 56.5 C18.14175781 57.67304687 18.15851563 58.84609375 18.17578125 60.0546875 C18.21148985 66.41081848 17.90984993 71.92457188 16 78 C14.11467852 75.17201778 13.36238252 73.24467035 12.44921875 70.02734375 C12.01899414 68.55297852 12.01899414 68.55297852 11.58007812 67.04882812 C10.99316414 65.00297695 10.40972826 62.95612421 9.83007812 60.90820312 C7.86303387 54.19582817 5.34944614 48.1416408 2 42 C-5.4733168 49.04519844 -7.93841939 61.55366868 -10.35107422 71.22094727 C-10.84654686 73.16193695 -11.41682013 75.08353572 -12 77 C-12.99 77.495 -12.99 77.495 -14 78 C-16.36935753 66.63977683 -16.83747095 55.48051853 -15 44 C-21.73035312 50.33444999 -26.27367802 56.97191537 -29.921875 65.484375 C-30.87304398 67.70376929 -31.89652944 69.85324819 -33 72 C-33.33 72 -33.66 72 -34 72 C-34.70935802 58.83746786 -33.03717792 49.87687806 -27 38 C-35.79844258 43.76383874 -44.92316907 50.27583679 -51 59 C-51.66 58.67 -52.32 58.34 -53 58 C-49.62509891 45.15552351 -44.93617012 35.91621464 -34 28 C-31.07309534 26.42568007 -28.12626964 25.12338767 -25 24 C-35.38313331 23.05607879 -45.08656389 28.1883221 -54 33 C-51.10252277 24.79048118 -45.0267658 20.24795464 -37.5625 16.125 C-29.60865153 12.33375192 -21.71690552 11.51710456 -13 11 C-15.475 9.02 -15.475 9.02 -18 7 C-17 6 -17 6 -13.875 5.75 C-9.46144436 6.03474553 -6.92967877 7.07525938 -3 9 C-2.01 6.03 -1.02 3.06 0 0 Z " fill="#006530" transform="translate(152,0)"/>
<path d="M0 0 C13.303125 0.556875 13.303125 0.556875 26.875 1.125 C26.875 25.545 26.875 49.965 26.875 75.125 C20.605 75.125 14.335 75.125 7.875 75.125 C7.545 69.845 7.215 64.565 6.875 59.125 C6.16085937 60.28 5.44671875 61.435 4.7109375 62.625 C0.52843158 68.36188464 -3.9809019 74.02380435 -11.26452637 75.58300781 C-23.08161203 77.09201641 -35.29199889 76.05391917 -47.125 75.125 C-47.58677204 67.48173611 -47.89868507 59.84212745 -48.11376953 52.18798828 C-48.20352225 49.59352356 -48.32579436 46.99994928 -48.48291016 44.40869141 C-49.19877365 32.28580048 -49.7935296 20.80455364 -42.08660889 10.75067139 C-30.20519999 -2.01212918 -16.3146336 -0.96876174 0 0 Z M-28.125 20.125 C-28.125 32.005 -28.125 43.885 -28.125 56.125 C-16.245 56.125 -4.365 56.125 7.875 56.125 C7.875 44.245 7.875 32.365 7.875 20.125 C-4.005 20.125 -15.885 20.125 -28.125 20.125 Z " fill="#006630" transform="translate(760.125,92.875)"/>
<path d="M0 0 C13.303125 0.556875 13.303125 0.556875 26.875 1.125 C26.875 25.545 26.875 49.965 26.875 75.125 C20.605 75.125 14.335 75.125 7.875 75.125 C7.545 69.845 7.215 64.565 6.875 59.125 C6.16085937 60.28 5.44671875 61.435 4.7109375 62.625 C0.52843158 68.36188464 -3.9809019 74.02380435 -11.26452637 75.58300781 C-23.08161203 77.09201641 -35.29199889 76.05391917 -47.125 75.125 C-47.58677204 67.48173611 -47.89868507 59.84212745 -48.11376953 52.18798828 C-48.20352225 49.59352356 -48.32579436 46.99994928 -48.48291016 44.40869141 C-49.19877365 32.28580048 -49.7935296 20.80455364 -42.08660889 10.75067139 C-30.20519999 -2.01212918 -16.3146336 -0.96876174 0 0 Z M-28.125 20.125 C-28.125 32.005 -28.125 43.885 -28.125 56.125 C-16.245 56.125 -4.365 56.125 7.875 56.125 C7.875 44.245 7.875 32.365 7.875 20.125 C-4.005 20.125 -15.885 20.125 -28.125 20.125 Z " fill="#006631" transform="translate(476.125,92.875)"/>
<path d="M0 0 C6.27 0 12.54 0 19 0 C19 18.15 19 36.3 19 55 C30.88 55 42.76 55 55 55 C55 36.85 55 18.7 55 0 C61.27 0 67.54 0 74 0 C74.44979058 7.6449021 74.77365785 15.28190409 74.98876953 22.93701172 C75.07852225 25.53147644 75.20079436 28.12505072 75.35791016 30.71630859 C76.07377365 42.83919952 76.6685296 54.32044636 68.96160889 64.37432861 C62.15792168 71.68272981 55.58431073 74.8726178 45.63208008 75.65893555 C39.3281628 75.8301802 33.18218722 75.49952031 26.875 75.125 C13.571875 74.568125 13.571875 74.568125 0 74 C0 49.58 0 25.16 0 0 Z " fill="#006530" transform="translate(514,94)"/>
<path d="M0 0 C6.27 0 12.54 0 19 0 C19 24.42 19 48.84 19 74 C12.73 74 6.46 74 0 74 C0 49.58 0 25.16 0 0 Z " fill="#006630" transform="translate(683,94)"/>
<path d="M0 0 C6.27 0 12.54 0 19 0 C19 6.27 19 12.54 19 19 C12.73 19 6.46 19 0 19 C0 12.73 0 6.46 0 0 Z " fill="#006530" transform="translate(683,57)"/>
</svg>
