<svg width="244" height="42" viewBox="0 0 244 42" fill="none" xmlns="http://www.w3.org/2000/svg">
<path d="M8.20746 36.5069C5.74307 38.1562 6.91066 42 9.87608 42H213.602C214.196 42 214.777 41.8236 215.271 41.4931L240.485 24.6177C242.199 23.4702 242.271 20.9748 240.625 19.731L215.316 0.6065C214.795 0.212936 214.16 0 213.507 0H8.94623C6.06867 0 4.8418 3.65868 7.13761 5.3935L26.1115 19.731C27.7574 20.9748 27.6859 23.4702 25.9715 24.6177L8.20746 36.5069Z" fill="#7239EA"/>
<path d="M95.04 26V16.38H101.384V17.498H96.314V20.67H100.786V21.788H96.314V26H95.04ZM105.479 18.98C105.912 18.98 106.276 19.0493 106.571 19.188C106.866 19.3267 107.104 19.4913 107.286 19.682C107.468 19.864 107.607 20.0373 107.702 20.202H107.78V19.11H109.015V26H107.78V24.908H107.702C107.607 25.0727 107.468 25.2503 107.286 25.441C107.104 25.6317 106.866 25.7963 106.571 25.935C106.276 26.065 105.912 26.13 105.479 26.13C104.959 26.13 104.504 26.0303 104.114 25.831C103.724 25.623 103.399 25.35 103.139 25.012C102.879 24.6653 102.684 24.2797 102.554 23.855C102.424 23.4303 102.359 22.997 102.359 22.555C102.359 22.113 102.424 21.6797 102.554 21.255C102.684 20.8303 102.879 20.449 103.139 20.111C103.399 19.7643 103.724 19.4913 104.114 19.292C104.504 19.084 104.959 18.98 105.479 18.98ZM105.687 20.033C105.228 20.033 104.842 20.1587 104.53 20.41C104.218 20.6527 103.984 20.9647 103.828 21.346C103.681 21.7273 103.607 22.1303 103.607 22.555C103.607 22.971 103.681 23.374 103.828 23.764C103.984 24.1453 104.218 24.4617 104.53 24.713C104.842 24.9557 105.228 25.077 105.687 25.077C106.146 25.077 106.528 24.9557 106.831 24.713C107.143 24.4617 107.373 24.1453 107.52 23.764C107.676 23.374 107.754 22.971 107.754 22.555C107.754 22.1303 107.676 21.7273 107.52 21.346C107.373 20.9647 107.143 20.6527 106.831 20.41C106.528 20.1587 106.146 20.033 105.687 20.033ZM110.83 26V19.11H112.065V19.968H112.117C112.264 19.708 112.481 19.4783 112.767 19.279C113.053 19.0797 113.456 18.98 113.976 18.98C114.123 18.98 114.258 18.9887 114.379 19.006C114.5 19.0147 114.561 19.019 114.561 19.019V20.202C114.561 20.202 114.492 20.1977 114.353 20.189C114.223 20.1717 114.084 20.163 113.937 20.163C113.339 20.163 112.875 20.3363 112.546 20.683C112.225 21.021 112.065 21.5757 112.065 22.347V26H110.83ZM118.533 26.13C117.97 26.13 117.48 26.0303 117.064 25.831C116.657 25.623 116.319 25.3457 116.05 24.999C115.79 24.6523 115.595 24.271 115.465 23.855C115.335 23.4303 115.27 22.997 115.27 22.555C115.27 22.1217 115.331 21.6927 115.452 21.268C115.582 20.8433 115.777 20.4577 116.037 20.111C116.306 19.7643 116.64 19.4913 117.038 19.292C117.446 19.084 117.927 18.98 118.481 18.98C119.071 18.98 119.591 19.1143 120.041 19.383C120.492 19.6517 120.847 20.0503 121.107 20.579C121.367 21.1077 121.497 21.7707 121.497 22.568V22.932H116.518C116.544 23.322 116.635 23.6817 116.791 24.011C116.956 24.3317 117.186 24.5917 117.48 24.791C117.775 24.9817 118.126 25.077 118.533 25.077C118.889 25.077 119.175 25.0207 119.391 24.908C119.617 24.7867 119.794 24.648 119.924 24.492C120.054 24.336 120.141 24.2017 120.184 24.089C120.236 23.9677 120.262 23.907 120.262 23.907H121.419C121.419 23.907 121.398 23.985 121.354 24.141C121.311 24.2883 121.233 24.4703 121.12 24.687C121.008 24.9037 120.843 25.1247 120.626 25.35C120.41 25.5667 120.132 25.753 119.794 25.909C119.456 26.0563 119.036 26.13 118.533 26.13ZM116.531 21.97H120.288C120.271 21.5193 120.176 21.1553 120.002 20.878C119.829 20.592 119.608 20.3797 119.339 20.241C119.071 20.1023 118.785 20.033 118.481 20.033C117.935 20.033 117.489 20.2107 117.142 20.566C116.796 20.9127 116.592 21.3807 116.531 21.97ZM126.309 26V16.38H127.583V26H126.309ZM129.53 26V19.11H130.765V20.111H130.843C130.904 20.007 131.003 19.864 131.142 19.682C131.289 19.5 131.497 19.3397 131.766 19.201C132.035 19.0537 132.373 18.98 132.78 18.98C133.283 18.98 133.712 19.097 134.067 19.331C134.422 19.5563 134.691 19.864 134.873 20.254C135.064 20.644 135.159 21.0817 135.159 21.567V26H133.924V21.645C133.924 21.1857 133.794 20.8043 133.534 20.501C133.283 20.1977 132.914 20.046 132.429 20.046C132.039 20.046 131.723 20.1457 131.48 20.345C131.237 20.5357 131.055 20.7913 130.934 21.112C130.821 21.424 130.765 21.7577 130.765 22.113V26H129.53ZM137.788 26V20.124H136.657V19.11H137.788V18.265C137.788 17.901 137.853 17.5457 137.983 17.199C138.113 16.8437 138.33 16.5533 138.633 16.328C138.937 16.1027 139.348 15.99 139.868 15.99C140.12 15.99 140.319 16.0117 140.466 16.055C140.622 16.0897 140.7 16.107 140.7 16.107V17.082C140.7 17.082 140.631 17.069 140.492 17.043C140.362 17.0083 140.211 16.991 140.037 16.991C139.639 16.991 139.37 17.1123 139.231 17.355C139.093 17.5977 139.023 17.901 139.023 18.265V19.11H140.622V20.124H139.023V26H137.788ZM144.866 26.13C144.13 26.13 143.51 25.961 143.007 25.623C142.505 25.2763 142.123 24.83 141.863 24.284C141.603 23.738 141.473 23.1617 141.473 22.555C141.473 21.9397 141.603 21.3633 141.863 20.826C142.123 20.28 142.505 19.838 143.007 19.5C143.51 19.1533 144.13 18.98 144.866 18.98C145.603 18.98 146.223 19.1533 146.725 19.5C147.228 19.838 147.609 20.28 147.869 20.826C148.129 21.3633 148.259 21.9397 148.259 22.555C148.259 23.1617 148.129 23.738 147.869 24.284C147.609 24.83 147.228 25.2763 146.725 25.623C146.223 25.961 145.603 26.13 144.866 26.13ZM144.866 25.051C145.334 25.051 145.724 24.934 146.036 24.7C146.357 24.4573 146.595 24.1453 146.751 23.764C146.916 23.3827 146.998 22.9797 146.998 22.555C146.998 22.1217 146.916 21.7187 146.751 21.346C146.595 20.9647 146.357 20.657 146.036 20.423C145.724 20.1803 145.334 20.059 144.866 20.059C144.407 20.059 144.017 20.1803 143.696 20.423C143.376 20.657 143.133 20.9647 142.968 21.346C142.812 21.7187 142.734 22.1217 142.734 22.555C142.734 22.9797 142.812 23.3827 142.968 23.764C143.133 24.1453 143.376 24.4573 143.696 24.7C144.017 24.934 144.407 25.051 144.866 25.051Z" fill="white"/>
</svg>
