<svg width="218" height="42" viewBox="0 0 218 42" fill="none" xmlns="http://www.w3.org/2000/svg">
<path fill-rule="evenodd" clip-rule="evenodd" d="M193.03 0.728535C192.485 0.258558 191.79 0 191.07 0H3C1.34315 0 0 1.34315 0 3V39C0 40.6569 1.34315 42 3 42H191.171C191.829 42 192.469 41.7834 192.992 41.3837L215.067 24.5152C216.58 23.3591 216.647 21.104 215.205 19.8601L193.03 0.728535Z" fill="#7239EA"/>
<path d="M22.6963 26V16.38H29.0403V17.498H23.9703V20.67H28.4423V21.788H23.9703V26H22.6963ZM30.9228 26L30.9358 16.12H32.1578V26H30.9228ZM34.9123 17.797C34.6783 17.797 34.4833 17.719 34.3273 17.563C34.18 17.407 34.1063 17.2207 34.1063 17.004C34.1063 16.7787 34.18 16.588 34.3273 16.432C34.4833 16.276 34.6783 16.198 34.9123 16.198C35.1376 16.198 35.3283 16.276 35.4843 16.432C35.6403 16.588 35.7183 16.7787 35.7183 17.004C35.7183 17.2207 35.6403 17.407 35.4843 17.563C35.3283 17.719 35.1376 17.797 34.9123 17.797ZM34.3013 26V19.11H35.5363V26H34.3013ZM40.849 28.73C40.277 28.73 39.8004 28.652 39.419 28.496C39.0377 28.3487 38.73 28.158 38.496 27.924C38.2707 27.6987 38.1017 27.4733 37.989 27.248C37.8764 27.0227 37.8027 26.832 37.768 26.676C37.7334 26.5287 37.716 26.455 37.716 26.455H38.951C38.951 26.455 38.9727 26.5157 39.016 26.637C39.0594 26.7583 39.1417 26.897 39.263 27.053C39.393 27.209 39.5837 27.3477 39.835 27.469C40.0864 27.5903 40.4244 27.651 40.849 27.651C41.3517 27.651 41.746 27.5513 42.032 27.352C42.318 27.1613 42.5217 26.91 42.643 26.598C42.773 26.286 42.838 25.9567 42.838 25.61V24.817H42.773C42.6864 24.9643 42.5477 25.1333 42.357 25.324C42.175 25.506 41.9324 25.6663 41.629 25.805C41.3257 25.935 40.953 26 40.511 26C39.991 26 39.536 25.9003 39.146 25.701C38.756 25.5017 38.431 25.233 38.171 24.895C37.9197 24.557 37.729 24.18 37.599 23.764C37.469 23.348 37.404 22.9233 37.404 22.49C37.404 22.0567 37.469 21.632 37.599 21.216C37.729 20.8 37.9197 20.423 38.171 20.085C38.431 19.747 38.756 19.4783 39.146 19.279C39.536 19.0797 39.991 18.98 40.511 18.98C40.953 18.98 41.3257 19.0493 41.629 19.188C41.9324 19.318 42.175 19.474 42.357 19.656C42.5477 19.838 42.6864 20.007 42.773 20.163H42.838V19.11H44.073V25.597C44.073 26.559 43.7914 27.3217 43.228 27.885C42.6734 28.4483 41.8804 28.73 40.849 28.73ZM40.745 24.947C41.2044 24.947 41.5857 24.83 41.889 24.596C42.201 24.3533 42.4307 24.0457 42.578 23.673C42.734 23.3003 42.812 22.906 42.812 22.49C42.812 22.074 42.734 21.6797 42.578 21.307C42.4307 20.9257 42.201 20.618 41.889 20.384C41.5857 20.15 41.2044 20.033 40.745 20.033C40.2857 20.033 39.9 20.15 39.588 20.384C39.276 20.618 39.042 20.9257 38.886 21.307C38.7387 21.6797 38.665 22.074 38.665 22.49C38.665 22.906 38.7387 23.3003 38.886 23.673C39.042 24.0457 39.276 24.3533 39.588 24.596C39.9 24.83 40.2857 24.947 40.745 24.947ZM46.0175 26V16.12H47.2525V20.111H47.3305C47.3912 20.007 47.4909 19.864 47.6295 19.682C47.7769 19.5 47.9849 19.3397 48.2535 19.201C48.5222 19.0537 48.8602 18.98 49.2675 18.98C49.7702 18.98 50.1992 19.097 50.5545 19.331C50.9099 19.5563 51.1785 19.864 51.3605 20.254C51.5512 20.644 51.6465 21.0817 51.6465 21.567V26H50.4115V21.645C50.4115 21.1857 50.2815 20.8043 50.0215 20.501C49.7702 20.1977 49.4019 20.046 48.9165 20.046C48.5265 20.046 48.2102 20.1457 47.9675 20.345C47.7249 20.5357 47.5429 20.7913 47.4215 21.112C47.3089 21.424 47.2525 21.7577 47.2525 22.113V26H46.0175ZM56.1377 26.13C55.4271 26.13 54.8897 25.948 54.5257 25.584C54.1704 25.22 53.9927 24.7087 53.9927 24.05V20.124H52.7577V19.11H53.9927V17.381H55.2277V19.11H56.9047V20.124H55.2277V24.05C55.2277 24.3967 55.3231 24.6523 55.5137 24.817C55.7044 24.973 55.9817 25.051 56.3457 25.051C56.5364 25.051 56.7184 25.038 56.8917 25.012C57.0651 24.986 57.1517 24.973 57.1517 24.973V26.026C57.1517 26.026 57.0521 26.0433 56.8527 26.078C56.6534 26.1127 56.4151 26.13 56.1377 26.13ZM61.8994 26V16.38H65.0194C65.7907 16.38 66.4624 16.5187 67.0344 16.796C67.6064 17.0647 68.083 17.4287 68.4644 17.888C68.8457 18.3473 69.1317 18.863 69.3224 19.435C69.513 20.007 69.6084 20.592 69.6084 21.19C69.6084 21.788 69.513 22.373 69.3224 22.945C69.1317 23.517 68.8457 24.0327 68.4644 24.492C68.083 24.9513 67.6064 25.3197 67.0344 25.597C66.4624 25.8657 65.7907 26 65.0194 26H61.8994ZM64.9674 17.498H63.1734V24.882H64.9674C65.5307 24.882 66.0204 24.778 66.4364 24.57C66.861 24.362 67.212 24.0847 67.4894 23.738C67.7754 23.3827 67.9877 22.984 68.1264 22.542C68.265 22.1 68.3344 21.6493 68.3344 21.19C68.3344 20.7307 68.265 20.28 68.1264 19.838C67.9877 19.396 67.7754 19.0017 67.4894 18.655C67.212 18.2997 66.861 18.018 66.4364 17.81C66.0204 17.602 65.5307 17.498 64.9674 17.498ZM74.3604 26.13C73.797 26.13 73.3074 26.0303 72.8914 25.831C72.484 25.623 72.146 25.3457 71.8774 24.999C71.6174 24.6523 71.4224 24.271 71.2924 23.855C71.1624 23.4303 71.0974 22.997 71.0974 22.555C71.0974 22.1217 71.158 21.6927 71.2794 21.268C71.4094 20.8433 71.6044 20.4577 71.8644 20.111C72.133 19.7643 72.4667 19.4913 72.8654 19.292C73.2727 19.084 73.7537 18.98 74.3084 18.98C74.8977 18.98 75.4177 19.1143 75.8684 19.383C76.319 19.6517 76.6744 20.0503 76.9344 20.579C77.1944 21.1077 77.3244 21.7707 77.3244 22.568V22.932H72.3454C72.3714 23.322 72.4624 23.6817 72.6184 24.011C72.783 24.3317 73.0127 24.5917 73.3074 24.791C73.602 24.9817 73.953 25.077 74.3604 25.077C74.7157 25.077 75.0017 25.0207 75.2184 24.908C75.4437 24.7867 75.6214 24.648 75.7514 24.492C75.8814 24.336 75.968 24.2017 76.0114 24.089C76.0634 23.9677 76.0894 23.907 76.0894 23.907H77.2464C77.2464 23.907 77.2247 23.985 77.1814 24.141C77.138 24.2883 77.06 24.4703 76.9474 24.687C76.8347 24.9037 76.67 25.1247 76.4534 25.35C76.2367 25.5667 75.9594 25.753 75.6214 25.909C75.2834 26.0563 74.863 26.13 74.3604 26.13ZM72.3584 21.97H76.1154C76.098 21.5193 76.0027 21.1553 75.8294 20.878C75.656 20.592 75.435 20.3797 75.1664 20.241C74.8977 20.1023 74.6117 20.033 74.3084 20.033C73.7624 20.033 73.316 20.2107 72.9694 20.566C72.6227 20.9127 72.419 21.3807 72.3584 21.97ZM81.8077 26.13C81.097 26.13 80.5597 25.948 80.1957 25.584C79.8403 25.22 79.6627 24.7087 79.6627 24.05V20.124H78.4277V19.11H79.6627V17.381H80.8977V19.11H82.5747V20.124H80.8977V24.05C80.8977 24.3967 80.993 24.6523 81.1837 24.817C81.3743 24.973 81.6517 25.051 82.0157 25.051C82.2063 25.051 82.3883 25.038 82.5617 25.012C82.735 24.986 82.8217 24.973 82.8217 24.973V26.026C82.8217 26.026 82.722 26.0433 82.5227 26.078C82.3233 26.1127 82.085 26.13 81.8077 26.13ZM87.1793 18.98C87.6126 18.98 87.9766 19.0493 88.2713 19.188C88.566 19.3267 88.8043 19.4913 88.9863 19.682C89.1683 19.864 89.307 20.0373 89.4023 20.202H89.4803V19.11H90.7153V26H89.4803V24.908H89.4023C89.307 25.0727 89.1683 25.2503 88.9863 25.441C88.8043 25.6317 88.566 25.7963 88.2713 25.935C87.9766 26.065 87.6126 26.13 87.1793 26.13C86.6593 26.13 86.2043 26.0303 85.8143 25.831C85.4243 25.623 85.0993 25.35 84.8393 25.012C84.5793 24.6653 84.3843 24.2797 84.2543 23.855C84.1243 23.4303 84.0593 22.997 84.0593 22.555C84.0593 22.113 84.1243 21.6797 84.2543 21.255C84.3843 20.8303 84.5793 20.449 84.8393 20.111C85.0993 19.7643 85.4243 19.4913 85.8143 19.292C86.2043 19.084 86.6593 18.98 87.1793 18.98ZM87.3873 20.033C86.928 20.033 86.5423 20.1587 86.2303 20.41C85.9183 20.6527 85.6843 20.9647 85.5283 21.346C85.381 21.7273 85.3073 22.1303 85.3073 22.555C85.3073 22.971 85.381 23.374 85.5283 23.764C85.6843 24.1453 85.9183 24.4617 86.2303 24.713C86.5423 24.9557 86.928 25.077 87.3873 25.077C87.8466 25.077 88.228 24.9557 88.5313 24.713C88.8433 24.4617 89.073 24.1453 89.2203 23.764C89.3763 23.374 89.4543 22.971 89.4543 22.555C89.4543 22.1303 89.3763 21.7273 89.2203 21.346C89.073 20.9647 88.8433 20.6527 88.5313 20.41C88.228 20.1587 87.8466 20.033 87.3873 20.033ZM93.3361 17.797C93.1021 17.797 92.9071 17.719 92.7511 17.563C92.6038 17.407 92.5301 17.2207 92.5301 17.004C92.5301 16.7787 92.6038 16.588 92.7511 16.432C92.9071 16.276 93.1021 16.198 93.3361 16.198C93.5615 16.198 93.7521 16.276 93.9081 16.432C94.0641 16.588 94.1421 16.7787 94.1421 17.004C94.1421 17.2207 94.0641 17.407 93.9081 17.563C93.7521 17.719 93.5615 17.797 93.3361 17.797ZM92.7251 26V19.11H93.9601V26H92.7251ZM96.0879 26L96.1009 16.12H97.3229V26H96.0879ZM101.793 26.13C101.265 26.13 100.827 26.0563 100.48 25.909C100.142 25.7617 99.8737 25.5797 99.6743 25.363C99.475 25.1377 99.3277 24.9167 99.2323 24.7C99.137 24.4747 99.0763 24.2883 99.0503 24.141C99.0243 23.9937 99.0113 23.92 99.0113 23.92H100.259C100.259 23.92 100.272 23.9807 100.298 24.102C100.333 24.2147 100.398 24.349 100.493 24.505C100.597 24.6523 100.753 24.7867 100.961 24.908C101.178 25.0207 101.464 25.077 101.819 25.077C102.227 25.077 102.543 24.9817 102.768 24.791C102.994 24.5917 103.106 24.349 103.106 24.063C103.106 23.8117 103.015 23.6123 102.833 23.465C102.66 23.3177 102.409 23.205 102.079 23.127L101.143 22.906C100.797 22.8193 100.472 22.7023 100.168 22.555C99.865 22.4077 99.618 22.2083 99.4273 21.957C99.2453 21.697 99.1543 21.3763 99.1543 20.995C99.1543 20.4057 99.3753 19.9247 99.8173 19.552C100.259 19.1707 100.836 18.98 101.546 18.98C102.023 18.98 102.417 19.0493 102.729 19.188C103.041 19.318 103.288 19.4827 103.47 19.682C103.661 19.8813 103.8 20.0807 103.886 20.28C103.982 20.4793 104.042 20.6483 104.068 20.787C104.094 20.917 104.107 20.982 104.107 20.982H102.911C102.911 20.982 102.898 20.9343 102.872 20.839C102.846 20.735 102.786 20.6223 102.69 20.501C102.604 20.371 102.469 20.2583 102.287 20.163C102.105 20.059 101.863 20.007 101.559 20.007C101.143 20.007 100.84 20.1023 100.649 20.293C100.459 20.4837 100.363 20.6917 100.363 20.917C100.363 21.1337 100.45 21.3113 100.623 21.45C100.805 21.58 101.039 21.6797 101.325 21.749L102.274 21.97C102.864 22.1087 103.349 22.3383 103.73 22.659C104.12 22.971 104.315 23.4217 104.315 24.011C104.315 24.3923 104.216 24.7477 104.016 25.077C103.817 25.3977 103.531 25.6533 103.158 25.844C102.786 26.0347 102.331 26.13 101.793 26.13Z" fill="white"/>
</svg>
