<svg width="244" height="42" viewBox="0 0 244 42" fill="none" xmlns="http://www.w3.org/2000/svg">
<path d="M8.20746 36.5069C5.74307 38.1562 6.91066 42 9.87608 42H213.602C214.196 42 214.777 41.8236 215.271 41.4931L240.485 24.6177C242.199 23.4702 242.271 20.9748 240.625 19.731L215.316 0.6065C214.795 0.212936 214.16 0 213.507 0H8.94623C6.06867 0 4.8418 3.65868 7.13761 5.3935L26.1115 19.731C27.7574 20.9748 27.6859 23.4702 25.9715 24.6177L8.20746 36.5069Z" fill="#7239EA"/>
<path d="M66.04 26V16.38H69.446C70.1307 16.38 70.6983 16.5143 71.149 16.783C71.5997 17.0517 71.9377 17.3983 72.163 17.823C72.3883 18.2477 72.501 18.694 72.501 19.162C72.501 19.552 72.423 19.929 72.267 20.293C72.111 20.657 71.877 20.9777 71.565 21.255C71.2617 21.5237 70.876 21.7187 70.408 21.84L72.839 26H71.396L69.069 21.957H67.314V26H66.04ZM69.433 17.498H67.314V20.865H69.433C69.8317 20.865 70.161 20.7827 70.421 20.618C70.681 20.4533 70.876 20.2453 71.006 19.994C71.136 19.734 71.201 19.4653 71.201 19.188C71.201 18.902 71.136 18.6333 71.006 18.382C70.876 18.122 70.681 17.9097 70.421 17.745C70.161 17.5803 69.8317 17.498 69.433 17.498ZM77.0791 26.13C76.5158 26.13 76.0261 26.0303 75.6101 25.831C75.2028 25.623 74.8648 25.3457 74.5961 24.999C74.3361 24.6523 74.1411 24.271 74.0111 23.855C73.8811 23.4303 73.8161 22.997 73.8161 22.555C73.8161 22.1217 73.8768 21.6927 73.9981 21.268C74.1281 20.8433 74.3231 20.4577 74.5831 20.111C74.8518 19.7643 75.1855 19.4913 75.5841 19.292C75.9915 19.084 76.4725 18.98 77.0271 18.98C77.6165 18.98 78.1365 19.1143 78.5871 19.383C79.0378 19.6517 79.3931 20.0503 79.6531 20.579C79.9131 21.1077 80.0431 21.7707 80.0431 22.568V22.932H75.0641C75.0901 23.322 75.1811 23.6817 75.3371 24.011C75.5018 24.3317 75.7315 24.5917 76.0261 24.791C76.3208 24.9817 76.6718 25.077 77.0791 25.077C77.4345 25.077 77.7205 25.0207 77.9371 24.908C78.1625 24.7867 78.3401 24.648 78.4701 24.492C78.6001 24.336 78.6868 24.2017 78.7301 24.089C78.7821 23.9677 78.8081 23.907 78.8081 23.907H79.9651C79.9651 23.907 79.9435 23.985 79.9001 24.141C79.8568 24.2883 79.7788 24.4703 79.6661 24.687C79.5535 24.9037 79.3888 25.1247 79.1721 25.35C78.9555 25.5667 78.6781 25.753 78.3401 25.909C78.0021 26.0563 77.5818 26.13 77.0791 26.13ZM75.0771 21.97H78.8341C78.8168 21.5193 78.7215 21.1553 78.5481 20.878C78.3748 20.592 78.1538 20.3797 77.8851 20.241C77.6165 20.1023 77.3305 20.033 77.0271 20.033C76.4811 20.033 76.0348 20.2107 75.6881 20.566C75.3415 20.9127 75.1378 21.3807 75.0771 21.97ZM83.6455 26L81.0195 19.11H82.3065L84.3215 24.492L86.2975 19.11H87.5975L84.9585 26H83.6455ZM89.7707 17.797C89.5367 17.797 89.3417 17.719 89.1857 17.563C89.0384 17.407 88.9647 17.2207 88.9647 17.004C88.9647 16.7787 89.0384 16.588 89.1857 16.432C89.3417 16.276 89.5367 16.198 89.7707 16.198C89.996 16.198 90.1867 16.276 90.3427 16.432C90.4987 16.588 90.5767 16.7787 90.5767 17.004C90.5767 17.2207 90.4987 17.407 90.3427 17.563C90.1867 17.719 89.996 17.797 89.7707 17.797ZM89.1597 26V19.11H90.3947V26H89.1597ZM95.5254 26.13C94.9621 26.13 94.4724 26.0303 94.0564 25.831C93.6491 25.623 93.3111 25.3457 93.0424 24.999C92.7824 24.6523 92.5874 24.271 92.4574 23.855C92.3274 23.4303 92.2624 22.997 92.2624 22.555C92.2624 22.1217 92.3231 21.6927 92.4444 21.268C92.5744 20.8433 92.7694 20.4577 93.0294 20.111C93.2981 19.7643 93.6318 19.4913 94.0304 19.292C94.4378 19.084 94.9188 18.98 95.4734 18.98C96.0628 18.98 96.5828 19.1143 97.0334 19.383C97.4841 19.6517 97.8394 20.0503 98.0994 20.579C98.3594 21.1077 98.4894 21.7707 98.4894 22.568V22.932H93.5104C93.5364 23.322 93.6274 23.6817 93.7834 24.011C93.9481 24.3317 94.1778 24.5917 94.4724 24.791C94.7671 24.9817 95.1181 25.077 95.5254 25.077C95.8808 25.077 96.1668 25.0207 96.3834 24.908C96.6088 24.7867 96.7864 24.648 96.9164 24.492C97.0464 24.336 97.1331 24.2017 97.1764 24.089C97.2284 23.9677 97.2544 23.907 97.2544 23.907H98.4114C98.4114 23.907 98.3898 23.985 98.3464 24.141C98.3031 24.2883 98.2251 24.4703 98.1124 24.687C97.9998 24.9037 97.8351 25.1247 97.6184 25.35C97.4018 25.5667 97.1244 25.753 96.7864 25.909C96.4484 26.0563 96.0281 26.13 95.5254 26.13ZM93.5234 21.97H97.2804C97.2631 21.5193 97.1678 21.1553 96.9944 20.878C96.8211 20.592 96.6001 20.3797 96.3314 20.241C96.0628 20.1023 95.7768 20.033 95.4734 20.033C94.9274 20.033 94.4811 20.2107 94.1344 20.566C93.7878 20.9127 93.5841 21.3807 93.5234 21.97ZM101.689 26L99.4657 19.11H100.727L102.365 24.336L104.081 19.11H105.251L106.954 24.336L108.605 19.11H109.866L107.63 26H106.304L104.666 20.917L103.028 26H101.689ZM117.439 26.13C116.841 26.13 116.291 26.0217 115.788 25.805C115.286 25.5883 114.883 25.2763 114.579 24.869C114.276 24.4617 114.124 23.9677 114.124 23.387C114.124 22.763 114.306 22.23 114.67 21.788C115.043 21.3373 115.524 20.943 116.113 20.605L116.009 20.488C115.784 20.228 115.576 19.9377 115.385 19.617C115.195 19.2963 115.099 18.9063 115.099 18.447C115.099 17.9617 115.208 17.5587 115.424 17.238C115.65 16.9087 115.94 16.6617 116.295 16.497C116.651 16.3323 117.023 16.25 117.413 16.25C117.803 16.25 118.167 16.328 118.505 16.484C118.852 16.64 119.129 16.8697 119.337 17.173C119.554 17.4763 119.662 17.849 119.662 18.291C119.662 18.811 119.498 19.2833 119.168 19.708C118.839 20.1327 118.371 20.4967 117.764 20.8L120.104 23.439C120.286 23.0837 120.429 22.659 120.533 22.165C120.637 21.671 120.689 21.1077 120.689 20.475H121.742C121.742 21.2983 121.66 22.0263 121.495 22.659C121.339 23.2917 121.123 23.8333 120.845 24.284L122.353 25.987H120.793L120.091 25.181C119.719 25.5017 119.307 25.74 118.856 25.896C118.406 26.052 117.933 26.13 117.439 26.13ZM116.997 19.929L117.14 20.085L117.231 20.046C117.647 19.8467 117.972 19.604 118.206 19.318C118.449 19.0233 118.57 18.7027 118.57 18.356C118.57 17.992 118.453 17.7147 118.219 17.524C117.994 17.3247 117.73 17.225 117.426 17.225C117.106 17.225 116.82 17.3333 116.568 17.55C116.326 17.758 116.204 18.044 116.204 18.408C116.204 18.668 116.274 18.915 116.412 19.149C116.551 19.383 116.746 19.643 116.997 19.929ZM115.294 23.283C115.294 23.6643 115.394 23.9937 115.593 24.271C115.793 24.5397 116.057 24.7433 116.386 24.882C116.724 25.0207 117.097 25.09 117.504 25.09C117.86 25.09 118.198 25.0337 118.518 24.921C118.848 24.8083 119.142 24.6307 119.402 24.388L116.724 21.307C116.3 21.5497 115.953 21.8313 115.684 22.152C115.424 22.4727 115.294 22.8497 115.294 23.283ZM131.203 26.13C130.449 26.13 129.786 25.9913 129.214 25.714C128.642 25.428 128.165 25.051 127.784 24.583C127.411 24.1063 127.129 23.5777 126.939 22.997C126.748 22.4077 126.653 21.8053 126.653 21.19C126.653 20.5747 126.748 19.9723 126.939 19.383C127.129 18.7937 127.411 18.265 127.784 17.797C128.165 17.3203 128.642 16.9433 129.214 16.666C129.786 16.3887 130.449 16.25 131.203 16.25C131.827 16.25 132.36 16.3323 132.801 16.497C133.252 16.653 133.625 16.8567 133.92 17.108C134.223 17.3593 134.466 17.628 134.648 17.914C134.838 18.2 134.977 18.4687 135.064 18.72C135.159 18.9713 135.22 19.1793 135.246 19.344C135.28 19.5 135.298 19.578 135.298 19.578H134.024C134.024 19.578 134.006 19.5087 133.972 19.37C133.937 19.2227 133.868 19.045 133.764 18.837C133.66 18.6203 133.504 18.4037 133.296 18.187C133.088 17.9703 132.815 17.7927 132.477 17.654C132.139 17.5067 131.718 17.433 131.216 17.433C130.67 17.433 130.193 17.5413 129.786 17.758C129.378 17.966 129.036 18.252 128.759 18.616C128.49 18.9713 128.286 19.3743 128.148 19.825C128.018 20.267 127.953 20.722 127.953 21.19C127.953 21.658 128.018 22.1173 128.148 22.568C128.286 23.01 128.49 23.413 128.759 23.777C129.036 24.1323 129.378 24.4183 129.786 24.635C130.193 24.843 130.67 24.947 131.216 24.947C131.718 24.947 132.139 24.8733 132.477 24.726C132.815 24.5787 133.088 24.401 133.296 24.193C133.504 23.9763 133.66 23.764 133.764 23.556C133.868 23.3393 133.937 23.1573 133.972 23.01C134.006 22.8627 134.024 22.789 134.024 22.789H135.298C135.298 22.789 135.28 22.8713 135.246 23.036C135.22 23.192 135.159 23.4 135.064 23.66C134.977 23.9113 134.838 24.18 134.648 24.466C134.466 24.7433 134.223 25.012 133.92 25.272C133.625 25.5233 133.252 25.7313 132.801 25.896C132.36 26.052 131.827 26.13 131.203 26.13ZM140.191 26.13C139.454 26.13 138.834 25.961 138.332 25.623C137.829 25.2763 137.448 24.83 137.188 24.284C136.928 23.738 136.798 23.1617 136.798 22.555C136.798 21.9397 136.928 21.3633 137.188 20.826C137.448 20.28 137.829 19.838 138.332 19.5C138.834 19.1533 139.454 18.98 140.191 18.98C140.927 18.98 141.547 19.1533 142.05 19.5C142.552 19.838 142.934 20.28 143.194 20.826C143.454 21.3633 143.584 21.9397 143.584 22.555C143.584 23.1617 143.454 23.738 143.194 24.284C142.934 24.83 142.552 25.2763 142.05 25.623C141.547 25.961 140.927 26.13 140.191 26.13ZM140.191 25.051C140.659 25.051 141.049 24.934 141.361 24.7C141.681 24.4573 141.92 24.1453 142.076 23.764C142.24 23.3827 142.323 22.9797 142.323 22.555C142.323 22.1217 142.24 21.7187 142.076 21.346C141.92 20.9647 141.681 20.657 141.361 20.423C141.049 20.1803 140.659 20.059 140.191 20.059C139.731 20.059 139.341 20.1803 139.021 20.423C138.7 20.657 138.457 20.9647 138.293 21.346C138.137 21.7187 138.059 22.1217 138.059 22.555C138.059 22.9797 138.137 23.3827 138.293 23.764C138.457 24.1453 138.7 24.4573 139.021 24.7C139.341 24.934 139.731 25.051 140.191 25.051ZM145.268 26V19.11H146.503V20.111H146.581C146.642 20.007 146.742 19.864 146.88 19.682C147.028 19.5 147.236 19.3397 147.504 19.201C147.773 19.0537 148.111 18.98 148.518 18.98C149.021 18.98 149.45 19.097 149.805 19.331C150.161 19.5563 150.429 19.864 150.611 20.254C150.802 20.644 150.897 21.0817 150.897 21.567V26H149.662V21.645C149.662 21.1857 149.532 20.8043 149.272 20.501C149.021 20.1977 148.653 20.046 148.167 20.046C147.777 20.046 147.461 20.1457 147.218 20.345C146.976 20.5357 146.794 20.7913 146.672 21.112C146.56 21.424 146.503 21.7577 146.503 22.113V26H145.268ZM153.527 26V20.124H152.396V19.11H153.527V18.265C153.527 17.901 153.592 17.5457 153.722 17.199C153.852 16.8437 154.068 16.5533 154.372 16.328C154.675 16.1027 155.087 15.99 155.607 15.99C155.858 15.99 156.057 16.0117 156.205 16.055C156.361 16.0897 156.439 16.107 156.439 16.107V17.082C156.439 17.082 156.369 17.069 156.231 17.043C156.101 17.0083 155.949 16.991 155.776 16.991C155.377 16.991 155.108 17.1123 154.97 17.355C154.831 17.5977 154.762 17.901 154.762 18.265V19.11H159.247V26H158.012V20.124H154.762V26H153.527ZM158.623 17.797C158.389 17.797 158.194 17.719 158.038 17.563C157.89 17.407 157.817 17.2207 157.817 17.004C157.817 16.7787 157.89 16.588 158.038 16.432C158.194 16.276 158.389 16.198 158.623 16.198C158.848 16.198 159.039 16.276 159.195 16.432C159.351 16.588 159.429 16.7787 159.429 17.004C159.429 17.2207 159.351 17.407 159.195 17.563C159.039 17.719 158.848 17.797 158.623 17.797ZM161.252 26V19.11H162.487V19.968H162.539C162.686 19.708 162.903 19.4783 163.189 19.279C163.475 19.0797 163.878 18.98 164.398 18.98C164.545 18.98 164.679 18.9887 164.801 19.006C164.922 19.0147 164.983 19.019 164.983 19.019V20.202C164.983 20.202 164.913 20.1977 164.775 20.189C164.645 20.1717 164.506 20.163 164.359 20.163C163.761 20.163 163.297 20.3363 162.968 20.683C162.647 21.021 162.487 21.5757 162.487 22.347V26H161.252ZM166.343 26V19.11H167.578V20.111H167.63C167.699 19.981 167.807 19.8293 167.955 19.656C168.102 19.474 168.301 19.318 168.553 19.188C168.813 19.0493 169.138 18.98 169.528 18.98C170.039 18.98 170.468 19.1057 170.815 19.357C171.17 19.5997 171.434 19.929 171.608 20.345H171.621C171.811 19.9637 172.08 19.643 172.427 19.383C172.782 19.1143 173.241 18.98 173.805 18.98C174.55 18.98 175.122 19.2357 175.521 19.747C175.928 20.2497 176.132 20.8997 176.132 21.697V26H174.897V21.762C174.897 21.2507 174.775 20.839 174.533 20.527C174.29 20.2063 173.939 20.046 173.48 20.046C173.081 20.046 172.76 20.1543 172.518 20.371C172.284 20.5877 172.115 20.8563 172.011 21.177C171.907 21.4977 171.855 21.8183 171.855 22.139V26H170.62V21.762C170.62 21.2507 170.498 20.839 170.256 20.527C170.022 20.2063 169.671 20.046 169.203 20.046C168.804 20.046 168.483 20.1543 168.241 20.371C168.007 20.5877 167.838 20.8607 167.734 21.19C167.63 21.5107 167.578 21.827 167.578 22.139V26H166.343Z" fill="white"/>
</svg>
