<svg width="244" height="42" viewBox="0 0 244 42" fill="none" xmlns="http://www.w3.org/2000/svg">
<path d="M7.00754 36.6204C4.73418 38.3656 5.96836 42 8.83437 42H213.602C214.196 42 214.777 41.8236 215.271 41.4931L240.485 24.6177C242.199 23.4702 242.271 20.9748 240.625 19.731L215.316 0.6065C214.795 0.212936 214.16 0 213.507 0H8.17253C5.37988 0 4.10217 3.4807 6.23157 5.28751L23.1534 19.6457C24.611 20.8825 24.5556 23.1488 23.0393 24.3129L7.00754 36.6204Z" fill="#E4EAEF"/>
<path d="M85.588 26V17.498H82.585V16.38H89.865V17.498H86.862V26H85.588ZM90.451 26V19.11H91.686V19.968H91.738C91.8853 19.708 92.102 19.4783 92.388 19.279C92.674 19.0797 93.077 18.98 93.597 18.98C93.7443 18.98 93.8787 18.9887 94 19.006C94.1213 19.0147 94.182 19.019 94.182 19.019V20.202C94.182 20.202 94.1127 20.1977 93.974 20.189C93.844 20.1717 93.7053 20.163 93.558 20.163C92.96 20.163 92.4963 20.3363 92.167 20.683C91.8463 21.021 91.686 21.5757 91.686 22.347V26H90.451ZM98.0113 18.98C98.4447 18.98 98.8087 19.0493 99.1033 19.188C99.398 19.3267 99.6363 19.4913 99.8183 19.682C100 19.864 100.139 20.0373 100.234 20.202H100.312V19.11H101.547V26H100.312V24.908H100.234C100.139 25.0727 100 25.2503 99.8183 25.441C99.6363 25.6317 99.398 25.7963 99.1033 25.935C98.8087 26.065 98.4447 26.13 98.0113 26.13C97.4913 26.13 97.0363 26.0303 96.6463 25.831C96.2563 25.623 95.9313 25.35 95.6713 25.012C95.4113 24.6653 95.2163 24.2797 95.0863 23.855C94.9563 23.4303 94.8913 22.997 94.8913 22.555C94.8913 22.113 94.9563 21.6797 95.0863 21.255C95.2163 20.8303 95.4113 20.449 95.6713 20.111C95.9313 19.7643 96.2563 19.4913 96.6463 19.292C97.0363 19.084 97.4913 18.98 98.0113 18.98ZM98.2193 20.033C97.76 20.033 97.3743 20.1587 97.0623 20.41C96.7503 20.6527 96.5163 20.9647 96.3603 21.346C96.213 21.7273 96.1393 22.1303 96.1393 22.555C96.1393 22.971 96.213 23.374 96.3603 23.764C96.5163 24.1453 96.7503 24.4617 97.0623 24.713C97.3743 24.9557 97.76 25.077 98.2193 25.077C98.6787 25.077 99.06 24.9557 99.3633 24.713C99.6753 24.4617 99.905 24.1453 100.052 23.764C100.208 23.374 100.286 22.971 100.286 22.555C100.286 22.1303 100.208 21.7273 100.052 21.346C99.905 20.9647 99.6753 20.6527 99.3633 20.41C99.06 20.1587 98.6787 20.033 98.2193 20.033ZM105.279 26L102.653 19.11H103.94L105.955 24.492L107.931 19.11H109.231L106.592 26H105.279ZM113.478 26.13C112.914 26.13 112.425 26.0303 112.009 25.831C111.601 25.623 111.263 25.3457 110.995 24.999C110.735 24.6523 110.54 24.271 110.41 23.855C110.28 23.4303 110.215 22.997 110.215 22.555C110.215 22.1217 110.275 21.6927 110.397 21.268C110.527 20.8433 110.722 20.4577 110.982 20.111C111.25 19.7643 111.584 19.4913 111.983 19.292C112.39 19.084 112.871 18.98 113.426 18.98C114.015 18.98 114.535 19.1143 114.986 19.383C115.436 19.6517 115.792 20.0503 116.052 20.579C116.312 21.1077 116.442 21.7707 116.442 22.568V22.932H111.463C111.489 23.322 111.58 23.6817 111.736 24.011C111.9 24.3317 112.13 24.5917 112.425 24.791C112.719 24.9817 113.07 25.077 113.478 25.077C113.833 25.077 114.119 25.0207 114.336 24.908C114.561 24.7867 114.739 24.648 114.869 24.492C114.999 24.336 115.085 24.2017 115.129 24.089C115.181 23.9677 115.207 23.907 115.207 23.907H116.364C116.364 23.907 116.342 23.985 116.299 24.141C116.255 24.2883 116.177 24.4703 116.065 24.687C115.952 24.9037 115.787 25.1247 115.571 25.35C115.354 25.5667 115.077 25.753 114.739 25.909C114.401 26.0563 113.98 26.13 113.478 26.13ZM111.476 21.97H115.233C115.215 21.5193 115.12 21.1553 114.947 20.878C114.773 20.592 114.552 20.3797 114.284 20.241C114.015 20.1023 113.729 20.033 113.426 20.033C112.88 20.033 112.433 20.2107 112.087 20.566C111.74 20.9127 111.536 21.3807 111.476 21.97ZM118.257 26L118.27 16.12H119.492V26H118.257ZM124.573 26.13C124.01 26.13 123.52 26.0303 123.104 25.831C122.697 25.623 122.359 25.3457 122.09 24.999C121.83 24.6523 121.635 24.271 121.505 23.855C121.375 23.4303 121.31 22.997 121.31 22.555C121.31 22.1217 121.371 21.6927 121.492 21.268C121.622 20.8433 121.817 20.4577 122.077 20.111C122.346 19.7643 122.68 19.4913 123.078 19.292C123.486 19.084 123.967 18.98 124.521 18.98C125.111 18.98 125.631 19.1143 126.081 19.383C126.532 19.6517 126.887 20.0503 127.147 20.579C127.407 21.1077 127.537 21.7707 127.537 22.568V22.932H122.558C122.584 23.322 122.675 23.6817 122.831 24.011C122.996 24.3317 123.226 24.5917 123.52 24.791C123.815 24.9817 124.166 25.077 124.573 25.077C124.929 25.077 125.215 25.0207 125.431 24.908C125.657 24.7867 125.834 24.648 125.964 24.492C126.094 24.336 126.181 24.2017 126.224 24.089C126.276 23.9677 126.302 23.907 126.302 23.907H127.459C127.459 23.907 127.438 23.985 127.394 24.141C127.351 24.2883 127.273 24.4703 127.16 24.687C127.048 24.9037 126.883 25.1247 126.666 25.35C126.45 25.5667 126.172 25.753 125.834 25.909C125.496 26.0563 125.076 26.13 124.573 26.13ZM122.571 21.97H126.328C126.311 21.5193 126.216 21.1553 126.042 20.878C125.869 20.592 125.648 20.3797 125.379 20.241C125.111 20.1023 124.825 20.033 124.521 20.033C123.975 20.033 123.529 20.2107 123.182 20.566C122.836 20.9127 122.632 21.3807 122.571 21.97ZM129.223 26V19.11H130.458V19.968H130.51C130.657 19.708 130.874 19.4783 131.16 19.279C131.446 19.0797 131.849 18.98 132.369 18.98C132.516 18.98 132.65 18.9887 132.772 19.006C132.893 19.0147 132.954 19.019 132.954 19.019V20.202C132.954 20.202 132.884 20.1977 132.746 20.189C132.616 20.1717 132.477 20.163 132.33 20.163C131.732 20.163 131.268 20.3363 130.939 20.683C130.618 21.021 130.458 21.5757 130.458 22.347V26H129.223ZM137.439 26V16.38H138.713V26H137.439ZM140.661 26V19.11H141.896V20.111H141.974C142.035 20.007 142.134 19.864 142.273 19.682C142.42 19.5 142.628 19.3397 142.897 19.201C143.166 19.0537 143.504 18.98 143.911 18.98C144.414 18.98 144.843 19.097 145.198 19.331C145.553 19.5563 145.822 19.864 146.004 20.254C146.195 20.644 146.29 21.0817 146.29 21.567V26H145.055V21.645C145.055 21.1857 144.925 20.8043 144.665 20.501C144.414 20.1977 144.045 20.046 143.56 20.046C143.17 20.046 142.854 20.1457 142.611 20.345C142.368 20.5357 142.186 20.7913 142.065 21.112C141.952 21.424 141.896 21.7577 141.896 22.113V26H140.661ZM148.919 26V20.124H147.788V19.11H148.919V18.265C148.919 17.901 148.984 17.5457 149.114 17.199C149.244 16.8437 149.461 16.5533 149.764 16.328C150.067 16.1027 150.479 15.99 150.999 15.99C151.25 15.99 151.45 16.0117 151.597 16.055C151.753 16.0897 151.831 16.107 151.831 16.107V17.082C151.831 17.082 151.762 17.069 151.623 17.043C151.493 17.0083 151.341 16.991 151.168 16.991C150.769 16.991 150.501 17.1123 150.362 17.355C150.223 17.5977 150.154 17.901 150.154 18.265V19.11H151.753V20.124H150.154V26H148.919ZM155.997 26.13C155.261 26.13 154.641 25.961 154.138 25.623C153.636 25.2763 153.254 24.83 152.994 24.284C152.734 23.738 152.604 23.1617 152.604 22.555C152.604 21.9397 152.734 21.3633 152.994 20.826C153.254 20.28 153.636 19.838 154.138 19.5C154.641 19.1533 155.261 18.98 155.997 18.98C156.734 18.98 157.354 19.1533 157.856 19.5C158.359 19.838 158.74 20.28 159 20.826C159.26 21.3633 159.39 21.9397 159.39 22.555C159.39 23.1617 159.26 23.738 159 24.284C158.74 24.83 158.359 25.2763 157.856 25.623C157.354 25.961 156.734 26.13 155.997 26.13ZM155.997 25.051C156.465 25.051 156.855 24.934 157.167 24.7C157.488 24.4573 157.726 24.1453 157.882 23.764C158.047 23.3827 158.129 22.9797 158.129 22.555C158.129 22.1217 158.047 21.7187 157.882 21.346C157.726 20.9647 157.488 20.657 157.167 20.423C156.855 20.1803 156.465 20.059 155.997 20.059C155.538 20.059 155.148 20.1803 154.827 20.423C154.507 20.657 154.264 20.9647 154.099 21.346C153.943 21.7187 153.865 22.1217 153.865 22.555C153.865 22.9797 153.943 23.3827 154.099 23.764C154.264 24.1453 154.507 24.4573 154.827 24.7C155.148 24.934 155.538 25.051 155.997 25.051Z" fill="#A1ABB7"/>
</svg>
