<svg width="237" height="42" viewBox="0 0 237 42" fill="none" xmlns="http://www.w3.org/2000/svg">
<path d="M7.90435 36.5998C5.59766 38.3295 6.82097 42 9.70414 42H206.852C207.464 42 208.062 41.8125 208.565 41.4627L232.821 24.5892C234.477 23.4375 234.547 21.0129 232.961 19.7672L208.608 0.640685C208.08 0.225617 207.427 0 206.755 0H8.21726C5.41937 0 4.14461 3.49167 6.28439 5.29433L23.822 20.0691C25.2979 21.3125 25.2329 23.6058 23.6889 24.7636L7.90435 36.5998Z" fill="#E4EAEF"/>
<path d="M64.585 26L67.978 16.38H69.577L72.983 26H71.631L70.825 23.699H66.743L65.937 26H64.585ZM67.133 22.555H70.435L68.784 17.836L67.133 22.555ZM77.2184 26.13C76.6984 26.13 76.2434 26.0303 75.8534 25.831C75.4634 25.623 75.1384 25.35 74.8784 25.012C74.6184 24.6653 74.4234 24.2797 74.2934 23.855C74.1634 23.4303 74.0984 22.997 74.0984 22.555C74.0984 22.113 74.1634 21.6797 74.2934 21.255C74.4234 20.8303 74.6184 20.449 74.8784 20.111C75.1384 19.7643 75.4634 19.4913 75.8534 19.292C76.2434 19.084 76.6984 18.98 77.2184 18.98C77.6517 18.98 78.0157 19.0493 78.3104 19.188C78.605 19.3267 78.8434 19.4913 79.0254 19.682C79.2074 19.864 79.346 20.0373 79.4414 20.202H79.5194V16.12H80.7544V26H79.5194V24.908H79.4414C79.346 25.0727 79.2074 25.2503 79.0254 25.441C78.8434 25.6317 78.605 25.7963 78.3104 25.935C78.0157 26.065 77.6517 26.13 77.2184 26.13ZM77.4264 25.077C77.8857 25.077 78.267 24.9557 78.5704 24.713C78.8824 24.4617 79.112 24.1453 79.2594 23.764C79.4154 23.374 79.4934 22.971 79.4934 22.555C79.4934 22.1303 79.4154 21.7273 79.2594 21.346C79.112 20.9647 78.8824 20.6527 78.5704 20.41C78.267 20.1587 77.8857 20.033 77.4264 20.033C76.967 20.033 76.5814 20.1587 76.2694 20.41C75.9574 20.6527 75.7234 20.9647 75.5674 21.346C75.42 21.7273 75.3464 22.1303 75.3464 22.555C75.3464 22.971 75.42 23.374 75.5674 23.764C75.7234 24.1453 75.9574 24.4617 76.2694 24.713C76.5814 24.9557 76.967 25.077 77.4264 25.077ZM85.6988 26.13C85.1788 26.13 84.7238 26.0303 84.3338 25.831C83.9438 25.623 83.6188 25.35 83.3588 25.012C83.0988 24.6653 82.9038 24.2797 82.7738 23.855C82.6438 23.4303 82.5788 22.997 82.5788 22.555C82.5788 22.113 82.6438 21.6797 82.7738 21.255C82.9038 20.8303 83.0988 20.449 83.3588 20.111C83.6188 19.7643 83.9438 19.4913 84.3338 19.292C84.7238 19.084 85.1788 18.98 85.6988 18.98C86.1322 18.98 86.4962 19.0493 86.7908 19.188C87.0855 19.3267 87.3238 19.4913 87.5058 19.682C87.6878 19.864 87.8265 20.0373 87.9218 20.202H87.9998V16.12H89.2348V26H87.9998V24.908H87.9218C87.8265 25.0727 87.6878 25.2503 87.5058 25.441C87.3238 25.6317 87.0855 25.7963 86.7908 25.935C86.4962 26.065 86.1322 26.13 85.6988 26.13ZM85.9068 25.077C86.3662 25.077 86.7475 24.9557 87.0508 24.713C87.3628 24.4617 87.5925 24.1453 87.7398 23.764C87.8958 23.374 87.9738 22.971 87.9738 22.555C87.9738 22.1303 87.8958 21.7273 87.7398 21.346C87.5925 20.9647 87.3628 20.6527 87.0508 20.41C86.7475 20.1587 86.3662 20.033 85.9068 20.033C85.4475 20.033 85.0618 20.1587 84.7498 20.41C84.4378 20.6527 84.2038 20.9647 84.0478 21.346C83.9005 21.7273 83.8268 22.1303 83.8268 22.555C83.8268 22.971 83.9005 23.374 84.0478 23.764C84.2038 24.1453 84.4378 24.4617 84.7498 24.713C85.0618 24.9557 85.4475 25.077 85.9068 25.077ZM94.4523 26.13C93.7156 26.13 93.096 25.961 92.5933 25.623C92.0906 25.2763 91.7093 24.83 91.4493 24.284C91.1893 23.738 91.0593 23.1617 91.0593 22.555C91.0593 21.9397 91.1893 21.3633 91.4493 20.826C91.7093 20.28 92.0906 19.838 92.5933 19.5C93.096 19.1533 93.7156 18.98 94.4523 18.98C95.189 18.98 95.8086 19.1533 96.3113 19.5C96.814 19.838 97.1953 20.28 97.4553 20.826C97.7153 21.3633 97.8453 21.9397 97.8453 22.555C97.8453 23.1617 97.7153 23.738 97.4553 24.284C97.1953 24.83 96.814 25.2763 96.3113 25.623C95.8086 25.961 95.189 26.13 94.4523 26.13ZM94.4523 25.051C94.9203 25.051 95.3103 24.934 95.6223 24.7C95.943 24.4573 96.1813 24.1453 96.3373 23.764C96.502 23.3827 96.5843 22.9797 96.5843 22.555C96.5843 22.1217 96.502 21.7187 96.3373 21.346C96.1813 20.9647 95.943 20.657 95.6223 20.423C95.3103 20.1803 94.9203 20.059 94.4523 20.059C93.993 20.059 93.603 20.1803 93.2823 20.423C92.9616 20.657 92.719 20.9647 92.5543 21.346C92.3983 21.7187 92.3203 22.1217 92.3203 22.555C92.3203 22.9797 92.3983 23.3827 92.5543 23.764C92.719 24.1453 92.9616 24.4573 93.2823 24.7C93.603 24.934 93.993 25.051 94.4523 25.051ZM99.5301 26V19.11H100.765V20.111H100.843C100.904 20.007 101.003 19.864 101.142 19.682C101.289 19.5 101.497 19.3397 101.766 19.201C102.035 19.0537 102.373 18.98 102.78 18.98C103.283 18.98 103.712 19.097 104.067 19.331C104.422 19.5563 104.691 19.864 104.873 20.254C105.064 20.644 105.159 21.0817 105.159 21.567V26H103.924V21.645C103.924 21.1857 103.794 20.8043 103.534 20.501C103.283 20.1977 102.914 20.046 102.429 20.046C102.039 20.046 101.723 20.1457 101.48 20.345C101.237 20.5357 101.055 20.7913 100.934 21.112C100.821 21.424 100.765 21.7577 100.765 22.113V26H99.5301ZM109.504 26.13C108.976 26.13 108.538 26.0563 108.191 25.909C107.853 25.7617 107.585 25.5797 107.385 25.363C107.186 25.1377 107.039 24.9167 106.943 24.7C106.848 24.4747 106.787 24.2883 106.761 24.141C106.735 23.9937 106.722 23.92 106.722 23.92H107.97C107.97 23.92 107.983 23.9807 108.009 24.102C108.044 24.2147 108.109 24.349 108.204 24.505C108.308 24.6523 108.464 24.7867 108.672 24.908C108.889 25.0207 109.175 25.077 109.53 25.077C109.938 25.077 110.254 24.9817 110.479 24.791C110.705 24.5917 110.817 24.349 110.817 24.063C110.817 23.8117 110.726 23.6123 110.544 23.465C110.371 23.3177 110.12 23.205 109.79 23.127L108.854 22.906C108.508 22.8193 108.183 22.7023 107.879 22.555C107.576 22.4077 107.329 22.2083 107.138 21.957C106.956 21.697 106.865 21.3763 106.865 20.995C106.865 20.4057 107.086 19.9247 107.528 19.552C107.97 19.1707 108.547 18.98 109.257 18.98C109.734 18.98 110.128 19.0493 110.44 19.188C110.752 19.318 110.999 19.4827 111.181 19.682C111.372 19.8813 111.511 20.0807 111.597 20.28C111.693 20.4793 111.753 20.6483 111.779 20.787C111.805 20.917 111.818 20.982 111.818 20.982H110.622C110.622 20.982 110.609 20.9343 110.583 20.839C110.557 20.735 110.497 20.6223 110.401 20.501C110.315 20.371 110.18 20.2583 109.998 20.163C109.816 20.059 109.574 20.007 109.27 20.007C108.854 20.007 108.551 20.1023 108.36 20.293C108.17 20.4837 108.074 20.6917 108.074 20.917C108.074 21.1337 108.161 21.3113 108.334 21.45C108.516 21.58 108.75 21.6797 109.036 21.749L109.985 21.97C110.575 22.1087 111.06 22.3383 111.441 22.659C111.831 22.971 112.026 23.4217 112.026 24.011C112.026 24.3923 111.927 24.7477 111.727 25.077C111.528 25.3977 111.242 25.6533 110.869 25.844C110.497 26.0347 110.042 26.13 109.504 26.13ZM119.934 26.13C119.379 26.13 118.903 26.0607 118.504 25.922C118.114 25.7747 117.789 25.5883 117.529 25.363C117.269 25.129 117.061 24.8863 116.905 24.635C116.749 24.3837 116.632 24.1453 116.554 23.92C116.476 23.686 116.424 23.4997 116.398 23.361C116.381 23.2137 116.372 23.14 116.372 23.14H117.672C117.672 23.14 117.685 23.2007 117.711 23.322C117.737 23.4433 117.789 23.595 117.867 23.777C117.954 23.959 118.079 24.1453 118.244 24.336C118.409 24.518 118.63 24.6697 118.907 24.791C119.184 24.9123 119.535 24.973 119.96 24.973C120.601 24.973 121.108 24.8213 121.481 24.518C121.854 24.206 122.04 23.803 122.04 23.309C122.04 22.8843 121.897 22.555 121.611 22.321C121.334 22.087 120.935 21.905 120.415 21.775L119.141 21.463C118.69 21.3503 118.27 21.1943 117.88 20.995C117.499 20.787 117.191 20.5183 116.957 20.189C116.732 19.851 116.619 19.4307 116.619 18.928C116.619 18.3647 116.758 17.8837 117.035 17.485C117.312 17.0863 117.689 16.783 118.166 16.575C118.643 16.3583 119.184 16.25 119.791 16.25C120.38 16.25 120.87 16.341 121.26 16.523C121.65 16.705 121.962 16.9303 122.196 17.199C122.43 17.459 122.603 17.7233 122.716 17.992C122.829 18.252 122.902 18.473 122.937 18.655C122.972 18.837 122.989 18.928 122.989 18.928H121.741C121.741 18.928 121.724 18.85 121.689 18.694C121.654 18.538 121.572 18.3603 121.442 18.161C121.312 17.953 121.113 17.771 120.844 17.615C120.575 17.459 120.211 17.381 119.752 17.381C119.128 17.381 118.656 17.5283 118.335 17.823C118.023 18.1177 117.867 18.4557 117.867 18.837C117.867 19.1837 117.993 19.4653 118.244 19.682C118.495 19.89 118.842 20.0503 119.284 20.163L120.662 20.501C121.156 20.6223 121.602 20.8 122.001 21.034C122.4 21.2593 122.716 21.554 122.95 21.918C123.184 22.2733 123.301 22.711 123.301 23.231C123.301 23.751 123.171 24.232 122.911 24.674C122.66 25.116 122.283 25.4713 121.78 25.74C121.286 26 120.671 26.13 119.934 26.13ZM127.965 26.13C127.402 26.13 126.912 26.0303 126.496 25.831C126.089 25.623 125.751 25.3457 125.482 24.999C125.222 24.6523 125.027 24.271 124.897 23.855C124.767 23.4303 124.702 22.997 124.702 22.555C124.702 22.1217 124.763 21.6927 124.884 21.268C125.014 20.8433 125.209 20.4577 125.469 20.111C125.738 19.7643 126.071 19.4913 126.47 19.292C126.877 19.084 127.358 18.98 127.913 18.98C128.502 18.98 129.022 19.1143 129.473 19.383C129.924 19.6517 130.279 20.0503 130.539 20.579C130.799 21.1077 130.929 21.7707 130.929 22.568V22.932H125.95C125.976 23.322 126.067 23.6817 126.223 24.011C126.388 24.3317 126.617 24.5917 126.912 24.791C127.207 24.9817 127.558 25.077 127.965 25.077C128.32 25.077 128.606 25.0207 128.823 24.908C129.048 24.7867 129.226 24.648 129.356 24.492C129.486 24.336 129.573 24.2017 129.616 24.089C129.668 23.9677 129.694 23.907 129.694 23.907H130.851C130.851 23.907 130.829 23.985 130.786 24.141C130.743 24.2883 130.665 24.4703 130.552 24.687C130.439 24.9037 130.275 25.1247 130.058 25.35C129.841 25.5667 129.564 25.753 129.226 25.909C128.888 26.0563 128.468 26.13 127.965 26.13ZM125.963 21.97H129.72C129.703 21.5193 129.607 21.1553 129.434 20.878C129.261 20.592 129.04 20.3797 128.771 20.241C128.502 20.1023 128.216 20.033 127.913 20.033C127.367 20.033 126.921 20.2107 126.574 20.566C126.227 20.9127 126.024 21.3807 125.963 21.97ZM132.614 26V19.11H133.849V19.968H133.901C134.048 19.708 134.265 19.4783 134.551 19.279C134.837 19.0797 135.24 18.98 135.76 18.98C135.907 18.98 136.042 18.9887 136.163 19.006C136.284 19.0147 136.345 19.019 136.345 19.019V20.202C136.345 20.202 136.276 20.1977 136.137 20.189C136.007 20.1717 135.868 20.163 135.721 20.163C135.123 20.163 134.659 20.3363 134.33 20.683C134.009 21.021 133.849 21.5757 133.849 22.347V26H132.614ZM139.876 26L137.25 19.11H138.537L140.552 24.492L142.528 19.11H143.828L141.189 26H139.876ZM146.001 17.797C145.767 17.797 145.572 17.719 145.416 17.563C145.269 17.407 145.195 17.2207 145.195 17.004C145.195 16.7787 145.269 16.588 145.416 16.432C145.572 16.276 145.767 16.198 146.001 16.198C146.226 16.198 146.417 16.276 146.573 16.432C146.729 16.588 146.807 16.7787 146.807 17.004C146.807 17.2207 146.729 17.407 146.573 17.563C146.417 17.719 146.226 17.797 146.001 17.797ZM145.39 26V19.11H146.625V26H145.39ZM151.886 26.13C151.323 26.13 150.829 26.0303 150.404 25.831C149.979 25.623 149.624 25.35 149.338 25.012C149.061 24.6653 148.848 24.2797 148.701 23.855C148.562 23.4303 148.493 22.997 148.493 22.555C148.493 22.113 148.562 21.684 148.701 21.268C148.84 20.8433 149.048 20.4577 149.325 20.111C149.611 19.7643 149.966 19.4913 150.391 19.292C150.816 19.084 151.314 18.98 151.886 18.98C152.441 18.98 152.9 19.0623 153.264 19.227C153.628 19.3917 153.918 19.5997 154.135 19.851C154.36 20.0937 154.525 20.3407 154.629 20.592C154.742 20.8347 154.815 21.0383 154.85 21.203C154.885 21.3677 154.902 21.45 154.902 21.45H153.706C153.706 21.45 153.684 21.3807 153.641 21.242C153.598 21.0947 153.515 20.93 153.394 20.748C153.273 20.566 153.091 20.4057 152.848 20.267C152.605 20.1197 152.285 20.046 151.886 20.046C151.409 20.046 151.006 20.1673 150.677 20.41C150.356 20.644 150.114 20.9517 149.949 21.333C149.793 21.7143 149.715 22.1217 149.715 22.555C149.715 22.9883 149.793 23.3957 149.949 23.777C150.114 24.1583 150.356 24.4703 150.677 24.713C151.006 24.947 151.409 25.064 151.886 25.064C152.285 25.064 152.605 24.9947 152.848 24.856C153.091 24.7087 153.273 24.544 153.394 24.362C153.515 24.18 153.598 24.0197 153.641 23.881C153.684 23.7337 153.706 23.66 153.706 23.66H154.902C154.902 23.66 154.885 23.7423 154.85 23.907C154.815 24.0717 154.742 24.2797 154.629 24.531C154.525 24.7737 154.36 25.0207 154.135 25.272C153.918 25.5147 153.628 25.7183 153.264 25.883C152.9 26.0477 152.441 26.13 151.886 26.13ZM159.729 26.13C159.165 26.13 158.676 26.0303 158.26 25.831C157.852 25.623 157.514 25.3457 157.246 24.999C156.986 24.6523 156.791 24.271 156.661 23.855C156.531 23.4303 156.466 22.997 156.466 22.555C156.466 22.1217 156.526 21.6927 156.648 21.268C156.778 20.8433 156.973 20.4577 157.233 20.111C157.501 19.7643 157.835 19.4913 158.234 19.292C158.641 19.084 159.122 18.98 159.677 18.98C160.266 18.98 160.786 19.1143 161.237 19.383C161.687 19.6517 162.043 20.0503 162.303 20.579C162.563 21.1077 162.693 21.7707 162.693 22.568V22.932H157.714C157.74 23.322 157.831 23.6817 157.987 24.011C158.151 24.3317 158.381 24.5917 158.676 24.791C158.97 24.9817 159.321 25.077 159.729 25.077C160.084 25.077 160.37 25.0207 160.587 24.908C160.812 24.7867 160.99 24.648 161.12 24.492C161.25 24.336 161.336 24.2017 161.38 24.089C161.432 23.9677 161.458 23.907 161.458 23.907H162.615C162.615 23.907 162.593 23.985 162.55 24.141C162.506 24.2883 162.428 24.4703 162.316 24.687C162.203 24.9037 162.038 25.1247 161.822 25.35C161.605 25.5667 161.328 25.753 160.99 25.909C160.652 26.0563 160.231 26.13 159.729 26.13ZM157.727 21.97H161.484C161.466 21.5193 161.371 21.1553 161.198 20.878C161.024 20.592 160.803 20.3797 160.535 20.241C160.266 20.1023 159.98 20.033 159.677 20.033C159.131 20.033 158.684 20.2107 158.338 20.566C157.991 20.9127 157.787 21.3807 157.727 21.97ZM166.9 26.13C166.371 26.13 165.933 26.0563 165.587 25.909C165.249 25.7617 164.98 25.5797 164.781 25.363C164.581 25.1377 164.434 24.9167 164.339 24.7C164.243 24.4747 164.183 24.2883 164.157 24.141C164.131 23.9937 164.118 23.92 164.118 23.92H165.366C165.366 23.92 165.379 23.9807 165.405 24.102C165.439 24.2147 165.504 24.349 165.6 24.505C165.704 24.6523 165.86 24.7867 166.068 24.908C166.284 25.0207 166.57 25.077 166.926 25.077C167.333 25.077 167.649 24.9817 167.875 24.791C168.1 24.5917 168.213 24.349 168.213 24.063C168.213 23.8117 168.122 23.6123 167.94 23.465C167.766 23.3177 167.515 23.205 167.186 23.127L166.25 22.906C165.903 22.8193 165.578 22.7023 165.275 22.555C164.971 22.4077 164.724 22.2083 164.534 21.957C164.352 21.697 164.261 21.3763 164.261 20.995C164.261 20.4057 164.482 19.9247 164.924 19.552C165.366 19.1707 165.942 18.98 166.653 18.98C167.129 18.98 167.524 19.0493 167.836 19.188C168.148 19.318 168.395 19.4827 168.577 19.682C168.767 19.8813 168.906 20.0807 168.993 20.28C169.088 20.4793 169.149 20.6483 169.175 20.787C169.201 20.917 169.214 20.982 169.214 20.982H168.018C168.018 20.982 168.005 20.9343 167.979 20.839C167.953 20.735 167.892 20.6223 167.797 20.501C167.71 20.371 167.576 20.2583 167.394 20.163C167.212 20.059 166.969 20.007 166.666 20.007C166.25 20.007 165.946 20.1023 165.756 20.293C165.565 20.4837 165.47 20.6917 165.47 20.917C165.47 21.1337 165.556 21.3113 165.73 21.45C165.912 21.58 166.146 21.6797 166.432 21.749L167.381 21.97C167.97 22.1087 168.455 22.3383 168.837 22.659C169.227 22.971 169.422 23.4217 169.422 24.011C169.422 24.3923 169.322 24.7477 169.123 25.077C168.923 25.3977 168.637 25.6533 168.265 25.844C167.892 26.0347 167.437 26.13 166.9 26.13Z" fill="#A1ABB7"/>
</svg>
