<svg width="20" height="20" viewBox="0 0 20 20" fill="none" xmlns="http://www.w3.org/2000/svg">
<path d="M6.18656 0.971249C6.22034 0.971133 6.25412 0.971016 6.28892 0.970897C6.40254 0.970557 6.51616 0.970499 6.62979 0.97044C6.71108 0.97026 6.79236 0.970063 6.87365 0.969853C7.09479 0.96934 7.31593 0.969088 7.53707 0.968915C7.67514 0.9688 7.81321 0.96864 7.95129 0.968465C8.38304 0.967931 8.8148 0.967554 9.24656 0.967403C9.74542 0.967228 10.2443 0.966542 10.7431 0.965411C11.1285 0.964567 11.5138 0.964172 11.8991 0.96412C12.1294 0.964079 12.3596 0.963847 12.5899 0.96315C12.8065 0.962508 13.023 0.962422 13.2396 0.962765C13.3191 0.962795 13.3986 0.962625 13.4782 0.96224C13.5866 0.961745 13.6951 0.961971 13.8036 0.962379C13.8351 0.962065 13.8667 0.96175 13.8992 0.961426C14.0784 0.963007 14.1935 0.983162 14.336 1.09392C14.4727 1.24584 14.5363 1.35852 14.5357 1.56316C14.5357 1.59443 14.5357 1.62571 14.5357 1.65793C14.5355 1.6915 14.5353 1.72507 14.5351 1.75966C14.535 1.81144 14.535 1.81144 14.5349 1.86426C14.5347 1.9745 14.5342 2.08475 14.5337 2.195C14.5335 2.26974 14.5333 2.34448 14.5332 2.41922C14.5327 2.60246 14.5321 2.78569 14.5313 2.96892C14.5774 2.96831 14.6235 2.96769 14.671 2.96706C14.8426 2.96494 15.0143 2.96359 15.186 2.96248C15.2601 2.9619 15.3343 2.9611 15.4085 2.96008C15.5154 2.95865 15.6222 2.95799 15.7291 2.95748C15.762 2.95687 15.795 2.95627 15.829 2.95565C16.0702 2.95558 16.2316 3.00259 16.4185 3.16423C16.5338 3.30092 16.5283 3.42277 16.5283 3.59481C16.5283 3.6443 16.5284 3.69379 16.5285 3.74478C16.5284 3.80001 16.5283 3.85524 16.5281 3.91047C16.5282 3.9689 16.5282 4.02733 16.5283 4.08576C16.5283 4.24672 16.5282 4.40768 16.528 4.56864C16.5278 4.74206 16.5279 4.91549 16.5279 5.08891C16.5279 5.38952 16.5278 5.69012 16.5276 5.99072C16.5273 6.42535 16.5272 6.85997 16.5271 7.2946C16.527 7.9997 16.5268 8.70481 16.5264 9.40991C16.526 10.095 16.5258 10.78 16.5256 11.4651C16.5256 11.5284 16.5256 11.5284 16.5256 11.593C16.5255 11.8047 16.5255 12.0165 16.5254 12.2282C16.525 13.9855 16.5243 15.7428 16.5235 17.5002C16.5503 17.4997 16.5772 17.4993 16.6049 17.4989C16.885 17.4945 17.1651 17.4916 17.4452 17.4894C17.5497 17.4886 17.6542 17.4871 17.7587 17.4854C17.909 17.4831 18.0592 17.482 18.2095 17.4811C18.2562 17.4801 18.3028 17.4791 18.3509 17.478C18.713 17.4779 18.713 17.4779 18.8561 17.5944C18.9793 17.734 19.0184 17.7972 19.0357 17.9836C19.022 18.1418 18.9942 18.2277 18.9063 18.3595C18.7305 18.5024 18.5939 18.5384 18.3728 18.5355C18.3434 18.5357 18.3139 18.5359 18.2835 18.5361C18.1846 18.5367 18.0857 18.5362 17.9868 18.5356C17.9153 18.5358 17.8437 18.5361 17.7721 18.5364C17.5754 18.537 17.3786 18.5367 17.1818 18.5362C16.9697 18.5359 16.7575 18.5364 16.5453 18.5368C16.1296 18.5375 15.714 18.5374 15.2983 18.5369C14.9605 18.5366 14.6228 18.5365 14.285 18.5367C14.237 18.5367 14.1889 18.5368 14.1394 18.5368C14.0419 18.5368 13.9443 18.5369 13.8467 18.5369C12.9574 18.5374 12.0681 18.5369 11.1788 18.5361C10.3668 18.5354 9.55492 18.5354 8.743 18.5362C7.8309 18.537 6.9188 18.5373 6.0067 18.5369C5.90948 18.5368 5.81226 18.5368 5.71503 18.5367C5.6672 18.5367 5.61936 18.5367 5.57007 18.5366C5.23263 18.5365 4.89519 18.5367 4.55775 18.5371C4.14664 18.5375 3.73553 18.5374 3.32441 18.5366C3.11457 18.5362 2.90474 18.536 2.69491 18.5365C2.50292 18.537 2.31094 18.5367 2.11895 18.5359C2.0494 18.5357 1.97985 18.5358 1.9103 18.5362C1.81591 18.5367 1.72157 18.5362 1.62719 18.5355C1.58648 18.536 1.58648 18.536 1.54494 18.5366C1.35198 18.5336 1.24233 18.4803 1.09377 18.3595C0.98008 18.189 0.951163 18.0551 0.976579 17.8517C1.05887 17.6989 1.14099 17.5906 1.28908 17.5002C1.39091 17.4861 1.39091 17.4861 1.50762 17.4869C1.55141 17.4869 1.59519 17.4869 1.6403 17.4869C1.68734 17.4875 1.73438 17.4881 1.78285 17.4887C1.83119 17.4889 1.87952 17.4891 1.92932 17.4892C2.0575 17.4898 2.18567 17.4908 2.31385 17.4921C2.44477 17.4933 2.57569 17.4938 2.70662 17.4944C2.96328 17.4957 3.21993 17.4977 3.47658 17.5002C3.47653 17.4703 3.47649 17.4405 3.47644 17.4097C3.47382 15.6418 3.47181 13.8738 3.47059 12.1058C3.47045 11.8937 3.4703 11.6815 3.47014 11.4694C3.47011 11.4271 3.47008 11.3849 3.47005 11.3414C3.46954 10.657 3.46861 9.97256 3.46754 9.28815C3.46644 8.58617 3.46579 7.88419 3.46555 7.18222C3.46539 6.74886 3.46488 6.31552 3.46393 5.88217C3.46331 5.58522 3.46312 5.28829 3.46328 4.99135C3.46335 4.81988 3.46324 4.64843 3.46261 4.47697C3.46204 4.32008 3.46201 4.1632 3.46241 4.00631C3.46246 3.94947 3.46231 3.89263 3.46194 3.8358C3.46147 3.75867 3.4618 3.68155 3.46216 3.60442C3.46211 3.56154 3.46207 3.51866 3.46202 3.47447C3.48478 3.29477 3.55879 3.19571 3.69142 3.07634C3.81783 2.98786 3.91233 2.96401 4.063 2.96449C4.09428 2.96449 4.12555 2.96449 4.15777 2.9645C4.20813 2.9648 4.20813 2.9648 4.25951 2.96511C4.29402 2.96516 4.32854 2.96522 4.3641 2.96527C4.47435 2.96549 4.58459 2.96598 4.69484 2.96648C4.76958 2.96668 4.84433 2.96685 4.91907 2.96701C5.1023 2.96745 5.28553 2.96812 5.46877 2.96892C5.46815 2.92282 5.46754 2.87671 5.46691 2.82921C5.46478 2.65755 5.46344 2.48589 5.46233 2.31422C5.46174 2.24004 5.46094 2.16586 5.45993 2.09168C5.4585 1.98482 5.45784 1.87797 5.45732 1.77111C5.45672 1.73814 5.45611 1.70517 5.45549 1.6712C5.45542 1.43002 5.50244 1.26861 5.66408 1.08172C5.8205 0.949734 5.99271 0.971042 6.18656 0.971249ZM6.52345 2.03142C6.52345 2.3408 6.52345 2.65017 6.52345 2.96892C8.81798 2.96892 11.1125 2.96892 13.4766 2.96892C13.4766 2.65955 13.4766 2.35017 13.4766 2.03142C11.182 2.03142 8.88752 2.03142 6.52345 2.03142ZM4.53127 4.02361C4.53127 8.47087 4.53127 12.9181 4.53127 17.5002C5.1758 17.5002 5.82033 17.5002 6.48439 17.5002C6.4859 17.1067 6.4859 17.1067 6.48744 16.7052C6.48843 16.5389 6.48945 16.3726 6.49065 16.2064C6.49254 15.9425 6.49426 15.6786 6.49498 15.4148C6.49557 15.202 6.49691 14.9893 6.49878 14.7765C6.49936 14.6954 6.49967 14.6142 6.4997 14.5331C6.49979 14.4194 6.50085 14.3057 6.50213 14.192C6.50193 14.1585 6.50174 14.125 6.50153 14.0905C6.50516 13.8823 6.53536 13.755 6.6797 13.5939C6.83351 13.515 6.96272 13.5059 7.1342 13.5056C7.15972 13.5055 7.18525 13.5053 7.21155 13.5052C7.29677 13.5048 7.38198 13.5049 7.4672 13.5051C7.52842 13.5049 7.58965 13.5047 7.65087 13.5045C7.81697 13.5039 7.98306 13.5039 8.14916 13.504C8.28788 13.5041 8.4266 13.5039 8.56532 13.5037C8.8926 13.5032 9.21988 13.5032 9.54716 13.5035C9.88468 13.5037 10.2222 13.5032 10.5597 13.5024C10.8496 13.5017 11.1395 13.5015 11.4295 13.5016C11.6025 13.5017 11.7756 13.5016 11.9487 13.501C12.1115 13.5005 12.2743 13.5006 12.4371 13.5011C12.4968 13.5012 12.5564 13.5011 12.6161 13.5008C12.6977 13.5004 12.7793 13.5007 12.8609 13.5012C12.9065 13.5012 12.9521 13.5012 12.9991 13.5012C13.1788 13.522 13.3118 13.5786 13.4316 13.7155C13.495 13.8744 13.4938 14.0179 13.4935 14.1875C13.4941 14.2413 13.4941 14.2413 13.4947 14.2961C13.4959 14.4143 13.4962 14.5324 13.4966 14.6506C13.4972 14.7326 13.4979 14.8147 13.4987 14.8967C13.5005 15.1124 13.5017 15.3281 13.5027 15.5438C13.5041 15.8028 13.5063 16.0617 13.5084 16.3207C13.5115 16.7138 13.5135 17.107 13.5156 17.5002C14.1602 17.5002 14.8047 17.5002 15.4688 17.5002C15.4688 13.0529 15.4688 8.60564 15.4688 4.02361C11.8594 4.02361 8.25002 4.02361 4.53127 4.02361ZM7.50002 14.5314C7.50002 15.5111 7.50002 16.4908 7.50002 17.5002C8.15744 17.5002 8.81486 17.5002 9.4922 17.5002C9.4922 16.5205 9.4922 15.5408 9.4922 14.5314C8.83478 14.5314 8.17736 14.5314 7.50002 14.5314ZM10.5078 14.5314C10.5078 15.5111 10.5078 16.4908 10.5078 17.5002C11.1653 17.5002 11.8227 17.5002 12.5 17.5002C12.5 16.5205 12.5 15.5408 12.5 14.5314C11.8426 14.5314 11.1852 14.5314 10.5078 14.5314Z" fill="#3F4754"/>
<path d="M12.129 10.4626C12.1935 10.462 12.1935 10.462 12.2594 10.4614C12.3288 10.4612 12.3288 10.4612 12.3997 10.4609C12.4475 10.4607 12.4953 10.4605 12.5445 10.4603C12.6456 10.4599 12.7466 10.4596 12.8477 10.4595C13.0022 10.4591 13.1566 10.4579 13.3111 10.4567C13.4093 10.4564 13.5075 10.4562 13.6058 10.4561C13.6519 10.4556 13.6981 10.4551 13.7456 10.4546C14.0253 10.4553 14.2154 10.4719 14.4264 10.6715C14.5109 10.8124 14.5397 10.9297 14.5314 11.0939C14.4712 11.2586 14.3918 11.3715 14.2579 11.4845C14.1364 11.525 14.0507 11.529 13.9232 11.5299C13.8563 11.5304 13.8563 11.5304 13.788 11.531C13.7398 11.5312 13.6916 11.5313 13.6419 11.5315C13.5924 11.5317 13.5428 11.5319 13.4917 11.5322C13.3867 11.5325 13.2818 11.5328 13.1768 11.5329C13.0427 11.5332 12.9086 11.5341 12.7745 11.5352C12.6462 11.5361 12.5178 11.5362 12.3895 11.5364C12.3415 11.5369 12.2935 11.5373 12.2441 11.5378C11.8248 11.5367 11.8248 11.5367 11.6407 11.4064C11.5055 11.2534 11.4608 11.1353 11.4718 10.9359C11.4982 10.777 11.5606 10.6635 11.6774 10.5543C11.8245 10.4696 11.9613 10.4638 12.129 10.4626Z" fill="#3F4754"/>
<path d="M12.129 7.96257C12.1935 7.96201 12.1935 7.96201 12.2594 7.96144C12.3288 7.96119 12.3288 7.96119 12.3997 7.96093C12.4475 7.96071 12.4953 7.96049 12.5445 7.96026C12.6456 7.95989 12.7466 7.95964 12.8477 7.95948C13.0022 7.95911 13.1566 7.95789 13.3111 7.95666C13.4093 7.95641 13.5075 7.9562 13.6058 7.95605C13.6519 7.95557 13.6981 7.95509 13.7456 7.95459C14.0253 7.95535 14.2154 7.97194 14.4264 8.17151C14.5109 8.31245 14.5397 8.42973 14.5314 8.59387C14.4712 8.75855 14.3918 8.87154 14.2579 8.98449C14.1364 9.02501 14.0507 9.02898 13.9232 9.02985C13.8563 9.03041 13.8563 9.03041 13.788 9.03099C13.7398 9.03115 13.6916 9.03132 13.6419 9.03149C13.5924 9.03171 13.5428 9.03194 13.4917 9.03217C13.3867 9.03253 13.2818 9.0328 13.1768 9.03294C13.0427 9.03315 12.9086 9.03409 12.7745 9.0352C12.6462 9.03611 12.5178 9.03618 12.3895 9.03637C12.3415 9.03686 12.2935 9.03734 12.2441 9.03784C11.8248 9.03674 11.8248 9.03674 11.6407 8.90637C11.5055 8.75339 11.4608 8.63525 11.4718 8.43594C11.4982 8.27701 11.5606 8.16352 11.6774 8.05432C11.8245 7.96961 11.9613 7.96376 12.129 7.96257Z" fill="#3F4754"/>
<path d="M12.129 5.46257C12.1935 5.46201 12.1935 5.46201 12.2594 5.46144C12.3288 5.46119 12.3288 5.46119 12.3997 5.46093C12.4475 5.46071 12.4953 5.46049 12.5445 5.46026C12.6456 5.45989 12.7466 5.45964 12.8477 5.45948C13.0022 5.45911 13.1566 5.45789 13.3111 5.45666C13.4093 5.45641 13.5075 5.4562 13.6058 5.45605C13.6519 5.45557 13.6981 5.45509 13.7456 5.45459C14.0253 5.45535 14.2154 5.47194 14.4264 5.67151C14.5109 5.81245 14.5397 5.92973 14.5314 6.09387C14.4712 6.25855 14.3918 6.37154 14.2579 6.48449C14.1364 6.52501 14.0507 6.52898 13.9232 6.52985C13.8563 6.53041 13.8563 6.53041 13.788 6.53099C13.7398 6.53115 13.6916 6.53132 13.6419 6.53149C13.5924 6.53171 13.5428 6.53194 13.4917 6.53217C13.3867 6.53253 13.2818 6.5328 13.1768 6.53294C13.0427 6.53315 12.9086 6.53409 12.7745 6.5352C12.6462 6.53611 12.5178 6.53618 12.3895 6.53637C12.3415 6.53686 12.2935 6.53734 12.2441 6.53784C11.8248 6.53674 11.8248 6.53674 11.6407 6.40637C11.5055 6.25339 11.4608 6.13525 11.4718 5.93594C11.4982 5.77701 11.5606 5.66352 11.6774 5.55432C11.8245 5.46961 11.9613 5.46376 12.129 5.46257Z" fill="#3F4754"/>
<path d="M6.10809 10.4626C6.17244 10.462 6.17244 10.462 6.2381 10.4614C6.30768 10.4612 6.30768 10.4612 6.37866 10.4609C6.4264 10.4607 6.47414 10.4605 6.52333 10.4603C6.62446 10.4599 6.7256 10.4596 6.82674 10.4595C6.98114 10.4591 7.13552 10.4579 7.28992 10.4567C7.38818 10.4564 7.48645 10.4562 7.58472 10.4561C7.63079 10.4556 7.67686 10.4551 7.72432 10.4546C8.22783 10.456 8.22783 10.456 8.42014 10.6463C8.51872 10.8308 8.54207 10.9628 8.5155 11.172C8.41947 11.3678 8.32763 11.4486 8.12488 11.5236C7.95432 11.5409 7.78456 11.54 7.61325 11.5391C7.53901 11.5393 7.53901 11.5393 7.46327 11.5395C7.35882 11.5395 7.2544 11.5394 7.14995 11.5388C7.01641 11.5382 6.88289 11.5386 6.74935 11.5393C6.62147 11.5398 6.49358 11.5394 6.36569 11.5391C6.31788 11.5394 6.27006 11.5396 6.2208 11.5398C6.17621 11.5395 6.13162 11.5391 6.08568 11.5387C6.04658 11.5386 6.00747 11.5385 5.96718 11.5384C5.79843 11.5152 5.69621 11.4377 5.57605 11.3209C5.48839 11.18 5.4605 11.0641 5.46863 10.8986C5.5325 10.714 5.62024 10.6165 5.78113 10.5079C5.90053 10.4681 5.98303 10.4635 6.10809 10.4626Z" fill="#3F4754"/>
<path d="M6.10809 7.96257C6.17244 7.96201 6.17244 7.96201 6.2381 7.96144C6.30768 7.96119 6.30768 7.96119 6.37866 7.96093C6.4264 7.96071 6.47414 7.96049 6.52333 7.96026C6.62446 7.95989 6.7256 7.95964 6.82674 7.95948C6.98114 7.95911 7.13552 7.95789 7.28992 7.95666C7.38818 7.95641 7.48645 7.9562 7.58472 7.95605C7.63079 7.95557 7.67686 7.95509 7.72432 7.95459C8.22783 7.95595 8.22783 7.95595 8.42014 8.14633C8.51872 8.33079 8.54207 8.46281 8.5155 8.67199C8.41947 8.86775 8.32763 8.94859 8.12488 9.02356C7.95432 9.04085 7.78456 9.03997 7.61325 9.03912C7.53901 9.03929 7.53901 9.03929 7.46327 9.03946C7.35882 9.03954 7.2544 9.03938 7.14995 9.03883C7.01641 9.03817 6.88289 9.03855 6.74935 9.03925C6.62147 9.03978 6.49358 9.03941 6.36569 9.03912C6.31788 9.03936 6.27006 9.03959 6.2208 9.03984C6.17621 9.03947 6.13162 9.0391 6.08568 9.03872C6.04658 9.03863 6.00747 9.03853 5.96718 9.03844C5.79843 9.01517 5.69621 8.93774 5.57605 8.82092C5.48839 8.68003 5.4605 8.56406 5.46863 8.39856C5.5325 8.21404 5.62024 8.11653 5.78113 8.00793C5.90053 7.96813 5.98303 7.96346 6.10809 7.96257Z" fill="#3F4754"/>
<path d="M6.10809 5.46257C6.17244 5.46201 6.17244 5.46201 6.2381 5.46144C6.30768 5.46119 6.30768 5.46119 6.37866 5.46093C6.4264 5.46071 6.47414 5.46049 6.52333 5.46026C6.62446 5.45989 6.7256 5.45964 6.82674 5.45948C6.98114 5.45911 7.13552 5.45789 7.28992 5.45666C7.38818 5.45641 7.48645 5.4562 7.58472 5.45605C7.63079 5.45557 7.67686 5.45509 7.72432 5.45459C8.22783 5.45595 8.22783 5.45595 8.42014 5.64633C8.51872 5.83079 8.54207 5.96281 8.5155 6.17199C8.41947 6.36775 8.32763 6.44859 8.12488 6.52356C7.95432 6.54085 7.78456 6.53997 7.61325 6.53912C7.53901 6.53929 7.53901 6.53929 7.46327 6.53946C7.35882 6.53954 7.2544 6.53938 7.14995 6.53883C7.01641 6.53817 6.88289 6.53855 6.74935 6.53925C6.62147 6.53978 6.49358 6.53941 6.36569 6.53912C6.31788 6.53936 6.27006 6.53959 6.2208 6.53984C6.17621 6.53947 6.13162 6.5391 6.08568 6.53872C6.04658 6.53863 6.00747 6.53853 5.96718 6.53844C5.79843 6.51517 5.69621 6.43774 5.57605 6.32092C5.48839 6.18003 5.4605 6.06406 5.46863 5.89856C5.5325 5.71404 5.62024 5.61653 5.78113 5.50793C5.90053 5.46813 5.98303 5.46346 6.10809 5.46257Z" fill="#3F4754"/>
</svg>
