<svg width="133" height="37" viewBox="0 0 133 37" fill="none" xmlns="http://www.w3.org/2000/svg">
<path d="M4.93701 12.4546H12.5053C13.2989 12.6246 13.8372 13.3328 13.8372 14.126C13.8372 14.8908 13.2989 15.5707 12.562 15.769H4.93701V12.4546ZM17.0971 11.3498C16.7851 10.7833 16.3882 10.2734 15.9067 9.84845C15.85 9.7918 15.7647 9.73514 15.708 9.67848C15.7366 9.65016 15.7647 9.5935 15.7928 9.53684C15.7928 9.50852 15.7927 9.50852 15.8214 9.48019C16.2749 8.65868 16.5302 7.69553 16.5302 6.70405C16.5302 5.7409 16.2749 4.80607 15.8214 3.95623C15.8214 3.92791 15.7933 3.89958 15.7647 3.87125C14.7729 2.11492 12.8735 1.03845 10.8327 1.03845H0.96875V5.06102H11.2862C12.0232 5.25932 12.562 5.93919 12.562 6.70405C12.562 7.52556 11.9665 8.23376 11.1728 8.40372H0.96875V19.7916H10.8327C11.0595 19.7916 11.2581 19.7916 11.4849 19.7632C11.7116 19.7916 11.9098 19.7916 12.1366 19.7916C14.206 19.7916 16.1048 18.6868 17.0971 16.8738C17.5787 16.0523 17.8341 15.0891 17.8341 14.126C17.8341 13.1345 17.5787 12.1997 17.0971 11.3498Z" fill="#1E2B99"/>
<path d="M24.6728 15.8256V0.953369H20.7046V19.7915H35.5858V15.8256H24.6728Z" fill="#1E2B99"/>
<path d="M50.0706 1.09497V11.3497C50.0706 13.7576 48.1432 15.7689 45.7908 15.8255C45.7342 15.8255 45.6775 15.8255 45.6208 15.8255C45.5641 15.8255 45.5074 15.8255 45.4507 15.8255C43.0978 15.7689 41.1704 13.7292 41.1704 11.3497V1.09497H37.2021V12.7661C37.2021 14.2958 37.741 15.7122 38.7328 16.7887C39.1296 17.2136 39.5264 17.5818 39.9799 17.9218C41.5958 19.1399 43.5514 19.7914 45.6208 19.7914C47.6897 19.7914 49.6171 19.1399 51.2611 17.9218C51.7146 17.5818 52.1114 17.2136 52.4802 16.817C53.5006 15.7405 54.0389 14.2958 54.0389 12.7944V1.09497H50.0706Z" fill="#1E2B99"/>
<path d="M56.9106 1.09497V5.06089H73.634V1.09497H56.9106ZM60.8789 11.8029H71.9619V7.83703H60.8789L56.9106 7.8087V19.7914H73.634V15.8255H60.8789V11.8029Z" fill="#1E2B99"/>
<path d="M86.2893 8.46024H80.9038C79.9687 8.46024 79.2031 7.69539 79.2031 6.76056C79.2031 5.82574 79.9687 5.06089 80.9038 5.06089H87.1115C87.7351 5.25918 88.16 5.82574 88.16 6.50561H92.0435C92.0435 5.99571 91.9868 5.51413 91.8448 5.06089C91.2213 2.76632 89.1238 1.09497 86.6294 1.09497H80.9038C78.863 1.09497 76.9641 2.17143 75.9718 3.9561C75.4902 4.80593 75.2349 5.76909 75.2349 6.76056C75.2349 7.75204 75.4902 8.71519 75.9718 9.56503C76.1986 9.96163 76.454 10.3016 76.7374 10.6132C77.8145 11.7463 79.3165 12.4262 80.9038 12.4262H86.2893C87.2249 12.4262 87.9619 13.191 87.9619 14.1258C87.9619 15.0607 87.2249 15.8255 86.2893 15.8255H80.1388C79.5433 15.6272 79.1184 15.0607 79.1184 14.3808H75.2349C75.2349 14.8907 75.2916 15.3723 75.4049 15.8255C76.0571 18.1201 78.1546 19.7914 80.649 19.7914H86.2893C88.302 19.7914 90.2008 18.715 91.1932 16.9586C91.7034 16.0805 91.9582 15.1173 91.9582 14.1258C91.9582 13.1344 91.7034 12.1712 91.1932 11.3214C90.2008 9.56503 88.302 8.46024 86.2893 8.46024Z" fill="#1E2B99"/>
<path d="M98.2476 1.09497H94.2793V9.48005L98.2476 5.51413V1.09497ZM110.917 18.545L102.839 10.4432L112.193 1.09497H106.581L100.657 6.98719V7.01552L94.2793 13.3893V19.7914H98.2476V15.0323L100.033 13.2477L106.354 19.5931L106.581 19.7914H112.193L110.917 18.545Z" fill="#1E2B99"/>
<path d="M127.264 1.03845L127.037 1.35006L122.842 7.07231L118.647 1.35006L118.42 1.03845H113.517L114.367 2.22823L120.518 10.6133L120.688 10.8683H120.717V10.8966L120.858 11.0949V19.7916H124.826V11.0666L124.968 10.8966V10.8683H124.996L125.166 10.6133L131.318 2.22823L132.168 1.03845H127.264Z" fill="#1E2B99"/>
<path d="M1.94114 34.8773H0.81614L2.86444 29.0591H4.16557L6.21671 34.8773H5.09171L3.53773 30.2523H3.49228L1.94114 34.8773ZM1.97807 32.5961H5.04625V33.4427H1.97807V32.5961ZM7.46884 34.8773V30.5137H8.49725V34.8773H7.46884ZM7.98588 29.8944C7.82301 29.8944 7.68285 29.8404 7.56543 29.7324C7.44801 29.6226 7.38929 29.491 7.38929 29.3375C7.38929 29.1822 7.44801 29.0506 7.56543 28.9427C7.68285 28.8328 7.82301 28.7779 7.98588 28.7779C8.15066 28.7779 8.29081 28.8328 8.40634 28.9427C8.52376 29.0506 8.58248 29.1822 8.58248 29.3375C8.58248 29.491 8.52376 29.6226 8.40634 29.7324C8.29081 29.8404 8.15066 29.8944 7.98588 29.8944ZM10.0548 34.8773V30.5137H11.0519V31.241H11.0974C11.1769 30.9891 11.3133 30.7949 11.5065 30.6586C11.7016 30.5203 11.9241 30.4512 12.1741 30.4512C12.2309 30.4512 12.2944 30.454 12.3644 30.4597C12.4364 30.4635 12.4961 30.4701 12.5434 30.4796V31.4256C12.4999 31.4105 12.4307 31.3972 12.336 31.3858C12.2432 31.3726 12.1533 31.366 12.0661 31.366C11.8786 31.366 11.7101 31.4067 11.5605 31.4881C11.4127 31.5677 11.2963 31.6785 11.211 31.8205C11.1258 31.9625 11.0832 32.1264 11.0832 32.312V34.8773H10.0548ZM14.7551 29.0591V34.8773H13.7267V29.0591H14.7551ZM16.3126 34.8773V30.5137H17.341V34.8773H16.3126ZM16.8296 29.8944C16.6668 29.8944 16.5266 29.8404 16.4092 29.7324C16.2918 29.6226 16.233 29.491 16.233 29.3375C16.233 29.1822 16.2918 29.0506 16.4092 28.9427C16.5266 28.8328 16.6668 28.7779 16.8296 28.7779C16.9944 28.7779 17.1346 28.8328 17.2501 28.9427C17.3675 29.0506 17.4262 29.1822 17.4262 29.3375C17.4262 29.491 17.3675 29.6226 17.2501 29.7324C17.1346 29.8404 16.9944 29.8944 16.8296 29.8944ZM19.9269 32.3205V34.8773H18.8985V30.5137H19.8815V31.2552H19.9326C20.033 31.0108 20.193 30.8167 20.4127 30.6728C20.6343 30.5288 20.908 30.4569 21.2338 30.4569C21.5349 30.4569 21.7972 30.5213 22.0207 30.65C22.2461 30.7788 22.4203 30.9654 22.5434 31.2097C22.6684 31.454 22.73 31.7504 22.7281 32.0989V34.8773H21.6997V32.258C21.6997 31.9663 21.6239 31.7381 21.4724 31.5733C21.3228 31.4086 21.1154 31.3262 20.8502 31.3262C20.6703 31.3262 20.5103 31.366 20.3701 31.4455C20.2319 31.5232 20.123 31.6358 20.0434 31.7836C19.9658 31.9313 19.9269 32.1103 19.9269 32.3205ZM26.2053 34.9625C25.7678 34.9625 25.39 34.8716 25.0718 34.6898C24.7555 34.5061 24.5122 34.2466 24.3417 33.9114C24.1713 33.5743 24.086 33.1775 24.086 32.7211C24.086 32.2722 24.1713 31.8783 24.3417 31.5393C24.5141 31.1983 24.7546 30.9332 25.0633 30.7438C25.372 30.5525 25.7347 30.4569 26.1514 30.4569C26.4203 30.4569 26.6741 30.5004 26.9127 30.5875C27.1533 30.6728 27.3654 30.8053 27.5491 30.9853C27.7347 31.1652 27.8805 31.3944 27.9866 31.6728C28.0927 31.9493 28.1457 32.2788 28.1457 32.6614V32.9768H24.569V32.2836H27.1599C27.158 32.0866 27.1154 31.9114 27.032 31.758C26.9487 31.6027 26.8322 31.4805 26.6826 31.3915C26.5349 31.3025 26.3625 31.258 26.1656 31.258C25.9553 31.258 25.7707 31.3091 25.6116 31.4114C25.4525 31.5118 25.3285 31.6444 25.2394 31.8091C25.1523 31.972 25.1078 32.151 25.1059 32.3461V32.9512C25.1059 33.205 25.1523 33.4228 25.2451 33.6046C25.3379 33.7845 25.4677 33.9228 25.6343 34.0194C25.801 34.1141 25.9961 34.1614 26.2195 34.1614C26.3692 34.1614 26.5046 34.1406 26.6258 34.0989C26.747 34.0553 26.8521 33.9919 26.9411 33.9086C27.0302 33.8252 27.0974 33.722 27.1428 33.5989L28.1031 33.7069C28.0425 33.9607 27.9269 34.1822 27.7565 34.3716C27.5879 34.5591 27.372 34.705 27.1088 34.8091C26.8455 34.9114 26.5444 34.9625 26.2053 34.9625ZM30.1492 34.9398C29.9769 34.9398 29.8292 34.8792 29.7061 34.758C29.5829 34.6368 29.5223 34.4891 29.5242 34.3148C29.5223 34.1444 29.5829 33.9985 29.7061 33.8773C29.8292 33.7561 29.9769 33.6955 30.1492 33.6955C30.3159 33.6955 30.4608 33.7561 30.5839 33.8773C30.7089 33.9985 30.7723 34.1444 30.7742 34.3148C30.7723 34.4303 30.742 34.5355 30.6833 34.6302C30.6265 34.7249 30.5508 34.8006 30.4561 34.8574C30.3633 34.9124 30.261 34.9398 30.1492 34.9398ZM36.6578 34.8773H34.6862V29.0591H36.6975C37.2752 29.0591 37.7714 29.1756 38.1862 29.4086C38.6028 29.6396 38.9229 29.972 39.1464 30.4057C39.3699 30.8394 39.4816 31.3584 39.4816 31.9625C39.4816 32.5686 39.3689 33.0894 39.1436 33.525C38.9201 33.9607 38.5972 34.2949 38.1748 34.5279C37.7544 34.7608 37.2487 34.8773 36.6578 34.8773ZM35.7401 33.9654H36.6066C37.0119 33.9654 37.35 33.8915 37.6208 33.7438C37.8917 33.5942 38.0953 33.3716 38.2316 33.0762C38.368 32.7788 38.4362 32.4076 38.4362 31.9625C38.4362 31.5175 38.368 31.1482 38.2316 30.8546C38.0953 30.5591 37.8936 30.3385 37.6265 30.1927C37.3614 30.0449 37.0318 29.9711 36.6379 29.9711H35.7401V33.9654ZM40.9376 34.8773V30.5137H41.966V34.8773H40.9376ZM41.4546 29.8944C41.2918 29.8944 41.1516 29.8404 41.0342 29.7324C40.9168 29.6226 40.858 29.491 40.858 29.3375C40.858 29.1822 40.9168 29.0506 41.0342 28.9427C41.1516 28.8328 41.2918 28.7779 41.4546 28.7779C41.6194 28.7779 41.7596 28.8328 41.8751 28.9427C41.9925 29.0506 42.0512 29.1822 42.0512 29.3375C42.0512 29.491 41.9925 29.6226 41.8751 29.7324C41.7596 29.8404 41.6194 29.8944 41.4546 29.8944ZM46.9724 31.6671L46.0349 31.7694C46.0084 31.6747 45.962 31.5857 45.8957 31.5023C45.8313 31.419 45.7442 31.3518 45.6343 31.3006C45.5245 31.2495 45.39 31.2239 45.2309 31.2239C45.0169 31.2239 44.837 31.2703 44.6911 31.3631C44.5472 31.4559 44.4762 31.5762 44.4781 31.7239C44.4762 31.8508 44.5226 31.954 44.6173 32.0336C44.7139 32.1131 44.873 32.1785 45.0945 32.2296L45.8389 32.3887C46.2517 32.4777 46.5586 32.6188 46.7593 32.812C46.962 33.0052 47.0642 33.258 47.0661 33.5705C47.0642 33.8451 46.9838 34.0875 46.8247 34.2978C46.6675 34.5061 46.4487 34.669 46.1684 34.7864C45.8881 34.9038 45.5661 34.9625 45.2025 34.9625C44.6684 34.9625 44.2385 34.8508 43.9127 34.6273C43.587 34.4019 43.3928 34.0885 43.3303 33.687L44.3332 33.5904C44.3786 33.7874 44.4752 33.936 44.623 34.0364C44.7707 34.1368 44.9629 34.187 45.1997 34.187C45.444 34.187 45.64 34.1368 45.7877 34.0364C45.9374 33.936 46.0122 33.812 46.0122 33.6643C46.0122 33.5393 45.9639 33.436 45.8673 33.3546C45.7726 33.2732 45.6249 33.2107 45.4241 33.1671L44.6798 33.0108C44.2612 32.9237 43.9516 32.7769 43.7508 32.5705C43.55 32.3622 43.4506 32.0989 43.4525 31.7807C43.4506 31.5118 43.5235 31.2788 43.6713 31.0819C43.8209 30.883 44.0283 30.7296 44.2934 30.6216C44.5605 30.5118 44.8682 30.4569 45.2167 30.4569C45.7281 30.4569 46.1305 30.5658 46.4241 30.7836C46.7195 31.0014 46.9023 31.2959 46.9724 31.6671ZM50.5931 30.5137V31.3091H48.0846V30.5137H50.5931ZM48.7039 29.4682H49.7323V33.5648C49.7323 33.7031 49.7532 33.8091 49.7948 33.883C49.8384 33.955 49.8952 34.0042 49.9653 34.0307C50.0354 34.0572 50.113 34.0705 50.1982 34.0705C50.2626 34.0705 50.3213 34.0658 50.3744 34.0563C50.4293 34.0468 50.471 34.0383 50.4994 34.0307L50.6727 34.8347C50.6177 34.8536 50.5392 34.8745 50.4369 34.8972C50.3365 34.9199 50.2134 34.9332 50.0676 34.937C49.81 34.9446 49.578 34.9057 49.3715 34.8205C49.1651 34.7334 49.0013 34.5989 48.8801 34.4171C48.7607 34.2353 48.702 34.008 48.7039 33.7353V29.4682ZM51.9532 34.8773V30.5137H52.9504V31.241H52.9958C53.0754 30.9891 53.2117 30.7949 53.4049 30.6586C53.6 30.5203 53.8225 30.4512 54.0725 30.4512C54.1294 30.4512 54.1928 30.454 54.2629 30.4597C54.3348 30.4635 54.3945 30.4701 54.4419 30.4796V31.4256C54.3983 31.4105 54.3292 31.3972 54.2345 31.3858C54.1417 31.3726 54.0517 31.366 53.9646 31.366C53.7771 31.366 53.6085 31.4067 53.4589 31.4881C53.3112 31.5677 53.1947 31.6785 53.1095 31.8205C53.0242 31.9625 52.9816 32.1264 52.9816 32.312V34.8773H51.9532ZM55.6251 34.8773V30.5137H56.6535V34.8773H55.6251ZM56.1421 29.8944C55.9793 29.8944 55.8391 29.8404 55.7217 29.7324C55.6043 29.6226 55.5455 29.491 55.5455 29.3375C55.5455 29.1822 55.6043 29.0506 55.7217 28.9427C55.8391 28.8328 55.9793 28.7779 56.1421 28.7779C56.3069 28.7779 56.4471 28.8328 56.5626 28.9427C56.68 29.0506 56.7387 29.1822 56.7387 29.3375C56.7387 29.491 56.68 29.6226 56.5626 29.7324C56.4471 29.8404 56.3069 29.8944 56.1421 29.8944ZM58.2565 34.8773V29.0591H59.2849V31.2353H59.3275C59.3805 31.1292 59.4553 31.0165 59.5519 30.8972C59.6485 30.776 59.7792 30.6728 59.944 30.5875C60.1088 30.5004 60.319 30.4569 60.5747 30.4569C60.9118 30.4569 61.2158 30.543 61.4866 30.7154C61.7593 30.8858 61.9752 31.1387 62.1343 31.4739C62.2953 31.8072 62.3758 32.2163 62.3758 32.7012C62.3758 33.1803 62.2972 33.5875 62.14 33.9228C61.9828 34.258 61.7688 34.5137 61.498 34.6898C61.2271 34.866 60.9203 34.954 60.5775 34.954C60.3275 34.954 60.1201 34.9124 59.9553 34.829C59.7906 34.7457 59.658 34.6453 59.5576 34.5279C59.4591 34.4086 59.3824 34.2959 59.3275 34.1898H59.2678V34.8773H58.2565ZM59.265 32.6955C59.265 32.9777 59.3048 33.2249 59.3843 33.437C59.4658 33.6491 59.5822 33.8148 59.7338 33.9341C59.8872 34.0516 60.0728 34.1103 60.2906 34.1103C60.5178 34.1103 60.7082 34.0497 60.8616 33.9285C61.015 33.8053 61.1305 33.6377 61.2082 33.4256C61.2877 33.2116 61.3275 32.9682 61.3275 32.6955C61.3275 32.4247 61.2887 32.1841 61.211 31.9739C61.1334 31.7637 61.0178 31.5989 60.8644 31.4796C60.711 31.3603 60.5197 31.3006 60.2906 31.3006C60.0709 31.3006 59.8843 31.3584 59.7309 31.4739C59.5775 31.5894 59.461 31.7514 59.3815 31.9597C59.3038 32.168 59.265 32.4133 59.265 32.6955ZM66.5313 33.0421V30.5137H67.5597V34.8773H66.5626V34.1018H66.5171C66.4186 34.3461 66.2567 34.5459 66.0313 34.7012C65.8079 34.8565 65.5323 34.9341 65.2046 34.9341C64.9186 34.9341 64.6658 34.8707 64.4461 34.7438C64.2283 34.615 64.0579 34.4285 63.9347 34.1841C63.8116 33.9379 63.7501 33.6406 63.7501 33.2921V30.5137H64.7785V33.133C64.7785 33.4095 64.8543 33.6292 65.0058 33.7921C65.1573 33.955 65.3561 34.0364 65.6024 34.0364C65.7539 34.0364 65.9007 33.9995 66.0427 33.9256C66.1847 33.8518 66.3012 33.7419 66.3921 33.5961C66.4849 33.4483 66.5313 33.2637 66.5313 33.0421ZM71.2963 30.5137V31.3091H68.7877V30.5137H71.2963ZM69.407 29.4682H70.4355V33.5648C70.4355 33.7031 70.4563 33.8091 70.498 33.883C70.5415 33.955 70.5983 34.0042 70.6684 34.0307C70.7385 34.0572 70.8161 34.0705 70.9014 34.0705C70.9658 34.0705 71.0245 34.0658 71.0775 34.0563C71.1324 34.0468 71.1741 34.0383 71.2025 34.0307L71.3758 34.8347C71.3209 34.8536 71.2423 34.8745 71.14 34.8972C71.0396 34.9199 70.9165 34.9332 70.7707 34.937C70.5131 34.9446 70.2811 34.9057 70.0747 34.8205C69.8682 34.7334 69.7044 34.5989 69.5832 34.4171C69.4639 34.2353 69.4052 34.008 69.407 33.7353V29.4682ZM72.6563 34.8773V30.5137H73.6847V34.8773H72.6563ZM73.1734 29.8944C73.0105 29.8944 72.8704 29.8404 72.7529 29.7324C72.6355 29.6226 72.5768 29.491 72.5768 29.3375C72.5768 29.1822 72.6355 29.0506 72.7529 28.9427C72.8704 28.8328 73.0105 28.7779 73.1734 28.7779C73.3382 28.7779 73.4783 28.8328 73.5938 28.9427C73.7113 29.0506 73.77 29.1822 73.77 29.3375C73.77 29.491 73.7113 29.6226 73.5938 29.7324C73.4783 29.8404 73.3382 29.8944 73.1734 29.8944ZM77.1457 34.9625C76.7195 34.9625 76.3502 34.8688 76.0377 34.6813C75.7252 34.4938 75.4828 34.2315 75.3105 33.8944C75.14 33.5572 75.0548 33.1633 75.0548 32.7125C75.0548 32.2618 75.14 31.8669 75.3105 31.5279C75.4828 31.1889 75.7252 30.9256 76.0377 30.7381C76.3502 30.5506 76.7195 30.4569 77.1457 30.4569C77.5718 30.4569 77.9411 30.5506 78.2536 30.7381C78.5661 30.9256 78.8076 31.1889 78.9781 31.5279C79.1504 31.8669 79.2366 32.2618 79.2366 32.7125C79.2366 33.1633 79.1504 33.5572 78.9781 33.8944C78.8076 34.2315 78.5661 34.4938 78.2536 34.6813C77.9411 34.8688 77.5718 34.9625 77.1457 34.9625ZM77.1514 34.1387C77.3824 34.1387 77.5756 34.0752 77.7309 33.9483C77.8862 33.8196 78.0017 33.6472 78.0775 33.4313C78.1552 33.2154 78.194 32.9749 78.194 32.7097C78.194 32.4427 78.1552 32.2012 78.0775 31.9853C78.0017 31.7675 77.8862 31.5942 77.7309 31.4654C77.5756 31.3366 77.3824 31.2722 77.1514 31.2722C76.9146 31.2722 76.7177 31.3366 76.5605 31.4654C76.4052 31.5942 76.2887 31.7675 76.211 31.9853C76.1353 32.2012 76.0974 32.4427 76.0974 32.7097C76.0974 32.9749 76.1353 33.2154 76.211 33.4313C76.2887 33.6472 76.4052 33.8196 76.5605 33.9483C76.7177 34.0752 76.9146 34.1387 77.1514 34.1387ZM81.6379 32.3205V34.8773H80.6095V30.5137H81.5924V31.2552H81.6436C81.7439 31.0108 81.904 30.8167 82.1237 30.6728C82.3453 30.5288 82.6189 30.4569 82.9447 30.4569C83.2458 30.4569 83.5081 30.5213 83.7316 30.65C83.957 30.7788 84.1312 30.9654 84.2544 31.2097C84.3794 31.454 84.4409 31.7504 84.439 32.0989V34.8773H83.4106V32.258C83.4106 31.9663 83.3348 31.7381 83.1833 31.5733C83.0337 31.4086 82.8263 31.3262 82.5612 31.3262C82.3812 31.3262 82.2212 31.366 82.0811 31.4455C81.9428 31.5232 81.8339 31.6358 81.7544 31.7836C81.6767 31.9313 81.6379 32.1103 81.6379 32.3205ZM86.618 34.9398C86.4456 34.9398 86.2979 34.8792 86.1748 34.758C86.0517 34.6368 85.9911 34.4891 85.993 34.3148C85.9911 34.1444 86.0517 33.9985 86.1748 33.8773C86.2979 33.7561 86.4456 33.6955 86.618 33.6955C86.7847 33.6955 86.9295 33.7561 87.0526 33.8773C87.1776 33.9985 87.2411 34.1444 87.243 34.3148C87.2411 34.4303 87.2108 34.5355 87.1521 34.6302C87.0953 34.7249 87.0195 34.8006 86.9248 34.8574C86.832 34.9124 86.7297 34.9398 86.618 34.9398ZM91.1549 34.8773V29.0591H93.3367C93.7837 29.0591 94.1587 29.1425 94.4617 29.3091C94.7667 29.4758 94.9968 29.705 95.1521 29.9966C95.3093 30.2864 95.3879 30.616 95.3879 30.9853C95.3879 31.3584 95.3093 31.6898 95.1521 31.9796C94.9949 32.2694 94.7629 32.4976 94.4561 32.6643C94.1492 32.829 93.7714 32.9114 93.3225 32.9114H91.8765V32.0449H93.1805C93.4419 32.0449 93.6559 31.9995 93.8225 31.9086C93.9892 31.8177 94.1123 31.6927 94.1919 31.5336C94.2733 31.3745 94.314 31.1917 94.314 30.9853C94.314 30.7788 94.2733 30.597 94.1919 30.4398C94.1123 30.2826 93.9883 30.1605 93.8197 30.0733C93.653 29.9843 93.4381 29.9398 93.1748 29.9398H92.2089V34.8773H91.1549ZM97.7863 29.0591V34.8773H96.7579V29.0591H97.7863ZM100.6 34.9654C100.323 34.9654 100.074 34.9161 99.8524 34.8177C99.6327 34.7173 99.4584 34.5696 99.3296 34.3745C99.2027 34.1794 99.1393 33.9389 99.1393 33.6529C99.1393 33.4067 99.1847 33.2031 99.2757 33.0421C99.3666 32.8811 99.4906 32.7523 99.6478 32.6557C99.805 32.5591 99.9821 32.4862 100.179 32.437C100.378 32.3858 100.583 32.3489 100.796 32.3262C101.051 32.2997 101.259 32.276 101.418 32.2552C101.577 32.2324 101.692 32.1983 101.764 32.1529C101.838 32.1055 101.875 32.0326 101.875 31.9341V31.9171C101.875 31.7031 101.812 31.5374 101.685 31.4199C101.558 31.3025 101.375 31.2438 101.136 31.2438C100.885 31.2438 100.685 31.2987 100.537 31.4086C100.391 31.5184 100.293 31.6482 100.242 31.7978L99.2813 31.6614C99.3571 31.3963 99.4821 31.1747 99.6563 30.9966C99.8306 30.8167 100.044 30.6822 100.296 30.5932C100.547 30.5023 100.826 30.4569 101.131 30.4569C101.341 30.4569 101.55 30.4815 101.759 30.5307C101.967 30.58 102.157 30.6614 102.33 30.775C102.502 30.8868 102.64 31.0393 102.744 31.2324C102.85 31.4256 102.903 31.6671 102.903 31.9569V34.8773H101.915V34.2779H101.881C101.818 34.3991 101.73 34.5127 101.617 34.6188C101.505 34.723 101.364 34.8072 101.193 34.8716C101.025 34.9341 100.827 34.9654 100.6 34.9654ZM100.867 34.2097C101.073 34.2097 101.252 34.169 101.403 34.0875C101.555 34.0042 101.671 33.8944 101.753 33.758C101.836 33.6216 101.878 33.473 101.878 33.312V32.7978C101.846 32.8243 101.791 32.8489 101.713 32.8716C101.637 32.8944 101.552 32.9143 101.457 32.9313C101.363 32.9483 101.269 32.9635 101.176 32.9768C101.083 32.99 101.003 33.0014 100.935 33.0108C100.781 33.0317 100.644 33.0658 100.523 33.1131C100.402 33.1605 100.306 33.2268 100.236 33.312C100.166 33.3953 100.131 33.5033 100.131 33.6358C100.131 33.8252 100.2 33.9682 100.338 34.0648C100.476 34.1614 100.653 34.2097 100.867 34.2097ZM106.617 30.5137V31.3091H104.108V30.5137H106.617ZM104.727 29.4682H105.756V33.5648C105.756 33.7031 105.777 33.8091 105.818 33.883C105.862 33.955 105.919 34.0042 105.989 34.0307C106.059 34.0572 106.136 34.0705 106.222 34.0705C106.286 34.0705 106.345 34.0658 106.398 34.0563C106.453 34.0468 106.494 34.0383 106.523 34.0307L106.696 34.8347C106.641 34.8536 106.563 34.8745 106.46 34.8972C106.36 34.9199 106.237 34.9332 106.091 34.937C105.833 34.9446 105.601 34.9057 105.395 34.8205C105.189 34.7334 105.025 34.5989 104.903 34.4171C104.784 34.2353 104.725 34.008 104.727 33.7353V29.4682ZM110.187 30.5137V31.3091H107.607V30.5137H110.187ZM108.252 34.8773V30.1018C108.252 29.8082 108.313 29.5639 108.434 29.3688C108.557 29.1737 108.722 29.0279 108.928 28.9313C109.135 28.8347 109.364 28.7864 109.616 28.7864C109.794 28.7864 109.952 28.8006 110.09 28.829C110.229 28.8574 110.331 28.883 110.397 28.9057L110.193 29.7012C110.149 29.6879 110.094 29.6747 110.028 29.6614C109.961 29.6463 109.888 29.6387 109.806 29.6387C109.615 29.6387 109.479 29.6851 109.4 29.7779C109.322 29.8688 109.283 29.9995 109.283 30.1699V34.8773H108.252ZM113.232 34.9625C112.805 34.9625 112.436 34.8688 112.124 34.6813C111.811 34.4938 111.569 34.2315 111.396 33.8944C111.226 33.5572 111.141 33.1633 111.141 32.7125C111.141 32.2618 111.226 31.8669 111.396 31.5279C111.569 31.1889 111.811 30.9256 112.124 30.7381C112.436 30.5506 112.805 30.4569 113.232 30.4569C113.658 30.4569 114.027 30.5506 114.34 30.7381C114.652 30.9256 114.894 31.1889 115.064 31.5279C115.236 31.8669 115.323 32.2618 115.323 32.7125C115.323 33.1633 115.236 33.5572 115.064 33.8944C114.894 34.2315 114.652 34.4938 114.34 34.6813C114.027 34.8688 113.658 34.9625 113.232 34.9625ZM113.237 34.1387C113.468 34.1387 113.662 34.0752 113.817 33.9483C113.972 33.8196 114.088 33.6472 114.163 33.4313C114.241 33.2154 114.28 32.9749 114.28 32.7097C114.28 32.4427 114.241 32.2012 114.163 31.9853C114.088 31.7675 113.972 31.5942 113.817 31.4654C113.662 31.3366 113.468 31.2722 113.237 31.2722C113.001 31.2722 112.804 31.3366 112.646 31.4654C112.491 31.5942 112.375 31.7675 112.297 31.9853C112.221 32.2012 112.183 32.4427 112.183 32.7097C112.183 32.9749 112.221 33.2154 112.297 33.4313C112.375 33.6472 112.491 33.8196 112.646 33.9483C112.804 34.0752 113.001 34.1387 113.237 34.1387ZM116.695 34.8773V30.5137H117.693V31.241H117.738C117.818 30.9891 117.954 30.7949 118.147 30.6586C118.342 30.5203 118.565 30.4512 118.815 30.4512C118.872 30.4512 118.935 30.454 119.005 30.4597C119.077 30.4635 119.137 30.4701 119.184 30.4796V31.4256C119.14 31.4105 119.071 31.3972 118.977 31.3858C118.884 31.3726 118.794 31.366 118.707 31.366C118.519 31.366 118.351 31.4067 118.201 31.4881C118.053 31.5677 117.937 31.6785 117.852 31.8205C117.766 31.9625 117.724 32.1264 117.724 32.312V34.8773H116.695ZM120.367 34.8773V30.5137H121.35V31.2552H121.401C121.492 31.0052 121.643 30.8101 121.853 30.6699C122.063 30.5279 122.314 30.4569 122.606 30.4569C122.901 30.4569 123.15 30.5288 123.353 30.6728C123.558 30.8148 123.702 31.0089 123.785 31.2552H123.83C123.927 31.0127 124.09 30.8196 124.319 30.6756C124.55 30.5298 124.824 30.4569 125.14 30.4569C125.542 30.4569 125.869 30.5838 126.123 30.8375C126.377 31.0913 126.504 31.4616 126.504 31.9483V34.8773H125.472V32.1074C125.472 31.8366 125.4 31.6387 125.256 31.5137C125.113 31.3868 124.936 31.3233 124.728 31.3233C124.48 31.3233 124.286 31.401 124.146 31.5563C124.007 31.7097 123.938 31.9095 123.938 32.1557V34.8773H122.93V32.0648C122.93 31.8394 122.862 31.6595 122.725 31.525C122.591 31.3906 122.415 31.3233 122.197 31.3233C122.049 31.3233 121.915 31.3612 121.793 31.437C121.672 31.5108 121.576 31.616 121.504 31.7523C121.432 31.8868 121.396 32.044 121.396 32.2239V34.8773H120.367Z" fill="#3F4754"/>
</svg>
