<svg width="3733" height="650" viewBox="0 0 3733 650" fill="none" xmlns="http://www.w3.org/2000/svg">
<path d="M954.96 335.875L143.945 606.202C331.363 632.13 733.613 668.429 843.271 606.202C952.93 543.976 963.422 400.057 954.96 335.875Z" fill="url(#paint0_linear_503_803)"/>
<path d="M875.864 163.292L145.037 607.204C333.611 590.439 734.035 535.671 827.133 450.724C920.231 365.776 898.411 223.708 875.864 163.292Z" fill="url(#paint1_linear_503_803)"/>
<path d="M717.049 1.06779L126.119 619.103C303.918 554.073 676.497 397.473 744.419 291.313C812.341 185.153 754.473 53.5829 717.049 1.06779Z" fill="url(#paint2_linear_503_803)"/>
<path d="M1330.65 353.435H1473.5C1488.48 356.645 1498.64 370.02 1498.64 385C1498.64 399.445 1488.48 412.285 1474.57 416.03H1330.65V353.435ZM1560.17 332.57C1554.28 321.87 1546.79 312.24 1537.7 304.215C1536.63 303.145 1535.02 302.075 1533.95 301.005C1534.49 300.47 1535.02 299.4 1535.55 298.33C1535.55 297.795 1535.55 297.795 1536.09 297.26C1544.65 281.745 1549.47 263.555 1549.47 244.83C1549.47 226.64 1544.65 208.985 1536.09 192.935C1536.09 192.4 1535.56 191.865 1535.02 191.33C1516.3 158.16 1480.45 137.83 1441.93 137.83H1255.75V213.8H1450.49C1464.4 217.545 1474.57 230.385 1474.57 244.83C1474.57 260.345 1463.33 273.72 1448.35 276.93H1255.75V492H1441.93C1446.21 492 1449.96 492 1454.24 491.465C1458.52 492 1462.26 492 1466.54 492C1505.6 492 1541.44 471.135 1560.17 436.895C1569.26 421.38 1574.08 403.19 1574.08 385C1574.08 366.275 1569.26 348.62 1560.17 332.57Z" fill="#1F2B99"/>
<path d="M1703.16 417.1V136.225H1628.26V492H1909.14V417.1H1703.16Z" fill="#1F2B99"/>
<path d="M2182.54 138.9V332.57C2182.54 378.045 2146.16 416.03 2101.76 417.1C2100.69 417.1 2099.62 417.1 2098.55 417.1C2097.48 417.1 2096.41 417.1 2095.34 417.1C2050.93 416.03 2014.55 377.51 2014.55 332.57V138.9H1939.65V359.32C1939.65 388.21 1949.82 414.96 1968.54 435.29C1976.03 443.315 1983.52 450.27 1992.08 456.69C2022.58 479.695 2059.49 492 2098.55 492C2137.6 492 2173.98 479.695 2205.01 456.69C2213.57 450.27 2221.06 443.315 2228.02 435.825C2247.28 415.495 2257.44 388.21 2257.44 359.855V138.9H2182.54Z" fill="#1F2B99"/>
<path d="M2311.64 138.9V213.8H2627.29V138.9H2311.64ZM2386.54 341.13H2595.73V266.23H2386.54L2311.64 265.695V492H2627.29V417.1H2386.54V341.13Z" fill="#1F2B99"/>
<path d="M2866.16 278H2764.51C2746.86 278 2732.41 263.555 2732.41 245.9C2732.41 228.245 2746.86 213.8 2764.51 213.8H2881.68C2893.45 217.545 2901.47 228.245 2901.47 241.085H2974.77C2974.77 231.455 2973.7 222.36 2971.02 213.8C2959.25 170.465 2919.66 138.9 2872.58 138.9H2764.51C2725.99 138.9 2690.15 159.23 2671.42 192.935C2662.33 208.985 2657.51 227.175 2657.51 245.9C2657.51 264.625 2662.33 282.815 2671.42 298.865C2675.7 306.355 2680.52 312.775 2685.87 318.66C2706.2 340.06 2734.55 352.9 2764.51 352.9H2866.16C2883.82 352.9 2897.73 367.345 2897.73 385C2897.73 402.655 2883.82 417.1 2866.16 417.1H2750.07C2738.83 413.355 2730.81 402.655 2730.81 389.815H2657.51C2657.51 399.445 2658.58 408.54 2660.72 417.1C2673.03 460.435 2712.62 492 2759.7 492H2866.16C2904.15 492 2939.99 471.67 2958.72 438.5C2968.35 421.915 2973.16 403.725 2973.16 385C2973.16 366.275 2968.35 348.085 2958.72 332.035C2939.99 298.865 2904.15 278 2866.16 278Z" fill="#1F2B99"/>
<path d="M3091.87 138.9H3016.97V297.26L3091.87 222.36V138.9ZM3331.01 468.46L3178.54 315.45L3355.09 138.9H3249.16L3137.34 250.18V250.715L3016.97 371.09V492H3091.87V402.12L3125.57 368.415L3244.88 488.255L3249.16 492H3355.09L3331.01 468.46Z" fill="#1F2B99"/>
<path d="M3639.55 137.83L3635.27 143.715L3556.09 251.785L3476.91 143.715L3472.63 137.83H3380.08L3396.13 160.3L3512.22 318.66L3515.43 323.475H3515.97V324.01L3518.64 327.755V492H3593.54V327.22L3596.22 324.01V323.475H3596.75L3599.96 318.66L3716.06 160.3L3732.11 137.83H3639.55Z" fill="#1F2B99"/>
<defs>
<linearGradient id="paint0_linear_503_803" x1="942.091" y1="439.296" x2="188.524" y2="599.922" gradientUnits="userSpaceOnUse">
<stop stop-color="#964EF1"/>
<stop offset="1" stop-color="#AE1AC6" stop-opacity="0"/>
</linearGradient>
<linearGradient id="paint1_linear_503_803" x1="884.731" y1="266.736" x2="150.274" y2="602.971" gradientUnits="userSpaceOnUse">
<stop stop-color="#3B79F2"/>
<stop offset="1" stop-color="#80A3FF" stop-opacity="0"/>
</linearGradient>
<linearGradient id="paint2_linear_503_803" x1="747.607" y1="90.1656" x2="125.853" y2="621.755" gradientUnits="userSpaceOnUse">
<stop stop-color="#5AFFEB"/>
<stop offset="1" stop-color="#72CCFF" stop-opacity="0"/>
</linearGradient>
</defs>
</svg>
