<svg width="14" height="14" viewBox="0 0 14 14" fill="none" xmlns="http://www.w3.org/2000/svg">
<path d="M9.77162 2.07675V1.16675C9.77162 0.927581 9.57328 0.729248 9.33412 0.729248C9.09495 0.729248 8.89662 0.927581 8.89662 1.16675V2.04175H5.10495V1.16675C5.10495 0.927581 4.90662 0.729248 4.66745 0.729248C4.42828 0.729248 4.22995 0.927581 4.22995 1.16675V2.07675C2.65495 2.22258 1.89078 3.16175 1.77412 4.55591C1.76245 4.72508 1.90245 4.86508 2.06578 4.86508H11.9358C12.105 4.86508 12.245 4.71925 12.2275 4.55591C12.1108 3.16175 11.3466 2.22258 9.77162 2.07675Z" fill="#5E6878"/>
<path opacity="0.4" d="M11.6667 5.73999C11.9875 5.73999 12.25 6.00249 12.25 6.32332V9.91666C12.25 11.6667 11.375 12.8333 9.33333 12.8333H4.66667C2.625 12.8333 1.75 11.6667 1.75 9.91666V6.32332C1.75 6.00249 2.0125 5.73999 2.33333 5.73999H11.6667Z" fill="#5E6878"/>
<path d="M4.95833 8.75001C4.80667 8.75001 4.655 8.68584 4.54417 8.58084C4.43917 8.47 4.375 8.31834 4.375 8.16667C4.375 8.01501 4.43917 7.86335 4.54417 7.75251C4.7075 7.58918 4.96417 7.53667 5.18 7.63C5.25583 7.65917 5.32 7.70001 5.3725 7.75251C5.4775 7.86335 5.54167 8.01501 5.54167 8.16667C5.54167 8.31834 5.4775 8.47 5.3725 8.58084C5.26167 8.68584 5.11 8.75001 4.95833 8.75001Z" fill="#5E6878"/>
<path d="M6.99935 8.75001C6.84768 8.75001 6.69602 8.68584 6.58518 8.58084C6.48018 8.47 6.41602 8.31834 6.41602 8.16667C6.41602 8.01501 6.48018 7.86335 6.58518 7.75251C6.63768 7.70001 6.70185 7.65917 6.77768 7.63C6.99352 7.53667 7.25018 7.58918 7.41352 7.75251C7.51852 7.86335 7.58268 8.01501 7.58268 8.16667C7.58268 8.31834 7.51852 8.47 7.41352 8.58084C7.38435 8.60417 7.35518 8.6275 7.32602 8.65083C7.29102 8.67417 7.25602 8.69168 7.22102 8.70335C7.18602 8.72085 7.15102 8.73251 7.11602 8.73835C7.07518 8.74418 7.04018 8.75001 6.99935 8.75001Z" fill="#5E6878"/>
<path d="M9.04232 8.74993C8.89065 8.74993 8.73898 8.68575 8.62815 8.58075C8.52315 8.46992 8.45898 8.31826 8.45898 8.16659C8.45898 8.01493 8.52315 7.86326 8.62815 7.75243C8.68648 7.69993 8.74482 7.65908 8.82065 7.62992C8.92565 7.58325 9.04232 7.57159 9.15899 7.59492C9.19399 7.60075 9.22899 7.61242 9.26399 7.62992C9.29899 7.64158 9.33399 7.6591 9.36899 7.68243C9.39815 7.70577 9.42732 7.7291 9.45648 7.75243C9.56148 7.86326 9.62565 8.01493 9.62565 8.16659C9.62565 8.31826 9.56148 8.46992 9.45648 8.58075C9.42732 8.60409 9.39815 8.62742 9.36899 8.65075C9.33399 8.67408 9.29899 8.6916 9.26399 8.70327C9.22899 8.72077 9.19399 8.73243 9.15899 8.73826C9.11815 8.7441 9.07732 8.74993 9.04232 8.74993Z" fill="#5E6878"/>
<path d="M4.95833 10.7917C4.8825 10.7917 4.80667 10.7742 4.73667 10.745C4.66083 10.7158 4.6025 10.675 4.54417 10.6225C4.43917 10.5117 4.375 10.36 4.375 10.2083C4.375 10.0567 4.43917 9.90501 4.54417 9.79418C4.6025 9.74168 4.66083 9.70083 4.73667 9.67167C4.84167 9.625 4.95833 9.61333 5.075 9.63667C5.11 9.6425 5.145 9.65417 5.18 9.67167C5.215 9.68333 5.25 9.70085 5.285 9.72418C5.31417 9.74751 5.34333 9.77085 5.3725 9.79418C5.4775 9.90501 5.54167 10.0567 5.54167 10.2083C5.54167 10.36 5.4775 10.5117 5.3725 10.6225C5.34333 10.6458 5.31417 10.675 5.285 10.6925C5.25 10.7158 5.215 10.7333 5.18 10.745C5.145 10.7625 5.11 10.7742 5.075 10.78C5.03417 10.7858 4.99917 10.7917 4.95833 10.7917Z" fill="#5E6878"/>
<path d="M6.99935 10.7917C6.84768 10.7917 6.69602 10.7275 6.58518 10.6225C6.48018 10.5117 6.41602 10.36 6.41602 10.2084C6.41602 10.0567 6.48018 9.90503 6.58518 9.7942C6.80102 9.57837 7.19768 9.57837 7.41352 9.7942C7.51852 9.90503 7.58268 10.0567 7.58268 10.2084C7.58268 10.36 7.51852 10.5117 7.41352 10.6225C7.30268 10.7275 7.15102 10.7917 6.99935 10.7917Z" fill="#5E6878"/>
<path d="M9.04232 10.7917C8.89065 10.7917 8.73898 10.7275 8.62815 10.6225C8.52315 10.5117 8.45898 10.36 8.45898 10.2084C8.45898 10.0567 8.52315 9.90503 8.62815 9.7942C8.84399 9.57837 9.24065 9.57837 9.45648 9.7942C9.56148 9.90503 9.62565 10.0567 9.62565 10.2084C9.62565 10.36 9.56148 10.5117 9.45648 10.6225C9.34565 10.7275 9.19398 10.7917 9.04232 10.7917Z" fill="#5E6878"/>
</svg>
