<svg width="24" height="25" viewBox="0 0 24 25" fill="none" xmlns="http://www.w3.org/2000/svg">
<path d="M12 22.8616C9.9233 22.8616 7.89323 22.2458 6.16652 21.092C4.4398 19.9383 3.09399 18.2984 2.29927 16.3798C1.50455 14.4611 1.29661 12.3499 1.70176 10.3131C2.1069 8.27633 3.10693 6.40541 4.57538 4.93696C6.04383 3.4685 7.91476 2.46848 9.95156 2.06333C11.9884 1.65819 14.0996 1.86612 16.0182 2.66084C17.9368 3.45556 19.5767 4.80137 20.7304 6.52809C21.8842 8.25481 22.5 10.2849 22.5 12.3616C22.5 15.1464 21.3938 17.8171 19.4246 19.7862C17.4555 21.7553 14.7848 22.8616 12 22.8616ZM12 3.36158C10.22 3.36158 8.47992 3.88942 6.99987 4.87835C5.51983 5.86728 4.36628 7.27289 3.68509 8.91743C3.0039 10.562 2.82567 12.3716 3.17294 14.1174C3.5202 15.8632 4.37737 17.4669 5.63604 18.7255C6.89472 19.9842 8.49836 20.8414 10.2442 21.1886C11.99 21.5359 13.7996 21.3577 15.4442 20.6765C17.0887 19.9953 18.4943 18.8418 19.4832 17.3617C20.4722 15.8817 21 14.1416 21 12.3616C21 9.97463 20.0518 7.68544 18.364 5.99762C16.6761 4.30979 14.387 3.36158 12 3.36158Z" fill="#027DE2"/>
<path d="M15.4425 16.8616L11.25 12.6691V5.61157H12.75V12.0466L16.5 15.8041L15.4425 16.8616Z" fill="#027DE2"/>
</svg>
