<svg width="14" height="11" viewBox="0 0 14 11" fill="none" xmlns="http://www.w3.org/2000/svg">
<path d="M7.07437 1.83047L4.95688 3.51484C4.60469 3.79414 4.53688 4.29688 4.80375 4.65566C5.08594 5.03809 5.635 5.11328 6.01344 4.82324L8.18563 3.16465C8.33875 3.04863 8.5575 3.07441 8.67781 3.22481C8.79813 3.3752 8.76969 3.59004 8.61656 3.7082L8.15937 4.05625L11.2 6.80625V2.75H11.1847L11.0994 2.69629L9.51125 1.69727C9.17656 1.48672 8.785 1.375 8.38687 1.375C7.91 1.375 7.44625 1.53613 7.07437 1.83047ZM7.57313 4.50313L6.44219 5.3668C5.75312 5.89531 4.75344 5.75781 4.23719 5.06172C3.75156 4.40645 3.87406 3.49121 4.515 2.98203L6.335 1.53613C6.08125 1.43086 5.80781 1.37715 5.53 1.37715C5.11875 1.375 4.71844 1.49531 4.375 1.71875L2.8 2.75V7.5625H3.41687L5.41625 9.3543C5.845 9.73887 6.50781 9.70879 6.89937 9.2877C7.01969 9.15664 7.10062 9.0041 7.14219 8.84512L7.51406 9.18028C7.94062 9.56485 8.60562 9.53692 8.99719 9.11797C9.09562 9.0127 9.16781 8.89024 9.21375 8.76348C9.63813 9.04278 10.2156 8.98477 10.5722 8.60235C10.9637 8.1834 10.9353 7.53028 10.5087 7.1457L7.57313 4.50313ZM0.35 2.75C0.1575 2.75 0 2.90469 0 3.09375V7.5625C0 7.94278 0.312812 8.25 0.7 8.25H1.4C1.78719 8.25 2.1 7.94278 2.1 7.5625V2.75H0.35ZM1.05 6.875C1.14283 6.875 1.23185 6.91122 1.29749 6.97568C1.36313 7.04015 1.4 7.12758 1.4 7.21875C1.4 7.30992 1.36313 7.39735 1.29749 7.46182C1.23185 7.52629 1.14283 7.5625 1.05 7.5625C0.957174 7.5625 0.86815 7.52629 0.802513 7.46182C0.736875 7.39735 0.7 7.30992 0.7 7.21875C0.7 7.12758 0.736875 7.04015 0.802513 6.97568C0.86815 6.91122 0.957174 6.875 1.05 6.875ZM11.9 2.75V7.5625C11.9 7.94278 12.2128 8.25 12.6 8.25H13.3C13.6872 8.25 14 7.94278 14 7.5625V3.09375C14 2.90469 13.8425 2.75 13.65 2.75H11.9ZM12.6 7.21875C12.6 7.12758 12.6369 7.04015 12.7025 6.97568C12.7681 6.91122 12.8572 6.875 12.95 6.875C13.0428 6.875 13.1318 6.91122 13.1975 6.97568C13.2631 7.04015 13.3 7.12758 13.3 7.21875C13.3 7.30992 13.2631 7.39735 13.1975 7.46182C13.1318 7.52629 13.0428 7.5625 12.95 7.5625C12.8572 7.5625 12.7681 7.52629 12.7025 7.46182C12.6369 7.39735 12.6 7.30992 12.6 7.21875Z" fill="#127EB8"/>
</svg>
