<svg width="237" height="42" viewBox="0 0 237 42" fill="none" xmlns="http://www.w3.org/2000/svg">
<path d="M7.90435 36.5998C5.59766 38.3295 6.82097 42 9.70414 42H206.852C207.464 42 208.062 41.8125 208.565 41.4627L232.821 24.5892C234.477 23.4375 234.547 21.0129 232.961 19.7672L208.608 0.640685C208.08 0.225617 207.427 0 206.755 0H8.21726C5.41937 0 4.14461 3.49167 6.28439 5.29433L23.822 20.0691C25.2979 21.3125 25.2329 23.6058 23.6889 24.7636L7.90435 36.5998Z" fill="#E4EAEF"/>
<path d="M69.265 26.13C68.511 26.13 67.848 25.9913 67.276 25.714C66.704 25.428 66.2273 25.051 65.846 24.583C65.4733 24.1063 65.1917 23.5777 65.001 22.997C64.8103 22.4077 64.715 21.8053 64.715 21.19C64.715 20.5747 64.8103 19.9723 65.001 19.383C65.1917 18.7937 65.4733 18.265 65.846 17.797C66.2273 17.3203 66.704 16.9433 67.276 16.666C67.848 16.3887 68.511 16.25 69.265 16.25C69.889 16.25 70.422 16.3323 70.864 16.497C71.3147 16.653 71.6873 16.8567 71.982 17.108C72.2853 17.3593 72.528 17.628 72.71 17.914C72.9007 18.2 73.0393 18.4687 73.126 18.72C73.2213 18.9713 73.282 19.1793 73.308 19.344C73.3427 19.5 73.36 19.578 73.36 19.578H72.086C72.086 19.578 72.0687 19.5087 72.034 19.37C71.9993 19.2227 71.93 19.045 71.826 18.837C71.722 18.6203 71.566 18.4037 71.358 18.187C71.15 17.9703 70.877 17.7927 70.539 17.654C70.201 17.5067 69.7807 17.433 69.278 17.433C68.732 17.433 68.2553 17.5413 67.848 17.758C67.4407 17.966 67.0983 18.252 66.821 18.616C66.5523 18.9713 66.3487 19.3743 66.21 19.825C66.08 20.267 66.015 20.722 66.015 21.19C66.015 21.658 66.08 22.1173 66.21 22.568C66.3487 23.01 66.5523 23.413 66.821 23.777C67.0983 24.1323 67.4407 24.4183 67.848 24.635C68.2553 24.843 68.732 24.947 69.278 24.947C69.7807 24.947 70.201 24.8733 70.539 24.726C70.877 24.5787 71.15 24.401 71.358 24.193C71.566 23.9763 71.722 23.764 71.826 23.556C71.93 23.3393 71.9993 23.1573 72.034 23.01C72.0687 22.8627 72.086 22.789 72.086 22.789H73.36C73.36 22.789 73.3427 22.8713 73.308 23.036C73.282 23.192 73.2213 23.4 73.126 23.66C73.0393 23.9113 72.9007 24.18 72.71 24.466C72.528 24.7433 72.2853 25.012 71.982 25.272C71.6873 25.5233 71.3147 25.7313 70.864 25.896C70.422 26.052 69.889 26.13 69.265 26.13ZM78.2531 26.13C77.5164 26.13 76.8967 25.961 76.3941 25.623C75.8914 25.2763 75.5101 24.83 75.2501 24.284C74.9901 23.738 74.8601 23.1617 74.8601 22.555C74.8601 21.9397 74.9901 21.3633 75.2501 20.826C75.5101 20.28 75.8914 19.838 76.3941 19.5C76.8967 19.1533 77.5164 18.98 78.2531 18.98C78.9897 18.98 79.6094 19.1533 80.1121 19.5C80.6147 19.838 80.9961 20.28 81.2561 20.826C81.5161 21.3633 81.6461 21.9397 81.6461 22.555C81.6461 23.1617 81.5161 23.738 81.2561 24.284C80.9961 24.83 80.6147 25.2763 80.1121 25.623C79.6094 25.961 78.9897 26.13 78.2531 26.13ZM78.2531 25.051C78.7211 25.051 79.1111 24.934 79.4231 24.7C79.7437 24.4573 79.9821 24.1453 80.1381 23.764C80.3027 23.3827 80.3851 22.9797 80.3851 22.555C80.3851 22.1217 80.3027 21.7187 80.1381 21.346C79.9821 20.9647 79.7437 20.657 79.4231 20.423C79.1111 20.1803 78.7211 20.059 78.2531 20.059C77.7937 20.059 77.4037 20.1803 77.0831 20.423C76.7624 20.657 76.5197 20.9647 76.3551 21.346C76.1991 21.7187 76.1211 22.1217 76.1211 22.555C76.1211 22.9797 76.1991 23.3827 76.3551 23.764C76.5197 24.1453 76.7624 24.4573 77.0831 24.7C77.4037 24.934 77.7937 25.051 78.2531 25.051ZM85.5799 26.13C84.8952 26.13 84.3492 25.9177 83.9419 25.493C83.5346 25.0683 83.3309 24.479 83.3309 23.725V19.11H84.5659V23.66C84.5659 24.1107 84.6872 24.4573 84.9299 24.7C85.1812 24.9427 85.5106 25.064 85.9179 25.064C86.3339 25.064 86.6676 24.9557 86.9189 24.739C87.1702 24.5223 87.3522 24.245 87.4649 23.907C87.5776 23.569 87.6339 23.2223 87.6339 22.867V19.11H88.8689V26H87.6339V25.012H87.5559C87.5039 25.116 87.4042 25.259 87.2569 25.441C87.1096 25.6143 86.9016 25.7747 86.6329 25.922C86.3642 26.0607 86.0132 26.13 85.5799 26.13ZM90.8242 28.548V19.11H92.0592V20.202H92.1372C92.2412 20.0373 92.3798 19.8597 92.5532 19.669C92.7352 19.4783 92.9735 19.318 93.2682 19.188C93.5628 19.0493 93.9268 18.98 94.3602 18.98C94.8802 18.98 95.3352 19.084 95.7252 19.292C96.1152 19.4913 96.4402 19.7643 96.7002 20.111C96.9602 20.449 97.1552 20.8303 97.2852 21.255C97.4152 21.6797 97.4802 22.113 97.4802 22.555C97.4802 22.997 97.4152 23.4303 97.2852 23.855C97.1552 24.2797 96.9602 24.6653 96.7002 25.012C96.4402 25.35 96.1152 25.623 95.7252 25.831C95.3352 26.0303 94.8802 26.13 94.3602 26.13C93.9268 26.13 93.5628 26.0607 93.2682 25.922C92.9735 25.7833 92.7352 25.6187 92.5532 25.428C92.3798 25.2373 92.2412 25.064 92.1372 24.908H92.0592V28.548H90.8242ZM92.0852 22.555C92.0852 22.971 92.1588 23.374 92.3062 23.764C92.4622 24.1453 92.6918 24.4617 92.9952 24.713C93.3072 24.9557 93.6928 25.077 94.1522 25.077C94.6202 25.077 95.0058 24.9557 95.3092 24.713C95.6212 24.4617 95.8508 24.1453 95.9982 23.764C96.1542 23.374 96.2322 22.971 96.2322 22.555C96.2322 22.1303 96.1542 21.7273 95.9982 21.346C95.8508 20.9647 95.6212 20.6527 95.3092 20.41C95.0058 20.1587 94.6202 20.033 94.1522 20.033C93.6928 20.033 93.3072 20.1587 92.9952 20.41C92.6918 20.6527 92.4622 20.9647 92.3062 21.346C92.1588 21.7273 92.0852 22.1303 92.0852 22.555ZM102.374 26.13C101.638 26.13 101.018 25.961 100.515 25.623C100.013 25.2763 99.6312 24.83 99.3712 24.284C99.1112 23.738 98.9812 23.1617 98.9812 22.555C98.9812 21.9397 99.1112 21.3633 99.3712 20.826C99.6312 20.28 100.013 19.838 100.515 19.5C101.018 19.1533 101.638 18.98 102.374 18.98C103.111 18.98 103.731 19.1533 104.233 19.5C104.736 19.838 105.117 20.28 105.377 20.826C105.637 21.3633 105.767 21.9397 105.767 22.555C105.767 23.1617 105.637 23.738 105.377 24.284C105.117 24.83 104.736 25.2763 104.233 25.623C103.731 25.961 103.111 26.13 102.374 26.13ZM102.374 25.051C102.842 25.051 103.232 24.934 103.544 24.7C103.865 24.4573 104.103 24.1453 104.259 23.764C104.424 23.3827 104.506 22.9797 104.506 22.555C104.506 22.1217 104.424 21.7187 104.259 21.346C104.103 20.9647 103.865 20.657 103.544 20.423C103.232 20.1803 102.842 20.059 102.374 20.059C101.915 20.059 101.525 20.1803 101.204 20.423C100.884 20.657 100.641 20.9647 100.476 21.346C100.32 21.7187 100.242 22.1217 100.242 22.555C100.242 22.9797 100.32 23.3827 100.476 23.764C100.641 24.1453 100.884 24.4573 101.204 24.7C101.525 24.934 101.915 25.051 102.374 25.051ZM107.452 26V19.11H108.687V20.111H108.765C108.826 20.007 108.925 19.864 109.064 19.682C109.211 19.5 109.419 19.3397 109.688 19.201C109.957 19.0537 110.295 18.98 110.702 18.98C111.205 18.98 111.634 19.097 111.989 19.331C112.344 19.5563 112.613 19.864 112.795 20.254C112.986 20.644 113.081 21.0817 113.081 21.567V26H111.846V21.645C111.846 21.1857 111.716 20.8043 111.456 20.501C111.205 20.1977 110.836 20.046 110.351 20.046C109.961 20.046 109.645 20.1457 109.402 20.345C109.159 20.5357 108.977 20.7913 108.856 21.112C108.743 21.424 108.687 21.7577 108.687 22.113V26H107.452ZM121.111 26.13C120.513 26.13 119.963 26.0217 119.46 25.805C118.958 25.5883 118.555 25.2763 118.251 24.869C117.948 24.4617 117.796 23.9677 117.796 23.387C117.796 22.763 117.978 22.23 118.342 21.788C118.715 21.3373 119.196 20.943 119.785 20.605L119.681 20.488C119.456 20.228 119.248 19.9377 119.057 19.617C118.867 19.2963 118.771 18.9063 118.771 18.447C118.771 17.9617 118.88 17.5587 119.096 17.238C119.322 16.9087 119.612 16.6617 119.967 16.497C120.323 16.3323 120.695 16.25 121.085 16.25C121.475 16.25 121.839 16.328 122.177 16.484C122.524 16.64 122.801 16.8697 123.009 17.173C123.226 17.4763 123.334 17.849 123.334 18.291C123.334 18.811 123.17 19.2833 122.84 19.708C122.511 20.1327 122.043 20.4967 121.436 20.8L123.776 23.439C123.958 23.0837 124.101 22.659 124.205 22.165C124.309 21.671 124.361 21.1077 124.361 20.475H125.414C125.414 21.2983 125.332 22.0263 125.167 22.659C125.011 23.2917 124.795 23.8333 124.517 24.284L126.025 25.987H124.465L123.763 25.181C123.391 25.5017 122.979 25.74 122.528 25.896C122.078 26.052 121.605 26.13 121.111 26.13ZM120.669 19.929L120.812 20.085L120.903 20.046C121.319 19.8467 121.644 19.604 121.878 19.318C122.121 19.0233 122.242 18.7027 122.242 18.356C122.242 17.992 122.125 17.7147 121.891 17.524C121.666 17.3247 121.402 17.225 121.098 17.225C120.778 17.225 120.492 17.3333 120.24 17.55C119.998 17.758 119.876 18.044 119.876 18.408C119.876 18.668 119.946 18.915 120.084 19.149C120.223 19.383 120.418 19.643 120.669 19.929ZM118.966 23.283C118.966 23.6643 119.066 23.9937 119.265 24.271C119.465 24.5397 119.729 24.7433 120.058 24.882C120.396 25.0207 120.769 25.09 121.176 25.09C121.532 25.09 121.87 25.0337 122.19 24.921C122.52 24.8083 122.814 24.6307 123.074 24.388L120.396 21.307C119.972 21.5497 119.625 21.8313 119.356 22.152C119.096 22.4727 118.966 22.8497 118.966 23.283ZM134.978 26.13C134.216 26.13 133.544 25.9913 132.963 25.714C132.383 25.428 131.897 25.051 131.507 24.583C131.117 24.1063 130.823 23.5733 130.623 22.984C130.424 22.3947 130.324 21.7923 130.324 21.177C130.324 20.5617 130.424 19.9637 130.623 19.383C130.823 18.7937 131.117 18.265 131.507 17.797C131.897 17.329 132.383 16.9563 132.963 16.679C133.544 16.393 134.216 16.25 134.978 16.25C135.741 16.25 136.413 16.393 136.993 16.679C137.574 16.9563 138.059 17.329 138.449 17.797C138.839 18.265 139.134 18.7937 139.333 19.383C139.533 19.9637 139.632 20.5617 139.632 21.177C139.632 21.7923 139.533 22.3947 139.333 22.984C139.134 23.5733 138.839 24.1063 138.449 24.583C138.059 25.051 137.574 25.428 136.993 25.714C136.413 25.9913 135.741 26.13 134.978 26.13ZM134.978 24.947C135.524 24.947 136.005 24.843 136.421 24.635C136.837 24.427 137.184 24.1453 137.461 23.79C137.747 23.4347 137.964 23.0317 138.111 22.581C138.259 22.1303 138.332 21.6623 138.332 21.177C138.332 20.7003 138.259 20.241 138.111 19.799C137.964 19.3483 137.747 18.9453 137.461 18.59C137.184 18.2347 136.837 17.953 136.421 17.745C136.005 17.537 135.524 17.433 134.978 17.433C134.432 17.433 133.951 17.537 133.535 17.745C133.119 17.953 132.768 18.2347 132.482 18.59C132.205 18.9453 131.993 19.3483 131.845 19.799C131.698 20.241 131.624 20.7003 131.624 21.177C131.624 21.6623 131.698 22.1303 131.845 22.581C131.993 23.0317 132.205 23.4347 132.482 23.79C132.768 24.1453 133.119 24.427 133.535 24.635C133.951 24.843 134.432 24.947 134.978 24.947ZM142.066 26V20.124H140.935V19.11H142.066V18.265C142.066 17.901 142.131 17.5457 142.261 17.199C142.391 16.8437 142.607 16.5533 142.911 16.328C143.214 16.1027 143.626 15.99 144.146 15.99C144.397 15.99 144.596 16.0117 144.744 16.055C144.9 16.0897 144.978 16.107 144.978 16.107V17.082C144.978 17.082 144.908 17.069 144.77 17.043C144.64 17.0083 144.488 16.991 144.315 16.991C143.916 16.991 143.647 17.1123 143.509 17.355C143.37 17.5977 143.301 17.901 143.301 18.265V19.11H146.824V18.265C146.824 17.901 146.889 17.5457 147.019 17.199C147.149 16.8437 147.365 16.5533 147.669 16.328C147.972 16.1027 148.384 15.99 148.904 15.99C149.155 15.99 149.354 16.0117 149.502 16.055C149.658 16.0897 149.736 16.107 149.736 16.107V17.082C149.736 17.082 149.666 17.069 149.528 17.043C149.398 17.0083 149.246 16.991 149.073 16.991C148.674 16.991 148.405 17.1123 148.267 17.355C148.128 17.5977 148.059 17.901 148.059 18.265V19.11H149.658V20.124H148.059V26H146.824V20.124H143.301V26H142.066ZM153.774 26.13C153.211 26.13 152.721 26.0303 152.305 25.831C151.898 25.623 151.56 25.3457 151.291 24.999C151.031 24.6523 150.836 24.271 150.706 23.855C150.576 23.4303 150.511 22.997 150.511 22.555C150.511 22.1217 150.572 21.6927 150.693 21.268C150.823 20.8433 151.018 20.4577 151.278 20.111C151.547 19.7643 151.881 19.4913 152.279 19.292C152.687 19.084 153.168 18.98 153.722 18.98C154.312 18.98 154.832 19.1143 155.282 19.383C155.733 19.6517 156.088 20.0503 156.348 20.579C156.608 21.1077 156.738 21.7707 156.738 22.568V22.932H151.759C151.785 23.322 151.876 23.6817 152.032 24.011C152.197 24.3317 152.427 24.5917 152.721 24.791C153.016 24.9817 153.367 25.077 153.774 25.077C154.13 25.077 154.416 25.0207 154.632 24.908C154.858 24.7867 155.035 24.648 155.165 24.492C155.295 24.336 155.382 24.2017 155.425 24.089C155.477 23.9677 155.503 23.907 155.503 23.907H156.66C156.66 23.907 156.639 23.985 156.595 24.141C156.552 24.2883 156.474 24.4703 156.361 24.687C156.249 24.9037 156.084 25.1247 155.867 25.35C155.651 25.5667 155.373 25.753 155.035 25.909C154.697 26.0563 154.277 26.13 153.774 26.13ZM151.772 21.97H155.529C155.512 21.5193 155.417 21.1553 155.243 20.878C155.07 20.592 154.849 20.3797 154.58 20.241C154.312 20.1023 154.026 20.033 153.722 20.033C153.176 20.033 152.73 20.2107 152.383 20.566C152.037 20.9127 151.833 21.3807 151.772 21.97ZM158.424 26V19.11H159.659V19.968H159.711C159.858 19.708 160.075 19.4783 160.361 19.279C160.647 19.0797 161.05 18.98 161.57 18.98C161.717 18.98 161.851 18.9887 161.973 19.006C162.094 19.0147 162.155 19.019 162.155 19.019V20.202C162.155 20.202 162.085 20.1977 161.947 20.189C161.817 20.1717 161.678 20.163 161.531 20.163C160.933 20.163 160.469 20.3363 160.14 20.683C159.819 21.021 159.659 21.5757 159.659 22.347V26H158.424ZM166.036 26.13C165.508 26.13 165.07 26.0563 164.723 25.909C164.385 25.7617 164.117 25.5797 163.917 25.363C163.718 25.1377 163.571 24.9167 163.475 24.7C163.38 24.4747 163.319 24.2883 163.293 24.141C163.267 23.9937 163.254 23.92 163.254 23.92H164.502C164.502 23.92 164.515 23.9807 164.541 24.102C164.576 24.2147 164.641 24.349 164.736 24.505C164.84 24.6523 164.996 24.7867 165.204 24.908C165.421 25.0207 165.707 25.077 166.062 25.077C166.47 25.077 166.786 24.9817 167.011 24.791C167.237 24.5917 167.349 24.349 167.349 24.063C167.349 23.8117 167.258 23.6123 167.076 23.465C166.903 23.3177 166.652 23.205 166.322 23.127L165.386 22.906C165.04 22.8193 164.715 22.7023 164.411 22.555C164.108 22.4077 163.861 22.2083 163.67 21.957C163.488 21.697 163.397 21.3763 163.397 20.995C163.397 20.4057 163.618 19.9247 164.06 19.552C164.502 19.1707 165.079 18.98 165.789 18.98C166.266 18.98 166.66 19.0493 166.972 19.188C167.284 19.318 167.531 19.4827 167.713 19.682C167.904 19.8813 168.043 20.0807 168.129 20.28C168.225 20.4793 168.285 20.6483 168.311 20.787C168.337 20.917 168.35 20.982 168.35 20.982H167.154C167.154 20.982 167.141 20.9343 167.115 20.839C167.089 20.735 167.029 20.6223 166.933 20.501C166.847 20.371 166.712 20.2583 166.53 20.163C166.348 20.059 166.106 20.007 165.802 20.007C165.386 20.007 165.083 20.1023 164.892 20.293C164.702 20.4837 164.606 20.6917 164.606 20.917C164.606 21.1337 164.693 21.3113 164.866 21.45C165.048 21.58 165.282 21.6797 165.568 21.749L166.517 21.97C167.107 22.1087 167.592 22.3383 167.973 22.659C168.363 22.971 168.558 23.4217 168.558 24.011C168.558 24.3923 168.459 24.7477 168.259 25.077C168.06 25.3977 167.774 25.6533 167.401 25.844C167.029 26.0347 166.574 26.13 166.036 26.13Z" fill="#A1ABB7"/>
</svg>
