<svg width="20" height="20" viewBox="0 0 20 20" fill="none" xmlns="http://www.w3.org/2000/svg">
<path opacity="0.3" d="M17.7083 7.62491C17.3 6.97491 16.8333 6.39158 16.35 5.86658L13.2083 9.00824C13.3083 9.31658 13.3667 9.64991 13.3667 9.99991C13.3667 11.8666 11.8583 13.3666 10 13.3666C9.65 13.3666 9.31667 13.3082 9.00833 13.2082L6.125 16.0916C7.34167 16.7749 8.65833 17.1332 10 17.1332C11.4833 17.1332 12.925 16.6999 14.2417 15.8916C15.5583 15.0749 16.7417 13.8832 17.7083 12.3666C18.5417 11.0666 18.5417 8.93324 17.7083 7.62491Z" fill="#027DE2"/>
<path d="M11.6833 8.31658L8.31667 11.6832C7.89167 11.2499 7.61667 10.6499 7.61667 9.99991C7.61667 8.69158 8.68334 7.61658 10 7.61658C10.65 7.61658 11.25 7.89158 11.6833 8.31658Z" fill="#027DE2"/>
<path opacity="0.3" d="M15.2083 4.79161L12.3833 7.61661C11.775 6.99994 10.9333 6.63328 9.99999 6.63328C8.13332 6.63328 6.63332 8.14161 6.63332 9.99994C6.63332 10.9333 7.00832 11.7749 7.61666 12.3833L4.79999 15.2083H4.79166C3.86666 14.4583 3.01666 13.4999 2.29166 12.3666C1.45832 11.0583 1.45832 8.93328 2.29166 7.62494C3.25832 6.10828 4.44166 4.91661 5.75832 4.09994C7.07499 3.29994 8.51666 2.85828 9.99999 2.85828C11.8583 2.85828 13.6583 3.54161 15.2083 4.79161Z" fill="#027DE2"/>
<path d="M12.3833 9.99994C12.3833 11.3083 11.3167 12.3833 10 12.3833C9.95 12.3833 9.90834 12.3833 9.85834 12.3666L12.3667 9.85828C12.3833 9.90828 12.3833 9.94994 12.3833 9.99994Z" fill="#027DE2"/>
<path d="M17.3353 3.49267C17.1228 3.28011 16.7756 3.28011 16.5631 3.49267L3.49274 16.5718C3.28021 16.7843 3.28021 17.1315 3.49274 17.344C3.599 17.4432 3.7336 17.4999 3.87529 17.4999C4.01697 17.4999 4.15157 17.4432 4.25783 17.337L17.3353 4.25786C17.5549 4.0453 17.5549 3.70522 17.3353 3.49267Z" fill="#027DE2"/>
</svg>
