<svg width="14" height="14" viewBox="0 0 14 14" fill="none" xmlns="http://www.w3.org/2000/svg">
<path d="M12.6355 5.49004C13.4685 8.60154 11.6223 11.8005 8.5102 12.6341C5.82804 13.3528 3.08287 12.08 1.84095 9.72329C1.76886 9.58637 1.75411 9.42642 1.79994 9.27862C1.84578 9.13083 1.94845 9.0073 2.08537 8.9352C2.22229 8.86311 2.38224 8.84836 2.53003 8.89419C2.67783 8.94003 2.80136 9.0427 2.87345 9.17962C3.37333 10.1261 4.18336 10.8719 5.16776 11.2922C6.15217 11.7124 7.25111 11.7815 8.28038 11.4878C9.30965 11.1941 10.2067 10.5555 10.8211 9.67908C11.4355 8.80266 11.73 7.74165 11.6552 6.67392C11.5804 5.60619 11.1408 4.59664 10.4101 3.81449C9.6794 3.03234 8.70206 2.52514 7.64189 2.3779C6.58171 2.23066 5.50315 2.45234 4.58698 3.00578C3.67082 3.55922 2.97275 4.41077 2.60979 5.4177L3.22637 5.28062C3.9182 5.12604 4.31254 6.04245 3.72454 6.43854L2.16529 7.4897C1.74645 7.77145 1.16195 7.48037 1.16604 6.9542C1.17624 5.67785 1.60479 4.44007 2.38598 3.43065C3.16717 2.42124 4.25788 1.6959 5.49087 1.36587C8.60237 0.530536 11.8014 2.37737 12.635 5.48887M7.00054 3.4997C7.15525 3.4997 7.30362 3.56116 7.41302 3.67056C7.52241 3.77995 7.58387 3.92833 7.58387 4.08304V4.66637H8.75054C8.90525 4.66637 9.05362 4.72783 9.16302 4.83722C9.27241 4.94662 9.33387 5.09499 9.33387 5.2497C9.33387 5.40441 9.27241 5.55279 9.16302 5.66218C9.05362 5.77158 8.90525 5.83304 8.75054 5.83304H5.83387C5.75652 5.83304 5.68233 5.86377 5.62763 5.91846C5.57293 5.97316 5.5422 6.04735 5.5422 6.1247C5.5422 6.20206 5.57293 6.27624 5.62763 6.33094C5.68233 6.38564 5.75652 6.41637 5.83387 6.41637H8.1672C8.55398 6.41637 8.92491 6.57001 9.1984 6.84351C9.47189 7.117 9.62554 7.48793 9.62554 7.8747C9.62554 8.26148 9.47189 8.63241 9.1984 8.9059C8.92491 9.17939 8.55398 9.33304 8.1672 9.33304H7.58387V9.91637C7.58387 10.0711 7.52241 10.2195 7.41302 10.3288C7.30362 10.4382 7.15525 10.4997 7.00054 10.4997C6.84583 10.4997 6.69745 10.4382 6.58806 10.3288C6.47866 10.2195 6.4172 10.0711 6.4172 9.91637V9.33304H5.25054C5.09583 9.33304 4.94745 9.27158 4.83806 9.16218C4.72866 9.05279 4.6672 8.90441 4.6672 8.7497C4.6672 8.59499 4.72866 8.44662 4.83806 8.33722C4.94745 8.22783 5.09583 8.16637 5.25054 8.16637H8.1672C8.24456 8.16637 8.31875 8.13564 8.37344 8.08094C8.42814 8.02624 8.45887 7.95206 8.45887 7.8747C8.45887 7.79735 8.42814 7.72316 8.37344 7.66846C8.31875 7.61377 8.24456 7.58304 8.1672 7.58304H5.83387C5.4471 7.58304 5.07616 7.42939 4.80267 7.1559C4.52918 6.88241 4.37554 6.51148 4.37554 6.1247C4.37554 5.73793 4.52918 5.367 4.80267 5.09351C5.07616 4.82001 5.4471 4.66637 5.83387 4.66637H6.4172V4.08304C6.4172 3.92833 6.47866 3.77995 6.58806 3.67056C6.69745 3.56116 6.84583 3.4997 7.00054 3.4997Z" fill="#CE1212"/>
</svg>
