<svg width="28" height="28" viewBox="0 0 28 28" fill="none" xmlns="http://www.w3.org/2000/svg">
<path d="M14 14.7466C13.5833 14.7482 13.1787 14.8867 12.8484 15.1406C12.518 15.3946 12.2802 15.75 12.1715 16.1523C12.0629 16.5545 12.0893 16.9813 12.2468 17.3671C12.4043 17.7529 12.6842 18.0762 13.0433 18.2875V21H14.98V18.2875C15.2641 18.1194 15.5 17.8806 15.6645 17.5944C15.8291 17.3082 15.9168 16.9843 15.9191 16.6541C15.9192 16.4026 15.8694 16.1536 15.7728 15.9214C15.6763 15.6893 15.5347 15.4785 15.3563 15.3012C15.178 15.1239 14.9663 14.9836 14.7335 14.8885C14.5008 14.7933 14.2515 14.7451 14 14.7466Z" stroke="#027DE2" stroke-linecap="round" stroke-linejoin="round"/>
<path d="M21.1692 10.3657H6.82505C5.4333 10.3657 4.30505 11.494 4.30505 12.8857V22.8549C4.30505 24.2466 5.4333 25.3749 6.82505 25.3749H21.1692C22.561 25.3749 23.6892 24.2466 23.6892 22.8549V12.8857C23.6892 11.494 22.561 10.3657 21.1692 10.3657Z" stroke="#027DE2" stroke-linecap="round" stroke-linejoin="round"/>
<path d="M7.78748 10.3658V8.84333C7.78748 7.19413 8.44262 5.61247 9.60878 4.44631C10.7749 3.28014 12.3566 2.625 14.0058 2.625C15.655 2.625 17.2367 3.28014 18.4028 4.44631C19.569 5.61247 20.2241 7.19413 20.2241 8.84333V10.3658" stroke="#027DE2" stroke-linecap="round" stroke-linejoin="round"/>
</svg>
