<svg width="16" height="16" viewBox="0 0 16 16" fill="none" xmlns="http://www.w3.org/2000/svg">
<path d="M13.5611 14.2472C13.5611 14.3715 13.5117 14.4907 13.4238 14.5785C13.336 14.6664 13.2168 14.7158 13.0925 14.7158H7.00063C6.87635 14.7158 6.75716 14.6664 6.66928 14.5785C6.5814 14.4907 6.53202 14.3715 6.53202 14.2472C6.53202 14.1229 6.5814 14.0037 6.66928 13.9158C6.75716 13.8279 6.87635 13.7786 7.00063 13.7786H13.0925C13.2168 13.7786 13.336 13.8279 13.4238 13.9158C13.5117 14.0037 13.5611 14.1229 13.5611 14.2472ZM13.5611 10.0297V11.9042C13.5611 12.1527 13.4624 12.3911 13.2866 12.5669C13.1108 12.7426 12.8724 12.8414 12.6239 12.8414H7.12422C6.94995 12.8419 6.779 12.7936 6.63075 12.702C6.4825 12.6104 6.36288 12.4791 6.28542 12.323L2.88159 5.5282C2.81688 5.39786 2.7832 5.25432 2.7832 5.1088C2.7832 4.96328 2.81688 4.81974 2.88159 4.6894L4.17729 2.11207C4.28726 1.8926 4.47896 1.72504 4.71117 1.64541C4.94338 1.56577 5.19757 1.58043 5.41909 1.68623L7.3925 2.51917L7.42003 2.53206C7.6422 2.64328 7.81112 2.83816 7.88965 3.07388C7.96819 3.30959 7.94991 3.56685 7.83885 3.78909C7.83705 3.79356 7.8349 3.79787 7.8324 3.80198L7.00063 5.34369L8.86216 9.09253H12.6239C12.8724 9.09253 13.1108 9.19127 13.2866 9.36703C13.4624 9.54279 13.5611 9.78117 13.5611 10.0297ZM12.6239 10.0297H8.86158C8.68737 10.0303 8.51649 9.98204 8.36833 9.89041C8.22017 9.79878 8.10066 9.66745 8.02336 9.51134L6.16124 5.7625C6.09668 5.63243 6.06308 5.48919 6.06308 5.34398C6.06308 5.19877 6.09668 5.05553 6.16124 4.92546L6.16827 4.91257L7.00063 3.37086L5.04245 2.54436C5.03307 2.54073 5.02388 2.53663 5.01492 2.53206L3.7204 5.10938L7.12364 11.9042H12.6239V10.0297Z" fill="#3F4754"/>
</svg>
