<svg width="21" height="21" viewBox="0 0 21 21" fill="none" xmlns="http://www.w3.org/2000/svg">
<g clip-path="url(#clip0_3991_7198)">
<path d="M12.7953 10.6L12.5551 16.6381L11.449 17.2767L10.2915 12.0455L7.32703 13.7571L7.36356 15.9483L6.53395 16.4273L5.65009 13.6191L3.66008 11.4496L4.4897 10.9706L6.36963 12.0975L9.33411 10.386L5.38195 6.76831L6.4881 6.12967L11.8373 8.94076L14.8499 7.20143C15.07 7.0744 15.3314 7.03997 15.5768 7.10573C15.8223 7.17149 16.0315 7.33204 16.1585 7.55207C16.2856 7.77209 16.32 8.03357 16.2542 8.27898C16.1885 8.52439 16.0279 8.73362 15.8079 8.86066L12.7953 10.6Z" fill="#3F4754"/>
</g>
<defs>
<clipPath id="clip0_3991_7198">
<rect width="15.3273" height="15.3273" fill="white" transform="translate(13.2734) rotate(60)"/>
</clipPath>
</defs>
</svg>
