<svg width="48" height="48" viewBox="0 0 48 48" fill="none" xmlns="http://www.w3.org/2000/svg">
<rect width="47.7855" height="47.7855" rx="3.82284" fill="#027DE2" fill-opacity="0.1"/>
<path d="M21.0259 33.4501H26.7602C31.5387 33.4501 33.4501 31.5387 33.4501 26.7602V21.0259C33.4501 16.2474 31.5387 14.3359 26.7602 14.3359H21.0259C16.2474 14.3359 14.3359 16.2474 14.3359 21.0259V26.7602C14.3359 31.5387 16.2474 33.4501 21.0259 33.4501Z" stroke="#027DE2" stroke-width="1.43357" stroke-linecap="round" stroke-linejoin="round"/>
<path d="M21.0257 21.9815C22.0813 21.9815 22.9371 21.1258 22.9371 20.0701C22.9371 19.0145 22.0813 18.1587 21.0257 18.1587C19.97 18.1587 19.1143 19.0145 19.1143 20.0701C19.1143 21.1258 19.97 21.9815 21.0257 21.9815Z" stroke="#027DE2" stroke-width="1.43357" stroke-linecap="round" stroke-linejoin="round"/>
<path d="M14.9756 30.5352L19.6872 27.3718C20.4423 26.8653 21.5318 26.9226 22.2103 27.5056L22.5257 27.7828C23.2712 28.4231 24.4753 28.4231 25.2208 27.7828L29.1966 24.3709C29.942 23.7305 31.1462 23.7305 31.8917 24.3709L33.4495 25.7089" stroke="#027DE2" stroke-width="1.43357" stroke-linecap="round" stroke-linejoin="round"/>
</svg>
