<svg width="12" height="13" viewBox="0 0 12 13" fill="none" xmlns="http://www.w3.org/2000/svg">
<path d="M11.7132 4.99052C12.5462 8.10202 10.6999 11.301 7.58784 12.1346C4.90567 12.8533 2.16051 11.5804 0.91859 9.22377C0.846496 9.08686 0.831744 8.92691 0.877581 8.77911C0.923418 8.63132 1.02609 8.50779 1.16301 8.43569C1.29992 8.3636 1.45987 8.34885 1.60767 8.39468C1.75546 8.44052 1.879 8.54319 1.95109 8.68011C2.45096 9.62656 3.26099 10.3724 4.2454 10.7926C5.2298 11.2129 6.32875 11.2819 7.35802 10.9883C8.38729 10.6946 9.28432 10.056 9.89876 9.17957C10.5132 8.30315 10.8077 7.24214 10.7328 6.17441C10.658 5.10668 10.2184 4.09713 9.48771 3.31498C8.75704 2.53283 7.7797 2.02562 6.71952 1.87839C5.65935 1.73115 4.58078 1.95283 3.66462 2.50627C2.74846 3.05971 2.05039 3.91126 1.68742 4.91819L2.30401 4.78111C2.99584 4.62652 3.39017 5.54294 2.80217 5.93902L1.24292 6.99019C0.82409 7.27194 0.23959 6.98086 0.243674 6.45469C0.253876 5.17834 0.682427 3.94056 1.46362 2.93114C2.24481 1.92173 3.33552 1.19639 4.56851 0.866357C7.68001 0.0310239 10.879 1.87786 11.7126 4.98936M6.07817 3.00019C6.23288 3.00019 6.38126 3.06165 6.49065 3.17105C6.60005 3.28044 6.66151 3.42881 6.66151 3.58352V4.16686H7.82817C7.98288 4.16686 8.13126 4.22832 8.24065 4.33771C8.35005 4.44711 8.41151 4.59548 8.41151 4.75019C8.41151 4.9049 8.35005 5.05327 8.24065 5.16267C8.13126 5.27207 7.98288 5.33352 7.82817 5.33352H4.91151C4.83415 5.33352 4.75997 5.36425 4.70527 5.41895C4.65057 5.47365 4.61984 5.54784 4.61984 5.62519C4.61984 5.70255 4.65057 5.77673 4.70527 5.83143C4.75997 5.88613 4.83415 5.91686 4.91151 5.91686H7.24484C7.63161 5.91686 8.00255 6.0705 8.27604 6.34399C8.54953 6.61748 8.70317 6.98842 8.70317 7.37519C8.70317 7.76197 8.54953 8.1329 8.27604 8.40639C8.00255 8.67988 7.63161 8.83352 7.24484 8.83352H6.66151V9.41686C6.66151 9.57157 6.60005 9.71994 6.49065 9.82934C6.38126 9.93873 6.23288 10.0002 6.07817 10.0002C5.92346 10.0002 5.77509 9.93873 5.66569 9.82934C5.5563 9.71994 5.49484 9.57157 5.49484 9.41686V8.83352H4.32817C4.17346 8.83352 4.02509 8.77207 3.9157 8.66267C3.8063 8.55327 3.74484 8.4049 3.74484 8.25019C3.74484 8.09548 3.8063 7.94711 3.9157 7.83771C4.02509 7.72832 4.17346 7.66686 4.32817 7.66686H7.24484C7.3222 7.66686 7.39638 7.63613 7.45108 7.58143C7.50578 7.52673 7.53651 7.45255 7.53651 7.37519C7.53651 7.29784 7.50578 7.22365 7.45108 7.16895C7.39638 7.11425 7.3222 7.08352 7.24484 7.08352H4.91151C4.52473 7.08352 4.1538 6.92988 3.88031 6.65639C3.60682 6.3829 3.45317 6.01197 3.45317 5.62519C3.45317 5.23842 3.60682 4.86748 3.88031 4.59399C4.1538 4.3205 4.52473 4.16686 4.91151 4.16686H5.49484V3.58352C5.49484 3.42881 5.5563 3.28044 5.66569 3.17105C5.77509 3.06165 5.92346 3.00019 6.07817 3.00019Z" fill="#03BF5B"/>
</svg>
