<svg width="238" height="42" viewBox="0 0 238 42" fill="none" xmlns="http://www.w3.org/2000/svg">
<path d="M7.96069 36.5278C5.53277 38.1967 6.71389 42 9.66012 42H207.927C208.534 42 209.126 41.816 209.626 41.4722L234.174 24.5981C235.848 23.4476 235.918 21.0012 234.314 19.7559L209.67 0.630023C209.144 0.221654 208.497 0 207.831 0H8.7585C5.90046 0 4.66131 3.61766 6.91914 5.36998L25.4552 19.7559C27.0597 21.0012 26.989 23.4476 25.3153 24.5981L7.96069 36.5278Z" fill="#E4EAEF"/>
<path d="M61.04 26V16.38H64.446C65.1307 16.38 65.6983 16.5143 66.149 16.783C66.5997 17.0517 66.9377 17.3983 67.163 17.823C67.3883 18.2477 67.501 18.694 67.501 19.162C67.501 19.552 67.423 19.929 67.267 20.293C67.111 20.657 66.877 20.9777 66.565 21.255C66.2617 21.5237 65.876 21.7187 65.408 21.84L67.839 26H66.396L64.069 21.957H62.314V26H61.04ZM64.433 17.498H62.314V20.865H64.433C64.8317 20.865 65.161 20.7827 65.421 20.618C65.681 20.4533 65.876 20.2453 66.006 19.994C66.136 19.734 66.201 19.4653 66.201 19.188C66.201 18.902 66.136 18.6333 66.006 18.382C65.876 18.122 65.681 17.9097 65.421 17.745C65.161 17.5803 64.8317 17.498 64.433 17.498ZM72.0791 26.13C71.5158 26.13 71.0261 26.0303 70.6101 25.831C70.2028 25.623 69.8648 25.3457 69.5961 24.999C69.3361 24.6523 69.1411 24.271 69.0111 23.855C68.8811 23.4303 68.8161 22.997 68.8161 22.555C68.8161 22.1217 68.8768 21.6927 68.9981 21.268C69.1281 20.8433 69.3231 20.4577 69.5831 20.111C69.8518 19.7643 70.1855 19.4913 70.5841 19.292C70.9915 19.084 71.4725 18.98 72.0271 18.98C72.6165 18.98 73.1365 19.1143 73.5871 19.383C74.0378 19.6517 74.3931 20.0503 74.6531 20.579C74.9131 21.1077 75.0431 21.7707 75.0431 22.568V22.932H70.0641C70.0901 23.322 70.1811 23.6817 70.3371 24.011C70.5018 24.3317 70.7315 24.5917 71.0261 24.791C71.3208 24.9817 71.6718 25.077 72.0791 25.077C72.4345 25.077 72.7205 25.0207 72.9371 24.908C73.1625 24.7867 73.3401 24.648 73.4701 24.492C73.6001 24.336 73.6868 24.2017 73.7301 24.089C73.7821 23.9677 73.8081 23.907 73.8081 23.907H74.9651C74.9651 23.907 74.9435 23.985 74.9001 24.141C74.8568 24.2883 74.7788 24.4703 74.6661 24.687C74.5535 24.9037 74.3888 25.1247 74.1721 25.35C73.9555 25.5667 73.6781 25.753 73.3401 25.909C73.0021 26.0563 72.5818 26.13 72.0791 26.13ZM70.0771 21.97H73.8341C73.8168 21.5193 73.7215 21.1553 73.5481 20.878C73.3748 20.592 73.1538 20.3797 72.8851 20.241C72.6165 20.1023 72.3305 20.033 72.0271 20.033C71.4811 20.033 71.0348 20.2107 70.6881 20.566C70.3415 20.9127 70.1378 21.3807 70.0771 21.97ZM78.6455 26L76.0195 19.11H77.3065L79.3215 24.492L81.2975 19.11H82.5975L79.9585 26H78.6455ZM84.7707 17.797C84.5367 17.797 84.3417 17.719 84.1857 17.563C84.0384 17.407 83.9647 17.2207 83.9647 17.004C83.9647 16.7787 84.0384 16.588 84.1857 16.432C84.3417 16.276 84.5367 16.198 84.7707 16.198C84.996 16.198 85.1867 16.276 85.3427 16.432C85.4987 16.588 85.5767 16.7787 85.5767 17.004C85.5767 17.2207 85.4987 17.407 85.3427 17.563C85.1867 17.719 84.996 17.797 84.7707 17.797ZM84.1597 26V19.11H85.3947V26H84.1597ZM90.5254 26.13C89.9621 26.13 89.4724 26.0303 89.0564 25.831C88.6491 25.623 88.3111 25.3457 88.0424 24.999C87.7824 24.6523 87.5874 24.271 87.4574 23.855C87.3274 23.4303 87.2624 22.997 87.2624 22.555C87.2624 22.1217 87.3231 21.6927 87.4444 21.268C87.5744 20.8433 87.7694 20.4577 88.0294 20.111C88.2981 19.7643 88.6318 19.4913 89.0304 19.292C89.4378 19.084 89.9188 18.98 90.4734 18.98C91.0628 18.98 91.5828 19.1143 92.0334 19.383C92.4841 19.6517 92.8394 20.0503 93.0994 20.579C93.3594 21.1077 93.4894 21.7707 93.4894 22.568V22.932H88.5104C88.5364 23.322 88.6274 23.6817 88.7834 24.011C88.9481 24.3317 89.1778 24.5917 89.4724 24.791C89.7671 24.9817 90.1181 25.077 90.5254 25.077C90.8808 25.077 91.1668 25.0207 91.3834 24.908C91.6088 24.7867 91.7864 24.648 91.9164 24.492C92.0464 24.336 92.1331 24.2017 92.1764 24.089C92.2284 23.9677 92.2544 23.907 92.2544 23.907H93.4114C93.4114 23.907 93.3898 23.985 93.3464 24.141C93.3031 24.2883 93.2251 24.4703 93.1124 24.687C92.9998 24.9037 92.8351 25.1247 92.6184 25.35C92.4018 25.5667 92.1244 25.753 91.7864 25.909C91.4484 26.0563 91.0281 26.13 90.5254 26.13ZM88.5234 21.97H92.2804C92.2631 21.5193 92.1678 21.1553 91.9944 20.878C91.8211 20.592 91.6001 20.3797 91.3314 20.241C91.0628 20.1023 90.7768 20.033 90.4734 20.033C89.9274 20.033 89.4811 20.2107 89.1344 20.566C88.7878 20.9127 88.5841 21.3807 88.5234 21.97ZM96.6887 26L94.4657 19.11H95.7267L97.3647 24.336L99.0807 19.11H100.251L101.954 24.336L103.605 19.11H104.866L102.63 26H101.304L99.6657 20.917L98.0277 26H96.6887ZM112.439 26.13C111.841 26.13 111.291 26.0217 110.788 25.805C110.286 25.5883 109.883 25.2763 109.579 24.869C109.276 24.4617 109.124 23.9677 109.124 23.387C109.124 22.763 109.306 22.23 109.67 21.788C110.043 21.3373 110.524 20.943 111.113 20.605L111.009 20.488C110.784 20.228 110.576 19.9377 110.385 19.617C110.195 19.2963 110.099 18.9063 110.099 18.447C110.099 17.9617 110.208 17.5587 110.424 17.238C110.65 16.9087 110.94 16.6617 111.295 16.497C111.651 16.3323 112.023 16.25 112.413 16.25C112.803 16.25 113.167 16.328 113.505 16.484C113.852 16.64 114.129 16.8697 114.337 17.173C114.554 17.4763 114.662 17.849 114.662 18.291C114.662 18.811 114.498 19.2833 114.168 19.708C113.839 20.1327 113.371 20.4967 112.764 20.8L115.104 23.439C115.286 23.0837 115.429 22.659 115.533 22.165C115.637 21.671 115.689 21.1077 115.689 20.475H116.742C116.742 21.2983 116.66 22.0263 116.495 22.659C116.339 23.2917 116.123 23.8333 115.845 24.284L117.353 25.987H115.793L115.091 25.181C114.719 25.5017 114.307 25.74 113.856 25.896C113.406 26.052 112.933 26.13 112.439 26.13ZM111.997 19.929L112.14 20.085L112.231 20.046C112.647 19.8467 112.972 19.604 113.206 19.318C113.449 19.0233 113.57 18.7027 113.57 18.356C113.57 17.992 113.453 17.7147 113.219 17.524C112.994 17.3247 112.73 17.225 112.426 17.225C112.106 17.225 111.82 17.3333 111.568 17.55C111.326 17.758 111.204 18.044 111.204 18.408C111.204 18.668 111.274 18.915 111.412 19.149C111.551 19.383 111.746 19.643 111.997 19.929ZM110.294 23.283C110.294 23.6643 110.394 23.9937 110.593 24.271C110.793 24.5397 111.057 24.7433 111.386 24.882C111.724 25.0207 112.097 25.09 112.504 25.09C112.86 25.09 113.198 25.0337 113.518 24.921C113.848 24.8083 114.142 24.6307 114.402 24.388L111.724 21.307C111.3 21.5497 110.953 21.8313 110.684 22.152C110.424 22.4727 110.294 22.8497 110.294 23.283ZM121.978 26V16.38H125.41C126.146 16.38 126.757 16.5317 127.243 16.835C127.737 17.1383 128.105 17.5327 128.348 18.018C128.599 18.4947 128.725 18.993 128.725 19.513C128.725 20.0417 128.599 20.5487 128.348 21.034C128.105 21.5107 127.737 21.905 127.243 22.217C126.757 22.5203 126.146 22.672 125.41 22.672H123.252V26H121.978ZM125.41 17.498H123.252V21.554H125.41C125.869 21.554 126.25 21.4543 126.554 21.255C126.857 21.0557 127.082 20.8043 127.23 20.501C127.386 20.189 127.464 19.864 127.464 19.526C127.464 19.188 127.386 18.863 127.23 18.551C127.082 18.239 126.857 17.9877 126.554 17.797C126.25 17.5977 125.869 17.498 125.41 17.498ZM132.95 18.98C133.383 18.98 133.747 19.0493 134.042 19.188C134.336 19.3267 134.575 19.4913 134.757 19.682C134.939 19.864 135.077 20.0373 135.173 20.202H135.251V19.11H136.486V26H135.251V24.908H135.173C135.077 25.0727 134.939 25.2503 134.757 25.441C134.575 25.6317 134.336 25.7963 134.042 25.935C133.747 26.065 133.383 26.13 132.95 26.13C132.43 26.13 131.975 26.0303 131.585 25.831C131.195 25.623 130.87 25.35 130.61 25.012C130.35 24.6653 130.155 24.2797 130.025 23.855C129.895 23.4303 129.83 22.997 129.83 22.555C129.83 22.113 129.895 21.6797 130.025 21.255C130.155 20.8303 130.35 20.449 130.61 20.111C130.87 19.7643 131.195 19.4913 131.585 19.292C131.975 19.084 132.43 18.98 132.95 18.98ZM133.158 20.033C132.698 20.033 132.313 20.1587 132.001 20.41C131.689 20.6527 131.455 20.9647 131.299 21.346C131.151 21.7273 131.078 22.1303 131.078 22.555C131.078 22.971 131.151 23.374 131.299 23.764C131.455 24.1453 131.689 24.4617 132.001 24.713C132.313 24.9557 132.698 25.077 133.158 25.077C133.617 25.077 133.998 24.9557 134.302 24.713C134.614 24.4617 134.843 24.1453 134.991 23.764C135.147 23.374 135.225 22.971 135.225 22.555C135.225 22.1303 135.147 21.7273 134.991 21.346C134.843 20.9647 134.614 20.6527 134.302 20.41C133.998 20.1587 133.617 20.033 133.158 20.033ZM138.37 28.535C138.171 28.535 138.002 28.5263 137.863 28.509C137.725 28.4917 137.655 28.483 137.655 28.483V27.43C137.655 27.43 137.725 27.4343 137.863 27.443C138.011 27.4603 138.167 27.469 138.331 27.469C138.843 27.469 139.259 27.3607 139.579 27.144C139.909 26.936 140.186 26.5893 140.411 26.104L137.746 19.11H139.033L141.022 24.492L143.024 19.11H144.324L141.659 26.013C141.321 26.8797 140.884 27.5167 140.346 27.924C139.818 28.3313 139.159 28.535 138.37 28.535ZM145.689 26V19.11H146.924V20.111H146.976C147.046 19.981 147.154 19.8293 147.301 19.656C147.449 19.474 147.648 19.318 147.899 19.188C148.159 19.0493 148.484 18.98 148.874 18.98C149.386 18.98 149.815 19.1057 150.161 19.357C150.517 19.5997 150.781 19.929 150.954 20.345H150.967C151.158 19.9637 151.427 19.643 151.773 19.383C152.129 19.1143 152.588 18.98 153.151 18.98C153.897 18.98 154.469 19.2357 154.867 19.747C155.275 20.2497 155.478 20.8997 155.478 21.697V26H154.243V21.762C154.243 21.2507 154.122 20.839 153.879 20.527C153.637 20.2063 153.286 20.046 152.826 20.046C152.428 20.046 152.107 20.1543 151.864 20.371C151.63 20.5877 151.461 20.8563 151.357 21.177C151.253 21.4977 151.201 21.8183 151.201 22.139V26H149.966V21.762C149.966 21.2507 149.845 20.839 149.602 20.527C149.368 20.2063 149.017 20.046 148.549 20.046C148.151 20.046 147.83 20.1543 147.587 20.371C147.353 20.5877 147.184 20.8607 147.08 21.19C146.976 21.5107 146.924 21.827 146.924 22.139V26H145.689ZM160.426 26.13C159.862 26.13 159.373 26.0303 158.957 25.831C158.549 25.623 158.211 25.3457 157.943 24.999C157.683 24.6523 157.488 24.271 157.358 23.855C157.228 23.4303 157.163 22.997 157.163 22.555C157.163 22.1217 157.223 21.6927 157.345 21.268C157.475 20.8433 157.67 20.4577 157.93 20.111C158.198 19.7643 158.532 19.4913 158.931 19.292C159.338 19.084 159.819 18.98 160.374 18.98C160.963 18.98 161.483 19.1143 161.934 19.383C162.384 19.6517 162.74 20.0503 163 20.579C163.26 21.1077 163.39 21.7707 163.39 22.568V22.932H158.411C158.437 23.322 158.528 23.6817 158.684 24.011C158.848 24.3317 159.078 24.5917 159.373 24.791C159.667 24.9817 160.018 25.077 160.426 25.077C160.781 25.077 161.067 25.0207 161.284 24.908C161.509 24.7867 161.687 24.648 161.817 24.492C161.947 24.336 162.033 24.2017 162.077 24.089C162.129 23.9677 162.155 23.907 162.155 23.907H163.312C163.312 23.907 163.29 23.985 163.247 24.141C163.203 24.2883 163.125 24.4703 163.013 24.687C162.9 24.9037 162.735 25.1247 162.519 25.35C162.302 25.5667 162.025 25.753 161.687 25.909C161.349 26.0563 160.928 26.13 160.426 26.13ZM158.424 21.97H162.181C162.163 21.5193 162.068 21.1553 161.895 20.878C161.721 20.592 161.5 20.3797 161.232 20.241C160.963 20.1023 160.677 20.033 160.374 20.033C159.828 20.033 159.381 20.2107 159.035 20.566C158.688 20.9127 158.484 21.3807 158.424 21.97ZM165.075 26V19.11H166.31V20.111H166.388C166.449 20.007 166.548 19.864 166.687 19.682C166.834 19.5 167.042 19.3397 167.311 19.201C167.58 19.0537 167.918 18.98 168.325 18.98C168.828 18.98 169.257 19.097 169.612 19.331C169.967 19.5563 170.236 19.864 170.418 20.254C170.609 20.644 170.704 21.0817 170.704 21.567V26H169.469V21.645C169.469 21.1857 169.339 20.8043 169.079 20.501C168.828 20.1977 168.459 20.046 167.974 20.046C167.584 20.046 167.268 20.1457 167.025 20.345C166.782 20.5357 166.6 20.7913 166.479 21.112C166.366 21.424 166.31 21.7577 166.31 22.113V26H165.075ZM175.198 26.13C174.488 26.13 173.95 25.948 173.586 25.584C173.231 25.22 173.053 24.7087 173.053 24.05V20.124H171.818V19.11H173.053V17.381H174.288V19.11H175.965V20.124H174.288V24.05C174.288 24.3967 174.384 24.6523 174.574 24.817C174.765 24.973 175.042 25.051 175.406 25.051C175.597 25.051 175.779 25.038 175.952 25.012C176.126 24.986 176.212 24.973 176.212 24.973V26.026C176.212 26.026 176.113 26.0433 175.913 26.078C175.714 26.1127 175.476 26.13 175.198 26.13Z" fill="#A1ABB7"/>
</svg>
