<svg width="139" height="40" viewBox="0 0 139 40" fill="none" xmlns="http://www.w3.org/2000/svg">
<ellipse cx="128.5" cy="38" rx="9.5" ry="2" fill="url(#paint0_radial_5735_34321)"/>
<path d="M129 27.5834C128.448 27.5834 127.918 27.3639 127.527 26.9732C127.136 26.5825 126.917 26.0526 126.917 25.5C126.917 24.9475 127.136 24.4176 127.527 24.0269C127.918 23.6362 128.448 23.4167 129 23.4167C129.553 23.4167 130.083 23.6362 130.473 24.0269C130.864 24.4176 131.083 24.9475 131.083 25.5C131.083 25.7736 131.03 26.0445 130.925 26.2973C130.82 26.55 130.667 26.7797 130.473 26.9732C130.28 27.1666 130.05 27.3201 129.797 27.4248C129.545 27.5295 129.274 27.5834 129 27.5834ZM129 19.6667C127.453 19.6667 125.969 20.2813 124.875 21.3752C123.781 22.4692 123.167 23.9529 123.167 25.5C123.167 29.875 129 36.3334 129 36.3334C129 36.3334 134.833 29.875 134.833 25.5C134.833 23.9529 134.219 22.4692 133.125 21.3752C132.031 20.2813 130.547 19.6667 129 19.6667Z" fill="#F76A6A"/>
<path d="M10 36.9999C62.5 23.5 79 24.5 129 36.9999" stroke="#7239EA" stroke-dasharray="2 2"/>
<g clip-path="url(#clip0_5735_34321)">
<path d="M75.2179 14.9046C75.2225 15.5789 74.6834 16.1255 74.0147 16.1244L69.5689 16.1549L65.5732 22.6457L63.956 22.6626L65.9403 16.1856L61.483 16.2162L60.2884 17.8417L59.0712 17.8443L59.8632 15.0158L59.0323 12.187L60.2551 12.1672L61.4835 13.7989L65.9065 13.7685L63.8505 7.30213L65.4677 7.29674L69.5523 13.732L73.9981 13.7015C74.6495 13.6856 75.2248 14.2531 75.2179 14.9046Z" fill="#0FB3A6"/>
</g>
<ellipse cx="10.5" cy="38" rx="9.5" ry="2" fill="url(#paint1_radial_5735_34321)"/>
<path d="M10.0001 27.5834C9.44755 27.5834 8.91764 27.3639 8.52694 26.9732C8.13624 26.5825 7.91675 26.0526 7.91675 25.5C7.91675 24.9475 8.13624 24.4176 8.52694 24.0269C8.91764 23.6362 9.44755 23.4167 10.0001 23.4167C10.5526 23.4167 11.0825 23.6362 11.4732 24.0269C11.8639 24.4176 12.0834 24.9475 12.0834 25.5C12.0834 25.7736 12.0295 26.0445 11.9248 26.2973C11.8201 26.55 11.6667 26.7797 11.4732 26.9732C11.2798 27.1666 11.0501 27.3201 10.7973 27.4248C10.5446 27.5295 10.2737 27.5834 10.0001 27.5834ZM10.0001 19.6667C8.45299 19.6667 6.96925 20.2813 5.87529 21.3752C4.78133 22.4692 4.16675 23.9529 4.16675 25.5C4.16675 29.875 10.0001 36.3334 10.0001 36.3334C10.0001 36.3334 15.8334 29.875 15.8334 25.5C15.8334 23.9529 15.2188 22.4692 14.1249 21.3752C13.0309 20.2813 11.5472 19.6667 10.0001 19.6667Z" fill="#F76A6A"/>
<defs>
<radialGradient id="paint0_radial_5735_34321" cx="0" cy="0" r="1" gradientUnits="userSpaceOnUse" gradientTransform="translate(128.5 38) scale(9.5 2)">
<stop stop-color="#FAFAFA"/>
<stop offset="1" stop-color="#DBDADA"/>
</radialGradient>
<radialGradient id="paint1_radial_5735_34321" cx="0" cy="0" r="1" gradientUnits="userSpaceOnUse" gradientTransform="translate(10.5 38) scale(9.5 2)">
<stop stop-color="#FAFAFA"/>
<stop offset="1" stop-color="#DBDADA"/>
</radialGradient>
<clipPath id="clip0_5735_34321">
<rect width="19.3959" height="19.3959" fill="white" transform="translate(65.6072 0.986755) rotate(44.6064)"/>
</clipPath>
</defs>
</svg>
