<svg width="218" height="42" viewBox="0 0 218 42" fill="none" xmlns="http://www.w3.org/2000/svg">
<path fill-rule="evenodd" clip-rule="evenodd" d="M193.03 0.728535C192.485 0.258558 191.79 0 191.07 0H3C1.34315 0 0 1.34315 0 3V39C0 40.6569 1.34315 42 3 42H191.171C191.829 42 192.469 41.7834 192.992 41.3837L215.067 24.5152C216.58 23.3591 216.647 21.104 215.205 19.8601L193.03 0.728535Z" fill="#7239EA"/>
<path d="M25.4783 25.55V16.618H22.2583V15.19H30.3223V16.618H27.1023V25.55H25.4783ZM30.9474 25.55V18.13H32.5434V19.11H32.5994C32.7394 18.8207 32.9588 18.564 33.2574 18.34C33.5654 18.1067 34.0088 17.99 34.5874 17.99C34.7648 17.99 34.9141 17.9994 35.0354 18.018C35.1661 18.0367 35.2314 18.046 35.2314 18.046V19.586C35.2314 19.586 35.1614 19.5767 35.0214 19.558C34.8814 19.5394 34.7228 19.53 34.5454 19.53C33.8921 19.53 33.3928 19.7167 33.0474 20.09C32.7114 20.454 32.5434 21.0467 32.5434 21.868V25.55H30.9474ZM39.3351 17.99C39.8017 17.99 40.1891 18.0647 40.4971 18.214C40.8144 18.3634 41.0664 18.536 41.2531 18.732C41.4397 18.928 41.5751 19.096 41.6591 19.236H41.7431V18.13H43.3391V25.55H41.7431V24.444H41.6591C41.5751 24.584 41.4397 24.752 41.2531 24.948C41.0664 25.144 40.8144 25.3167 40.4971 25.466C40.1891 25.6154 39.8017 25.69 39.3351 25.69C38.7751 25.69 38.2851 25.5827 37.8651 25.368C37.4544 25.144 37.1091 24.85 36.8291 24.486C36.5491 24.1127 36.3391 23.6974 36.1991 23.24C36.0684 22.7827 36.0031 22.316 36.0031 21.84C36.0031 21.364 36.0684 20.8974 36.1991 20.44C36.3391 19.9827 36.5491 19.572 36.8291 19.208C37.1091 18.8347 37.4544 18.5407 37.8651 18.326C38.2851 18.102 38.7751 17.99 39.3351 17.99ZM39.6851 19.32C39.2277 19.32 38.8451 19.446 38.5371 19.698C38.2291 19.9407 37.9957 20.2534 37.8371 20.636C37.6877 21.0187 37.6131 21.42 37.6131 21.84C37.6131 22.26 37.6877 22.6614 37.8371 23.044C37.9957 23.4267 38.2291 23.744 38.5371 23.996C38.8451 24.2387 39.2277 24.36 39.6851 24.36C40.1424 24.36 40.5204 24.2387 40.8191 23.996C41.1271 23.744 41.3557 23.4267 41.5051 23.044C41.6637 22.6614 41.7431 22.26 41.7431 21.84C41.7431 21.42 41.6637 21.0187 41.5051 20.636C41.3557 20.2534 41.1271 19.9407 40.8191 19.698C40.5204 19.446 40.1424 19.32 39.6851 19.32ZM47.2161 25.55L44.4301 18.13H46.0681L48.0841 23.688L50.0581 18.13H51.7101L48.9101 25.55H47.2161ZM56.2401 25.69C55.6147 25.69 55.0734 25.5827 54.6161 25.368C54.1681 25.144 53.7947 24.85 53.4961 24.486C53.2067 24.1127 52.9874 23.6974 52.8381 23.24C52.6981 22.7827 52.6281 22.316 52.6281 21.84C52.6281 21.3734 52.6981 20.9114 52.8381 20.454C52.9781 19.9967 53.1927 19.5814 53.4821 19.208C53.7714 18.8347 54.1401 18.5407 54.5881 18.326C55.0361 18.102 55.5634 17.99 56.1701 17.99C56.8234 17.99 57.3974 18.1394 57.8921 18.438C58.3961 18.7274 58.7881 19.1614 59.0681 19.74C59.3574 20.3094 59.5021 21.0187 59.5021 21.868V22.302H54.2381C54.2754 22.8714 54.4667 23.3614 54.8121 23.772C55.1574 24.1827 55.6334 24.388 56.2401 24.388C56.5854 24.388 56.8701 24.332 57.0941 24.22C57.3181 24.0987 57.4907 23.9634 57.6121 23.814C57.7334 23.6647 57.8174 23.534 57.8641 23.422C57.9201 23.31 57.9481 23.254 57.9481 23.254H59.4321C59.4321 23.254 59.4087 23.338 59.3621 23.506C59.3154 23.6647 59.2267 23.8654 59.0961 24.108C58.9747 24.3507 58.7974 24.5934 58.5641 24.836C58.3307 25.0787 58.0227 25.284 57.6401 25.452C57.2574 25.6107 56.7907 25.69 56.2401 25.69ZM54.2521 21.182H57.9621C57.9247 20.5287 57.7287 20.048 57.3741 19.74C57.0287 19.432 56.6227 19.278 56.1561 19.278C55.6334 19.278 55.1994 19.4507 54.8541 19.796C54.5087 20.132 54.3081 20.594 54.2521 21.182ZM61.3433 25.55L61.3573 14.91H62.9393V25.55H61.3433ZM68.3807 25.69C67.7554 25.69 67.214 25.5827 66.7567 25.368C66.3087 25.144 65.9354 24.85 65.6367 24.486C65.3474 24.1127 65.128 23.6974 64.9787 23.24C64.8387 22.7827 64.7687 22.316 64.7687 21.84C64.7687 21.3734 64.8387 20.9114 64.9787 20.454C65.1187 19.9967 65.3334 19.5814 65.6227 19.208C65.912 18.8347 66.2807 18.5407 66.7287 18.326C67.1767 18.102 67.704 17.99 68.3107 17.99C68.964 17.99 69.538 18.1394 70.0327 18.438C70.5367 18.7274 70.9287 19.1614 71.2087 19.74C71.498 20.3094 71.6427 21.0187 71.6427 21.868V22.302H66.3787C66.416 22.8714 66.6074 23.3614 66.9527 23.772C67.298 24.1827 67.774 24.388 68.3807 24.388C68.726 24.388 69.0107 24.332 69.2347 24.22C69.4587 24.0987 69.6314 23.9634 69.7527 23.814C69.874 23.6647 69.958 23.534 70.0047 23.422C70.0607 23.31 70.0887 23.254 70.0887 23.254H71.5727C71.5727 23.254 71.5494 23.338 71.5027 23.506C71.456 23.6647 71.3674 23.8654 71.2367 24.108C71.1154 24.3507 70.938 24.5934 70.7047 24.836C70.4714 25.0787 70.1634 25.284 69.7807 25.452C69.398 25.6107 68.9314 25.69 68.3807 25.69ZM66.3927 21.182H70.1027C70.0654 20.5287 69.8694 20.048 69.5147 19.74C69.1694 19.432 68.7634 19.278 68.2967 19.278C67.774 19.278 67.34 19.4507 66.9947 19.796C66.6494 20.132 66.4487 20.594 66.3927 21.182ZM73.3713 25.55V18.13H74.9673V19.11H75.0233C75.1633 18.8207 75.3826 18.564 75.6813 18.34C75.9893 18.1067 76.4326 17.99 77.0113 17.99C77.1886 17.99 77.3379 17.9994 77.4593 18.018C77.5899 18.0367 77.6553 18.046 77.6553 18.046V19.586C77.6553 19.586 77.5853 19.5767 77.4453 19.558C77.3053 19.5394 77.1466 19.53 76.9693 19.53C76.3159 19.53 75.8166 19.7167 75.4713 20.09C75.1353 20.454 74.9673 21.0467 74.9673 21.868V25.55H73.3713ZM82.398 25.55V15.19H85.94C86.7707 15.19 87.4987 15.3394 88.124 15.638C88.7493 15.9274 89.2673 16.3194 89.678 16.814C90.098 17.3087 90.4107 17.864 90.616 18.48C90.8307 19.096 90.938 19.726 90.938 20.37C90.938 21.014 90.8307 21.644 90.616 22.26C90.4107 22.876 90.098 23.4314 89.678 23.926C89.2673 24.4207 88.7493 24.8174 88.124 25.116C87.4987 25.4054 86.7707 25.55 85.94 25.55H82.398ZM85.87 16.618H84.036V24.108H85.87C86.4487 24.108 86.9527 24.0054 87.382 23.8C87.8113 23.5854 88.166 23.3007 88.446 22.946C88.726 22.582 88.936 22.1807 89.076 21.742C89.2253 21.294 89.3 20.8367 89.3 20.37C89.3 19.9034 89.2253 19.446 89.076 18.998C88.936 18.55 88.726 18.1487 88.446 17.794C88.166 17.4394 87.8113 17.1547 87.382 16.94C86.9527 16.7254 86.4487 16.618 85.87 16.618ZM96.0526 25.69C95.4272 25.69 94.8859 25.5827 94.4286 25.368C93.9806 25.144 93.6072 24.85 93.3086 24.486C93.0192 24.1127 92.7999 23.6974 92.6506 23.24C92.5106 22.7827 92.4406 22.316 92.4406 21.84C92.4406 21.3734 92.5106 20.9114 92.6506 20.454C92.7906 19.9967 93.0052 19.5814 93.2946 19.208C93.5839 18.8347 93.9526 18.5407 94.4006 18.326C94.8486 18.102 95.3759 17.99 95.9826 17.99C96.6359 17.99 97.2099 18.1394 97.7046 18.438C98.2086 18.7274 98.6006 19.1614 98.8806 19.74C99.1699 20.3094 99.3146 21.0187 99.3146 21.868V22.302H94.0506C94.0879 22.8714 94.2792 23.3614 94.6246 23.772C94.9699 24.1827 95.4459 24.388 96.0526 24.388C96.3979 24.388 96.6826 24.332 96.9066 24.22C97.1306 24.0987 97.3032 23.9634 97.4246 23.814C97.5459 23.6647 97.6299 23.534 97.6766 23.422C97.7326 23.31 97.7606 23.254 97.7606 23.254H99.2446C99.2446 23.254 99.2212 23.338 99.1746 23.506C99.1279 23.6647 99.0392 23.8654 98.9086 24.108C98.7872 24.3507 98.6099 24.5934 98.3766 24.836C98.1432 25.0787 97.8352 25.284 97.4526 25.452C97.0699 25.6107 96.6032 25.69 96.0526 25.69ZM94.0646 21.182H97.7746C97.7372 20.5287 97.5412 20.048 97.1866 19.74C96.8412 19.432 96.4352 19.278 95.9686 19.278C95.4459 19.278 95.0119 19.4507 94.6666 19.796C94.3212 20.132 94.1206 20.594 94.0646 21.182ZM104.154 25.69C103.566 25.69 103.095 25.5827 102.74 25.368C102.386 25.1534 102.129 24.8687 101.97 24.514C101.821 24.15 101.746 23.758 101.746 23.338V19.418H100.444V18.13H101.746V16.282H103.342V18.13H105.078V19.418H103.342V23.31C103.342 24.01 103.73 24.36 104.504 24.36C104.7 24.36 104.882 24.346 105.05 24.318C105.218 24.29 105.302 24.276 105.302 24.276V25.578C105.302 25.578 105.186 25.5967 104.952 25.634C104.728 25.6714 104.462 25.69 104.154 25.69ZM109.923 17.99C110.39 17.99 110.777 18.0647 111.085 18.214C111.402 18.3634 111.654 18.536 111.841 18.732C112.028 18.928 112.163 19.096 112.247 19.236H112.331V18.13H113.927V25.55H112.331V24.444H112.247C112.163 24.584 112.028 24.752 111.841 24.948C111.654 25.144 111.402 25.3167 111.085 25.466C110.777 25.6154 110.39 25.69 109.923 25.69C109.363 25.69 108.873 25.5827 108.453 25.368C108.042 25.144 107.697 24.85 107.417 24.486C107.137 24.1127 106.927 23.6974 106.787 23.24C106.656 22.7827 106.591 22.316 106.591 21.84C106.591 21.364 106.656 20.8974 106.787 20.44C106.927 19.9827 107.137 19.572 107.417 19.208C107.697 18.8347 108.042 18.5407 108.453 18.326C108.873 18.102 109.363 17.99 109.923 17.99ZM110.273 19.32C109.816 19.32 109.433 19.446 109.125 19.698C108.817 19.9407 108.584 20.2534 108.425 20.636C108.276 21.0187 108.201 21.42 108.201 21.84C108.201 22.26 108.276 22.6614 108.425 23.044C108.584 23.4267 108.817 23.744 109.125 23.996C109.433 24.2387 109.816 24.36 110.273 24.36C110.73 24.36 111.108 24.2387 111.407 23.996C111.715 23.744 111.944 23.4267 112.093 23.044C112.252 22.6614 112.331 22.26 112.331 21.84C112.331 21.42 112.252 21.0187 112.093 20.636C111.944 20.2534 111.715 19.9407 111.407 19.698C111.108 19.446 110.73 19.32 110.273 19.32ZM116.789 16.856C116.5 16.856 116.262 16.758 116.075 16.562C115.888 16.366 115.795 16.1374 115.795 15.876C115.795 15.6054 115.888 15.3767 116.075 15.19C116.262 14.994 116.5 14.896 116.789 14.896C117.078 14.896 117.316 14.994 117.503 15.19C117.699 15.3767 117.797 15.6054 117.797 15.876C117.797 16.1467 117.699 16.38 117.503 16.576C117.316 16.7627 117.078 16.856 116.789 16.856ZM116.005 25.55V18.13H117.601V25.55H116.005ZM119.791 25.55L119.805 14.91H121.387V25.55H119.791ZM126.225 25.69C125.637 25.69 125.152 25.6107 124.769 25.452C124.396 25.284 124.097 25.0834 123.873 24.85C123.649 24.6074 123.481 24.3647 123.369 24.122C123.267 23.8794 123.201 23.6787 123.173 23.52C123.145 23.352 123.131 23.268 123.131 23.268H124.685C124.685 23.268 124.699 23.3287 124.727 23.45C124.765 23.562 124.835 23.6927 124.937 23.842C125.04 23.9914 125.199 24.1267 125.413 24.248C125.628 24.36 125.913 24.416 126.267 24.416C126.697 24.416 127.014 24.318 127.219 24.122C127.434 23.926 127.541 23.702 127.541 23.45C127.541 23.2074 127.453 23.016 127.275 22.876C127.098 22.736 126.846 22.6287 126.519 22.554L125.511 22.33C125.119 22.2367 124.751 22.1107 124.405 21.952C124.069 21.784 123.794 21.5647 123.579 21.294C123.374 21.014 123.271 20.6547 123.271 20.216C123.271 19.572 123.514 19.04 123.999 18.62C124.485 18.2 125.138 17.99 125.959 17.99C126.491 17.99 126.93 18.0647 127.275 18.214C127.63 18.3634 127.91 18.55 128.115 18.774C128.321 18.9887 128.475 19.208 128.577 19.432C128.68 19.6467 128.745 19.8287 128.773 19.978C128.811 20.118 128.829 20.188 128.829 20.188H127.331C127.331 20.188 127.317 20.1414 127.289 20.048C127.261 19.9547 127.201 19.8474 127.107 19.726C127.014 19.5954 126.874 19.4834 126.687 19.39C126.51 19.2874 126.267 19.236 125.959 19.236C125.539 19.236 125.236 19.3294 125.049 19.516C124.863 19.7027 124.769 19.9034 124.769 20.118C124.769 20.342 124.858 20.5194 125.035 20.65C125.222 20.7714 125.465 20.8647 125.763 20.93L126.757 21.154C127.42 21.3034 127.966 21.5507 128.395 21.896C128.825 22.232 129.039 22.722 129.039 23.366C129.039 23.7954 128.927 24.1874 128.703 24.542C128.489 24.8874 128.171 25.1674 127.751 25.382C127.331 25.5874 126.823 25.69 126.225 25.69Z" fill="white"/>
</svg>
