<svg width="24" height="24" viewBox="0 0 24 24" fill="none" xmlns="http://www.w3.org/2000/svg">
<path opacity="0.5" d="M15.9999 4.5C15.299 4.5 14.6267 4.77846 14.1311 5.27412C13.6354 5.76978 13.3569 6.44203 13.3569 7.143C13.3569 7.84397 13.6354 8.51622 14.1311 9.01188C14.6267 9.50754 15.299 9.786 15.9999 9.786C16.7009 9.786 17.3732 9.50754 17.8688 9.01188C18.3645 8.51622 18.6429 7.84397 18.6429 7.143C18.6429 6.44203 18.3645 5.76978 17.8688 5.27412C17.3732 4.77846 16.7009 4.5 15.9999 4.5ZM14.3569 7.143C14.3569 6.70725 14.53 6.28935 14.8382 5.98122C15.1463 5.6731 15.5642 5.5 15.9999 5.5C16.4357 5.5 16.8536 5.6731 17.1617 5.98122C17.4698 6.28935 17.6429 6.70725 17.6429 7.143C17.6429 7.57875 17.4698 7.99665 17.1617 8.30478C16.8536 8.6129 16.4357 8.786 15.9999 8.786C15.5642 8.786 15.1463 8.6129 14.8382 8.30478C14.53 7.99665 14.3569 7.57875 14.3569 7.143ZM18.1829 10.298C18.0253 10.2587 17.8608 10.2565 17.7022 10.2915C17.5436 10.3266 17.3953 10.3979 17.2689 10.5C16.9989 10.71 16.5209 11 15.9999 11C15.8673 11 15.7401 11.0527 15.6464 11.1464C15.5526 11.2402 15.4999 11.3674 15.4999 11.5C15.4999 11.6326 15.5526 11.7598 15.6464 11.8536C15.7401 11.9473 15.8673 12 15.9999 12C16.8579 12 17.5559 11.543 17.8829 11.29C17.895 11.2785 17.9098 11.2703 17.9259 11.266H17.9299C18.0639 11.3013 18.1969 11.3407 18.3289 11.384L19.0139 11.609C19.5399 11.782 19.9389 12.203 20.0799 12.723L20.3629 14.772C20.4189 15.175 20.2069 15.477 19.9029 15.549C19.6796 15.6037 19.4086 15.657 19.0899 15.709C19.0251 15.7195 18.9629 15.7427 18.907 15.7772C18.8511 15.8117 18.8025 15.857 18.7641 15.9103C18.7256 15.9636 18.698 16.0239 18.6829 16.0879C18.6678 16.1518 18.6654 16.2181 18.6759 16.283C18.6864 16.3479 18.7096 16.41 18.7442 16.466C18.7787 16.5219 18.8239 16.5704 18.8772 16.6089C18.9305 16.6473 18.9908 16.6749 19.0548 16.69C19.1188 16.7051 19.1851 16.7075 19.2499 16.697C19.5913 16.6403 19.8859 16.582 20.1339 16.522C21.0289 16.309 21.4669 15.452 21.3539 14.635L21.0629 12.529L21.0559 12.502C20.9464 12.0738 20.7304 11.6803 20.4279 11.3581C20.1254 11.0358 19.7463 10.7953 19.3259 10.659L18.6409 10.434C18.4897 10.3841 18.3369 10.3388 18.1829 10.298Z" fill="#3F4754"/>
<path d="M10 4.75C8.695 4.75 7.671 5.776 7.671 7C7.671 8.224 8.695 9.25 10 9.25C11.305 9.25 12.329 8.224 12.329 7C12.329 5.776 11.305 4.75 10 4.75ZM6.171 7C6.171 4.91 7.904 3.25 10 3.25C12.096 3.25 13.829 4.91 13.829 7C13.829 9.09 12.096 10.75 10 10.75C7.904 10.75 6.171 9.09 6.171 7ZM7.471 12.966C7.289 12.849 7.151 12.842 7.087 12.859C6.94366 12.899 6.801 12.9417 6.659 12.987L5.674 13.302C4.924 13.542 4.366 14.122 4.168 14.826L3.761 17.69C3.687 18.217 3.968 18.62 4.395 18.72C5.472 18.97 7.285 19.25 10 19.25C12.714 19.25 14.528 18.97 15.605 18.72C16.032 18.62 16.313 18.217 16.238 17.69L15.832 14.826C15.634 14.122 15.076 13.542 14.326 13.302L13.341 12.987C13.1992 12.9414 13.0565 12.8988 12.913 12.859C12.848 12.842 12.711 12.849 12.529 12.966C12.017 13.298 11.129 13.736 10 13.736C8.871 13.736 7.983 13.298 7.47 12.966M6.688 11.413C7.3 11.245 7.881 11.446 8.284 11.707C8.654 11.947 9.258 12.236 9.999 12.236C10.739 12.236 11.344 11.946 11.714 11.706C12.117 11.446 12.698 11.245 13.31 11.413C13.4733 11.4583 13.636 11.5067 13.798 11.558L14.782 11.874C16.015 12.268 16.97 13.247 17.292 14.487L17.303 14.527L17.723 17.479C17.89 18.659 17.237 19.88 15.943 20.18C14.745 20.458 12.817 20.75 9.999 20.75C7.181 20.75 5.253 20.458 4.054 20.18C2.76 19.88 2.108 18.66 2.275 17.479L2.695 14.528L2.705 14.487C3.028 13.247 3.983 12.268 5.215 11.874L6.2 11.558C6.362 11.5067 6.52466 11.4583 6.688 11.413Z" fill="#3F4754"/>
</svg>
